<svg xmlns="http://www.w3.org/2000/svg" width="20" height="20" viewBox="0 0 20 20">
    <g fill="none" fill-rule="evenodd">
        <path fill="transparent" d="M0 0h24v24H0z"/>
        <path fill="#FBFBFB" fill-rule="nonzero" d="M14.286 8.857V4.643c.125.08.232.16.321.25l3.643 3.643c.09.089.17.196.25.321h-4.214zm-1.143.286c0 .473.384.857.857.857h4.857v9.429a.857.857 0 0 1-.857.857H6a.857.857 0 0 1-.857-.857V5.143c0-.473.384-.857.857-.857h7.143v4.857zm-.357 3.928v-2.553a.239.239 0 0 0-.232-.232H11.16a.239.239 0 0 0-.232.232v2.553H8.375a.239.239 0 0 0-.232.233v1.392c0 .124.109.233.232.233h2.554v2.553c0 .123.108.232.232.232h1.393a.239.239 0 0 0 .232-.232V14.93h2.553a.239.239 0 0 0 .232-.233v-1.392a.239.239 0 0 0-.232-.233h-2.553z" opacity=".5"/>
    </g>
</svg>
