<svg xmlns="http://www.w3.org/2000/svg" xmlns:xlink="http://www.w3.org/1999/xlink" viewBox="0 0 92.93 92.93"><defs><style>.cls-1{isolation:isolate;}.cls-2{fill:#cd3a2b;}.cls-3{fill:#f4d131;}.cls-4{opacity:0.6;mix-blend-mode:multiply;fill:url(#radial-gradient);}.cls-5{opacity:0.7;fill:url(#radial-gradient-2);}</style><radialGradient id="radial-gradient" cx="46.47" cy="46.47" r="46.47" gradientUnits="userSpaceOnUse"><stop offset="0" stop-color="#fff" stop-opacity="0"/><stop offset="0.35" stop-color="#fbfbfb" stop-opacity="0.02"/><stop offset="0.53" stop-color="#eeedec" stop-opacity="0.11"/><stop offset="0.67" stop-color="#d8d6d2" stop-opacity="0.25"/><stop offset="0.79" stop-color="#b8b5ae" stop-opacity="0.44"/><stop offset="0.9" stop-color="#908b80" stop-opacity="0.7"/><stop offset="1" stop-color="#605949"/></radialGradient><radialGradient id="radial-gradient-2" cx="-233.53" cy="38.17" r="27.44" gradientTransform="translate(368 -19.72) scale(1.33 1.16)" gradientUnits="userSpaceOnUse"><stop offset="0" stop-color="#fff"/><stop offset="1" stop-color="#fff" stop-opacity="0"/></radialGradient></defs><title>Artboard 47</title><g class="cls-1"><g id="Layer_4" data-name="Layer 4"><path class="cls-2" d="M1.47,35.33A46.35,46.35,0,1,1,35.33,91.46,46.35,46.35,0,0,1,1.47,35.33"/><path class="cls-2" d="M2.8,30.89H90.13a46.36,46.36,0,0,0-87.32,0"/><path class="cls-3" d="M91.83,56l.06-.3.1-.52.06-.3.1-.54,0-.27q.06-.33.11-.67l0-.13q.06-.4.11-.8l0-.21c0-.2,0-.39.07-.59l0-.28c0-.18,0-.35.05-.53l0-.29c0-.18,0-.36,0-.53l0-.27q0-.31,0-.61V49q0-.4,0-.8V48q0-.33,0-.66c0-.08,0-.17,0-.25s0-.37,0-.55,0-.18,0-.28,0-.36,0-.54,0-.18,0-.26,0-.39,0-.59,0-.14,0-.2q0-.8-.09-1.59l0-.21q0-.29,0-.58l0-.25q0-.27-.06-.54l0-.25q0-.29-.07-.58l0-.2q-.1-.79-.23-1.57l0-.14q-.05-.32-.11-.63L92,38l-.11-.56,0-.22-.12-.58,0-.19-.16-.7v-.05l-.18-.73h0q-.53-2-1.23-4H2.8Q2,33.06,1.47,35.33A46.19,46.19,0,0,0,.68,53.74v.08q.05.33.11.65l0,.14.11.61,0,.18.12.57,0,.22.12.54.06.25.12.51.1.38.15.57.15.56.07.25.15.53.08.25.16.53.08.24.18.53.08.24.19.53,0,.12h0l.12.33h87l.11-.33h0c.1-.27.19-.55.28-.82l0-.08q.18-.54.35-1.08l0-.15c.1-.34.2-.68.3-1l.06-.22q.17-.61.32-1.23.1-.4.19-.8l.06-.26.12-.55"/><circle class="cls-4" cx="46.47" cy="46.47" r="46.47"/><ellipse class="cls-5" cx="47.28" cy="36.86" rx="36.53" ry="31.69"/></g></g></svg>