<svg xmlns="http://www.w3.org/2000/svg" xmlns:xlink="http://www.w3.org/1999/xlink" viewBox="0 0 92.93 92.93"><defs><style>.cls-1{isolation:isolate;}.cls-2{fill:#f9df5c;}.cls-3{fill:#474748;}.cls-4{fill:#cd3a2b;}.cls-5{fill:#43a656;}.cls-6{fill:#fff;}.cls-7{fill:#1f71b7;}.cls-8{opacity:0.6;mix-blend-mode:multiply;fill:url(#radial-gradient);}.cls-9{opacity:0.7;fill:url(#radial-gradient-2);}</style><radialGradient id="radial-gradient" cx="46.47" cy="46.47" r="46.47" gradientUnits="userSpaceOnUse"><stop offset="0" stop-color="#fff" stop-opacity="0"/><stop offset="0.35" stop-color="#fbfbfb" stop-opacity="0.02"/><stop offset="0.53" stop-color="#eeedec" stop-opacity="0.11"/><stop offset="0.67" stop-color="#d8d6d2" stop-opacity="0.25"/><stop offset="0.79" stop-color="#b8b5ae" stop-opacity="0.44"/><stop offset="0.9" stop-color="#908b80" stop-opacity="0.7"/><stop offset="1" stop-color="#605949"/></radialGradient><radialGradient id="radial-gradient-2" cx="-271.5" cy="8.31" r="27.44" gradientTransform="translate(418.56 14.77) scale(1.33 1.16)" gradientUnits="userSpaceOnUse"><stop offset="0" stop-color="#fff"/><stop offset="1" stop-color="#fff" stop-opacity="0"/></radialGradient></defs><title>Artboard 58</title><g class="cls-1"><g id="Layer_4" data-name="Layer 4"><polygon class="cls-2" points="43.81 46.24 49.12 46.24 49.32 46.47 49.12 46.69 43.81 46.69 43.61 46.47 43.81 46.24"/><polygon class="cls-3" points="43.81 46.24 43.81 46.32 49.08 46.32 49.21 46.47 49.08 46.61 43.84 46.61 43.72 46.47 43.87 46.29 43.81 46.24 43.81 46.32 43.81 46.24 43.75 46.19 43.55 46.41 43.49 46.47 43.75 46.74 43.77 46.77 49.12 46.77 49.15 46.77 49.38 46.52 49.44 46.47 49.18 46.19 49.15 46.16 43.81 46.16 43.77 46.16 43.75 46.19 43.81 46.24"/><polygon class="cls-2" points="43.93 46.23 49 46.23 49.2 46.46 49 46.7 43.93 46.7 43.73 46.46 43.93 46.23"/><polygon class="cls-3" points="43.93 46.23 43.93 46.32 48.96 46.32 49.08 46.46 48.96 46.61 43.97 46.61 43.84 46.46 43.99 46.28 43.93 46.23 43.93 46.32 43.93 46.23 43.87 46.18 43.67 46.41 43.63 46.46 43.87 46.75 43.89 46.78 49 46.78 49.04 46.78 49.26 46.51 49.3 46.46 49.06 46.18 49.04 46.15 43.93 46.15 43.89 46.15 43.87 46.18 43.93 46.23"/><polygon class="cls-2" points="47.08 45.38 47.17 47.55 45.76 47.54 45.85 45.38 47.08 45.38"/><polygon class="cls-3" points="46.99 45.38 47.09 47.47 45.84 47.46 45.94 45.46 47.08 45.46 47.08 45.3 45.85 45.3 45.77 45.3 45.68 47.54 45.68 47.62 47.17 47.63 47.25 47.63 47.16 45.38 46.99 45.38"/><polygon class="cls-2" points="45.59 46.06 45.97 46.06 45.97 46.34 46.26 46.34 46.26 46.06 46.66 46.06 46.66 46.34 46.95 46.34 46.95 46.06 47.35 46.06 47.35 46.71 47.18 46.88 45.76 46.88 45.59 46.71 45.58 46.06 45.59 46.06"/><polygon class="cls-3" points="45.59 46.05 45.59 46.14 45.89 46.14 45.89 46.34 45.89 46.42 46.26 46.42 46.34 46.42 46.34 46.14 46.58 46.14 46.58 46.34 46.58 46.42 46.95 46.42 47.03 46.42 47.03 46.14 47.27 46.14 47.27 46.68 47.15 46.79 45.76 46.79 45.67 46.68 45.66 46.05 45.58 46.05 45.58 46.14 45.59 46.14 45.59 46.05 45.59 45.97 45.58 45.97 45.5 45.97 45.51 46.71 45.51 46.74 45.71 46.94 45.73 46.96 47.18 46.96 47.4 46.77 47.43 46.74 47.43 46.05 47.43 45.97 46.95 45.97 46.87 45.97 46.87 46.26 46.75 46.26 46.75 46.05 46.75 45.97 46.26 45.97 46.17 45.97 46.17 46.26 46.05 46.26 46.05 46.05 46.05 45.97 45.59 45.97 45.59 46.05"/><rect class="cls-3" x="46.32" y="46.21" width="0.29" height="0.5"/><polygon class="cls-2" points="45.58 46.06 45.97 46.06 45.97 46.34 46.26 46.34 46.26 46.06 46.66 46.06 46.66 46.34 46.95 46.34 46.95 46.06 47.35 46.06 47.35 46.71 47.18 46.88 45.76 46.88 45.58 46.71 45.58 46.06"/><polygon class="cls-3" points="45.58 46.05 45.58 46.14 45.89 46.14 45.89 46.34 45.89 46.42 46.26 46.42 46.34 46.42 46.34 46.14 46.58 46.14 46.58 46.34 46.58 46.42 46.95 46.42 47.03 46.42 47.03 46.14 47.27 46.14 47.27 46.68 47.15 46.79 45.76 46.79 45.66 46.68 45.66 46.05 45.58 46.05 45.58 46.14 45.58 46.05 45.5 46.05 45.5 46.71 45.5 46.74 45.71 46.94 47.18 46.96 47.4 46.77 47.43 46.74 47.43 46.05 47.43 45.97 46.95 45.97 46.87 45.97 46.87 46.26 46.75 46.26 46.75 46.05 46.75 45.97 46.26 45.97 46.17 45.97 46.17 46.26 46.05 46.26 46.05 46.05 46.05 45.97 45.58 45.97 45.5 45.97 45.5 46.05 45.58 46.05"/><polygon class="cls-2" points="47.09 45.89 47.14 47.04 45.79 47.04 45.84 45.89 47.09 45.89"/><polygon class="cls-3" points="47.01 45.89 47.05 46.96 45.88 46.96 45.92 45.97 47.1 45.97 47.1 45.81 45.84 45.81 45.75 45.81 45.71 47.04 45.71 47.12 47.14 47.12 47.22 47.12 47.18 45.89 47.01 45.89"/><polygon class="cls-2" points="45.58 46.06 45.97 46.06 45.97 46.34 46.26 46.34 46.26 46.06 46.66 46.06 46.66 46.34 46.95 46.34 46.95 46.06 47.35 46.06 47.35 46.71 47.18 46.88 45.76 46.88 45.58 46.71 45.58 46.06"/><polygon class="cls-3" points="45.58 46.05 45.58 46.14 45.89 46.14 45.89 46.34 45.89 46.42 46.26 46.42 46.34 46.42 46.34 46.14 46.58 46.14 46.58 46.34 46.58 46.42 46.95 46.42 47.03 46.42 47.03 46.14 47.27 46.14 47.27 46.68 47.15 46.79 45.76 46.79 45.66 46.68 45.66 46.05 45.58 46.05 45.58 46.14 45.58 46.05 45.5 46.05 45.5 46.71 45.5 46.74 45.71 46.94 47.18 46.96 47.4 46.77 47.43 46.74 47.43 46.05 47.43 45.97 46.95 45.97 46.87 45.97 46.87 46.26 46.75 46.26 46.75 46.05 46.75 45.97 46.26 45.97 46.17 45.97 46.17 46.26 46.05 46.26 46.05 46.05 46.05 45.97 45.58 45.97 45.5 45.97 45.5 46.05 45.58 46.05"/><polygon class="cls-2" points="47.09 45.89 47.14 47.04 45.79 47.04 45.84 45.89 47.09 45.89"/><polygon class="cls-3" points="47.01 45.89 47.05 46.96 45.88 46.96 45.92 45.97 47.09 45.97 47.09 45.81 45.84 45.81 45.75 45.81 45.71 47.04 45.71 47.12 47.14 47.12 47.22 47.12 47.18 45.89 47.01 45.89"/><rect class="cls-3" x="46.32" y="46.31" width="0.29" height="0.31"/><rect class="cls-3" x="46.33" y="46.31" width="0.28" height="0.31"/><polygon class="cls-2" points="43.82 46.24 49.11 46.24 49.32 46.47 49.11 46.69 43.82 46.69 43.61 46.47 43.82 46.24"/><polygon class="cls-3" points="43.82 46.24 43.82 46.32 49.07 46.32 49.21 46.47 49.07 46.61 43.85 46.61 43.73 46.47 43.88 46.29 43.82 46.24 43.82 46.32 43.82 46.24 43.76 46.19 43.55 46.41 43.5 46.47 43.76 46.74 43.78 46.77 49.11 46.77 49.15 46.77 49.38 46.52 49.43 46.47 49.18 46.19 49.14 46.16 43.82 46.16 43.78 46.16 43.76 46.19 43.82 46.24"/><polygon class="cls-2" points="43.92 46.23 49.01 46.23 49.19 46.46 49.01 46.7 43.92 46.7 43.74 46.46 43.92 46.23"/><polygon class="cls-3" points="43.92 46.23 43.92 46.32 48.97 46.32 49.09 46.46 48.97 46.61 43.97 46.61 43.84 46.46 43.99 46.28 43.92 46.23 43.92 46.32 43.92 46.23 43.86 46.18 43.68 46.41 43.64 46.46 43.86 46.75 43.88 46.78 49.01 46.78 49.05 46.78 49.25 46.51 49.29 46.46 49.07 46.18 49.05 46.15 43.92 46.15 43.88 46.15 43.86 46.18 43.92 46.23"/><polygon class="cls-2" points="47.08 45.38 47.17 47.55 45.76 47.54 45.86 45.38 47.08 45.38"/><polygon class="cls-3" points="47 45.38 47.09 47.47 45.84 47.46 45.95 45.46 47.08 45.46 47.08 45.3 45.87 45.3 45.78 45.3 45.68 47.54 45.67 47.62 47.18 47.63 47.26 47.63 47.17 45.38 47 45.38"/><polygon class="cls-2" points="45.58 46.05 45.97 46.05 45.97 46.34 46.26 46.34 46.26 46.05 46.65 46.05 46.65 46.34 46.95 46.34 46.95 46.05 47.35 46.05 47.35 46.71 47.17 46.88 45.76 46.88 45.58 46.71 45.58 46.05"/><polygon class="cls-3" points="45.58 46.06 45.58 46.14 45.89 46.14 45.89 46.34 45.89 46.42 46.26 46.42 46.34 46.42 46.34 46.14 46.57 46.14 46.57 46.34 46.57 46.42 46.95 46.42 47.03 46.42 47.03 46.14 47.27 46.14 47.27 46.68 47.14 46.79 45.76 46.79 45.67 46.68 45.67 46.06 45.58 46.06 45.58 46.14 45.58 46.06 45.5 46.06 45.5 46.71 45.5 46.74 45.7 46.94 45.73 46.96 47.17 46.96 47.4 46.77 47.43 46.74 47.43 46.06 47.43 45.97 46.95 45.97 46.87 45.97 46.87 46.26 46.73 46.26 46.73 46.06 46.73 45.97 46.26 45.97 46.18 45.97 46.18 46.26 46.06 46.26 46.06 46.06 46.06 45.97 45.58 45.97 45.5 45.97 45.5 46.06 45.58 46.06"/><rect class="cls-3" x="46.32" y="46.21" width="0.29" height="0.5"/><polygon class="cls-2" points="45.58 46.05 45.98 46.05 45.98 46.34 46.27 46.34 46.27 46.05 46.66 46.05 46.66 46.34 46.94 46.34 46.94 46.05 47.35 46.05 47.35 46.71 47.18 46.88 45.76 46.88 45.58 46.71 45.58 46.05"/><polygon class="cls-3" points="45.58 46.05 45.58 46.14 45.9 46.14 45.9 46.34 45.9 46.42 46.27 46.42 46.35 46.42 46.35 46.14 46.57 46.14 46.57 46.34 46.57 46.42 46.94 46.42 47.02 46.42 47.02 46.14 47.27 46.14 47.27 46.68 47.15 46.79 45.76 46.79 45.66 46.68 45.66 46.05 45.58 46.05 45.58 46.14 45.58 46.05 45.5 46.05 45.5 46.71 45.5 46.74 45.71 46.94 47.18 46.96 47.4 46.77 47.43 46.74 47.43 46.05 47.43 45.97 46.94 45.97 46.86 45.97 46.86 46.26 46.74 46.26 46.74 46.05 46.74 45.97 46.27 45.97 46.18 45.97 46.18 46.26 46.06 46.26 46.06 46.05 46.06 45.97 45.58 45.97 45.5 45.97 45.5 46.05 45.58 46.05"/><polygon class="cls-2" points="47.1 45.89 47.14 47.04 45.79 47.04 45.83 45.89 47.1 45.89"/><polygon class="cls-3" points="47.02 45.89 47.05 46.96 45.88 46.96 45.92 45.97 47.11 45.97 47.11 45.81 45.84 45.81 45.75 45.81 45.71 47.04 45.71 47.12 47.14 47.12 47.22 47.12 47.19 45.89 47.02 45.89"/><polygon class="cls-2" points="45.58 46.05 45.97 46.05 45.97 46.34 46.27 46.34 46.27 46.05 46.65 46.05 46.65 46.34 46.94 46.34 46.94 46.05 47.35 46.05 47.35 46.71 47.18 46.88 45.76 46.88 45.58 46.71 45.58 46.05"/><polygon class="cls-3" points="45.58 46.05 45.58 46.14 45.89 46.14 45.89 46.34 45.89 46.42 46.27 46.42 46.35 46.42 46.35 46.14 46.57 46.14 46.57 46.34 46.57 46.42 46.94 46.42 47.02 46.42 47.02 46.14 47.27 46.14 47.27 46.68 47.15 46.79 45.76 46.79 45.66 46.68 45.66 46.05 45.58 46.05 45.58 46.14 45.58 46.05 45.5 46.05 45.5 46.71 45.5 46.74 45.71 46.94 47.18 46.96 47.4 46.77 47.43 46.74 47.43 46.05 47.43 45.97 46.94 45.97 46.86 45.97 46.86 46.26 46.74 46.26 46.74 46.05 46.74 45.97 46.27 45.97 46.18 45.97 46.18 46.26 46.05 46.26 46.05 46.05 46.05 45.97 45.58 45.97 45.5 45.97 45.5 46.05 45.58 46.05"/><polygon class="cls-2" points="47.09 45.89 47.14 47.04 45.79 47.04 45.84 45.89 47.09 45.89"/><polygon class="cls-3" points="47.01 45.89 47.05 46.96 45.88 46.96 45.92 45.97 47.09 45.97 47.09 45.81 45.84 45.81 45.75 45.81 45.71 47.04 45.71 47.12 47.14 47.12 47.22 47.12 47.18 45.89 47.01 45.89"/><rect class="cls-3" x="46.32" y="46.31" width="0.29" height="0.31"/><rect class="cls-3" x="46.33" y="46.31" width="0.28" height="0.31"/><polygon class="cls-2" points="43.82 46.24 49.11 46.24 49.32 46.47 49.11 46.69 43.82 46.69 43.61 46.47 43.82 46.24"/><polygon class="cls-3" points="43.82 46.24 43.82 46.32 49.07 46.32 49.21 46.47 49.07 46.61 43.85 46.61 43.72 46.47 43.88 46.29 43.82 46.24 43.82 46.32 43.82 46.24 43.76 46.19 43.55 46.41 43.5 46.47 43.76 46.74 43.78 46.77 49.11 46.77 49.15 46.77 49.38 46.52 49.43 46.47 49.17 46.19 49.14 46.16 43.82 46.16 43.78 46.16 43.76 46.19 43.82 46.24"/><polygon class="cls-2" points="43.93 46.23 49 46.23 49.2 46.46 49 46.7 43.93 46.7 43.73 46.46 43.93 46.23"/><polygon class="cls-3" points="43.93 46.23 43.93 46.32 48.97 46.32 49.1 46.46 48.97 46.61 43.98 46.61 43.84 46.46 44 46.28 43.93 46.23 43.93 46.32 43.93 46.23 43.87 46.18 43.68 46.41 43.63 46.46 43.87 46.75 43.89 46.78 49.01 46.78 49.05 46.78 49.26 46.51 49.3 46.46 49.07 46.18 49.05 46.15 43.93 46.15 43.89 46.15 43.87 46.18 43.93 46.23"/><polygon class="cls-2" points="47.09 45.38 47.17 47.55 45.76 47.54 45.86 45.38 47.09 45.38"/><polygon class="cls-3" points="47.01 45.38 47.09 47.47 45.85 47.46 45.95 45.46 47.09 45.46 47.09 45.3 45.87 45.3 45.78 45.3 45.68 47.54 45.67 47.62 47.18 47.63 47.26 47.63 47.18 45.38 47.01 45.38"/><polygon class="cls-2" points="45.58 46.06 45.97 46.06 45.97 46.34 46.26 46.34 46.26 46.06 46.66 46.06 46.66 46.34 46.95 46.34 46.95 46.06 47.35 46.06 47.35 46.71 47.17 46.88 45.77 46.88 45.58 46.71 45.58 46.06"/><polygon class="cls-3" points="45.58 46.05 45.58 46.14 45.89 46.14 45.89 46.34 45.89 46.42 46.26 46.42 46.34 46.42 46.34 46.14 46.58 46.14 46.58 46.34 46.58 46.42 46.95 46.42 47.03 46.42 47.03 46.14 47.26 46.14 47.26 46.68 47.14 46.79 45.77 46.79 45.67 46.68 45.67 46.05 45.58 46.05 45.58 46.14 45.58 46.05 45.5 46.05 45.5 46.71 45.5 46.74 45.72 46.94 47.17 46.96 47.2 46.96 47.4 46.77 47.43 46.74 47.43 46.05 47.43 45.97 46.95 45.97 46.87 45.97 46.87 46.26 46.74 46.26 46.74 46.05 46.74 45.97 46.26 45.97 46.18 45.97 46.18 46.26 46.05 46.26 46.05 46.05 46.05 45.97 45.58 45.97 45.5 45.97 45.5 46.05 45.58 46.05"/><rect class="cls-3" x="46.33" y="46.21" width="0.28" height="0.5"/><polygon class="cls-2" points="45.58 46.06 45.98 46.06 45.98 46.34 46.27 46.34 46.27 46.06 46.67 46.06 46.67 46.34 46.95 46.34 46.95 46.06 47.35 46.06 47.35 46.71 47.18 46.88 45.76 46.88 45.58 46.71 45.58 46.06"/><polygon class="cls-3" points="45.58 46.05 45.58 46.14 45.9 46.14 45.9 46.34 45.9 46.42 46.27 46.42 46.35 46.42 46.35 46.14 46.58 46.14 46.58 46.34 46.58 46.42 46.95 46.42 47.03 46.42 47.03 46.14 47.27 46.14 47.27 46.68 47.15 46.79 45.76 46.79 45.66 46.68 45.66 46.05 45.58 46.05 45.58 46.14 45.58 46.05 45.5 46.05 45.5 46.71 45.5 46.74 45.71 46.94 47.18 46.96 47.21 46.96 47.4 46.77 47.43 46.74 47.43 46.05 47.43 45.97 46.95 45.97 46.87 45.97 46.87 46.26 46.75 46.26 46.75 46.05 46.75 45.97 46.27 45.97 46.18 45.97 46.18 46.26 46.06 46.26 46.06 46.05 46.06 45.97 45.58 45.97 45.5 45.97 45.5 46.05 45.58 46.05"/><polygon class="cls-2" points="47.09 45.89 47.14 47.04 45.79 47.04 45.83 45.89 47.09 45.89"/><polygon class="cls-3" points="47.01 45.89 47.06 46.96 45.87 46.96 45.91 45.97 47.09 45.97 47.09 45.81 45.83 45.81 45.75 45.81 45.71 47.04 45.71 47.12 47.14 47.12 47.22 47.12 47.17 45.89 47.01 45.89"/><polygon class="cls-2" points="45.58 46.06 45.97 46.06 45.97 46.34 46.26 46.34 46.26 46.06 46.66 46.06 46.66 46.34 46.95 46.34 46.95 46.06 47.35 46.06 47.35 46.71 47.17 46.88 45.76 46.88 45.58 46.71 45.58 46.06"/><polygon class="cls-3" points="45.58 46.05 45.58 46.14 45.89 46.14 45.89 46.34 45.89 46.42 46.26 46.42 46.34 46.42 46.34 46.14 46.58 46.14 46.58 46.34 46.58 46.42 46.95 46.42 47.03 46.42 47.03 46.14 47.26 46.14 47.26 46.68 47.14 46.79 45.79 46.79 45.67 46.68 45.67 46.05 45.58 46.05 45.58 46.14 45.58 46.05 45.5 46.05 45.5 46.71 45.5 46.74 45.7 46.94 45.73 46.96 47.17 46.96 47.2 46.96 47.4 46.77 47.43 46.74 47.43 46.05 47.43 45.97 46.95 45.97 46.87 45.97 46.87 46.26 46.74 46.26 46.74 46.05 46.74 45.97 46.26 45.97 46.18 45.97 46.18 46.26 46.05 46.26 46.05 46.05 46.05 45.97 45.58 45.97 45.5 45.97 45.5 46.05 45.58 46.05"/><polygon class="cls-2" points="47.09 45.89 47.14 47.04 45.79 47.04 45.83 45.89 47.09 45.89"/><polygon class="cls-3" points="47.01 45.89 47.06 46.96 45.87 46.96 45.91 45.97 47.09 45.97 47.09 45.81 45.83 45.81 45.75 45.81 45.71 47.04 45.71 47.12 47.14 47.12 47.22 47.12 47.17 45.89 47.01 45.89"/><rect class="cls-3" x="46.32" y="46.31" width="0.29" height="0.31"/><rect class="cls-3" x="46.32" y="46.31" width="0.29" height="0.31"/><path class="cls-4" d="M57.53,1.47A46.3,46.3,0,0,0,42.58.26V92.67A46.35,46.35,0,0,0,57.53,1.47"/><path class="cls-5" d="M42.8.22a46.38,46.38,0,0,0-7.4,91.24,47.82,47.82,0,0,0,7.45,1.08Z"/><path class="cls-2" d="M68.65,68.21c-10-.31-55.94-29-56.25-33.53l2.53-4.23C19.48,37.06,66.44,64.94,71,64Z"/><path class="cls-3" d="M68.65,68.13c-9.94-.27-55.94-29-56.17-33.46h-.08l.07,0L15,30.49l-.07,0-.07.05C19.39,37,64.73,64,70.77,64.06l.29,0V64l-.07,0-2.4,4.25.14.08L71.12,64l.08-.15-.16,0-.27,0c-5.86,0-51.36-27-55.77-33.5l-.08-.1-2.59,4.34v0c.4,4.69,46.23,33.26,56.34,33.61Z"/><path class="cls-2" d="M68.88,68.33l-1.09.27c-3.74-.42-15.11-6-28.56-14-15.64-9.37-28.57-17.9-27.18-20.13l.39-.68.07,0C11.26,37.6,38,52.89,39.6,53.87c15.48,9.6,28.54,15.19,29.7,13.74l-.42.73ZM14.39,29.87c-.89,2.42,12,10.38,27.49,19.8S70.75,64.93,71.73,64.1l.45-.84-1.34.16C66.65,62.21,55.74,57.2,42.21,49S16.91,33.24,15.09,30l-.2-.94h0l-.39.68Z"/><path class="cls-3" d="M68.88,68.33l0-.08-1.09.27c-3.67-.41-15.06-5.94-28.5-14C24.41,45.64,12,37.42,12,34.84l.09-.34.36-.63h0l0-.08-.08,0,0,.31C12.45,38.42,38,53,39.56,53.95c13.85,8.58,25.74,14,29,14l.82-.26-.06-.05-.07,0-.42.73.07,0H69v-.1l-.1,0,0,.08H68.8v.31l.57-1-.13-.09-.7.19c-3.14,0-15.07-5.37-28.9-14-1.53-.93-27.15-15.64-27.09-19.72l0-.25,0-.08-.15-.05H12.4l-.42.73-.11.42c.05,2.83,12.45,10.89,27.32,19.82,13.46,8.05,24.81,13.58,28.59,14l1.12-.27,0-.08h0ZM14.39,29.87l-.07,0-.05.29c.05,2.81,12.57,10.47,27.57,19.62C56.36,58.59,69,64.24,71.39,64.25l.39-.09.47-.86.07-.14-1.5.18c-4.14-1.2-15-6.21-28.58-14.42S16.94,33.16,15.16,30L15,29.07l0-.06h-.15l-.41.72-.06.1.07,0,.07,0,.06-.1.39-.68-.07,0v.08h0v-.08l-.08,0,.21.94c1.87,3.27,13.63,10.8,27.16,19S66.61,62.29,70.82,63.51L72,63.36l-.38.7-.27,0c-2.28,0-15-5.66-29.47-14.5-15-9.09-27.54-16.91-27.49-19.48l0-.23Z"/><path class="cls-2" d="M42.22,70.14c12.09.06,22.63-1.71,27.46-4.21l1.75-3.07c-4.19,2.28-15.56,4.66-29.19,4.3-11.11-.07-23-1.23-28.64-4.45l2.57,3.57c4.62,2.56,15.66,3.85,26.05,3.86"/><path class="cls-3" d="M42.22,70.23h.6c11.84,0,22.12-1.75,26.89-4.22l1.78-3.1.13-.25-.25.13c-3.87,2.12-14,4.33-26.4,4.32l-2.75,0c-11.09-.07-22.95-1.23-28.6-4.44l-.1.12,2.57,3.57c4.67,2.59,15.72,3.88,26.11,3.89v-.16c-10.38,0-21.42-1.3-26-3.85l-2.55-3.55-.06.05,0,.07c5.72,3.23,17.57,4.38,28.69,4.46l2.75,0c12.41,0,22.55-2.2,26.48-4.34l0-.07-.07,0L69.6,65.89c-4.68,2.41-15,4.17-26.78,4.17h-.6Z"/><path class="cls-2" d="M42.38,70.42A109.21,109.21,0,0,1,24,69.06a28.32,28.32,0,0,1-7.83-2.53l-.68-1c1.3.84,3.88,1.92,8.62,2.83a106.85,106.85,0,0,0,18.29,1.36,113.73,113.73,0,0,0,17.87-1.28c4.31-.78,9.2-2.15,10.49-3.62L70,66c-1.45,1.1-5.41,2.33-9.41,3.11a106.65,106.65,0,0,1-18.18,1.28m0-2.82c-7.68-.05-13.79-.34-19.16-1.33A36.35,36.35,0,0,1,13,62.75l-.32-.69c.94.71,5.18,2.45,10.66,3.48a107.48,107.48,0,0,0,19,1.31,104.67,104.67,0,0,0,18.76-1.31c5.22-1,9.29-2.2,10.93-3.29l-.52.93c-.67.76-5.37,2.14-10.31,3.07A109.63,109.63,0,0,1,42.38,67.6"/><path class="cls-3" d="M42.38,70.34A109.11,109.11,0,0,1,24,69a28.09,28.09,0,0,1-7.8-2.52l-.64-1-.07,0,0,.07c1.31.84,3.9,1.93,8.64,2.84a107.22,107.22,0,0,0,18.31,1.36,113.81,113.81,0,0,0,17.88-1.28c4.32-.79,9.21-2.14,10.54-3.65l-.06-.05-.07,0L69.91,66c-1.4,1.06-5.36,2.29-9.36,3.07a105.26,105.26,0,0,1-17.9,1.28h-.27v.16h.27a105.87,105.87,0,0,0,17.93-1.28c4-.8,8-2,9.46-3.13l.78-1.25-.13-.09c-1.25,1.42-6.14,2.82-10.44,3.59a113.54,113.54,0,0,1-17.86,1.28A106.69,106.69,0,0,1,24.1,68.25c-4.72-.91-7.29-2-8.58-2.82l-.11.11.68,1A28,28,0,0,0,24,69.14,109.55,109.55,0,0,0,42.38,70.5Zm0-2.74v-.08c-7.68-.05-13.78-.34-19.15-1.33A36.16,36.16,0,0,1,13,62.67L12.76,62l-.07,0-.05.06c1,.73,5.2,2.46,10.7,3.5a106.07,106.07,0,0,0,18.48,1.31h.87a104.39,104.39,0,0,0,18.45-1.31c5.23-1,9.3-2.2,11-3.3l0-.07-.07,0-.52.93c-.59.7-5.33,2.11-10.25,3a108.59,108.59,0,0,1-18.57,1.34h-.27v.16h.27a108.85,108.85,0,0,0,18.59-1.34c5-.94,9.63-2.31,10.36-3.1l.53-.94L72,62.18c-1.62,1.08-5.69,2.27-10.9,3.28a104,104,0,0,1-18.43,1.31h-.87a105.61,105.61,0,0,1-18.45-1.31c-5.46-1-9.71-2.78-10.62-3.46l-.12.09.32.69a35.6,35.6,0,0,0,10.28,3.57c5.37,1,11.48,1.28,19.17,1.33Z"/><path class="cls-2" d="M42.6,54.35c11.18-.09,25.07-1.57,33-4.8V46.71c-4.69,2.64-20.37,4.39-33.09,4.65-15.06-.14-27.29-2.19-32.62-5.84L9.8,49.17C19.6,53.4,29.7,54.29,42.6,54.35"/><path class="cls-3" d="M42.6,54.43c11.19-.09,25.08-1.57,33-4.82l.05,0v-3l-.12.07c-4.65,2.62-20.34,4.39-33,4.64-15-.14-27.28-2.19-32.58-5.83l-.12-.08-.08,3.8v.05l.05,0c9.8,4.24,19.93,5.13,32.82,5.18v-.16c-12.9-.05-23-.94-32.76-5.16l0,.07h.08L10,45.52H9.88l-.05.07c5.37,3.66,17.6,5.71,32.67,5.85,12.73-.26,28.4-2,33.13-4.66l0-.07h-.08v2.83h.08l0-.07c-7.91,3.23-21.8,4.7-33,4.79Z"/><path class="cls-2" d="M76,49.61c-.28.45-5.46,2.26-13.08,3.62a131.92,131.92,0,0,1-20.33,1.51,140.44,140.44,0,0,1-19.47-1.26,56,56,0,0,1-13.67-3.7V49a60.17,60.17,0,0,0,13.79,3.64,136.81,136.81,0,0,0,19.32,1.26,132.31,132.31,0,0,0,20.19-1.53c7.82-1.28,12.64-3,13.25-3.72Z"/><path class="cls-3" d="M76,49.61l-.07,0c-.19.38-5.43,2.24-13,3.58a131.81,131.81,0,0,1-20.32,1.51h-.2A140.66,140.66,0,0,1,23.1,53.39,56.11,56.11,0,0,1,9.45,49.7l0,.07h.08V49H9.42l0,.07A59.91,59.91,0,0,0,23.2,52.71,136.24,136.24,0,0,0,42.13,54h.4a132.44,132.44,0,0,0,20.2-1.53c7.84-1.29,12.63-2.93,13.3-3.75L76,48.64h-.08v1H76l-.07,0,.07,0h.08V48.4l-.14.18c-.54.72-5.4,2.42-13.2,3.69A132.12,132.12,0,0,1,42.53,53.8h-.4a136.1,136.1,0,0,1-18.91-1.26A60.56,60.56,0,0,1,9.45,48.92l-.11-.05v1l.05,0a56,56,0,0,0,13.69,3.71,141.25,141.25,0,0,0,19.28,1.26h.2A131.83,131.83,0,0,0,62.9,53.31c7.64-1.37,12.79-3.13,13.14-3.66v0Z"/><path class="cls-2" d="M76,46.73c-.85.7-6.59,2.22-14,3.44a132.16,132.16,0,0,1-19.32,1.37A126,126,0,0,1,24,50.33,55.36,55.36,0,0,1,9.42,45.94V44.83a53.75,53.75,0,0,0,14.65,4.68,131.32,131.32,0,0,0,18.58,1.18A129.47,129.47,0,0,0,61.82,49.3c7.47-1,13.54-3,14.15-3.48Zm0,2.88c-.28.44-5.46,2.26-13.08,3.62a131.92,131.92,0,0,1-20.33,1.51,140.44,140.44,0,0,1-19.47-1.26,56,56,0,0,1-13.67-3.7V49a60.31,60.31,0,0,0,13.79,3.64,136.81,136.81,0,0,0,19.32,1.26,132.31,132.31,0,0,0,20.19-1.53c7.82-1.28,12.64-3,13.25-3.72Z"/><path class="cls-3" d="M76,46.73l-.05-.06c-.8.67-6.57,2.21-14,3.42a132,132,0,0,1-19.31,1.37h-.43A124.64,124.64,0,0,1,24,50.25,55.86,55.86,0,0,1,9.45,45.86l0,.07h.08V44.83H9.41l0,.07a53.68,53.68,0,0,0,14.68,4.69,131.69,131.69,0,0,0,18.37,1.18h.23a129.7,129.7,0,0,0,19.19-1.39c7.49-1.05,13.53-3,14.19-3.5L76,45.81h-.08v.92H76l-.05-.06.05.06h.08v-1.1l-.13.11c-.55.45-6.66,2.43-14.11,3.46a129.47,129.47,0,0,1-19.17,1.39h-.23a131.29,131.29,0,0,1-18.35-1.18A53.91,53.91,0,0,1,9.45,44.76l-.12-.06V46l0,0A55.43,55.43,0,0,0,24,50.41a125.11,125.11,0,0,0,18.25,1.22h.43A132.37,132.37,0,0,0,62,50.26C69.41,49,75.12,47.52,76,46.8l0,0v0Zm0,2.88-.07,0c-.19.37-5.43,2.24-13,3.58a131.81,131.81,0,0,1-20.32,1.51h-.2A140.66,140.66,0,0,1,23.1,53.39,56.11,56.11,0,0,1,9.45,49.7l0,.07h.08V49H9.42l0,.07A60.06,60.06,0,0,0,23.2,52.71,136.24,136.24,0,0,0,42.13,54h.4a132.44,132.44,0,0,0,20.2-1.53c7.84-1.29,12.63-2.93,13.3-3.75L76,48.64h-.08v1H76l-.07,0,.07,0h.08V48.4l-.14.18c-.54.72-5.4,2.42-13.2,3.69A132.12,132.12,0,0,1,42.53,53.8h-.4a136.1,136.1,0,0,1-18.91-1.26A60.7,60.7,0,0,1,9.45,48.92l-.11-.05v1l.05,0a56,56,0,0,0,13.69,3.71,141.25,141.25,0,0,0,19.28,1.26h.2A131.83,131.83,0,0,0,62.9,53.31c7.64-1.37,12.79-3.14,13.14-3.66v0Z"/><path class="cls-2" d="M42.77,37.43c10-.07,22.39-1.36,29.5-4.2l-1.53-2.49c-4.21,2.33-16.65,3.86-28.06,4.09-13.5-.12-23.05-1.38-27.83-4.59l-1.44,2.65c8.78,3.72,17.77,4.51,29.35,4.54"/><path class="cls-3" d="M42.77,37.51c10-.07,22.4-1.36,29.54-4.21l.09,0L70.82,30.7l0-.07-.07,0c-4.17,2.31-16.62,3.85-28,4.08-13.49-.12-23-1.38-27.78-4.58l-.07,0-1.49,2.72,0,.08.08,0c8.79,3.73,17.81,4.52,29.38,4.55v-.16c-11.58,0-20.55-.82-29.32-4.53l0,.07.07,0,1.44-2.65-.07,0-.05.07c4.82,3.22,14.36,4.48,27.88,4.6,11.42-.23,23.85-1.76,28.1-4.1l0-.07-.07,0,1.53,2.49.07,0,0-.07C65.15,36,52.78,37.28,42.77,37.35Z"/><path class="cls-2" d="M71.35,30.76c-.77.6-4.55,2-11.22,3A118.33,118.33,0,0,1,42.81,35a116,116,0,0,1-16.74-1.08A46.38,46.38,0,0,1,14.4,31l.4-.67c1,.5,4.49,1.92,11.34,2.89a121.59,121.59,0,0,0,16.67,1A117.42,117.42,0,0,0,60,33c6.7-.91,10.31-2.62,10.86-3.06Zm1.33,2.53c-.24.39-4.88,2-11.72,3.18a121.58,121.58,0,0,1-18.24,1.31,128.06,128.06,0,0,1-17.46-1.11A51,51,0,0,1,13,33.44l.33-.7a53.15,53.15,0,0,0,12,3.2A129.69,129.69,0,0,0,42.71,37a121.84,121.84,0,0,0,18.11-1.35c7-1.13,10.84-2.58,11.37-3.26Z"/><path class="cls-3" d="M71.3,30.7c-.73.57-4.52,1.95-11.18,3a118.14,118.14,0,0,1-17.31,1.22h-.23a115.8,115.8,0,0,1-16.5-1.08A45.8,45.8,0,0,1,14.43,30.9l0,.08.07,0,.4-.67-.07,0,0,.07c1,.51,4.51,1.93,11.37,2.9a121.71,121.71,0,0,0,16.68,1A117.63,117.63,0,0,0,60,33.09c6.71-.92,10.32-2.62,10.9-3.08l-.05-.06-.07,0,.49.82.14-.08-.49-.82-.05-.08-.07.06c-.52.42-4.13,2.13-10.82,3a117.14,117.14,0,0,1-17.18,1.23,121.54,121.54,0,0,1-16.66-1c-6.84-1-10.32-2.39-11.32-2.88l-.06,0-.44.73-.05.08.09,0a46.37,46.37,0,0,0,11.69,3,116.33,116.33,0,0,0,16.52,1.07h.23a118.45,118.45,0,0,0,17.33-1.22c6.68-1.07,10.45-2.41,11.26-3Zm1.38,2.59-.07,0c-.15.32-4.85,2-11.66,3.13A121.43,121.43,0,0,1,42.73,37.7h-.22a128.09,128.09,0,0,1-17.23-1.11A51.05,51.05,0,0,1,13,33.36l0,.07.07,0,.33-.7-.07,0,0,.07a52.81,52.81,0,0,0,12,3.21,129.8,129.8,0,0,0,17.34,1.11,122.06,122.06,0,0,0,18.12-1.35c7-1.14,10.84-2.56,11.42-3.29l-.06-.05-.07,0,.49.86.07,0-.07,0,.07,0,.07,0-.49-.86-.06-.1-.07.09c-.48.62-4.33,2.11-11.32,3.23A121.85,121.85,0,0,1,42.71,37a129.44,129.44,0,0,1-17.32-1.11,53.52,53.52,0,0,1-12-3.19l-.07,0-.36.77,0,.07.08,0a50.83,50.83,0,0,0,12.27,3.25,128.61,128.61,0,0,0,17.25,1.11h.22A121.85,121.85,0,0,0,61,36.55c6.86-1.21,11.46-2.76,11.78-3.22l0,0,0,0Z"/><path class="cls-2" d="M42.68,76.74A29.21,29.21,0,1,1,71.9,47.53,29.21,29.21,0,0,1,42.68,76.74m0-61.53A32.32,32.32,0,1,0,75,47.53,32.32,32.32,0,0,0,42.68,15.21"/><path class="cls-2" d="M42.68,15.55a32,32,0,1,0,32,32,32,32,0,0,0-32-32m32.64,32A32.64,32.64,0,1,1,42.68,14.89,32.63,32.63,0,0,1,75.32,47.53"/><path class="cls-3" d="M42.68,15.55v-.08A32.07,32.07,0,1,0,74.75,47.53,32.08,32.08,0,0,0,42.68,15.47v.16a31.9,31.9,0,1,1-31.91,31.9,31.94,31.94,0,0,1,31.91-31.9Zm32.64,32h-.08A32.56,32.56,0,1,1,42.68,15,32.58,32.58,0,0,1,75.24,47.53h.16A32.72,32.72,0,1,0,42.68,80.25,32.72,32.72,0,0,0,75.4,47.53Z"/><path class="cls-2" d="M42.68,18.64A28.88,28.88,0,1,0,71.57,47.53,28.9,28.9,0,0,0,42.68,18.64M72.21,47.53A29.54,29.54,0,1,1,42.68,18,29.54,29.54,0,0,1,72.21,47.53"/><path class="cls-3" d="M42.68,18.64v-.08a29,29,0,1,0,29,29,29,29,0,0,0-29-29v.16A28.8,28.8,0,1,1,13.87,47.53,28.85,28.85,0,0,1,42.68,18.73ZM72.21,47.53h-.08A29.45,29.45,0,1,1,42.68,18.07,29.49,29.49,0,0,1,72.13,47.53h.16A29.62,29.62,0,1,0,42.68,77.16,29.62,29.62,0,0,0,72.29,47.53Z"/><path class="cls-2" d="M42.34,40.64c13.62-.07,27.82,1.95,33.25,4.8v3.5C70.87,46.34,57.73,43.63,42.36,44c-12.51.08-25.85,1.41-32.56,5.07v-4c5.51-2.92,20.83-4.4,32.54-4.42"/><path class="cls-3" d="M42.34,40.72H43c13.39,0,27.2,2,32.51,4.78l0-.07h-.08v3.5h.08l0-.07c-4.44-2.43-16.19-5-30.24-5-1,0-2,0-3,0C29.84,44,16.5,45.36,9.76,49l0,.07h.08v-4H9.8l0,.07c5.47-2.91,20.8-4.38,32.5-4.4v-.16c-11.72,0-27,1.5-32.58,4.43l0,0v4.23l.12-.06c6.68-3.65,20-5,32.52-5.06,1,0,2,0,3,0,14,0,25.78,2.53,30.16,4.94l.12.07v-3.7l0,0c-5.37-2.82-19.18-4.8-32.59-4.8h-.71Z"/><path class="cls-2" d="M42.52,40.32A117.55,117.55,0,0,1,63,41.79c4.52.89,11.33,2.29,13,3.54v1.39c-1.47-1.66-8.45-3.23-13.31-4.11a127.17,127.17,0,0,0-20.14-1.46,119.37,119.37,0,0,0-20.61,1.56c-5.34,1-11,2.26-12.49,3.23V44.77c2-1.09,8.27-2.08,12.37-2.89a119.93,119.93,0,0,1,20.73-1.56m0,3.22a120.66,120.66,0,0,1,21.25,1.53c5.55,1.06,11.44,2.64,12.2,3.49v1.07c-1.84-1.23-6.43-2.6-12.32-3.75A117.57,117.57,0,0,0,42.5,44.39a119.6,119.6,0,0,0-21.42,1.49c-6.18,1.18-10.6,2.87-11.66,3.67V48.43a44.25,44.25,0,0,1,11.5-3.38c6-1.13,12.93-1.48,21.6-1.52"/><path class="cls-3" d="M42.52,40.4H43a115.64,115.64,0,0,1,20,1.47c4.51.88,11.33,2.31,12.92,3.52l.05-.06h-.08v1.39H76l.06-.05c-1.52-1.7-8.49-3.25-13.36-4.14a127.22,127.22,0,0,0-20.15-1.47A119.53,119.53,0,0,0,21.9,42.63c-5.35,1-11,2.25-12.52,3.24l0,.07h.08V44.77H9.42l0,.07c2-1.08,8.25-2.07,12.33-2.88A119.74,119.74,0,0,1,42.52,40.4v-.16A120,120,0,0,0,21.78,41.8c-4.11.81-10.35,1.8-12.4,2.9l0,0v1.37L9.46,46c1.43-1,7.13-2.19,12.46-3.22a119.28,119.28,0,0,1,20.6-1.56A127,127,0,0,1,62.65,42.7c4.85.87,11.84,2.46,13.26,4.08l.14.16V45.29l0,0C74.35,44,67.55,42.61,63,41.7a116.08,116.08,0,0,0-20-1.46h-.5Zm0,3.13v.08H43a118.71,118.71,0,0,1,20.73,1.53c5.53,1,11.45,2.66,12.15,3.46l.06-.05h-.08v1.07H76l0-.07c-1.86-1.24-6.45-2.61-12.36-3.76a116.08,116.08,0,0,0-20.57-1.49H41.7a117.46,117.46,0,0,0-20.63,1.49c-6.2,1.19-10.61,2.87-11.7,3.69l.05.06h.08V48.43H9.42l0,.07a44.29,44.29,0,0,1,11.47-3.37c6-1.13,12.92-1.48,21.59-1.52v-.16c-8.67,0-15.56.39-21.61,1.52A44.21,44.21,0,0,0,9.38,48.36l0,0V49.7l.13-.1c1-.78,5.46-2.48,11.62-3.65A117.17,117.17,0,0,1,41.7,44.47h1.38A115.68,115.68,0,0,1,63.64,46c5.88,1.15,10.47,2.52,12.29,3.74l.12.08V48.53l0,0C75.21,47.6,69.35,46,63.78,45A119.1,119.1,0,0,0,43,43.46h-.51Z"/><path class="cls-2" d="M42.54,25.41c12.21-.06,22.87,1.71,27.74,4.21l1.77,3.07c-4.23-2.28-15.73-4.66-29.5-4.3-11.22.07-23.21,1.23-29.23,4.45l2.12-3.55c4.94-2.55,16.59-3.86,27.1-3.87"/><path class="cls-3" d="M42.54,25.5h.62c11.94,0,22.32,1.75,27.09,4.2l1.74,3,.07,0,0-.07c-4-2.14-14.23-4.34-26.77-4.35l-2.78,0c-11.23.07-23.22,1.23-29.27,4.46l0,.07.07,0,2.12-3.55c4.88-2.51,16.52-3.82,27-3.83v-.16c-10.52,0-22.17,1.32-27.14,3.88L13.26,32.8l-.15.26.27-.14c6-3.21,18-4.36,29.19-4.44l2.78,0c12.52,0,22.77,2.21,26.69,4.33l.26.14-1.92-3.33c-4.86-2.5-15.23-4.25-27.2-4.25h-.62Z"/><path class="cls-2" d="M42.7,25.14a109,109,0,0,1,18.38,1.28c4,.79,8.05,2,9.52,3.12l.78,1.23c-1.31-1.46-6.25-2.85-10.61-3.62A116.09,116.09,0,0,0,42.7,25.87a108,108,0,0,0-18.48,1.36c-4.78.91-7.88,2-9.18,2.83l.67-1a33.45,33.45,0,0,1,8.4-2.53A110.48,110.48,0,0,1,42.7,25.14m0,2.82A111.15,111.15,0,0,1,61.76,29.3c5,.92,9.73,2.32,10.41,3.07l.53.92C71,32.22,66.94,31,61.65,30a106,106,0,0,0-19-1.31A108.74,108.74,0,0,0,23.47,30c-5.54,1-9.38,2.51-10.35,3.22l.52-1a34.31,34.31,0,0,1,9.69-3A112.25,112.25,0,0,1,42.7,28"/><path class="cls-3" d="M42.7,25.22H43a107.72,107.72,0,0,1,18.1,1.28c4,.78,8,2,9.48,3.09l.76,1.21.07,0,.06-.05c-1.36-1.51-6.29-2.87-10.66-3.65A116.19,116.19,0,0,0,42.7,25.78a108.3,108.3,0,0,0-18.5,1.36c-4.78.91-7.88,2-9.2,2.84l0,.07.07,0,.67-1a34.32,34.32,0,0,1,8.34-2.49A110.36,110.36,0,0,1,42.7,25.22v-.16a110.62,110.62,0,0,0-18.6,1.36A33.41,33.41,0,0,0,15.66,29L15,30l.11.11c1.28-.83,4.37-1.91,9.15-2.82A107.78,107.78,0,0,1,42.7,25.95a115.84,115.84,0,0,1,18.05,1.28C65.1,28,70,29.39,71.31,30.81l.13-.09-.78-1.23c-1.52-1.14-5.52-2.36-9.57-3.16A108.4,108.4,0,0,0,43,25.06H42.7Zm0,2.73V28h.5a109.5,109.5,0,0,1,18.55,1.34c5,.91,9.74,2.33,10.36,3l.52.91.07,0,0-.07c-1.68-1.09-5.79-2.28-11.08-3.29a104.28,104.28,0,0,0-18.37-1.31h-1.4a106.45,106.45,0,0,0-18.43,1.31c-5.55,1-9.39,2.51-10.39,3.24l.05.06.07,0,.52-1a34.73,34.73,0,0,1,9.63-2.92A112,112,0,0,1,42.7,28v-.16a112.46,112.46,0,0,0-19.37,1.33,34.53,34.53,0,0,0-9.72,3l-.55,1,.12.1c.93-.69,4.77-2.17,10.31-3.2a106.29,106.29,0,0,1,18.41-1.31h1.4A104,104,0,0,1,61.63,30.1c5.29,1,9.39,2.2,11,3.27l.11-.11-.53-.92c-.75-.82-5.47-2.18-10.47-3.11A109.74,109.74,0,0,0,43.2,27.87h-.5Z"/><path class="cls-2" d="M42.7,25.14a109,109,0,0,1,18.38,1.28c4,.79,8.05,2,9.52,3.12l.78,1.23c-1.31-1.46-6.25-2.85-10.61-3.62A116,116,0,0,0,42.7,25.87a108,108,0,0,0-18.48,1.36c-4.78.9-7.88,2-9.18,2.83l.67-1a33.45,33.45,0,0,1,8.4-2.53A110.48,110.48,0,0,1,42.7,25.14m0,2.82A110.93,110.93,0,0,1,61.75,29.3c5,.92,9.74,2.32,10.42,3.07l.53.92C71,32.22,66.94,31,61.65,30a106,106,0,0,0-19-1.31A108.74,108.74,0,0,0,23.47,30c-5.54,1-9.38,2.51-10.35,3.22l.52-1a34.31,34.31,0,0,1,9.69-3A112.25,112.25,0,0,1,42.7,28"/><path class="cls-3" d="M42.7,25.14v.08H43a107.72,107.72,0,0,1,18.1,1.28c4,.78,8,2,9.48,3.09l.76,1.21.07,0,.06-.05c-1.36-1.51-6.29-2.87-10.66-3.65A116.09,116.09,0,0,0,42.7,25.78a108.3,108.3,0,0,0-18.5,1.36c-4.78.9-7.88,2-9.2,2.84l0,.07.07,0,.67-1a34.32,34.32,0,0,1,8.34-2.49A110.36,110.36,0,0,1,42.7,25.22v-.16a110.62,110.62,0,0,0-18.6,1.36A33.41,33.41,0,0,0,15.66,29L15,30l.11.11c1.28-.83,4.37-1.92,9.15-2.82A107.78,107.78,0,0,1,42.7,25.95a115.75,115.75,0,0,1,18.05,1.28C65.1,28,70,29.39,71.31,30.81l.13-.09-.78-1.23c-1.52-1.14-5.52-2.36-9.57-3.16A108.4,108.4,0,0,0,43,25.06H42.7Zm0,2.82V28h.5a109.3,109.3,0,0,1,18.54,1.34c5,.91,9.75,2.33,10.37,3l.52.91.07,0,0-.07c-1.68-1.09-5.79-2.28-11.08-3.29a104.28,104.28,0,0,0-18.37-1.31h-1.4a106.45,106.45,0,0,0-18.43,1.31c-5.55,1-9.39,2.51-10.39,3.24l.05.06.07,0,.52-1a34.73,34.73,0,0,1,9.63-2.92A112,112,0,0,1,42.7,28v-.16a112.46,112.46,0,0,0-19.37,1.33,34.53,34.53,0,0,0-9.72,3l-.55,1,.12.1c.93-.69,4.77-2.17,10.31-3.2a106.29,106.29,0,0,1,18.41-1.31h1.4A104,104,0,0,1,61.63,30.1c5.29,1,9.39,2.2,11,3.27l.11-.11-.53-.92c-.75-.82-5.47-2.18-10.48-3.11A109.53,109.53,0,0,0,43.2,27.87h-.5Z"/><path class="cls-2" d="M42.44,58.05c10,.07,22.39,1.36,29.5,4.2l-1.53,2.5c-4.21-2.33-16.65-3.86-28.06-4.09-13.51.12-22.87,1.51-27.55,4.14l-1.3-2.21c8.36-3.71,17.35-4.51,28.93-4.54"/><path class="cls-3" d="M42.44,58.14c10,.07,22.38,1.36,29.47,4.19l0-.07-.07,0-1.53,2.5.07,0,0-.07c-4.25-2.35-16.68-3.87-28.1-4.1-13.52.12-22.88,1.51-27.59,4.15l0,.07.07,0-1.3-2.21-.07,0,0,.07c8.35-3.7,17.32-4.5,28.9-4.53V58c-11.58,0-20.59.83-29,4.55l-.08,0,1.34,2.3,0,.07.07,0c4.65-2.62,14-4,27.51-4.13,11.4.23,23.85,1.76,28,4.08l.07,0L72,62.3l.05-.08-.09,0C64.85,59.34,52.47,58,42.44,58Z"/><path class="cls-2" d="M69.61,65.19a34.84,34.84,0,0,0-10.2-2.71,118,118,0,0,0-17.1-1.22,116.81,116.81,0,0,0-16.57,1c-6.82,1-10.28,2.39-11.28,2.89l-.4-.67a45.78,45.78,0,0,1,11.61-3A116.27,116.27,0,0,1,42.31,60.5a118.61,118.61,0,0,1,17.22,1.21A45.17,45.17,0,0,1,70,64.35Zm2.42-3-.5.86c-.54-.69-4.34-2.14-11.32-3.27a119.09,119.09,0,0,0-18-1.34A126.16,126.16,0,0,0,25,59.56a53.15,53.15,0,0,0-12,3.19l-.33-.69a50.34,50.34,0,0,1,12.17-3.25,128.88,128.88,0,0,1,17.37-1.1A119,119,0,0,1,60.36,59c6.8,1.18,11.42,2.79,11.67,3.18"/><path class="cls-3" d="M69.61,65.19l0-.07A34.48,34.48,0,0,0,59.42,62.4a118.16,118.16,0,0,0-17.11-1.22h-.24a117.13,117.13,0,0,0-16.34,1c-6.83,1-10.3,2.39-11.31,2.9l0,.07.07,0-.4-.67-.07,0,0,.07a45.88,45.88,0,0,1,11.59-2.94,116,116,0,0,1,16.4-1.07h.23a118.48,118.48,0,0,1,17.21,1.21A45.6,45.6,0,0,1,70,64.43l0-.07-.07,0-.41.84.07,0,0-.07,0,.07.07,0,.41-.84,0-.07-.08,0a44.71,44.71,0,0,0-10.51-2.65,118.83,118.83,0,0,0-17.23-1.21h-.23a116.44,116.44,0,0,0-16.42,1.06,45.78,45.78,0,0,0-11.63,3l-.09,0,.45.75,0,.06.07,0c1-.49,4.44-1.91,11.25-2.88a115.2,115.2,0,0,1,16.32-1h.24A117.81,117.81,0,0,1,59.4,62.56a34.94,34.94,0,0,1,10.17,2.7l.08,0,0-.08Zm2.42-3-.07,0-.5.86.07,0,.06-.05c-.59-.74-4.37-2.16-11.37-3.3a119.24,119.24,0,0,0-18-1.34H42a127,127,0,0,0-17,1.11,52.7,52.7,0,0,0-12,3.2l0,.07.07,0L12.76,62l-.07,0,0,.07a50.42,50.42,0,0,1,12.15-3.24A127.5,127.5,0,0,1,42,57.8h.21a118.78,118.78,0,0,1,18.11,1.31c6.77,1.16,11.44,2.82,11.61,3.13l.07,0-.07,0,.07,0,.07,0c-.33-.46-4.91-2-11.73-3.22a119.12,119.12,0,0,0-18.13-1.31H42a129.71,129.71,0,0,0-17.17,1.1A50.29,50.29,0,0,0,12.66,62l-.08,0,.37.76,0,.07.07,0A53.49,53.49,0,0,1,25,59.64a125.18,125.18,0,0,1,17-1.11h.2a118.94,118.94,0,0,1,18,1.34c7,1.12,10.78,2.59,11.27,3.24l.07.09.56-1,0,0,0,0Z"/><rect class="cls-2" x="43.98" y="14.73" width="0.7" height="65.61"/><polygon class="cls-3" points="44.68 80.34 44.68 80.25 44.06 80.25 44.06 14.81 44.59 14.81 44.59 80.34 44.68 80.34 44.68 80.25 44.68 80.34 44.76 80.34 44.76 14.65 43.98 14.65 43.9 14.65 43.9 80.42 44.68 80.42 44.76 80.42 44.76 80.34 44.68 80.34"/><rect class="cls-2" x="40.68" y="14.73" width="0.7" height="65.61"/><polygon class="cls-3" points="41.38 80.34 41.38 80.25 40.76 80.25 40.76 14.81 41.3 14.81 41.29 80.34 41.38 80.34 41.38 80.25 41.38 80.34 41.46 80.34 41.46 14.65 40.68 14.65 40.6 14.65 40.6 80.42 41.38 80.42 41.46 80.42 41.46 80.34 41.38 80.34"/><rect class="cls-2" x="41.38" y="15.06" width="2.6" height="64.95"/><polygon class="cls-3" points="43.98 80.01 43.98 79.93 41.46 79.93 41.46 15.14 43.9 15.14 43.9 80.01 43.98 80.01 43.98 79.93 43.98 80.01 44.06 80.01 44.06 14.97 41.38 14.97 41.3 14.97 41.29 80.09 43.98 80.09 44.06 80.09 44.06 80.01 43.98 80.01"/><path class="cls-2" d="M15.16,29.25C25.25,29.11,71.82,57.71,72,63l-2.89,4.43C67.77,61.28,20.52,33.46,12.72,34Z"/><path class="cls-3" d="M15.16,29.33h.07C25.39,29.28,71.81,57.85,71.88,63H72l-.07,0L69,67.35l.07,0,.08,0c-1.37-6.15-47.68-33.44-56.2-33.48h-.24V34l.07,0,2.44-4.73-.14-.08-2.44,4.73-.07.13h.37c8.36,0,54.83,27.4,56,33.36l0,.18L72,63v0c-.22-5.38-46.49-33.76-56.81-33.8h-.07Z"/><path class="cls-2" d="M72.24,63.29C73.42,61,60.67,51.34,44.85,42,28.67,32.82,17,27.41,14.88,29l-.48.86.12-.14,1.32-.32c3.67.06,14.14,4.88,28.84,13.31,6.43,3.75,27.2,17.07,27.13,20.81l-.09.54ZM12.43,33.82c1.87-1.28,15.63,4.86,30,13.53S70.51,65.89,69.28,67.73l-.41.65-.18.14,0-1c-.62-2-10.35-9.77-26.49-19.53C26.44,38.64,13.33,33,12,34.6Z"/><path class="cls-3" d="M72.32,63.33,72.4,63c0-2.94-12.37-12.06-27.51-21C30.62,33.84,19.89,28.67,16,28.66l-1.2.31-.5.88.13.09.12-.14,1.28-.29c3.6.05,14.09,4.87,28.78,13.3,6.41,3.71,27.14,17.08,27.09,20.71v0l-.09.52.15.05.52-.8-.14-.08-.31.47,0-.16v0c-.05-3.89-20.74-17.09-27.17-20.86C30,34.24,19.57,29.42,15.85,29.35l-1.34.32-.16.17.06.05.07,0,.48-.86L16,28.83c3.76,0,14.53,5.15,28.78,13.23C59.94,51,72.28,60.25,72.23,63l-.06.3ZM12.43,33.82l0,.07.73-.16c3.5,0,16.11,5.79,29.22,13.7,13.74,8.31,26.91,17.77,26.86,20l-.06.24-.41.65,0,0,0-.8c-.67-2.1-10.38-9.83-26.53-19.6-13.94-8.31-25.81-13.7-29.3-13.71l-1,.31.06.05.07,0,.41-.79-.07,0-.07,0-.41.79.13.09.84-.25c3.39,0,15.29,5.38,29.22,13.69C58.27,57.83,68,65.64,68.59,67.57l0,.94v.16l.32-.25.43-.67.08-.32c0-2.51-13.19-11.8-26.94-20.17C29.37,39.37,16.8,33.57,13.19,33.56l-.82.18Z"/><path class="cls-6" d="M23.31,50.79A19.52,19.52,0,0,0,42.65,70.15,19.42,19.42,0,0,0,62.06,50.8V24.91H23.31Z"/><path class="cls-3" d="M23.31,50.79h-.08A19.59,19.59,0,0,0,42.65,70.24,19.48,19.48,0,0,0,62.14,50.8v-26H23.22v26h.16V25H62V50.8a19.3,19.3,0,0,1-38.59,0Z"/><path class="cls-4" d="M24.08,50.79h0a18.59,18.59,0,0,0,37.19,0V25.74H24.1Z"/><path class="cls-3" d="M24,50.79h0a18.68,18.68,0,0,0,37.35,0V25.66H24l0,25.13h.16l0-25h37v25a18.5,18.5,0,0,1-18.5,18.42A18.59,18.59,0,0,1,24.17,50.8H24Z"/><path class="cls-6" d="M31.69,49.64h0a12.56,12.56,0,0,0,3.24,8.49,10.3,10.3,0,0,0,15.53,0,12.61,12.61,0,0,0,3.23-8.5V33.36h-22Z"/><path class="cls-3" d="M31.6,49.64h0a12.63,12.63,0,0,0,3.26,8.54,10.37,10.37,0,0,0,15.65,0,12.68,12.68,0,0,0,3.25-8.55V33.28H31.61V49.64h.16V33.45H53.6V49.66a12.53,12.53,0,0,1-3.21,8.45A10.22,10.22,0,0,1,35,58.1a12.48,12.48,0,0,1-3.22-8.44H31.6Z"/><polygon class="cls-7" points="40.26 47.99 40.26 47.99 40.97 49.87 42.68 50.65 44.39 49.87 45.1 47.99 45.1 44.41 40.26 44.41 40.26 47.99"/><rect class="cls-6" x="43.67" y="45.34" width="0.68" height="0.68" transform="translate(-19.41 44.52) rotate(-45.02)"/><polygon class="cls-6" points="42.65 46.5 42.16 46.98 42.65 47.47 43.14 46.98 42.65 46.5"/><polygon class="cls-6" points="44 47.86 43.52 48.34 44 48.82 44.49 48.34 44 47.86"/><polygon class="cls-6" points="41.36 47.86 40.86 48.35 41.36 48.83 41.85 48.35 41.36 47.86"/><polygon class="cls-6" points="41.36 45.2 40.86 45.68 41.36 46.16 41.84 45.68 41.36 45.2"/><polygon class="cls-7" points="33.46 47.99 33.46 47.99 34.16 49.87 35.88 50.65 37.59 49.87 38.3 47.99 38.3 44.41 33.46 44.41 33.46 47.99"/><rect class="cls-6" x="36.87" y="45.34" width="0.68" height="0.68" transform="translate(-21.4 39.67) rotate(-44.98)"/><rect class="cls-6" x="35.5" y="46.64" width="0.69" height="0.69" transform="translate(-22.64 38.48) rotate(-44.38)"/><polygon class="cls-6" points="37.21 47.86 36.72 48.34 37.21 48.82 37.69 48.34 37.21 47.86"/><polygon class="cls-6" points="34.55 47.86 34.06 48.35 34.55 48.83 35.05 48.35 34.55 47.86"/><polygon class="cls-6" points="34.55 45.2 34.06 45.68 34.55 46.16 35.03 45.68 34.55 45.2"/><polygon class="cls-7" points="47.06 47.99 47.77 49.87 49.48 50.65 51.19 49.87 51.91 47.99 51.91 44.41 47.06 44.41 47.06 47.99"/><rect class="cls-6" x="50.47" y="45.34" width="0.68" height="0.68" transform="translate(-17.42 49.29) rotate(-44.98)"/><polygon class="cls-6" points="49.45 46.5 48.97 46.98 49.45 47.47 49.94 46.98 49.45 46.5"/><polygon class="cls-6" points="50.8 47.86 50.33 48.34 50.8 48.82 51.29 48.34 50.8 47.86"/><polygon class="cls-6" points="48.16 47.86 47.67 48.35 48.16 48.83 48.65 48.35 48.16 47.86"/><polygon class="cls-6" points="48.15 45.2 47.67 45.68 48.15 46.16 48.64 45.68 48.15 45.2"/><polygon class="cls-7" points="40.26 56.19 40.26 56.2 40.97 58.06 42.68 58.84 44.39 58.06 45.1 56.2 45.1 52.61 40.26 52.6 40.26 56.19"/><rect class="cls-6" x="43.67" y="53.53" width="0.68" height="0.68" transform="translate(-25.21 46.94) rotate(-45.03)"/><polygon class="cls-6" points="42.65 54.69 42.16 55.17 42.65 55.67 43.14 55.17 42.65 54.69"/><rect class="cls-6" x="43.66" y="56.2" width="0.68" height="0.68" transform="translate(-27.09 47.67) rotate(-45)"/><polygon class="cls-6" points="41.36 56.06 40.86 56.55 41.36 57.03 41.85 56.55 41.36 56.06"/><rect class="cls-6" x="41.01" y="53.53" width="0.68" height="0.68" transform="translate(-25.89 44.32) rotate(-44.4)"/><polygon class="cls-7" points="40.26 39.8 40.26 39.8 40.97 41.67 42.68 42.45 44.39 41.67 45.1 39.81 45.1 36.21 40.26 36.21 40.26 39.8"/><rect class="cls-6" x="43.67" y="37.14" width="0.68" height="0.68" transform="translate(-13.61 42.13) rotate(-45.03)"/><polygon class="cls-6" points="42.65 38.3 42.16 38.78 42.65 39.28 43.14 38.78 42.65 38.3"/><rect class="cls-6" x="43.66" y="39.8" width="0.68" height="0.68" transform="translate(-15.5 42.87) rotate(-45)"/><polygon class="cls-6" points="41.36 39.67 40.86 40.16 41.36 40.63 41.85 40.16 41.36 39.67"/><rect class="cls-6" x="41.01" y="37.14" width="0.68" height="0.68" transform="translate(-14.42 39.64) rotate(-44.4)"/><polygon class="cls-2" points="39.99 32.25 45.36 32.25 45.12 30.18 40.22 30.18 39.99 32.25"/><polygon class="cls-3" points="39.99 32.25 39.99 32.33 45.36 32.33 45.45 32.33 45.2 30.17 45.19 30.1 40.22 30.1 40.15 30.1 39.91 32.24 39.9 32.33 39.99 32.33 39.99 32.25 40.08 32.26 40.29 30.26 45.04 30.26 45.27 32.17 39.99 32.17 39.99 32.25 40.08 32.26 39.99 32.25"/><polygon class="cls-2" points="42.66 30.34 44.01 32.25 41.35 32.25 42.66 30.34"/><polygon class="cls-3" points="42.6 30.39 43.85 32.17 41.5 32.17 42.73 30.39 42.59 30.29 41.27 32.2 41.19 32.33 44.01 32.33 44.17 32.33 42.72 30.29 42.6 30.39"/><path class="cls-2" d="M42.67,30.79a1.59,1.59,0,0,1,.77,1.45H41.93a1.6,1.6,0,0,1,.74-1.45"/><path class="cls-3" d="M42.67,30.79l0,.07a1.47,1.47,0,0,1,.73,1.38h.08v-.08H41.93v.08H42a1.52,1.52,0,0,1,.7-1.38l0-.07,0,.07,0-.07,0-.07a1.68,1.68,0,0,0-.78,1.53v.08h1.67v-.08a1.65,1.65,0,0,0-.82-1.53l0,0,0,0Z"/><polygon class="cls-2" points="39.89 32.25 45.48 32.25 45.68 32.49 45.48 32.74 39.89 32.74 39.68 32.49 39.89 32.25"/><polygon class="cls-3" points="39.89 32.25 39.89 32.33 45.43 32.33 45.58 32.49 45.43 32.66 39.93 32.66 39.78 32.49 39.95 32.3 39.89 32.25 39.89 32.33 39.89 32.25 39.83 32.2 39.62 32.44 39.56 32.49 39.83 32.79 39.85 32.82 45.48 32.82 45.52 32.82 45.74 32.55 45.78 32.49 45.54 32.2 45.52 32.17 39.89 32.17 39.85 32.17 39.83 32.2 39.89 32.25"/><polygon class="cls-2" points="54.8 32.25 60.16 32.25 59.92 30.18 55.02 30.18 54.8 32.25"/><polygon class="cls-3" points="54.8 32.25 54.8 32.33 60.16 32.33 60.26 32.33 60 30.17 59.99 30.1 55.02 30.1 54.95 30.1 54.72 32.24 54.7 32.33 54.8 32.33 54.8 32.25 54.88 32.26 55.09 30.26 59.85 30.26 60.07 32.17 54.8 32.17 54.8 32.25 54.88 32.26 54.8 32.25"/><polygon class="cls-2" points="57.46 30.34 58.81 32.25 56.15 32.25 57.46 30.34"/><polygon class="cls-3" points="57.39 30.39 58.66 32.17 56.3 32.17 57.53 30.39 57.39 30.29 56.08 32.2 55.99 32.33 58.81 32.33 58.98 32.33 57.52 30.29 57.4 30.39 57.39 30.39"/><path class="cls-2" d="M57.46,30.79a1.59,1.59,0,0,1,.78,1.45H56.72a1.6,1.6,0,0,1,.74-1.45"/><path class="cls-3" d="M57.46,30.79l0,.07a1.49,1.49,0,0,1,.73,1.38h.08v-.08H56.72v.08h.08a1.52,1.52,0,0,1,.7-1.38l0-.07,0,.07,0-.07,0-.07a1.68,1.68,0,0,0-.78,1.53v.08h1.68v-.08a1.65,1.65,0,0,0-.83-1.53l0,0,0,0Z"/><polygon class="cls-2" points="54.7 32.25 60.27 32.25 60.48 32.49 60.27 32.74 54.7 32.74 54.48 32.49 54.7 32.25"/><polygon class="cls-3" points="54.7 32.25 54.7 32.33 60.23 32.33 60.37 32.49 60.23 32.66 54.73 32.66 54.58 32.49 54.76 32.3 54.7 32.25 54.7 32.33 54.7 32.25 54.63 32.2 54.42 32.44 54.37 32.49 54.63 32.79 54.65 32.82 60.27 32.82 60.3 32.82 60.54 32.55 60.59 32.49 60.33 32.2 60.3 32.17 54.7 32.17 54.65 32.17 54.63 32.2 54.7 32.25"/><polygon class="cls-2" points="54.8 47.8 60.16 47.8 59.92 45.72 55.02 45.72 54.8 47.8"/><polygon class="cls-3" points="54.8 47.8 54.8 47.88 60.16 47.88 60.26 47.88 60 45.71 59.99 45.64 55.02 45.64 54.95 45.64 54.72 47.79 54.7 47.88 54.8 47.88 54.8 47.8 54.88 47.81 55.09 45.8 59.85 45.8 60.07 47.72 54.8 47.72 54.8 47.8 54.88 47.81 54.8 47.8"/><polygon class="cls-2" points="57.46 45.89 58.81 47.8 56.15 47.8 57.46 45.89"/><polygon class="cls-3" points="57.39 45.95 58.66 47.72 56.3 47.72 57.53 45.95 57.39 45.84 56.08 47.75 55.99 47.88 58.81 47.88 58.97 47.88 57.52 45.84 57.4 45.95 57.39 45.95"/><path class="cls-2" d="M57.46,46.34a1.57,1.57,0,0,1,.78,1.46H56.72a1.6,1.6,0,0,1,.74-1.46"/><path class="cls-3" d="M57.46,46.34l0,.07a1.48,1.48,0,0,1,.73,1.38h.08v-.08H56.72v.08h.08a1.52,1.52,0,0,1,.7-1.38l0-.07,0,.07,0-.07,0-.07a1.68,1.68,0,0,0-.78,1.53v.08h1.68V47.8a1.63,1.63,0,0,0-.83-1.53l0,0,0,0Z"/><polygon class="cls-2" points="54.84 44.8 60.13 44.8 60.34 45.02 60.13 45.26 54.84 45.26 54.63 45.02 54.84 44.8"/><polygon class="cls-3" points="54.84 44.8 54.84 44.88 60.09 44.88 60.23 45.02 60.09 45.18 54.88 45.18 54.75 45.02 54.9 44.85 54.84 44.8 54.84 44.88 54.84 44.8 54.78 44.75 54.57 44.97 54.52 45.02 54.78 45.31 54.8 45.34 60.13 45.34 60.17 45.34 60.4 45.08 60.45 45.02 60.2 44.75 60.16 44.72 54.84 44.72 54.8 44.72 54.78 44.75 54.84 44.8"/><polygon class="cls-2" points="54.7 47.8 60.27 47.8 60.48 48.05 60.27 48.28 54.7 48.28 54.48 48.05 54.7 47.8"/><polygon class="cls-3" points="54.7 47.8 54.7 47.88 60.23 47.88 60.37 48.05 60.23 48.2 54.73 48.2 54.59 48.05 54.76 47.85 54.7 47.8 54.7 47.88 54.7 47.8 54.63 47.75 54.42 47.99 54.37 48.05 54.63 48.33 54.65 48.36 60.27 48.36 60.3 48.36 60.54 48.1 60.6 48.05 60.33 47.75 60.3 47.72 54.7 47.72 54.65 47.72 54.63 47.75 54.7 47.8"/><polygon class="cls-2" points="54.94 45.26 60.02 45.26 60.21 45.48 60.02 45.71 54.94 45.71 54.76 45.48 54.94 45.26"/><polygon class="cls-3" points="54.94 45.26 54.94 45.34 59.98 45.34 60.1 45.48 59.98 45.63 54.98 45.63 54.86 45.48 55 45.31 54.94 45.26 54.94 45.34 54.94 45.26 54.88 45.21 54.7 45.43 54.65 45.48 54.88 45.76 54.9 45.79 60.02 45.79 60.06 45.79 60.27 45.54 60.31 45.48 60.08 45.21 60.06 45.18 54.94 45.18 54.9 45.18 54.88 45.21 54.94 45.26"/><polygon class="cls-2" points="58.13 42.63 58.22 44.81 56.8 44.79 56.91 42.63 58.13 42.63"/><polygon class="cls-3" points="58.05 42.63 58.14 44.73 56.89 44.71 56.99 42.71 58.13 42.71 58.13 42.54 56.91 42.54 56.83 42.54 56.72 44.79 56.71 44.87 58.22 44.89 58.3 44.89 58.21 42.63 58.05 42.63"/><polygon class="cls-2" points="56.64 41.82 57.03 41.82 57.03 42.1 57.32 42.1 57.32 41.81 57.71 41.81 57.71 42.1 58 42.1 58 41.81 58.4 41.81 58.4 42.46 58.23 42.64 56.81 42.64 56.64 42.46 56.64 41.82"/><polygon class="cls-3" points="56.64 41.82 56.64 41.9 56.95 41.9 56.95 42.1 56.95 42.19 57.32 42.19 57.4 42.19 57.4 41.89 57.62 41.89 57.62 42.1 57.62 42.19 58 42.19 58.09 42.19 58.09 41.89 58.32 41.89 58.32 42.43 58.2 42.55 56.85 42.55 56.72 42.43 56.72 41.82 56.64 41.82 56.64 41.9 56.64 41.82 56.56 41.82 56.56 42.46 56.56 42.49 56.75 42.7 56.77 42.72 58.23 42.72 58.26 42.72 58.47 42.52 58.48 42.49 58.48 41.81 58.48 41.73 58 41.73 57.92 41.73 57.92 42.02 57.79 42.02 57.79 41.81 57.79 41.73 57.32 41.73 57.23 41.73 57.23 42.02 57.11 42.02 57.11 41.82 57.11 41.73 56.64 41.73 56.56 41.73 56.56 41.82 56.64 41.82"/><rect class="cls-3" x="57.37" y="43.54" width="0.29" height="0.51"/><polygon class="cls-2" points="58.35 42.84 58.75 42.84 58.75 43.13 59.04 43.13 59.04 42.84 59.43 42.84 59.43 43.13 59.71 43.13 59.71 42.84 60.12 42.84 60.12 43.5 59.95 43.66 58.54 43.66 58.35 43.5 58.35 42.84"/><polygon class="cls-3" points="58.35 42.84 58.35 42.92 58.67 42.92 58.67 43.13 58.67 43.21 59.04 43.21 59.12 43.21 59.12 42.92 59.35 42.92 59.35 43.13 59.35 43.21 59.71 43.21 59.8 43.21 59.8 42.92 60.04 42.92 60.04 43.47 59.92 43.58 58.54 43.58 58.43 43.47 58.43 42.84 58.35 42.84 58.35 42.92 58.35 42.84 58.27 42.84 58.27 43.5 58.27 43.53 58.48 43.72 59.95 43.74 60.18 43.56 60.21 43.53 60.21 42.84 60.21 42.76 59.71 42.76 59.63 42.76 59.63 43.05 59.51 43.05 59.51 42.84 59.51 42.76 59.04 42.76 58.96 42.76 58.96 43.05 58.83 43.05 58.83 42.84 58.83 42.76 58.35 42.76 58.27 42.76 58.27 42.84 58.35 42.84"/><polygon class="cls-2" points="59.88 43.66 59.91 44.81 58.57 44.81 58.61 43.66 59.88 43.66"/><polygon class="cls-3" points="59.8 43.66 59.83 44.73 58.65 44.73 58.69 43.74 59.88 43.74 59.88 43.58 58.61 43.58 58.53 43.58 58.48 44.81 58.48 44.89 59.91 44.89 59.99 44.89 59.96 43.66 59.8 43.66"/><polygon class="cls-2" points="54.89 42.84 55.28 42.84 55.28 43.13 55.58 43.13 55.58 42.84 55.97 42.84 55.97 43.13 56.25 43.13 56.25 42.84 56.66 42.84 56.66 43.5 56.49 43.66 55.07 43.66 54.89 43.5 54.89 42.84"/><polygon class="cls-3" points="54.89 42.84 54.89 42.92 55.2 42.92 55.2 43.13 55.2 43.21 55.58 43.21 55.66 43.21 55.66 42.92 55.88 42.92 55.88 43.13 55.88 43.21 56.25 43.21 56.33 43.21 56.33 42.92 56.58 42.92 56.58 43.47 56.46 43.58 55.07 43.58 54.97 43.47 54.97 42.84 54.89 42.84 54.89 42.92 54.89 42.84 54.81 42.84 54.81 43.5 54.81 43.53 55.02 43.72 56.49 43.74 56.71 43.56 56.74 43.53 56.74 42.84 56.74 42.76 56.25 42.76 56.17 42.76 56.17 43.05 56.05 43.05 56.05 42.84 56.05 42.76 55.58 42.76 55.49 42.76 55.49 43.05 55.36 43.05 55.36 42.84 55.36 42.76 54.89 42.76 54.81 42.76 54.81 42.84 54.89 42.84"/><polygon class="cls-2" points="56.41 43.66 56.45 44.81 55.1 44.81 55.15 43.66 56.41 43.66"/><polygon class="cls-3" points="56.32 43.66 56.36 44.73 55.19 44.73 55.23 43.74 56.41 43.74 56.41 43.58 55.15 43.58 55.06 43.58 55.02 44.81 55.02 44.89 56.45 44.89 56.53 44.89 56.49 43.66 56.32 43.66"/><rect class="cls-3" x="59.1" y="44.15" width="0.29" height="0.31"/><rect class="cls-3" x="55.64" y="44.15" width="0.28" height="0.31"/><polygon class="cls-2" points="50.26 60.07 54.16 63.76 55.41 62.09 51.85 58.72 50.26 60.07"/><polygon class="cls-3" points="50.26 60.07 50.2 60.13 54.11 63.82 54.17 63.88 55.47 62.14 55.52 62.08 51.9 58.66 51.85 58.61 50.21 60.01 50.14 60.07 50.2 60.13 50.26 60.07 50.31 60.13 51.85 58.83 55.3 62.1 54.15 63.64 50.31 60.01 50.26 60.07 50.31 60.13 50.26 60.07"/><polygon class="cls-2" points="53.51 60.52 53.18 62.83 51.24 60.99 53.51 60.52"/><polygon class="cls-3" points="53.42 60.51 53.12 62.66 51.41 61.05 53.53 60.6 53.49 60.44 51.22 60.91 51.08 60.94 53.13 62.89 53.24 62.99 53.59 60.53 53.42 60.51"/><polygon class="cls-2" points="53.2 60.85 52.76 62.43 51.66 61.4 53.2 60.85"/><polygon class="cls-3" points="53.2 60.85 53.12 60.83 52.72 62.27 51.82 61.42 53.23 60.92 53.2 60.85 53.12 60.83 53.2 60.85 53.17 60.77 51.63 61.31 51.51 61.36 52.7 62.49 52.8 62.58 53.28 60.87 53.32 60.72 53.17 60.77 53.2 60.85"/><polygon class="cls-2" points="52.36 57.91 56.2 61.57 56.19 61.87 55.88 61.9 52.03 58.25 52.05 57.94 52.36 57.91"/><polygon class="cls-3" points="52.36 57.91 52.31 57.97 56.12 61.6 56.11 61.79 55.91 61.81 52.11 58.22 52.12 58.01 52.37 57.99 52.36 57.91 52.31 57.97 52.36 57.91 52.35 57.83 52.04 57.86 51.98 57.87 51.95 58.24 51.95 58.28 55.83 61.96 55.85 61.98 56.2 61.95 56.27 61.94 56.28 61.57 56.28 61.54 52.41 57.85 52.39 57.83 52.35 57.83 52.36 57.91"/><polygon class="cls-2" points="50.19 60 54.22 63.84 54.22 64.16 53.9 64.19 49.85 60.35 49.86 60.03 50.19 60"/><polygon class="cls-3" points="50.19 60 50.14 60.06 54.14 63.87 54.14 64.09 53.93 64.11 49.93 60.32 49.94 60.1 50.2 60.08 50.19 60 50.14 60.06 50.19 60 50.18 59.92 49.85 59.95 49.78 59.96 49.77 60.35 49.77 60.38 53.84 64.25 53.86 64.27 54.23 64.24 54.3 64.23 54.3 63.84 54.3 63.81 50.24 59.94 50.22 59.92 50.18 59.92 50.19 60"/><polygon class="cls-2" points="52.11 58.33 55.8 61.81 55.78 62.12 55.48 62.15 51.8 58.66 51.82 58.36 52.11 58.33"/><polygon class="cls-3" points="52.11 58.33 52.06 58.39 55.72 61.84 55.7 62.05 55.51 62.07 51.89 58.63 51.9 58.43 52.12 58.41 52.11 58.33 52.06 58.39 52.11 58.33 52.1 58.25 51.8 58.28 51.73 58.29 51.72 58.66 51.72 58.69 55.42 62.21 55.45 62.23 55.79 62.2 55.85 62.19 55.88 61.82 55.88 61.78 52.16 58.27 52.14 58.25 52.1 58.25 52.11 58.33"/><polygon class="cls-2" points="56.23 58.61 54.8 60.24 53.79 59.27 55.35 57.78 56.23 58.61"/><polygon class="cls-3" points="56.17 58.56 54.79 60.11 53.91 59.27 55.35 57.89 56.18 58.67 56.28 58.55 55.4 57.72 55.35 57.66 53.73 59.21 53.67 59.27 54.74 60.3 54.8 60.35 56.29 58.66 56.17 58.56"/><polygon class="cls-2" points="55.72 56.99 56 57.27 55.8 57.46 56.02 57.66 56.21 57.45 56.5 57.74 56.3 57.94 56.51 58.14 56.71 57.92 57 58.21 56.55 58.68 56.3 58.68 55.28 57.72 55.27 57.46 55.72 56.99"/><polygon class="cls-3" points="55.72 56.99 55.66 57.05 55.88 57.27 55.74 57.4 55.69 57.46 55.95 57.73 56.02 57.78 56.21 57.56 56.38 57.74 56.24 57.89 56.19 57.94 56.45 58.2 56.51 58.25 56.71 58.03 56.89 58.21 56.51 58.6 56.3 58.6 55.36 57.69 55.35 57.49 55.78 57.05 55.72 56.99 55.66 57.05 55.72 56.99 55.66 56.93 55.21 57.4 55.19 57.43 55.2 57.72 55.2 57.75 56.24 58.74 56.27 58.76 56.55 58.76 56.58 58.76 57.06 58.26 57.11 58.21 56.77 57.86 56.71 57.81 56.51 58.02 56.42 57.94 56.56 57.79 56.61 57.74 56.27 57.39 56.21 57.33 56.02 57.54 55.91 57.46 56.06 57.33 56.11 57.27 55.78 56.93 55.72 56.88 55.66 56.93 55.72 56.99"/><polygon class="cls-3" points="55.06 58.75 55.26 58.95 54.92 59.31 54.72 59.11 55.06 58.75"/><polygon class="cls-2" points="56.25 58.92 56.54 59.19 56.34 59.4 56.55 59.59 56.74 59.38 57.04 59.65 56.85 59.87 57.05 60.07 57.26 59.86 57.54 60.13 57.09 60.6 56.85 60.62 55.82 59.64 55.8 59.4 56.25 58.92"/><polygon class="cls-3" points="56.25 58.92 56.2 58.99 56.43 59.19 56.28 59.34 56.23 59.4 56.49 59.65 56.55 59.7 56.74 59.49 56.93 59.65 56.78 59.82 56.73 59.87 56.99 60.13 57.05 60.19 57.26 59.97 57.43 60.13 57.03 60.54 56.88 60.53 55.9 59.6 55.88 59.43 56.31 58.98 56.25 58.92 56.2 58.99 56.25 58.92 56.19 58.86 55.74 59.34 55.72 59.37 55.74 59.65 55.74 59.68 56.8 60.68 56.81 60.7 57.09 60.69 57.6 60.19 57.66 60.13 57.31 59.8 57.26 59.74 57.05 59.96 56.96 59.87 57.1 59.7 57.15 59.64 56.8 59.31 56.73 59.26 56.54 59.48 56.46 59.4 56.6 59.24 56.65 59.18 56.3 58.86 56.25 58.81 56.19 58.86 56.25 58.92"/><polygon class="cls-2" points="56.78 60.56 56.04 61.4 55.06 60.48 55.86 59.68 56.78 60.56"/><polygon class="cls-3" points="56.72 60.51 56.03 61.29 55.18 60.48 55.86 59.8 56.72 60.63 56.85 60.5 55.91 59.62 55.86 59.57 55 60.42 54.95 60.48 55.98 61.47 56.04 61.52 56.85 60.62 56.72 60.51"/><polygon class="cls-2" points="53.74 56.54 54.02 56.8 53.83 57.02 54.04 57.2 54.23 57 54.53 57.28 54.33 57.49 54.53 57.69 54.74 57.47 55.02 57.75 54.57 58.23 54.33 58.23 53.31 57.26 53.29 57.01 53.74 56.54"/><polygon class="cls-3" points="53.74 56.54 53.68 56.6 53.91 56.8 53.77 56.97 53.72 57.03 53.99 57.27 54.04 57.32 54.23 57.11 54.42 57.28 54.27 57.44 54.21 57.49 54.48 57.75 54.53 57.8 54.74 57.58 54.91 57.75 54.53 58.15 54.36 58.15 53.39 57.22 53.37 57.04 53.8 56.6 53.74 56.54 53.68 56.6 53.74 56.54 53.68 56.48 53.23 56.95 53.21 56.98 53.23 57.27 53.23 57.29 54.27 58.29 54.3 58.31 54.57 58.31 54.6 58.31 55.08 57.8 55.13 57.75 54.79 57.41 54.74 57.36 54.53 57.57 54.44 57.49 54.59 57.33 54.64 57.28 54.28 56.94 54.23 56.89 54.03 57.09 53.95 57.01 54.08 56.85 54.13 56.8 53.8 56.48 53.74 56.42 53.68 56.48 53.74 56.54"/><polygon class="cls-2" points="54.27 58.18 53.53 59.03 52.54 58.1 53.35 57.31 54.27 58.18"/><polygon class="cls-3" points="54.21 58.13 53.52 58.91 52.66 58.1 53.35 57.42 54.21 58.24 54.34 58.12 53.4 57.24 53.35 57.19 52.48 58.04 52.43 58.1 53.48 59.09 53.53 59.14 54.34 58.23 54.21 58.13"/><polygon class="cls-3" points="55.88 60.38 56.09 60.58 55.88 60.8 55.68 60.6 55.88 60.38"/><rect class="cls-3" x="53.22" y="58.07" width="0.3" height="0.28" transform="translate(-25.59 56.91) rotate(-46.54)"/><polygon class="cls-2" points="35.31 60.07 31.41 63.76 30.16 62.09 33.71 58.72 35.31 60.07"/><polygon class="cls-3" points="35.31 60.07 35.26 60.01 31.42 63.64 30.27 62.1 33.71 58.83 35.26 60.13 35.31 60.07 35.26 60.01 35.31 60.07 35.36 60.01 33.77 58.66 33.71 58.61 30.1 62.03 30.05 62.08 31.35 63.81 31.4 63.88 35.36 60.13 35.43 60.07 35.36 60.01 35.31 60.07"/><polygon class="cls-2" points="32.06 60.52 32.39 62.83 34.32 60.99 32.06 60.52"/><polygon class="cls-3" points="31.98 60.53 32.31 62.84 32.33 62.99 34.37 61.06 34.48 60.94 32.09 60.44 32.04 60.6 34.14 61.05 32.45 62.66 32.15 60.51 31.98 60.53"/><polygon class="cls-2" points="32.36 60.85 32.81 62.43 33.9 61.39 32.36 60.85"/><polygon class="cls-3" points="32.36 60.85 32.28 60.87 32.73 62.45 32.77 62.58 33.95 61.46 34.05 61.36 32.39 60.77 32.24 60.72 32.28 60.87 32.36 60.85 32.33 60.92 33.74 61.42 32.85 62.27 32.44 60.83 32.36 60.85 32.33 60.92 32.36 60.85"/><polygon class="cls-2" points="33.22 57.91 29.37 61.57 29.38 61.87 29.68 61.9 33.53 58.25 33.52 57.94 33.22 57.91"/><polygon class="cls-3" points="33.22 57.91 33.17 57.85 29.32 61.51 29.29 61.54 29.3 61.87 29.3 61.94 29.67 61.98 29.71 61.98 33.58 58.31 33.61 58.28 33.6 57.94 33.6 57.87 33.23 57.83 33.19 57.83 33.17 57.85 33.22 57.91 33.21 57.99 33.44 58.01 33.45 58.22 29.65 61.81 29.46 61.79 29.45 61.6 33.27 57.97 33.22 57.91 33.21 57.99 33.22 57.91"/><polygon class="cls-2" points="35.38 60 31.34 63.84 31.35 64.16 31.66 64.19 35.72 60.35 35.7 60.03 35.38 60"/><polygon class="cls-3" points="35.38 60 35.32 59.94 31.29 63.78 31.25 63.81 31.27 64.16 31.27 64.23 31.66 64.27 31.7 64.27 35.77 60.41 35.8 60.38 35.78 60.02 35.77 59.96 35.39 59.92 35.35 59.92 35.32 59.94 35.38 60 35.37 60.08 35.62 60.1 35.64 60.32 31.63 64.11 31.43 64.09 31.42 63.87 35.43 60.06 35.38 60 35.37 60.08 35.38 60"/><polygon class="cls-2" points="33.45 58.33 29.77 61.81 29.78 62.12 30.09 62.15 33.77 58.66 33.74 58.36 33.45 58.33"/><polygon class="cls-3" points="33.45 58.33 33.4 58.27 29.71 61.75 29.69 61.78 29.7 62.12 29.7 62.19 30.08 62.23 30.12 62.23 33.82 58.72 33.85 58.69 33.83 58.35 33.82 58.29 33.46 58.25 33.42 58.25 33.4 58.27 33.45 58.33 33.44 58.41 33.66 58.43 33.68 58.63 30.06 62.07 29.86 62.05 29.85 61.84 33.5 58.39 33.45 58.33 33.44 58.41 33.45 58.33"/><polygon class="cls-2" points="29.33 58.61 30.76 60.24 31.78 59.27 30.22 57.78 29.33 58.61"/><polygon class="cls-3" points="29.27 58.66 30.7 60.29 30.75 60.35 31.83 59.34 31.9 59.27 30.28 57.72 30.22 57.66 29.28 58.55 29.38 58.67 30.22 57.89 31.65 59.27 30.76 60.12 29.39 58.56 29.27 58.66"/><polygon class="cls-2" points="29.85 56.99 29.57 57.27 29.76 57.46 29.55 57.66 29.36 57.45 29.06 57.74 29.27 57.94 29.06 58.14 28.86 57.92 28.57 58.21 29.02 58.68 29.27 58.68 30.28 57.72 30.29 57.46 29.85 56.99"/><polygon class="cls-3" points="29.85 56.99 29.79 56.93 29.51 57.2 29.46 57.27 29.65 57.46 29.55 57.54 29.42 57.4 29.36 57.34 29 57.68 28.95 57.74 29.16 57.94 29.06 58.02 28.92 57.87 28.86 57.81 28.51 58.15 28.46 58.21 28.96 58.73 28.99 58.76 29.27 58.76 29.3 58.76 30.33 57.78 30.36 57.75 30.37 57.46 30.37 57.43 29.91 56.93 29.85 56.87 29.79 56.93 29.85 56.99 29.79 57.04 30.21 57.49 30.2 57.68 29.24 58.6 29.05 58.6 28.68 58.21 28.86 58.03 29 58.19 29.06 58.25 29.32 58 29.38 57.94 29.18 57.74 29.36 57.56 29.49 57.72 29.55 57.79 29.82 57.52 29.87 57.46 29.69 57.27 29.91 57.05 29.85 56.99 29.79 57.04 29.85 56.99"/><polygon class="cls-3" points="30.51 58.75 30.31 58.95 30.65 59.31 30.86 59.11 30.51 58.75"/><polygon class="cls-2" points="29.31 58.92 29.03 59.19 29.23 59.4 29.02 59.59 28.82 59.38 28.53 59.65 28.72 59.87 28.52 60.07 28.32 59.86 28.03 60.13 28.48 60.6 28.71 60.62 29.74 59.64 29.76 59.4 29.31 58.92"/><polygon class="cls-3" points="29.31 58.92 29.25 58.86 28.97 59.13 28.92 59.19 29.11 59.4 29.02 59.48 28.88 59.32 28.82 59.26 28.47 59.59 28.42 59.65 28.61 59.87 28.52 59.96 28.38 59.8 28.32 59.74 27.97 60.07 27.91 60.13 28.42 60.66 28.44 60.69 28.71 60.7 28.75 60.7 29.79 59.7 29.82 59.68 29.84 59.41 29.84 59.37 29.37 58.86 29.31 58.81 29.25 58.86 29.31 58.92 29.25 58.98 29.68 59.43 29.66 59.6 28.68 60.53 28.52 60.52 28.14 60.13 28.32 59.97 28.46 60.12 28.52 60.19 28.79 59.93 28.84 59.87 28.64 59.65 28.82 59.49 28.96 59.64 29.02 59.7 29.28 59.46 29.34 59.4 29.14 59.19 29.36 58.99 29.31 58.92 29.25 58.98 29.31 58.92"/><polygon class="cls-2" points="28.77 60.56 29.52 61.4 30.51 60.48 29.7 59.68 28.77 60.56"/><polygon class="cls-3" points="28.71 60.62 29.46 61.46 29.51 61.52 30.56 60.54 30.62 60.48 29.76 59.62 29.7 59.57 28.71 60.5 28.84 60.63 29.7 59.8 30.38 60.48 29.52 61.29 28.84 60.51 28.71 60.62"/><polygon class="cls-2" points="31.83 56.54 31.54 56.8 31.74 57.02 31.52 57.2 31.34 57 31.04 57.28 31.23 57.49 31.03 57.69 30.82 57.47 30.54 57.75 30.99 58.23 31.23 58.23 32.26 57.26 32.27 57.01 31.83 56.54"/><polygon class="cls-3" points="31.83 56.54 31.78 56.48 31.49 56.74 31.43 56.8 31.62 57.01 31.53 57.09 31.4 56.95 31.34 56.89 30.99 57.22 30.93 57.27 31.12 57.48 31.03 57.57 30.89 57.42 30.82 57.36 30.48 57.69 30.43 57.75 30.93 58.28 30.95 58.31 31.23 58.31 31.27 58.31 32.31 57.32 32.34 57.3 32.35 57.01 32.35 56.98 31.89 56.48 31.83 56.42 31.78 56.48 31.83 56.54 31.77 56.59 32.19 57.04 32.18 57.22 31.2 58.15 31.02 58.15 30.65 57.75 30.82 57.58 30.97 57.74 31.03 57.8 31.29 57.55 31.35 57.49 31.15 57.28 31.33 57.11 31.46 57.26 31.51 57.32 31.79 57.08 31.85 57.03 31.65 56.8 31.88 56.6 31.83 56.54 31.77 56.59 31.83 56.54"/><polygon class="cls-2" points="31.3 58.18 32.04 59.03 33.02 58.11 32.21 57.31 31.3 58.18"/><polygon class="cls-3" points="31.23 58.23 31.98 59.08 32.03 59.14 33.07 58.17 33.13 58.1 32.27 57.24 32.21 57.19 31.23 58.12 31.36 58.24 32.21 57.42 32.9 58.1 32.04 58.91 31.36 58.13 31.23 58.23"/><polygon class="cls-3" points="29.68 60.38 29.47 60.58 29.68 60.8 29.88 60.6 29.68 60.38"/><polygon class="cls-3" points="32.19 58 31.99 58.2 32.2 58.41 32.4 58.23 32.19 58"/><polygon class="cls-2" points="25.19 32.25 30.56 32.25 30.31 30.18 25.42 30.18 25.19 32.25"/><polygon class="cls-3" points="25.19 32.25 25.19 32.33 30.56 32.33 30.65 32.33 30.39 30.17 30.38 30.1 25.42 30.1 25.34 30.1 25.11 32.24 25.1 32.33 25.19 32.33 25.19 32.25 25.27 32.26 25.49 30.26 30.24 30.26 30.47 32.17 25.19 32.17 25.19 32.25 25.27 32.26 25.19 32.25"/><polygon class="cls-2" points="27.85 30.34 29.21 32.25 26.54 32.25 27.85 30.34"/><polygon class="cls-3" points="27.78 30.39 29.05 32.17 26.7 32.17 27.93 30.39 27.78 30.29 26.47 32.2 26.39 32.33 29.21 32.33 29.37 32.33 27.91 30.29 27.79 30.39 27.78 30.39"/><path class="cls-2" d="M27.86,30.79a1.59,1.59,0,0,1,.77,1.45H27.12a1.6,1.6,0,0,1,.75-1.45"/><path class="cls-3" d="M27.86,30.79l0,.07a1.49,1.49,0,0,1,.73,1.38h.08v-.08H27.12v.08h.08a1.52,1.52,0,0,1,.71-1.38l0-.07,0,.07,0-.07,0-.07A1.68,1.68,0,0,0,27,32.25v.08h1.68v-.08a1.67,1.67,0,0,0-.81-1.53l0,0,0,0Z"/><polygon class="cls-2" points="25.09 32.25 30.67 32.25 30.89 32.49 30.67 32.74 25.09 32.74 24.87 32.49 25.09 32.25"/><polygon class="cls-3" points="25.09 32.25 25.09 32.33 30.63 32.33 30.77 32.49 30.63 32.66 25.12 32.66 24.98 32.49 25.15 32.3 25.09 32.25 25.09 32.33 25.09 32.25 25.03 32.2 24.81 32.44 24.76 32.49 25.03 32.79 25.05 32.82 30.67 32.82 30.71 32.82 30.95 32.55 31 32.49 30.73 32.2 30.71 32.17 25.09 32.17 25.05 32.17 25.03 32.2 25.09 32.25"/><polygon class="cls-2" points="25.19 47.8 30.56 47.8 30.31 45.72 25.42 45.72 25.19 47.8"/><polygon class="cls-3" points="25.19 47.8 25.19 47.88 30.56 47.88 30.65 47.88 30.39 45.71 30.38 45.64 25.42 45.64 25.34 45.64 25.11 47.79 25.1 47.88 25.19 47.88 25.19 47.8 25.27 47.81 25.49 45.8 30.24 45.8 30.47 47.72 25.19 47.72 25.19 47.8 25.27 47.81 25.19 47.8"/><polygon class="cls-2" points="27.85 45.89 29.21 47.8 26.54 47.8 27.85 45.89"/><polygon class="cls-3" points="27.78 45.95 29.05 47.72 26.7 47.72 27.93 45.95 27.78 45.84 26.47 47.75 26.39 47.88 29.21 47.88 29.36 47.88 27.91 45.84 27.79 45.95 27.78 45.95"/><path class="cls-2" d="M27.86,46.34a1.58,1.58,0,0,1,.77,1.46H27.12a1.6,1.6,0,0,1,.75-1.46"/><path class="cls-3" d="M27.86,46.34l0,.07a1.46,1.46,0,0,1,.73,1.38h.08v-.08H27.12v.08h.08a1.51,1.51,0,0,1,.71-1.38l0-.07,0,.07,0-.07,0-.07A1.67,1.67,0,0,0,27,47.8v.08h1.68V47.8a1.65,1.65,0,0,0-.82-1.53l0,0,0,0Z"/><polygon class="cls-2" points="25.23 44.8 30.53 44.8 30.73 45.02 30.53 45.26 25.23 45.26 25.03 45.02 25.23 44.8"/><polygon class="cls-3" points="25.23 44.8 25.23 44.88 30.49 44.88 30.62 45.02 30.49 45.18 25.27 45.18 25.14 45.02 25.29 44.85 25.23 44.8 25.23 44.88 25.23 44.8 25.17 44.75 24.96 44.97 24.91 45.02 25.17 45.31 25.19 45.34 30.53 45.34 30.57 45.34 30.79 45.08 30.84 45.02 30.59 44.75 30.56 44.72 25.23 44.72 25.19 44.72 25.17 44.75 25.23 44.8"/><polygon class="cls-2" points="25.09 47.8 30.67 47.8 30.89 48.05 30.67 48.28 25.09 48.28 24.87 48.05 25.09 47.8"/><polygon class="cls-3" points="25.09 47.8 25.09 47.88 30.63 47.88 30.77 48.05 30.63 48.2 25.12 48.2 24.99 48.05 25.15 47.85 25.09 47.8 25.09 47.88 25.09 47.8 25.03 47.75 24.81 47.99 24.76 48.05 25.03 48.33 25.05 48.36 30.67 48.36 30.71 48.36 30.95 48.1 31 48.05 30.73 47.75 30.71 47.72 25.09 47.72 25.05 47.72 25.03 47.75 25.09 47.8"/><polygon class="cls-2" points="25.34 45.26 30.41 45.26 30.61 45.48 30.41 45.71 25.34 45.71 25.15 45.48 25.34 45.26"/><polygon class="cls-3" points="25.34 45.26 25.34 45.34 30.37 45.34 30.5 45.48 30.37 45.63 25.39 45.63 25.26 45.48 25.41 45.31 25.34 45.26 25.34 45.34 25.34 45.26 25.28 45.21 25.09 45.43 25.04 45.48 25.28 45.76 25.3 45.79 30.41 45.79 30.45 45.79 30.67 45.54 30.71 45.48 30.48 45.21 30.45 45.18 25.34 45.18 25.3 45.18 25.28 45.21 25.34 45.26"/><polygon class="cls-2" points="28.53 42.63 28.61 44.81 27.2 44.79 27.3 42.63 28.53 42.63"/><polygon class="cls-3" points="28.45 42.63 28.53 44.73 27.28 44.7 27.38 42.71 28.53 42.71 28.53 42.54 27.3 42.54 27.22 42.54 27.12 44.79 27.11 44.87 28.61 44.89 28.69 44.89 28.61 42.63 28.45 42.63"/><polygon class="cls-2" points="27.03 41.82 27.42 41.82 27.42 42.1 27.71 42.1 27.71 41.81 28.11 41.81 28.11 42.1 28.4 42.1 28.4 41.81 28.8 41.81 28.8 42.46 28.62 42.64 27.22 42.64 27.03 42.46 27.03 41.82"/><polygon class="cls-3" points="27.03 41.82 27.03 41.9 27.34 41.9 27.34 42.1 27.34 42.19 27.71 42.19 27.79 42.19 27.79 41.89 28.03 41.89 28.03 42.1 28.03 42.19 28.4 42.19 28.48 42.19 28.48 41.89 28.71 41.89 28.71 42.43 28.59 42.55 27.25 42.55 27.12 42.42 27.12 41.82 27.03 41.82 27.03 41.9 27.03 41.82 26.95 41.82 26.95 42.46 26.95 42.49 27.17 42.7 27.19 42.72 28.62 42.72 28.65 42.72 28.86 42.52 28.88 42.49 28.88 41.81 28.88 41.73 28.4 41.73 28.32 41.73 28.32 42.02 28.19 42.02 28.19 41.81 28.19 41.73 27.71 41.73 27.63 41.73 27.63 42.02 27.5 42.02 27.5 41.82 27.5 41.73 27.03 41.73 26.95 41.73 26.95 41.82 27.03 41.82"/><rect class="cls-3" x="27.77" y="43.54" width="0.28" height="0.51"/><polygon class="cls-2" points="28.75 42.84 29.14 42.84 29.14 43.13 29.43 43.13 29.43 42.84 29.83 42.84 29.83 43.13 30.12 43.13 30.12 42.84 30.52 42.84 30.52 43.5 30.34 43.66 28.93 43.66 28.75 43.5 28.75 42.84"/><polygon class="cls-3" points="28.75 42.84 28.75 42.92 29.06 42.92 29.06 43.13 29.06 43.21 29.43 43.21 29.51 43.21 29.51 42.92 29.75 42.92 29.75 43.13 29.75 43.21 30.12 43.21 30.2 43.21 30.2 42.92 30.43 42.92 30.43 43.47 30.31 43.58 28.93 43.58 28.83 43.47 28.83 42.84 28.75 42.84 28.75 42.92 28.75 42.84 28.66 42.84 28.66 43.5 28.66 43.53 28.88 43.72 30.34 43.74 30.37 43.74 30.57 43.56 30.6 43.53 30.6 42.84 30.6 42.76 30.12 42.76 30.04 42.76 30.04 43.05 29.91 43.05 29.91 42.84 29.91 42.76 29.43 42.76 29.35 42.76 29.35 43.05 29.23 43.05 29.23 42.84 29.23 42.76 28.75 42.76 28.66 42.76 28.66 42.84 28.75 42.84"/><polygon class="cls-2" points="30.26 43.66 30.31 44.81 28.96 44.81 29 43.66 30.26 43.66"/><polygon class="cls-3" points="30.18 43.66 30.23 44.73 29.04 44.73 29.08 43.74 30.26 43.74 30.26 43.58 29 43.58 28.92 43.58 28.88 44.81 28.88 44.89 30.31 44.89 30.39 44.89 30.34 43.66 30.18 43.66"/><polygon class="cls-2" points="25.29 42.84 25.68 42.84 25.68 43.13 25.97 43.13 25.97 42.84 26.37 42.84 26.37 43.13 26.66 43.13 26.66 42.84 27.05 42.84 27.05 43.5 26.88 43.66 25.47 43.66 25.29 43.5 25.29 42.84"/><polygon class="cls-3" points="25.29 42.84 25.29 42.92 25.6 42.92 25.6 43.13 25.6 43.21 25.97 43.21 26.05 43.21 26.05 42.92 26.29 42.92 26.29 43.13 26.29 43.21 26.66 43.21 26.74 43.21 26.74 42.92 26.97 42.92 26.97 43.47 26.85 43.58 25.5 43.58 25.38 43.47 25.38 42.84 25.29 42.84 25.29 42.92 25.29 42.84 25.21 42.84 25.21 43.5 25.21 43.53 25.41 43.72 25.44 43.74 26.88 43.74 26.91 43.74 27.11 43.56 27.14 43.53 27.14 42.84 27.14 42.76 26.66 42.76 26.57 42.76 26.57 43.05 26.45 43.05 26.45 42.84 26.45 42.76 25.97 42.76 25.89 42.76 25.89 43.05 25.76 43.05 25.76 42.84 25.76 42.76 25.29 42.76 25.21 42.76 25.21 42.84 25.29 42.84"/><polygon class="cls-2" points="26.8 43.66 26.85 44.81 25.5 44.81 25.54 43.66 26.8 43.66"/><polygon class="cls-3" points="26.72 43.66 26.77 44.73 25.58 44.73 25.62 43.74 26.8 43.74 26.8 43.58 25.54 43.58 25.46 43.58 25.42 44.81 25.42 44.89 26.85 44.89 26.93 44.89 26.88 43.66 26.72 43.66"/><rect class="cls-3" x="29.49" y="44.15" width="0.29" height="0.31"/><rect class="cls-3" x="26.03" y="44.15" width="0.29" height="0.31"/><circle class="cls-8" cx="46.47" cy="46.47" r="46.47"/><ellipse class="cls-9" cx="47.28" cy="36.86" rx="36.53" ry="31.69"/></g></g></svg>