<svg xmlns="http://www.w3.org/2000/svg" xmlns:xlink="http://www.w3.org/1999/xlink" viewBox="0 0 92.93 92.93"><defs><style>.cls-1{isolation:isolate;}.cls-2{fill:#cd3a2b;}.cls-3{fill:#f4d131;}.cls-4{opacity:0.6;mix-blend-mode:multiply;fill:url(#radial-gradient);}.cls-5{opacity:0.7;fill:url(#radial-gradient-2);}</style><radialGradient id="radial-gradient" cx="46.47" cy="46.47" r="46.47" gradientUnits="userSpaceOnUse"><stop offset="0" stop-color="#fff" stop-opacity="0"/><stop offset="0.35" stop-color="#fbfbfb" stop-opacity="0.02"/><stop offset="0.53" stop-color="#eeedec" stop-opacity="0.11"/><stop offset="0.67" stop-color="#d8d6d2" stop-opacity="0.25"/><stop offset="0.79" stop-color="#b8b5ae" stop-opacity="0.44"/><stop offset="0.9" stop-color="#908b80" stop-opacity="0.7"/><stop offset="1" stop-color="#605949"/></radialGradient><radialGradient id="radial-gradient-2" cx="-272.05" cy="-60.67" r="27.44" gradientTransform="translate(419.28 94.44) scale(1.33 1.16)" gradientUnits="userSpaceOnUse"><stop offset="0" stop-color="#fff"/><stop offset="1" stop-color="#fff" stop-opacity="0"/></radialGradient></defs><title>Artboard 76</title><g class="cls-1"><g id="Layer_4" data-name="Layer 4"><path class="cls-2" d="M1.38,35.31A46.45,46.45,0,1,1,35.31,91.55,46.44,46.44,0,0,1,1.38,35.31"/><path class="cls-3" d="M34.66,32.51q.74,0,1.47.12A25.65,25.65,0,0,1,43,34.29l.51.06,1-.56a30.2,30.2,0,0,0-3.73-1.21A25.92,25.92,0,0,0,37.27,32q-.95-.1-1.9-.14Z"/><polygon class="cls-3" points="45.52 38.77 46.47 39.48 46.49 39.49 47.42 38.77 46.51 38.1 46.47 38.13 45.52 38.77"/><path class="cls-3" d="M45.53,25.36h2.29l.24-.07a3.15,3.15,0,0,1-.2-.47,8.81,8.81,0,0,1-.29-2.09c0-1.54.21-3,.35-4.58A21.72,21.72,0,0,0,48,15.64a4.86,4.86,0,0,0-1.48-3.53l.17,1.46a11.14,11.14,0,0,1-.21,2.36c-.21,1.14-.55,2.25-.87,3.36a16.62,16.62,0,0,0-.86,4.64l.13,1.37Z"/><path class="cls-3" d="M37.57,19.71l.1,2.41a10.07,10.07,0,0,0,1.06,4.5l.21.18a20,20,0,0,1,5.93-1.39l-.4-1a13.88,13.88,0,0,1-.66-3.83,28.36,28.36,0,0,0-.57-5.25,4.68,4.68,0,0,0-1.91-2.84l.29,1a10.52,10.52,0,0,1,.24,3.32c-.09,1.71-.43,3.4-.53,5.11a8.84,8.84,0,0,0,.47,3.88l-.93-1.56c-1-2.5-1.13-5.28-2.16-7.78a4.83,4.83,0,0,0-2.48-2.76,9.56,9.56,0,0,1,1.22,3.94Z"/><path class="cls-3" d="M29.32,21.7c.73,1.59,1.2,3.28,1.88,4.88a9,9,0,0,0,2.35,3.52,19.9,19.9,0,0,1,5-3.11l.33-.17-.26,0,.19-.05L37.45,25c-1.28-2.23-1.82-4.81-3.15-7a4.81,4.81,0,0,0-2.88-2.32,9.32,9.32,0,0,1,1.82,3.73c.45,1.67.67,3.39,1.09,5.06a10.11,10.11,0,0,0,1.11,2.89l.56.81L34.24,26.5c-1.52-2-2.44-4.33-4-6.24A4.84,4.84,0,0,0,27,18.41,9.32,9.32,0,0,1,29.32,21.7Z"/><path class="cls-3" d="M23,28.34c1.39,1.54,2.51,3.31,4,4.78a6.88,6.88,0,0,0,2.49,1.7,20,20,0,0,1,4-4.71l-2-1.35c-1.9-1.74-3.2-4-5.16-5.69a4.89,4.89,0,0,0-3-1.28l-.36,0L24.7,23.2c1.53,1.69,2.44,3.8,3.6,5.73a11.84,11.84,0,0,0,2,2.6l.95.73-1.61-.69c-2.38-1.42-4.11-3.69-6.47-5.12a5.32,5.32,0,0,0-2.65-.81,3.56,3.56,0,0,0-.89.11A9.19,9.19,0,0,1,23,28.34Z"/><path class="cls-3" d="M33.78,33.57l-.14.05-.46.61h.13a24.33,24.33,0,0,1,7.48,1.86l.95-.66a24.9,24.9,0,0,0-7.33-1.82Z"/><polygon class="cls-3" points="43.66 36.39 42.78 37.05 43.88 37.7 44.84 37.02 43.74 36.39 43.66 36.39"/><path class="cls-3" d="M44.43,60.61a16.3,16.3,0,0,0,2,.13h0a16.71,16.71,0,0,0,6.83-1.46l.05-.63-.1-2.14a23.4,23.4,0,0,0-6.64-14.41l-.15,0h-.1L45,43.59a23.12,23.12,0,0,0-3.72,6.29,23.39,23.39,0,0,0-1.64,9.39A16.78,16.78,0,0,0,44.43,60.61Z"/><path class="cls-3" d="M37.67,54.65A24.25,24.25,0,0,1,45.12,40.7l-1-.75-.54.47a24.94,24.94,0,0,0-7.72,16.51L37.35,58A29.09,29.09,0,0,1,37.67,54.65Z"/><path class="cls-3" d="M31.19,37.67a16.58,16.58,0,0,0-1.28,7.51,15.36,15.36,0,0,0,1,4.61,23.49,23.49,0,0,1,1.45-3.57,28,28,0,0,1,7.16-9.1,23.56,23.56,0,0,0-7-1.91A17.75,17.75,0,0,0,31.19,37.67Z"/><path class="cls-3" d="M23.21,34.5a16.88,16.88,0,0,0,3.14,2.44l1,.37.75.28.43-.86.75-1.5.19-.42A7.46,7.46,0,0,1,26.82,34c-1.32-.68-2.55-1.54-3.82-2.33a12.15,12.15,0,0,0-3.35-1.59,4.79,4.79,0,0,0-1.23-.16,3.91,3.91,0,0,0-1.51.29,8.59,8.59,0,0,1,2.94,1.39A33.68,33.68,0,0,1,23.21,34.5Z"/><path class="cls-3" d="M36.51,46.35A25.49,25.49,0,0,1,41.21,40l1.27-1.18v-.13L41.4,38.1l-1.27,1.14a26.62,26.62,0,0,0-7.62,13.69l.07.3,1.17,1.56a27.13,27.13,0,0,1,1.75-6.3l.22-.6V48Z"/><path class="cls-3" d="M41.8,64.66l-.23-.1A20,20,0,0,1,29.5,55.68l-.75.89a20.24,20.24,0,0,1-4.4,3A16.62,16.62,0,0,0,21,62a4.54,4.54,0,0,0-1.38,2.77l1.83-1.54c2.29-1.4,5-1.92,7.33-3.11a8.55,8.55,0,0,0,2.44-1.79,7.42,7.42,0,0,1-1.63,2.25c-1.18,1.17-2.52,2.14-3.76,3.21a10,10,0,0,0-2.29,2.63L23,68.46l.09.14a8.71,8.71,0,0,1,2.19-2.25c1.88-1.41,4.09-2.29,6-3.65a8.65,8.65,0,0,0,2.2-2.21,7.92,7.92,0,0,1-1.54,2.85c-1,1.25-2.11,2.37-3.12,3.6l-1.49,2.29A4.53,4.53,0,0,0,27,72.05l.49-.92a10.84,10.84,0,0,1,2.1-2.43c.88-.78,1.82-1.49,2.75-2.22a15,15,0,0,0,3-3L36,62.35a9.5,9.5,0,0,1-1.49,3.76c-.85,1.4-1.82,2.72-2.57,4.18a6.67,6.67,0,0,0-.85,3.2l.26,1.31.83-2c1.31-2.31,3.41-4,5-6a7.61,7.61,0,0,0,1.55-3l0,1.36a19.78,19.78,0,0,1-1.54,4.28,17.13,17.13,0,0,0-1.5,4.34,4.41,4.41,0,0,0,.51,3,8.57,8.57,0,0,1,.88-3c1-2.13,2.62-3.93,3.74-6A7.83,7.83,0,0,0,41.8,64.66Z"/><path class="cls-3" d="M25.43,53.83a7.2,7.2,0,0,0,2.62-1l-.41-1.13a20.06,20.06,0,0,1-1.06-5.44A22.5,22.5,0,0,1,26.68,43a20.93,20.93,0,0,1,1.39-5.42l-1.14-.12-.86-.09c-2.39-.58-4.51-1.93-6.86-2.64l-2.41-.33L14.92,35l1.4.26a15.9,15.9,0,0,1,4.5,2.35c.78.53,1.57,1.08,2.38,1.57a12.31,12.31,0,0,0,2.17,1.05l1.72.39a7,7,0,0,1-1.31.12,15.51,15.51,0,0,1-3.8-.62l-.69-.18a19.5,19.5,0,0,0-4.47-.85h-.14a4.73,4.73,0,0,0-3,1h.41a9.64,9.64,0,0,1,3.09.54c.37.12.74.26,1.1.41,1.66.68,3.24,1.56,4.93,2.16a8.57,8.57,0,0,0,3,.57h.22a7,7,0,0,1-2.65.42l-.88,0c-1.77-.06-3.54-.4-5.32-.4a11.76,11.76,0,0,0-1.18.06,4.79,4.79,0,0,0-3.17,1.48l1.51-.19h.26a16.9,16.9,0,0,1,4.63.85A22.49,22.49,0,0,0,24.61,47l1.91-.13a11.09,11.09,0,0,1-4.75,1.06,26.11,26.11,0,0,0-5.39.62,4.47,4.47,0,0,0-2.64,1.87L16,49.89c.37,0,.75-.05,1.12-.05a27.73,27.73,0,0,1,3.48.29,27.74,27.74,0,0,0,3.48.29c.39,0,.77,0,1.16-.05l1.83-.43-2.3,1.19a38.89,38.89,0,0,1-4.09,1,13.77,13.77,0,0,0-3.82,1.29,4.36,4.36,0,0,0-1.9,2l1.17-.56a14.34,14.34,0,0,1,4.56-.76A35.88,35.88,0,0,0,25.43,53.83Z"/><path class="cls-3" d="M28.35,56.43l1.15-.76a23.31,23.31,0,0,1-1.43-2.79l-1.94,1.46a49.3,49.3,0,0,1-4.8,2,11.45,11.45,0,0,0-3,1.7A4.11,4.11,0,0,0,17,60.29a8.11,8.11,0,0,1,2.31-1.34,29.89,29.89,0,0,1,5-1.23A14.39,14.39,0,0,0,28.35,56.43Z"/><path class="cls-3" d="M52.28,32.56a27.73,27.73,0,0,0-3.83,1.24l1,.57.41,0a26.6,26.6,0,0,1,8.37-1.81l-.72-.69A27.59,27.59,0,0,0,52.28,32.56Z"/><path class="cls-3" d="M52.38,36a24,24,0,0,1,7.38-1.78l-.51-.63H58.8a24.88,24.88,0,0,0-7.59,1.84l.85.58Z"/><path class="cls-3" d="M59,29.74a24,24,0,0,1,2.67,2.57l1.57-2.18c1.71-1.79,3.88-3.05,5.47-5a4.78,4.78,0,0,0,1.27-3.38l-1.87,2.09c-1.85,1.48-4.08,2.38-6,3.68A8.59,8.59,0,0,0,59.47,30L60,28.57a28.21,28.21,0,0,1,3.39-4.22,13.17,13.17,0,0,0,2.21-3.18A4.38,4.38,0,0,0,66,18.43a9.61,9.61,0,0,1-2.33,3.14c-1.77,1.67-3.9,2.91-5.51,4.72l-1.2,1.82.1-.7a10.59,10.59,0,0,1,1.08-2.52c.78-1.4,1.73-2.68,2.52-4.08a8.6,8.6,0,0,0,1.13-3l-.22-2.16a9,9,0,0,1-1.11,2.49c-1.31,2-3.21,3.61-4.71,5.51a8,8,0,0,0-1.6,3.09l.31-2.45a38.32,38.32,0,0,1,1.67-4.13,13.87,13.87,0,0,0,1.12-3.54c0-.13,0-.26,0-.39a4.23,4.23,0,0,0-.57-2.59,9,9,0,0,1-1.19,3.67c-.42.77-.9,1.5-1.39,2.22a26.8,26.8,0,0,0-2.33,3.82l-.67,2.32L51,24.82a11.08,11.08,0,0,1,.28-2.7c.16-.77.38-1.53.57-2.29a16.29,16.29,0,0,0,.77-4.48L52.06,13l-.4-.46-.13,2c-.53,2.67-2.09,5-3,7.52A8,8,0,0,0,48,24.71a4.74,4.74,0,0,0,.05.7A19.72,19.72,0,0,1,59,29.74Z"/><polygon class="cls-3" points="46.51 34.76 46.47 34.78 45.34 35.37 46.47 35.97 46.49 35.98 47.62 35.37 46.51 34.76"/><polygon class="cls-3" points="48.12 37 49.05 37.7 50.19 37.04 49.26 36.37 48.12 37"/><path class="cls-3" d="M46.46,27.55h0a16.36,16.36,0,0,0-2.63.21,16.58,16.58,0,0,0-7,2.92c.75.05,1.51.11,2.26.2s1.49.2,2.22.36a27.31,27.31,0,0,1,4.53,1.33l.7.25h0l.42-.15a28,28,0,0,1,9.28-2,16.45,16.45,0,0,0-8.66-3.11Q47,27.55,46.46,27.55Z"/><path class="cls-3" d="M68.9,50.86a8.18,8.18,0,0,0-3-1l-.11.25a18.2,18.2,0,0,1-.89,2.73h.33a10.58,10.58,0,0,1,3.9,1,36,36,0,0,0,5.28,2.06,6.24,6.24,0,0,0,1.44.18A4.14,4.14,0,0,0,78,55.51L75.77,55C73.27,54,71.25,52.11,68.9,50.86Z"/><path class="cls-3" d="M75.48,49.85c-2.2-.77-4.19-2-6.42-2.7a8.31,8.31,0,0,0-2.46-.34h-.27a23.16,23.16,0,0,1-.48,3.07l1.56-.1c2.86.13,5.51,1.44,8.36,1.64l.47,0a4.76,4.76,0,0,0,3-1h-.39A9.86,9.86,0,0,1,75.48,49.85Z"/><path class="cls-3" d="M67.38,54a6.52,6.52,0,0,0-2.53-1.14,27.5,27.5,0,0,1-1.38,2.77,7.71,7.71,0,0,1,2.53.78c1.7.85,3.23,2,4.87,2.95a9,9,0,0,0,3,1.15L76,60.31a10.57,10.57,0,0,1-4.42-2.57A50.65,50.65,0,0,0,67.38,54Z"/><path class="cls-3" d="M69.58,61.79c-1.21-1.42-2.25-3-3.55-4.32a7.77,7.77,0,0,0-2.58-1.8,27,27,0,0,1-1.84,2.54l2.1,1a22.36,22.36,0,0,1,2.63,2.12,21.41,21.41,0,0,0,3.72,2.91,5,5,0,0,0,2.35.64,3.76,3.76,0,0,0,.9-.11A10.15,10.15,0,0,1,69.58,61.79Z"/><path class="cls-3" d="M78.05,45.44h-.3A13.21,13.21,0,0,1,74.6,45a34.73,34.73,0,0,0-6.29-1.45l-1.92.13A8.25,8.25,0,0,1,69,42.81c1.6-.26,3.24-.26,4.84-.38a10.77,10.77,0,0,0,3.38-.71l2-1.63-.78.25a9.32,9.32,0,0,1-2.6.32c-.37,0-.75,0-1.12,0-1.93-.13-3.87-.54-5.81-.54a11.58,11.58,0,0,0-1.36.08l-1.64.41L68,39.43a42.27,42.27,0,0,1,4.69-1.18A12.2,12.2,0,0,0,76.23,37,4.15,4.15,0,0,0,78,35l-1,.49a12.82,12.82,0,0,1-4.07.8c-1.5.08-3,.07-4.49.22a8.77,8.77,0,0,0-3.53,1.07L67.17,36c1.24-.63,2.56-1.09,3.85-1.6a13.82,13.82,0,0,0,3.4-1.79A4.51,4.51,0,0,0,76,30.21l-2,1.19c-2.67,1.16-5.64,1.17-8.36,2.16l-2.12,1.15.72-.92a23.36,23.36,0,0,1,4.41-3,14.34,14.34,0,0,0,3.46-2.55,4.1,4.1,0,0,0,1.1-2.48l-1.63,1.41c-2.13,1.4-4.67,1.94-7,3a8.49,8.49,0,0,0-3.07,2.15,19.73,19.73,0,0,1,4.75,12.44l0,2,2-.4.89,0a37.72,37.72,0,0,1,3.88.29c.75.07,1.5.14,2.26.14a8.89,8.89,0,0,0,2-.21,4.44,4.44,0,0,0,2.28-1.32Z"/><path class="cls-3" d="M66.23,64.38a29.26,29.26,0,0,0-3.06-4.88l-1.6-1.28A19.83,19.83,0,0,1,48.85,65l-.81.17.75,1.92a23.39,23.39,0,0,1,.41,3.61,19.65,19.65,0,0,0,.57,4.62A4.65,4.65,0,0,0,51.66,78a8.2,8.2,0,0,1-.57-2.59,18.67,18.67,0,0,1,.12-3.12,24.78,24.78,0,0,0,.35-6.08l-.36-1.49a10,10,0,0,1,1.62,3.82,32,32,0,0,0,1.57,5.82,4.58,4.58,0,0,0,2.33,2.42,10.66,10.66,0,0,1-1.3-5l-.1-2.3a12.08,12.08,0,0,0-1.17-5.75A7.82,7.82,0,0,1,55.81,66c.48,1,.86,2,1.25,3A17.52,17.52,0,0,0,59,73a4.36,4.36,0,0,0,2.53,1.8,9.07,9.07,0,0,1-1.77-3.52c-.6-2.11-.78-4.32-1.46-6.4a8.43,8.43,0,0,0-1.38-2.59,11.5,11.5,0,0,1,3.26,4,23.78,23.78,0,0,0,2.88,4.3,4.58,4.58,0,0,0,2.9,1.5,9.51,9.51,0,0,1-2.41-3.44c-.88-2-1.41-4.09-2.42-6l-1.63-2.15L61.64,62a31.9,31.9,0,0,1,2.25,2.59A17.22,17.22,0,0,0,67,67.78a4.55,4.55,0,0,0,2.62.93l.32,0A11.16,11.16,0,0,1,66.23,64.38Z"/><path class="cls-3" d="M62.09,49.75A16.1,16.1,0,0,0,63,45.94,20.59,20.59,0,0,0,63,43.2a16.69,16.69,0,0,0-2.58-8,23.73,23.73,0,0,0-7,1.91,28,28,0,0,1,7.28,9.3C61.25,47.5,61.66,48.63,62.09,49.75Z"/><path class="cls-3" d="M60.47,53.06,60,51.2a26.72,26.72,0,0,0-8.48-13.1l-1.12.66,1.95,1.92a25.82,25.82,0,0,1,6.82,14.11Z"/><path class="cls-3" d="M55.57,58,57,57a24.78,24.78,0,0,0-6-14.69l-2.23-2.32-1,.74A24.23,24.23,0,0,1,55.57,58Z"/><path class="cls-3" d="M46.64,65.15h-.39a18.94,18.94,0,0,1-3.87-.41l-.49-.08,0,.08L42,65.89a19.68,19.68,0,0,1-.92,5,15.83,15.83,0,0,0-.73,4.35,4.43,4.43,0,0,0,1,2.81,8.72,8.72,0,0,1,.48-3.41c.76-2.36,2.15-4.48,2.84-6.88a9.85,9.85,0,0,0,.33-2.55,8,8,0,0,1,.4,2.64,28,28,0,0,1-.26,3.72,15.94,15.94,0,0,0,0,4.36,4.39,4.39,0,0,0,1.38,2.52h0v0a9,9,0,0,1,0-3.74q0-.24.1-.48c.31-1.5.82-3,1.2-4.46a12.32,12.32,0,0,0,.44-3.06L48,65.09Z"/><circle class="cls-4" cx="46.47" cy="46.47" r="46.47"/><ellipse class="cls-5" cx="47.28" cy="36.86" rx="36.53" ry="31.69"/></g></g></svg>