<svg xmlns="http://www.w3.org/2000/svg" xmlns:xlink="http://www.w3.org/1999/xlink" viewBox="0 0 113.11 97.59"><defs><style>.cls-1{fill:none;}.cls-2{isolation:isolate;}.cls-3{clip-path:url(#clip-path);}.cls-4{fill:#ff0203;}.cls-5{fill:#009242;}.cls-6{fill:#fff;}.cls-7{opacity:0.6;mix-blend-mode:multiply;fill:url(#radial-gradient);}.cls-8{opacity:0.7;fill:url(#radial-gradient-2);}</style><clipPath id="clip-path"><circle class="cls-1" cx="56.56" cy="48.41" r="46.07"/></clipPath><radialGradient id="radial-gradient" cx="56.56" cy="48.41" r="46.07" gradientUnits="userSpaceOnUse"><stop offset="0" stop-color="#fff" stop-opacity="0"/><stop offset="0.35" stop-color="#fbfbfb" stop-opacity="0.02"/><stop offset="0.53" stop-color="#eeedec" stop-opacity="0.11"/><stop offset="0.67" stop-color="#d8d6d2" stop-opacity="0.25"/><stop offset="0.79" stop-color="#b8b5ae" stop-opacity="0.44"/><stop offset="0.9" stop-color="#908b80" stop-opacity="0.7"/><stop offset="1" stop-color="#605949"/></radialGradient><radialGradient id="radial-gradient-2" cx="106.47" cy="13.57" r="27.21" gradientTransform="translate(-74.64 10.82) scale(1.33 1.16)" gradientUnits="userSpaceOnUse"><stop offset="0" stop-color="#fff"/><stop offset="1" stop-color="#fff" stop-opacity="0"/></radialGradient></defs><title>Artboard 15</title><g class="cls-2"><g id="objects"><g class="cls-3"><rect class="cls-4" y="2.33" width="113.11" height="109.7"/><rect class="cls-5" y="68.07" width="113.11" height="109.7"/><rect class="cls-6" y="2.33" width="37.54" height="173.94"/><polygon class="cls-4" points="12.92 107.33 14.45 107.33 14.45 110.89 15.8 110.89 15.8 114.76 17.35 114.76 17.35 118.18 19.1 118.18 19.1 114.76 20.65 114.76 20.65 110.89 22.15 110.89 22.15 107.33 23.68 107.33 23.68 103.77 23.69 103.77 25.18 103.77 25.19 103.77 25.19 107.33 26.72 107.33 26.72 110.89 28.22 110.89 28.22 114.76 29.77 114.76 29.77 118.18 31.52 118.18 31.52 114.76 33.07 114.76 33.07 110.89 34.42 110.89 34.42 107.33 35.95 107.33 35.95 103.77 37.45 103.77 37.45 100.2 35.95 100.2 35.95 96.65 34.41 96.65 34.41 93.09 33.07 93.09 33.07 89.26 31.54 89.26 31.54 93.09 29.86 93.09 29.86 96.5 29.86 96.65 28.26 96.65 28.26 100.4 29.86 100.4 29.86 104.38 28.26 104.38 28.26 101.69 26.76 101.69 26.76 96.65 25.19 96.65 25.19 100.2 25.18 100.2 23.69 100.2 23.68 100.2 23.68 96.65 22.11 96.65 22.11 101.69 20.61 101.69 20.61 104.38 19.01 104.38 19.01 100.4 20.61 100.4 20.61 96.65 19.01 96.65 19.01 96.5 19.01 93.09 17.33 93.09 17.33 89.26 15.8 89.26 15.8 93.09 14.46 93.09 14.46 96.65 12.92 96.65 12.92 100.2 11.42 100.2 11.42 103.77 12.92 103.77 12.92 107.33"/><rect class="cls-4" x="22.11" y="95.95" width="4.64" height="1.37"/><rect class="cls-4" x="22.92" y="92.2" width="2.95" height="3.96"/><rect class="cls-4" x="20.55" y="90.17" width="7.75" height="2.03"/><rect class="cls-4" x="20.55" y="88.52" width="3.09" height="3.68"/><rect class="cls-4" x="25.21" y="88.52" width="3.09" height="3.68"/><rect class="cls-4" x="19.11" y="85.14" width="3.66" height="4.12"/><rect class="cls-4" x="17.55" y="82.25" width="3" height="4.95"/><rect class="cls-4" x="12.97" y="82.25" width="3" height="4.95"/><rect class="cls-4" x="11.47" y="85.14" width="3" height="4.22"/><rect class="cls-4" x="11.42" y="87.25" width="1.5" height="4.22"/><rect class="cls-4" x="16.04" y="76.14" width="1.5" height="4.22"/><rect class="cls-4" x="19.8" y="76.14" width="1.5" height="4.22"/><rect class="cls-4" x="11.42" y="76.14" width="1.5" height="4.22"/><rect class="cls-4" x="27.5" y="76.14" width="1.5" height="4.22"/><rect class="cls-4" x="35.95" y="76.14" width="1.5" height="4.22"/><rect class="cls-4" x="35.95" y="93.02" width="1.5" height="2.93"/><rect class="cls-4" x="23.68" y="82.25" width="1.5" height="3.49"/><rect class="cls-4" x="21.34" y="80.82" width="1.5" height="2.13"/><rect class="cls-4" x="26" y="80.82" width="1.5" height="2.13"/><rect class="cls-4" x="25.25" y="79.73" width="1.5" height="1.69"/><rect class="cls-4" x="22.1" y="79.74" width="1.5" height="1.69"/><rect class="cls-4" x="22.84" y="76.14" width="3.16" height="4.22"/><rect class="cls-4" x="11.42" y="93.02" width="1.5" height="2.93"/><rect class="cls-4" x="14.47" y="79.73" width="4.64" height="3.91"/><rect class="cls-4" x="25.23" y="88.52" width="3.09" height="3.68"/><rect class="cls-4" x="26.09" y="85.14" width="3.66" height="4.12"/><rect class="cls-4" x="28.32" y="82.25" width="3" height="4.95"/><rect class="cls-4" x="32.9" y="82.25" width="3" height="4.95"/><rect class="cls-4" x="34.4" y="85.14" width="3" height="4.22"/><rect class="cls-4" x="35.94" y="87.25" width="1.5" height="4.22"/><rect class="cls-4" x="31.33" y="76.14" width="1.5" height="4.22"/><rect class="cls-4" x="29.75" y="79.73" width="4.65" height="3.91"/><rect class="cls-4" x="11.3" y="23.65" width="1.75" height="4.34"/><rect class="cls-4" x="23.57" y="23.65" width="1.75" height="4.34"/><rect class="cls-4" x="35.82" y="23.65" width="1.74" height="4.34"/><rect class="cls-4" x="11.3" y="42.41" width="1.75" height="4.34"/><rect class="cls-4" x="23.57" y="42.41" width="1.75" height="4.34"/><rect class="cls-4" x="35.82" y="42.41" width="1.74" height="4.34"/><rect class="cls-4" x="11.3" y="2.74" width="1.75" height="4.34"/><rect class="cls-4" x="23.57" y="2.74" width="1.75" height="4.34"/><rect class="cls-4" x="35.82" y="2.74" width="1.74" height="4.34"/><path class="cls-4" d="M37.57,18V14.41h-1.5V10.86H34.54V7.3H33V3.43H31.49V0H29.74V3.43H28.19V7.3H26.84v3.56H25.31v3.55H23.69V10.86H22.15V7.3h-1.5V3.43H19.1V0H17.36V3.43H15.8V7.3H14.46v3.56H12.93v3.55h-1.5V18h1.5v3.55h1.53v3.55H15.8v3.84h1.55v3.53H19.1V28.93h1.55V25.09h1.5V21.53h1.53V18h1.63v3.55h1.53v3.55h1.34v3.84h1.55v3.53h1.74V28.93H33V25.09h1.5V21.53h1.53V18ZM22.12,18h-1.5v3.56H19.09v3.54H17.52V21.52H16V18h-1.5V14.43H16V10.86h1.53V7.3h1.56v3.57h1.54v3.56h1.5ZM34.5,18H33v3.56H31.47v3.54H29.91V21.52H28.38V18h-1.5V14.43h1.5V10.86h1.53V7.3h1.56v3.57H33v3.56h1.5Z"/><path class="cls-4" d="M13,29.36v2.1h-.83v2.22h-.79v3.07h.79v2.16H13V41h2.27v-2.1H16V36.75h.79V33.68H16V31.46h-.81v-2.1Zm.76,5.18V33.07h.74v1.47h.79v1.31h-.79v1.47h-.74V35.84h-.79V34.53Z"/><path class="cls-4" d="M27.53,29.43H25.26v2.1H23.67v-2.1H21.4v2.1h-.83v2.22h-.79v3.07h.79V39h.83v2.1h2.27V39h1.59v2.1h2.27V39h.81V36.82h.79V33.75h-.79V31.53h-.81ZM22.89,34.6h.75v1.31h-.75v1.47h-.74V35.91h-.79V34.6h.79V33.14h.74Zm3.86,0h.79v1.31h-.79v1.47H26V35.91h-.75V34.6H26V33.14h.74Z"/><path class="cls-4" d="M33.63,29.43v2.1h-.83v2.22H32v3.07h.79V39h.83v2.1h2.27V39h.81V36.82h.79V33.75h-.79V31.53h-.81v-2.1Zm.76,5.17V33.14h.74V34.6h.79v1.31h-.79v1.47h-.74V35.91H33.6V34.6Z"/><polygon class="cls-4" points="12.92 49.17 14.46 49.17 14.46 45.6 15.8 45.6 15.8 41.73 17.36 41.73 17.36 38.31 19.1 38.31 19.1 41.73 20.66 41.73 20.66 45.6 22.15 45.6 22.15 49.17 23.68 49.17 23.68 52.72 23.69 52.72 25.18 52.72 25.19 52.72 25.19 49.17 26.73 49.17 26.73 45.6 28.22 45.6 28.22 41.73 29.78 41.73 29.78 38.31 31.52 38.31 31.52 41.73 33.07 41.73 33.07 45.6 34.42 45.6 34.42 49.17 35.95 49.17 35.95 52.72 37.45 52.72 37.45 56.29 35.95 56.29 35.95 59.84 34.42 59.84 34.42 63.4 33.07 63.4 33.07 67.23 31.54 67.23 31.54 63.4 29.86 63.4 29.86 59.99 29.86 59.84 28.27 59.84 28.27 56.09 29.86 56.09 29.86 52.11 28.27 52.11 28.27 54.8 26.76 54.8 26.76 59.84 25.19 59.84 25.19 56.29 25.18 56.29 23.69 56.29 23.68 56.29 23.68 59.84 22.12 59.84 22.12 54.8 20.61 54.8 20.61 52.11 19.02 52.11 19.02 56.09 20.61 56.09 20.61 59.84 19.02 59.84 19.02 59.99 19.02 63.4 17.33 63.4 17.33 67.23 15.8 67.23 15.8 63.4 14.46 63.4 14.46 59.84 12.92 59.84 12.92 56.29 11.43 56.29 11.43 52.72 12.92 52.72 12.92 49.17"/><rect class="cls-4" x="22.12" y="59.17" width="4.64" height="1.37"/><rect class="cls-4" x="22.93" y="60.33" width="2.94" height="3.96"/><rect class="cls-4" x="20.55" y="64.29" width="7.75" height="2.03"/><rect class="cls-4" x="20.55" y="64.29" width="3.09" height="3.68"/><rect class="cls-4" x="25.21" y="64.29" width="3.09" height="3.68"/><rect class="cls-4" x="19.12" y="67.23" width="3.66" height="4.12"/><rect class="cls-4" x="17.55" y="69.29" width="3" height="4.95"/><rect class="cls-4" x="12.97" y="69.29" width="3" height="4.95"/><rect class="cls-4" x="11.47" y="67.13" width="3" height="4.22"/><rect class="cls-4" x="11.43" y="65.03" width="1.5" height="4.22"/><rect class="cls-4" x="16.04" y="76.14" width="1.5" height="4.22"/><rect class="cls-4" x="19.8" y="76.14" width="1.5" height="4.22"/><rect class="cls-4" x="11.42" y="76.14" width="1.5" height="4.22"/><rect class="cls-4" x="27.51" y="76.14" width="1.5" height="4.22"/><rect class="cls-4" x="35.95" y="76.14" width="1.5" height="4.22"/><rect class="cls-4" x="35.95" y="60.54" width="1.5" height="2.93"/><rect class="cls-4" x="23.69" y="70.74" width="1.5" height="3.49"/><rect class="cls-4" x="21.34" y="73.54" width="1.5" height="2.13"/><rect class="cls-4" x="26" y="73.54" width="1.5" height="2.13"/><rect class="cls-4" x="25.25" y="75.07" width="1.5" height="1.69"/><rect class="cls-4" x="22.1" y="75.06" width="1.5" height="1.69"/><rect class="cls-4" x="22.85" y="76.14" width="3.16" height="4.22"/><rect class="cls-4" x="11.43" y="60.54" width="1.5" height="2.93"/><rect class="cls-4" x="14.47" y="72.85" width="4.64" height="3.91"/><rect class="cls-4" x="25.24" y="64.29" width="3.09" height="3.68"/><rect class="cls-4" x="26.1" y="67.23" width="3.66" height="4.12"/><rect class="cls-4" x="28.32" y="69.29" width="3" height="4.95"/><rect class="cls-4" x="32.9" y="69.29" width="3" height="4.95"/><rect class="cls-4" x="34.4" y="67.13" width="3" height="4.22"/><rect class="cls-4" x="35.95" y="65.03" width="1.5" height="4.22"/><rect class="cls-4" x="31.33" y="76.14" width="1.5" height="4.22"/><rect class="cls-4" x="29.76" y="72.85" width="4.65" height="3.91"/></g><circle class="cls-7" cx="56.56" cy="48.41" r="46.07"/><ellipse class="cls-8" cx="57.37" cy="38.88" rx="36.22" ry="31.43"/></g></g></svg>