<svg xmlns="http://www.w3.org/2000/svg" xmlns:xlink="http://www.w3.org/1999/xlink" viewBox="0 0 92.93 92.93"><defs><style>.cls-1{isolation:isolate;}.cls-2{fill:#cd3a2b;}.cls-3{fill:#fff;}.cls-4{opacity:0.6;mix-blend-mode:multiply;fill:url(#radial-gradient);}.cls-5{opacity:0.7;fill:url(#radial-gradient-2);}</style><radialGradient id="radial-gradient" cx="46.47" cy="46.47" r="46.47" gradientUnits="userSpaceOnUse"><stop offset="0" stop-color="#fff" stop-opacity="0"/><stop offset="0.35" stop-color="#fbfbfb" stop-opacity="0.02"/><stop offset="0.53" stop-color="#eeedec" stop-opacity="0.11"/><stop offset="0.67" stop-color="#d8d6d2" stop-opacity="0.25"/><stop offset="0.79" stop-color="#b8b5ae" stop-opacity="0.44"/><stop offset="0.9" stop-color="#908b80" stop-opacity="0.7"/><stop offset="1" stop-color="#605949"/></radialGradient><radialGradient id="radial-gradient-2" cx="-272.86" cy="38.14" r="27.44" gradientTransform="translate(420.36 -19.69) scale(1.33 1.16)" gradientUnits="userSpaceOnUse"><stop offset="0" stop-color="#fff"/><stop offset="1" stop-color="#fff" stop-opacity="0"/></radialGradient></defs><title>Artboard 48</title><g class="cls-1"><g id="Layer_4" data-name="Layer 4"><path class="cls-2" d="M1.47,35.33A46.35,46.35,0,1,1,35.33,91.46,46.35,46.35,0,0,1,1.47,35.33"/><path class="cls-3" d="M41.68,65.06A19.52,19.52,0,1,1,55.46,31.7a24.17,24.17,0,1,0,0,27.67,19.47,19.47,0,0,1-13.77,5.69"/><polygon class="cls-3" points="65.09 35.17 69.6 41.67 77.19 39.39 72.39 45.7 76.89 52.21 69.42 49.59 64.62 55.89 64.8 47.97 57.33 45.35 64.91 43.09 65.09 35.17"/><circle class="cls-4" cx="46.47" cy="46.47" r="46.47"/><ellipse class="cls-5" cx="47.28" cy="36.86" rx="36.53" ry="31.69"/></g></g></svg>