<svg xmlns="http://www.w3.org/2000/svg" xmlns:xlink="http://www.w3.org/1999/xlink" viewBox="0 0 92.93 92.93"><defs><style>.cls-1{isolation:isolate;}.cls-2{fill:#cd3a2b;}.cls-3{fill:#302f27;}.cls-4{opacity:0.6;mix-blend-mode:multiply;fill:url(#radial-gradient);}.cls-5{opacity:0.7;fill:url(#radial-gradient-2);}</style><radialGradient id="radial-gradient" cx="46.47" cy="46.47" r="46.47" gradientUnits="userSpaceOnUse"><stop offset="0" stop-color="#fff" stop-opacity="0"/><stop offset="0.35" stop-color="#fbfbfb" stop-opacity="0.02"/><stop offset="0.53" stop-color="#eeedec" stop-opacity="0.11"/><stop offset="0.67" stop-color="#d8d6d2" stop-opacity="0.25"/><stop offset="0.79" stop-color="#b8b5ae" stop-opacity="0.44"/><stop offset="0.9" stop-color="#908b80" stop-opacity="0.7"/><stop offset="1" stop-color="#605949"/></radialGradient><radialGradient id="radial-gradient-2" cx="-232.89" cy="-27.21" r="27.44" gradientTransform="translate(367.15 55.79) scale(1.33 1.16)" gradientUnits="userSpaceOnUse"><stop offset="0" stop-color="#fff"/><stop offset="1" stop-color="#fff" stop-opacity="0"/></radialGradient></defs><title>Artboard 67</title><g class="cls-1"><g id="Layer_4" data-name="Layer 4"><path class="cls-2" d="M1.47,35.33A46.35,46.35,0,1,1,35.33,91.46,46.35,46.35,0,0,1,1.47,35.33"/><path class="cls-3" d="M46.19,81.55c-1.11-1.33-2.8-2.8-2.32-4.75L45,75.09l.1-1.51A7.9,7.9,0,0,1,42.2,76a2.44,2.44,0,0,1-2.48-.48l-.07-.91c.88-.6,2.17-.48,2.9-1.33a3.58,3.58,0,0,0,.8-3C42,71,41.17,72.6,39.57,72.66A2.09,2.09,0,0,1,37,71c1.18-.69,2.62-.6,3.84-1.15a1.82,1.82,0,0,0,.87-2.08c-1.12.43-2.14,1.42-3.43,1.18a1.8,1.8,0,0,1-2-1.78c.77-.16,1.54-.27,2.29-.4A6.37,6.37,0,0,0,42,64.16a12.6,12.6,0,0,0,2.2-6l-.52-1.52c-1-.15-1.51.9-2,1.53a24.79,24.79,0,0,0-3.15,6.06,5.15,5.15,0,0,1-2.79-1.13l-1.6.18c-1.45.64-3,1.1-4.41,1.74l1.61.65,1.84.24L34.17,67l.15,1.59-.74-.76a1.16,1.16,0,0,0-1.09-.2c-.42.06-.84.11-1.13-.25a5.94,5.94,0,0,0-2.77-1.74l-1-.07a8.78,8.78,0,0,0-2.54,1.78L24,68.63l-1.6.26-.87,1.65c-.64-1-.16-2.13.12-3.15s1.3-.92,2.06-1a4.27,4.27,0,0,0,2.71-1.23,40.13,40.13,0,0,0-5.31.35l-1.69-.61L17.6,65l1-1.09c.69-.25,1.44-.34,2.15-.52s1.5.49,2.28.65a17.72,17.72,0,0,0,3.57.2,6,6,0,0,0-3.37-1.6c-.7,0-1-.78-1.59-1l-1.74-.14.86-1.08a5.28,5.28,0,0,1,1.18.05,6,6,0,0,0,1.09.06l1.74.6a7.8,7.8,0,0,0,3.31,2.74l.87-.12c1.7-.68,3.41-1.31,5.05-2.12l-1.24-1.55C34.8,59,37,57.87,38.28,55.88a5.6,5.6,0,0,0,1.32-3.55c-1,1.41-1.72,3.26-3.55,3.73l-.91-1a9.84,9.84,0,0,0,1.21-1.73,6.49,6.49,0,0,0,.48-2.26l-1.19.13c-.54.91-.78,2-1.3,2.92-.75,1.36-1.44,2.93-2.88,3.66-.81.26-2.34-.22-2-1.33.82-.92,2.09-1.42,2.64-2.61s1.45-2.66.65-3.93c-1.23,1.06-1.87,2.61-3,3.79-1.45,1.61-2.71,3.52-4.73,4.47a5.23,5.23,0,0,1-3.1.59,3.27,3.27,0,0,1-2.52-1.57L20,56.06a5.47,5.47,0,0,1,2.26,0,5,5,0,0,0,3.41-1.28,16.37,16.37,0,0,0,4-6.36L29.4,48a21.11,21.11,0,0,1-4.54,4.15,5.21,5.21,0,0,1-4,.87c-1.06-.21-2.23-1-2.23-2.14.08-.74,1-.77,1.53-.69a7,7,0,0,0,4.23-.41,13.82,13.82,0,0,0,3.89-3.92c.51-.82,1.35-1.6,1.23-2.66-1.82.93-3.13,2.61-4.93,3.57a4.91,4.91,0,0,1-4.75.51,1.88,1.88,0,0,1-1.16-1.93l.79-1.12c1.53.07,3,.78,4.59.33a10.23,10.23,0,0,0,4.05-3.22l.67-1.55a24,24,0,0,0-5,2.21,5.69,5.69,0,0,1-3,.33,2.59,2.59,0,0,1-2.24-2.08l.79-1.15a3.11,3.11,0,0,1,2,.41,3.24,3.24,0,0,0,1.86.43c2.38-.05,5-1.28,5.9-3.62L28.75,36c-1.23.2-2.32.88-3.52,1.2a7.2,7.2,0,0,1-6.62-1.82l.25-1.88c1.08-.19,2,.57,2.93,1a5.24,5.24,0,0,0,5.49-.11c.92-.64,1.94-1.53,1.9-2.75-1.39.2-2.59,1-4,1.16a7.4,7.4,0,0,1-5-.87C19.12,31.22,18,30,18.35,28.54L19.82,28a25.3,25.3,0,0,0,2,1.76,6.36,6.36,0,0,0,4.21.88c.93-.11,2.13.07,2.73-.87l-1-1.33a18.18,18.18,0,0,1-7.82-3.19A4.58,4.58,0,0,1,18,22.77a1.87,1.87,0,0,1,1.47-2.31c.71,0,1.12.66,1.44,1.2,1.71,2.87,5,4.4,8.13,5.07l.65-1.49c1.67.77,3.39,1.37,5.11,2a3.53,3.53,0,0,1,1.83,1.24c1,1.21.23,2.92.68,4.31l1.44,1a2,2,0,0,0,2.2-1.74,6.61,6.61,0,0,0-3.41-6.4,12.4,12.4,0,0,0-4.63-1.19c-1.07-.08-1.36-1.53-2.43-1.59a3.82,3.82,0,0,1-2.42-.93l-.64-1.1.82-.22c.67.45,1,1.26,1.8,1.64a5.63,5.63,0,0,0,2.88.15v-.64l-1.15-.27-1.32.77L31,20.58a8.29,8.29,0,0,1,2.5-.52c.68,0,1.17-.55,1.82-.65a7.36,7.36,0,0,1,3.7.87c1.42.78,3.08.15,4.58,0a4.62,4.62,0,0,1-2.1,1.7l-.08.33a14.14,14.14,0,0,0,2.43,1.36l-1.32.81A3.86,3.86,0,0,0,45,26l-1.24.69.91.86,1.17.13-.45,1.14.85,0,.79,0-.45-1.14,1.16-.13.92-.86L47.39,26a3.82,3.82,0,0,0,2.43-1.48l-1.31-.81a14.67,14.67,0,0,0,2.43-1.36L50.84,22a4.65,4.65,0,0,1-2.09-1.7c1.52.12,3.17.74,4.58,0a7.35,7.35,0,0,1,3.7-.87c.65.09,1.14.66,1.82.65a8.36,8.36,0,0,1,2.51.52l.58,1.69-1.32-.77-1.15.27v.64a5.62,5.62,0,0,0,2.88-.15c.74-.38,1.13-1.19,1.8-1.64l.82.22-.64,1.1a3.82,3.82,0,0,1-2.42.93c-1.07.06-1.35,1.51-2.43,1.59a12.44,12.44,0,0,0-4.63,1.19,6.63,6.63,0,0,0-3.41,6.4,2,2,0,0,0,2.2,1.74l1.44-1c.45-1.39-.3-3.1.68-4.31a3.56,3.56,0,0,1,1.83-1.24c1.72-.63,3.45-1.23,5.11-2l.65,1.49c3.16-.66,6.41-2.2,8.12-5.07.32-.54.73-1.2,1.44-1.2a1.88,1.88,0,0,1,1.48,2.31,4.66,4.66,0,0,1-1.9,2.47,18.18,18.18,0,0,1-7.83,3.19l-1,1.33c.59.93,1.8.75,2.73.87a6.37,6.37,0,0,0,4.21-.88,25.34,25.34,0,0,0,2-1.76l1.47.54c.32,1.43-.76,2.69-1.89,3.38a7.39,7.39,0,0,1-4.95.87c-1.39-.17-2.59-1-4-1.16,0,1.23,1,2.12,1.9,2.75a5.23,5.23,0,0,0,5.49.11c.94-.43,1.85-1.19,2.93-1l.24,1.88a7.2,7.2,0,0,1-6.62,1.82c-1.2-.32-2.29-1-3.52-1.2l-.34.36c.9,2.34,3.52,3.57,5.91,3.62a3.24,3.24,0,0,0,1.86-.43,3.09,3.09,0,0,1,2-.41l.8,1.15a2.6,2.6,0,0,1-2.25,2.08,5.66,5.66,0,0,1-3-.33,24.22,24.22,0,0,0-5-2.21l.67,1.55a10.23,10.23,0,0,0,4.05,3.22c1.54.45,3.06-.25,4.59-.33l.79,1.12a1.89,1.89,0,0,1-1.16,1.93,4.91,4.91,0,0,1-4.75-.51c-1.81-1-3.12-2.64-4.93-3.57-.13,1.06.71,1.84,1.22,2.66A13.86,13.86,0,0,0,68,49.81a7,7,0,0,0,4.23.41c.55-.08,1.45,0,1.53.69,0,1.17-1.17,1.94-2.23,2.14a5.21,5.21,0,0,1-4-.87A21.11,21.11,0,0,1,63,48l-.35.43a16.33,16.33,0,0,0,4,6.36A5,5,0,0,0,70.1,56.1a5.45,5.45,0,0,1,2.25,0l.58,1.11a3.27,3.27,0,0,1-2.53,1.57,5.21,5.21,0,0,1-3.1-.59c-2-1-3.28-2.86-4.72-4.47-1.1-1.18-1.74-2.73-3-3.79-.79,1.26.05,2.76.66,3.93s1.83,1.69,2.65,2.61c.36,1.11-1.18,1.59-2,1.33C59.48,57,58.78,55.45,58,54.1c-.52-.93-.75-2-1.3-2.92l-1.19-.13A6.48,6.48,0,0,0,56,53.31,10,10,0,0,0,57.24,55l-.91,1c-1.83-.46-2.59-2.32-3.54-3.73-.16,1.3.63,2.49,1.32,3.55,1.32,2,3.48,3.17,5.54,4.26L58.4,61.69c1.63.82,3.35,1.44,5.05,2.12l.87.12a7.74,7.74,0,0,0,3.3-2.74l1.74-.6a5.92,5.92,0,0,0,1.09-.06,5.35,5.35,0,0,1,1.19-.05l.86,1.08-1.74.14c-.6.21-.88,1-1.59,1a6,6,0,0,0-3.36,1.6,17.71,17.71,0,0,0,3.57-.2c.78-.16,1.43-.87,2.27-.65s1.47.27,2.15.52l1,1.09-1.84-.12c-.56.21-1,.75-1.69.61a40.08,40.08,0,0,0-5.31-.35,4.27,4.27,0,0,0,2.71,1.23c.77.06,1.82.07,2.06,1s.75,2.18.12,3.15L70,68.89l-1.6-.26-1.08-1.26a8.82,8.82,0,0,0-2.54-1.78l-1,.07A5.91,5.91,0,0,0,61,67.41c-.29.36-.71.31-1.13.25s-.8-.11-1.08.2l-.75.76L58.22,67l1.07-1.1,1.84-.24,1.6-.65c-1.44-.65-3-1.1-4.41-1.74l-1.6-.18a5.15,5.15,0,0,1-2.79,1.13,24.31,24.31,0,0,0-3.16-6.06c-.51-.64-1-1.69-2-1.53l-.52,1.52a12.61,12.61,0,0,0,2.2,6,6.35,6.35,0,0,0,3.4,2.59c.76.13,1.52.25,2.29.4a1.8,1.8,0,0,1-2,1.78c-1.3.24-2.31-.75-3.44-1.18a1.82,1.82,0,0,0,.87,2.08c1.22.55,2.66.46,3.84,1.15a2.09,2.09,0,0,1-2.55,1.68C51.22,72.6,50.33,71,49,70.33a3.57,3.57,0,0,0,.81,3c.72.85,2,.73,2.89,1.33l-.07.91a2.44,2.44,0,0,1-2.48.48,7.92,7.92,0,0,1-2.86-2.46l.1,1.51,1.1,1.72c.48,1.95-1.2,3.42-2.33,4.75"/><circle class="cls-4" cx="46.47" cy="46.47" r="46.47"/><ellipse class="cls-5" cx="47.28" cy="36.86" rx="36.53" ry="31.69"/></g></g></svg>