<svg xmlns="http://www.w3.org/2000/svg" xmlns:xlink="http://www.w3.org/1999/xlink" viewBox="0 0 92.93 92.93" width="80px" height="80px"><defs><style>.cls-1{isolation:isolate;}.cls-2{fill:#f0f1f1;}.cls-3{fill:#0051b8;}.cls-4{fill:#21205f;}.cls-5{fill:#fff;}.cls-6{fill:#c92026;}.cls-7{fill:#efc42e;}.cls-8{fill:#254191;}.cls-9{fill:#2e5229;}.cls-10{fill:#101c11;}.cls-11{fill:#d22027;}.cls-12{fill:#f4da59;}.cls-13{fill:#3864ae;}.cls-14{fill:#efc22e;}.cls-15{fill:#0f1137;}.cls-16{fill:#1b301c;}.cls-17{opacity:0.6;mix-blend-mode:multiply;fill:url(#radial-gradient);}.cls-18{opacity:0.7;fill:url(#radial-gradient-2);}</style><radialGradient id="radial-gradient" cx="46.87" cy="46.85" r="45.73" gradientUnits="userSpaceOnUse"><stop offset="0" stop-color="#fff" stop-opacity="0"/><stop offset="0.35" stop-color="#fbfbfb" stop-opacity="0.02"/><stop offset="0.53" stop-color="#eeedec" stop-opacity="0.11"/><stop offset="0.67" stop-color="#d8d6d2" stop-opacity="0.25"/><stop offset="0.79" stop-color="#b8b5ae" stop-opacity="0.44"/><stop offset="0.9" stop-color="#908b80" stop-opacity="0.7"/><stop offset="1" stop-color="#605949"/></radialGradient><radialGradient id="radial-gradient-2" cx="-86.81" cy="-47.53" r="27" gradientTransform="translate(172.92 80) scale(1.33 1.16)" gradientUnits="userSpaceOnUse"><stop offset="0" stop-color="#fff"/><stop offset="1" stop-color="#fff" stop-opacity="0"/></radialGradient></defs><title>Cayman island</title><g class="cls-1"><g id="Layer_4" data-name="Layer 4"><path class="cls-2" d="M34.93,91.35l.4.11.7.15-.7-.16Z"/><path class="cls-2" d="M49.43,92.73H43.72A46,46,0,0,0,49.43,92.73Z"/><path class="cls-3" d="M46.69,1A46.16,46.16,0,0,0,41,1.32h5.76V50.44H1.06A45.78,45.78,0,1,0,46.69,1Z"/><polygon class="cls-4" points="46.77 17.61 46.77 6.7 24.95 17.61 46.77 17.61"/><polygon class="cls-5" points="24.95 17.61 46.77 6.7 46.77 1.32 46.53 1.32 13.94 17.61 24.95 17.61"/><path class="cls-5" d="M38.37,1.72a45.43,45.43,0,0,0-8.66,2.5L22.81,7.67a46,46,0,0,0-7.16,5.41Z"/><path class="cls-5" d="M13.94,17.61H11.36c-.87,1.05-1.69,2.15-2.46,3.28H46.77V17.61H13.94Z"/><polygon class="cls-4" points="46.77 44.93 46.77 34.02 24.95 34.02 46.77 44.93"/><polygon class="cls-4" points="5.74 50.44 35.76 50.44 5.74 35.42 5.74 50.44"/><polygon class="cls-5" points="21.29 34.02 46.77 46.77 46.77 44.93 24.95 34.02 21.29 34.02"/><polygon class="cls-5" points="5.74 34.02 5.74 35.42 35.76 50.44 46.77 50.44 13.94 34.02 5.74 34.02"/><path class="cls-5" d="M2.45,34.9V50.44H5.74V34h41V30.74h-43Q3,32.78,2.45,34.9Z"/><path class="cls-6" d="M2.45,50.44V34.9A45.83,45.83,0,0,0,.9,46.74c0,1.24.06,2.47.16,3.69H2.45Z"/><path class="cls-6" d="M3.78,30.74h43V20.89H8.9A45.64,45.64,0,0,0,3.78,30.74Z"/><polygon class="cls-6" points="13.94 34.02 46.77 50.44 46.77 46.77 21.29 34.02 13.94 34.02"/><path class="cls-6" d="M15.66,13.08a46.07,46.07,0,0,0-4.3,4.53h2.58L46.53,1.32H41q-1.33.16-2.64.4Z"/><path class="cls-4" d="M70.46,60.25c-.89.57-3.07,1.77-3.22,1.8s2.45-.43,3.25-.68,2.78-1.57,2.9-1.57-.68-1-.83-1.21A13.76,13.76,0,0,1,70.46,60.25Z"/><path class="cls-5" d="M67.19,32.75a.56.56,0,0,1-.12.1l0,0a.54.54,0,0,1,.08-.13Z"/><path class="cls-5" d="M66.19,33.53h0s0,0,0,0h.11a.5.5,0,0,1-.06-.12Z"/><path class="cls-5" d="M50.63,58.51c.06.14.71,2.43.89,2.93s2,1.25,2.87,1.18A4.56,4.56,0,0,0,56.72,62c.06.07,3.37,3.48,10.17,3.5a16.38,16.38,0,0,0,9.28-3.36,7.18,7.18,0,0,0,3,.5,4,4,0,0,0,2.13-1.21,28.56,28.56,0,0,0,.95-3.5c.06-.43,0-.93-.53-1.07a1.46,1.46,0,0,0-1.12,0c-.3.14-.38.54-.83,1.25l-.64.59a5.77,5.77,0,0,0,.58-1.52c.06-.36.23-1-.18-1.36s-1-.5-1.77-1S76.45,53.59,76,53.59a1.75,1.75,0,0,1-.83-.21,3.63,3.63,0,0,0,.41-2.11c-.12-1.07.06-11.32,0-11.32a20.67,20.67,0,0,1-3,.07,4.35,4.35,0,0,0,0-1.79c-.23-.64-1.24-1.07-.95-1.21s1.6-.5,1.54-1.07-.89-.5-1.24-.71S70.6,34,70.49,34s3.07-1.93,2.84-1.93-1.48-.36-1.89-.15c0-.36,1.71-1.43,1.42-1.57s-1.66-.28-1.3-.36.47-.93.42-.93l-1.54.21s-.35-.5-.47-.5a3.51,3.51,0,0,0-.65.29L69,28.3l-.65.43-.3-.36s-.53.14-.53,0-.06-.36-.14-.36-.67.45-.69.43-.67-.94-.67-.91-.46,1.72-.48,1.72a3.26,3.26,0,0,0-.48.08S62.73,28,62.75,28s.61,1.31.61,1.31a5.2,5.2,0,0,0-.5.3s.08.58.08.58l-1.55-.53s.59,1.19.54,1.19l-1.13.05s.52,1,.52,1l-.19.58s1.66,1.17,1.55,1.25-.36.28-.59.21-.77-1-1.36-.86-.95.36-1.18.36-.89.21-.89.79.06,1,.18,1,.3-.36.3-.36.06.71.47.71,1.3.07,1.36.28-.41.71-.3,1.14a4.94,4.94,0,0,0,.65,1.14s-.77.57-.77.93a2.64,2.64,0,0,0,.12.71l-3.42.14S57,50.09,57.13,50.87l.41,2.71a1.46,1.46,0,0,0-1.42.39c-.65.64-2.93,1.75-3,2.25s-.26.93,0,1.29,1.07,1.33.83,1.28c-.79-.14-1.09-1.26-1.63-1.68s-1.56-.32-1.68.11A3,3,0,0,0,50.63,58.51Zm.58-1.3c.48-.18.67-.37,1.24.74.12.24.24.49.35.74a5,5,0,0,0,1.3.57.94.94,0,0,0,.63-.12,10.29,10.29,0,0,1-1.52-2.57c-.1-.56,2.29-1.85,2.38-1.85a.17.17,0,0,1,0,.07c.3-.3.77-1,1.4-1a1.69,1.69,0,0,1,.88.26l-.11-.28h0a8.52,8.52,0,0,1-.41-2.23h0V40.36H71.18a2.81,2.81,0,0,1-.58-.67,3.05,3.05,0,0,1-.05-1,.61.61,0,0,0-.12-.19,5,5,0,0,1-.36-.92,12.21,12.21,0,0,1-1.65.32l.23.82c.27,1,.6,1.16.6,1.16a6.46,6.46,0,0,0-.73,0,2.87,2.87,0,0,1-1.44-.43,6.52,6.52,0,0,1-.88-1.57,6.11,6.11,0,0,1-.81-.16,8.93,8.93,0,0,1-.86.35c0,.14.1.32.19.55a2.06,2.06,0,0,0,.73,1s-.38.33-1.4.38c-.86,0-1.46-1.23-1.65-1.7A1.57,1.57,0,0,1,61.25,37c0-.33.35-.73.4-.89a.77.77,0,0,0,0-.28l-.07,0s-.12-.43-.46-.46-.94.05-1.15-.15-.27-.68-.37-.66a2,2,0,0,1-.4,0,.53.53,0,0,1,.17-.61c.29-.2.54,0,.71-.18a1.24,1.24,0,0,1,.75-.28c.33,0,.88.51,1.13.63s.79.28,1,.15l.34-.17a.83.83,0,0,1,.32-.29l0,0c-.25-.22-.71-.67-.89-.81l-1.22-.89s0,0,0,0l0,0c.19.08.91.24,1.37.39a3.67,3.67,0,0,1,1,.63,2.85,2.85,0,0,0-.31-.37,12.86,12.86,0,0,0-2.22-1.5,18.48,18.48,0,0,1,2.36.67,17,17,0,0,0-2.06-2,10.54,10.54,0,0,1,2.16,1l.18.15c-.28-.62-.74-1.48-.74-1.48A9.68,9.68,0,0,1,64.72,31a5.35,5.35,0,0,1,.55.85c-.07-.26-.14-.53-.22-.78a11.39,11.39,0,0,0-1.39-2.18,10.75,10.75,0,0,1,1.39,1,3.53,3.53,0,0,1,.48.64l.56-.26s-.76-.31-1-.35h0c.17,0,.87-.16,1.09-.21s.21-1.16.21-1.16a9.4,9.4,0,0,0,.21,1s.71-1,.8-1.06-.08.76-.08.76l1-.56s-1,1.31-1,1.36a7,7,0,0,1,1-.61c.13,0-.46.66-.46.66l0,0c.48-.57,1-1.23,1.16-1.41l0-.05s0,0,0,.05c-.08.21-.3,1-.38,1.31.14-.15.28-.29.41-.39a2.43,2.43,0,0,1,1.15-.53l0,0s0,0,0,0c-.15.19-1,1.34-1.24,1.68-.08.13-.21.43-.35.75.36-.34.75-.69,1.09-1a16.45,16.45,0,0,1,2.26-1.3l0-.05s0,0,0,.05c-.32.37-1.9,1.94-2.35,2.52-.22.29-.51.68-.76,1a15.21,15.21,0,0,1,1.61-1.3,14.22,14.22,0,0,1,2-1c-.05,0-1.43,1.38-2.14,2.1,1-.19,2.23-.35,2.23-.35a9.23,9.23,0,0,1-1.8,1,4,4,0,0,0-1.25,1,2.82,2.82,0,0,1,.89.23,3.51,3.51,0,0,1,1.12.94.19.19,0,0,1,0,.07c.32.19.77.4.77.4l-.07.08h0a2.3,2.3,0,0,0,.79-.15,7,7,0,0,1-.88.83.5.5,0,0,1-.53,0l-.23.23a15.75,15.75,0,0,1,1,1.39,1.54,1.54,0,0,1,.08,1h0a3.78,3.78,0,0,1,0,.46.87.87,0,0,1-.32.67h3.18V51.51h0a8.43,8.43,0,0,1-.4,2.2h0l0,.09a1.16,1.16,0,0,1,.32,0,2,2,0,0,1,1.26.55,1.74,1.74,0,0,0-.15-.15s2.67,1.39,3,2.6c.12.37-.29,1.3-1.16,2.41A2,2,0,0,0,80,58.06c.34-.63.7-1.13,1-1.09.71.1.47,1.12.41,1.38S80.61,61,80.61,61a1.06,1.06,0,0,0,0-.12.36.36,0,0,1-.06.09A2.55,2.55,0,0,1,78,62.12a4.1,4.1,0,0,1-2.14-.66,15.45,15.45,0,0,1-10,3.65,13.5,13.5,0,0,1-9.16-3.76,7.82,7.82,0,0,1-2.65.78,3.08,3.08,0,0,1-2.19-.85v0a.24.24,0,0,1,0,.05s0,0,0-.1a1.23,1.23,0,0,1-.2-.67c-.19-.63-.43-1.48-.59-1.9C50.75,57.89,50.74,57.4,51.22,57.22Z"/><path class="cls-5" d="M66.41,30.8l0,0,.07,0Z"/><path class="cls-5" d="M67.18,33.55h0v0Z"/><path class="cls-5" d="M67.37,30.55s0,0,.05.09l.06-.08Z"/><path class="cls-5" d="M67.86,33.72h0l0-.06-.07,0Z"/><path class="cls-5" d="M68.66,34.14l-.17-.07h0l.15.08h0Z"/><path class="cls-5" d="M64.13,33.69h.06l0,0Z"/><path class="cls-5" d="M66.46,31.87v0h0Z"/><path class="cls-5" d="M66.37,32.92h0Z"/><path class="cls-5" d="M67.61,31.14a.26.26,0,0,1,0,0l0,0Z"/><path class="cls-5" d="M66.29,30.55l-.69.12.22.38A2.35,2.35,0,0,1,66.29,30.55Z"/><path class="cls-5" d="M75.22,56.94a.34.34,0,0,0-.35.22,7,7,0,0,0,.63.78l.3-.43A.91.91,0,0,0,75.22,56.94Z"/><path class="cls-5" d="M57,56.87c-.23.06-.32.57-.37,1l.16.19a5.07,5.07,0,0,0,.69-.84C57.31,57,57.14,56.83,57,56.87Z"/><path class="cls-5" d="M70.49,59.68h0l-.37.28c-.33.25-.66.48-1,.68a6.92,6.92,0,0,1-2.8,1.26,7.08,7.08,0,0,1-2.85-1.29l-.23-.15-.29-.2-.42-.3-.34-.27A15,15,0,0,1,60,57.5a11.72,11.72,0,0,1-1.29,2.28,13.15,13.15,0,0,0,7.69,2.62,10.6,10.6,0,0,0,7.46-2.64,9.49,9.49,0,0,1-1.33-2A15,15,0,0,1,70.49,59.68Zm2.89.12c-.12,0-2.1,1.32-2.9,1.57s-3.4.71-3.25.68,2.34-1.23,3.22-1.8a13.76,13.76,0,0,0,2.1-1.66C72.7,58.8,73.5,59.8,73.38,59.8Z"/><path class="cls-7" d="M64.18,33.65a4.49,4.49,0,0,0-.3-.5,3.67,3.67,0,0,0-1-.63c-.46-.15-1.18-.31-1.37-.39l1.22.89c.17.13.63.58.89.81a1.55,1.55,0,0,1,.48-.14Z"/><path class="cls-7" d="M61.55,32.14l0,0S61.52,32.12,61.55,32.14Z"/><path class="cls-7" d="M64.2,33.68l.3,0,.17,0A11.28,11.28,0,0,0,63.72,32h0a18.48,18.48,0,0,0-2.36-.67,12.86,12.86,0,0,1,2.22,1.5,2.85,2.85,0,0,1,.31.37,4.49,4.49,0,0,1,.3.5Z"/><path class="cls-7" d="M67.64,31.14l0,0-.05,0a.45.45,0,0,1,0,.06Z"/><path class="cls-7" d="M67.49,30.55l-.06.08,0,.06a.4.4,0,0,1,.08.1l.19.22.35-.41Z"/><path class="cls-7" d="M69,28.74s0-.05,0-.05Z"/><path class="cls-7" d="M68.6,30.06c.08-.3.31-1.1.38-1.31-.12.18-.68.84-1.16,1.41l.45.26Z"/><path class="cls-7" d="M65.57,33.44a.39.39,0,0,1-.09.13l.23,0A.49.49,0,0,1,65.57,33.44Z"/><path class="cls-7" d="M66.2,33.54h0Z"/><path class="cls-7" d="M64.66,33.63l.1,0,.32,0a.44.44,0,0,1-.14-.22h-.18s-.44-1.29-.59-1.79a4.48,4.48,0,0,0-.18-.45L63.81,31a10.54,10.54,0,0,0-2.16-1,17,17,0,0,1,2.06,2h0A11.28,11.28,0,0,1,64.66,33.63Z"/><path class="cls-7" d="M64.75,33.37h.18a.53.53,0,0,1,0-.15.48.48,0,0,1,.17-.37.64.64,0,0,1-.08-.31h0a.5.5,0,0,1,.33-.51l-.05-.2a5.35,5.35,0,0,0-.55-.85,9.68,9.68,0,0,0-1.48-1.32s.46.86.74,1.48a4.48,4.48,0,0,1,.18.45C64.31,32.09,64.75,33.37,64.75,33.37Z"/><path class="cls-7" d="M65.78,32.62v0l.07,0Z"/><path class="cls-7" d="M65.39,32l.07,0a.57.57,0,0,1,.45-.56.4.4,0,0,1-.09-.12.55.55,0,0,1-.2.11c-.12,0,0-.19.19-.41l-.22-.38-.43.08c-.08,0,.13-.08.37-.19a3.53,3.53,0,0,0-.48-.64,10.75,10.75,0,0,0-1.39-1A11.39,11.39,0,0,1,65,31.05c.08.25.16.52.22.78l.05.2Z"/><path class="cls-7" d="M68.86,34.06a.93.93,0,0,1-.26,0l-.11,0,.17.07c.11,0,.43,0,.78.08a4,4,0,0,1,1.25-1,9.23,9.23,0,0,0,1.8-1s-1.27.16-2.23.35l-.25.26C69.45,33.42,68.92,34,68.86,34.06Z"/><path class="cls-7" d="M67.88,33.72v0h0Z"/><path class="cls-7" d="M69,33.4a.66.66,0,0,1-.44.64.93.93,0,0,0,.26,0c.06,0,.59-.64,1.15-1.22l.25-.26c.71-.72,2.09-2.07,2.14-2.1a14.22,14.22,0,0,0-2,1,15.21,15.21,0,0,0-1.61,1.3l0,0A.69.69,0,0,1,69,33.4Z"/><path class="cls-7" d="M72,29.24l0,.05S72,29.25,72,29.24Z"/><path class="cls-7" d="M68.71,32.49a.61.61,0,0,1-.07.28.71.71,0,0,1,.14.09l0,0c.24-.33.53-.72.76-1,.45-.58,2-2.14,2.35-2.52a16.45,16.45,0,0,0-2.26,1.3c-.34.27-.73.62-1.09,1l-.16.39A.63.63,0,0,1,68.71,32.49Z"/><path class="cls-7" d="M70.19,29.1l0,0S70.19,29.11,70.19,29.1Z"/><path class="cls-7" d="M67.6,31.19a.46.46,0,0,1,0,.12.47.47,0,0,1,.15.12.36.36,0,0,1,.23-.15l-.27-.16,0,0Z"/><path class="cls-7" d="M68.67,30.65a2.57,2.57,0,0,1-.58,0l-.35.41.22.24h0a.39.39,0,0,1,.38.4.42.42,0,0,1-.08.24l.11.06.16-.39c.14-.32.27-.62.35-.75.19-.33,1.09-1.49,1.24-1.68a2.43,2.43,0,0,0-1.15.53c-.12.1-.26.24-.41.39l-.33.36Z"/><path class="cls-7" d="M67.15,31.36a.39.39,0,0,1,.25-.11.37.37,0,0,1,.16,0,.46.46,0,0,0,0-.12.26.26,0,0,0,0,0,.45.45,0,0,0,0-.06c-.26-.15-.56-.33-.58-.33a2.46,2.46,0,0,0,0,.52A.49.49,0,0,1,67.15,31.36Z"/><path class="cls-7" d="M67.47,30.69l.08.1A.4.4,0,0,0,67.47,30.69Z"/><path class="cls-7" d="M67.7,31.42a.88.88,0,0,1,.19.48.56.56,0,0,1,.21,0,.55.55,0,0,1,.19,0,.42.42,0,0,0,.08-.24.39.39,0,0,0-.38-.4h0l0,0-.06,0A.36.36,0,0,0,67.7,31.42Z"/><path class="cls-7" d="M66.29,31.59h0a.41.41,0,0,1,.39-.36c-.09-.15-.17-.3-.22-.37l-.07,0a6.7,6.7,0,0,1-.56.53.4.4,0,0,0,.09.12l.07,0A.47.47,0,0,1,66.29,31.59Z"/><path class="cls-7" d="M67.33,32.41a.49.49,0,0,1-.15.33h0a.51.51,0,0,1,.33-.17.56.56,0,0,1,0-.09.63.63,0,0,1,.4-.59.88.88,0,0,0-.19-.48.47.47,0,0,0-.15-.12.37.37,0,0,0-.16,0,.39.39,0,0,0-.25.11.33.33,0,0,1,.1.22.39.39,0,0,1-.28.35A.55.55,0,0,1,67.33,32.41Z"/><path class="cls-7" d="M65.79,32.54h0a.8.8,0,0,1,0,.08l.07,0,.09,0,.12,0a.49.49,0,0,1-.06-.23.57.57,0,0,1,.47-.52v0a.35.35,0,0,1-.17-.27.47.47,0,0,0-.32-.14l-.07,0a.57.57,0,0,0-.45.56A.5.5,0,0,1,65.79,32.54Z"/><path class="cls-7" d="M65.51,32.89a.48.48,0,0,1,.26-.24v0a.8.8,0,0,0,0-.08h0a.5.5,0,0,0-.33-.51l-.07,0-.07,0a.5.5,0,0,0-.33.51h0a.64.64,0,0,0,.08.31.3.3,0,0,1,.19-.08A.32.32,0,0,1,65.51,32.89Z"/><path class="cls-7" d="M68.11,31.86a.56.56,0,0,0-.21,0,.63.63,0,0,0-.4.59.56.56,0,0,0,0,.09h.07a.53.53,0,0,1,.47.3.58.58,0,0,1,.37-.15.57.57,0,0,1,.22,0,.61.61,0,0,0,.07-.28.63.63,0,0,0-.31-.54l-.11-.06A.55.55,0,0,0,68.11,31.86Z"/><path class="cls-7" d="M66.29,31.58h0a.35.35,0,0,0,.17.27l0,0,.17,0a.77.77,0,0,1,.3.07.39.39,0,0,0,.28-.35.33.33,0,0,0-.1-.22.49.49,0,0,0-.13-.09,2.09,2.09,0,0,1,0,.44s-.18-.24-.32-.49A.41.41,0,0,0,66.29,31.58Z"/><path class="cls-7" d="M67.19,32.75a.49.49,0,0,0,.15-.33.55.55,0,0,0-.37-.49.77.77,0,0,0-.3-.07l-.17,0h0a.57.57,0,0,0-.47.52.49.49,0,0,0,.06.23.46.46,0,0,1,.3.26h0a.47.47,0,0,1,.37-.19.46.46,0,0,1,.31.13A.56.56,0,0,0,67.19,32.75Z"/><path class="cls-7" d="M68.6,34A.66.66,0,0,0,69,33.4a.69.69,0,0,0-.26-.54.71.71,0,0,0-.14-.09.57.57,0,0,0-.22,0,.58.58,0,0,0-.37.15.6.6,0,0,1,.08.28.58.58,0,0,1-.29.5l0,.06v0a.93.93,0,0,1,.46.27l.1,0,.05,0h0Z"/><path class="cls-7" d="M65.57,33.44a.51.51,0,0,1-.12-.32.5.5,0,0,1,.06-.23.32.32,0,0,0-.24-.13.3.3,0,0,0-.19.08.48.48,0,0,0-.17.37.53.53,0,0,0,0,.15.44.44,0,0,0,.14.22h.4A.39.39,0,0,0,65.57,33.44Z"/><path class="cls-7" d="M67.58,32.57h-.07a.51.51,0,0,0-.33.17.54.54,0,0,0-.08.13.58.58,0,0,1,.08.65v0l.37.08.2.06.07,0a.58.58,0,0,0,.29-.5.6.6,0,0,0-.08-.28A.53.53,0,0,0,67.58,32.57Z"/><path class="cls-7" d="M66.06,32.64l-.12,0-.09,0-.07,0a.48.48,0,0,0-.26.24.5.5,0,0,0-.06.23.51.51,0,0,0,.12.32.49.49,0,0,0,.13.12,3.19,3.19,0,0,1,.48,0h0l.09-.07a.6.6,0,0,1,0-.19.58.58,0,0,1,.12-.36h0A.46.46,0,0,0,66.06,32.64Z"/><path class="cls-7" d="M67.18,33.55v0a.58.58,0,0,0-.08-.65l0,0a.46.46,0,0,0-.31-.13.47.47,0,0,0-.37.19h0a.58.58,0,0,0-.12.36.6.6,0,0,0,0,.19.5.5,0,0,0,.06.12h.15a.15.15,0,0,1,0-.07A2.12,2.12,0,0,1,67.18,33.55Z"/><path class="cls-7" d="M65.12,29.95h0Z"/><path class="cls-7" d="M65.16,30.75l.43-.08.69-.12a2.35,2.35,0,0,0-.48.5c-.18.22-.31.44-.19.41a.55.55,0,0,0,.2-.11,6.7,6.7,0,0,0,.56-.53l0,0,0,0c0,.07.13.22.22.37s.3.52.32.49a2.09,2.09,0,0,0,0-.44,2.46,2.46,0,0,1,0-.52s.32.17.58.33l.05,0,.27.16.06,0,0,0L67.74,31l-.19-.22-.08-.1,0-.06c0-.05-.06-.09-.05-.09h.12l.6.06a2.57,2.57,0,0,0,.58,0l-.4-.23-.45-.26,0,0s.58-.66.46-.66a7,7,0,0,0-1,.61c.08-.05,1-1.36,1-1.36l-1,.56s.17-.81.08-.76-.75,1.06-.8,1.06a9.4,9.4,0,0,1-.21-1s0,1.11-.21,1.16-.91.21-1.09.21c.2,0,1,.35,1,.35l-.56.26C65.29,30.67,65.08,30.77,65.16,30.75Z"/><path class="cls-8" d="M62.42,38.28c.19.47.79,1.74,1.65,1.7,1-.05,1.44-.35,1.4-.38a2.06,2.06,0,0,1-.73-1c-.09-.23-.15-.41-.19-.55a4.93,4.93,0,0,1-1.61.3A2.07,2.07,0,0,1,62.42,38.28Z"/><path class="cls-8" d="M67,38l-.81-.08a6.52,6.52,0,0,0,.88,1.57,2.87,2.87,0,0,0,1.44.43,6.46,6.46,0,0,1,.73,0s-.33-.18-.6-1.16l-.23-.82A7.64,7.64,0,0,1,67,38Z"/><path class="cls-8" d="M72.38,39.7a3.78,3.78,0,0,0,0-.46l-1.75-.45s0,0-.05-.11a3.05,3.05,0,0,0,.05,1,2.81,2.81,0,0,0,.58.67h.88A.87.87,0,0,0,72.38,39.7Z"/><path class="cls-9" d="M62.58,36a3.16,3.16,0,0,1,0-.58l-.91.4a.77.77,0,0,1,0,.28c0,.15-.4.56-.4.89a1.57,1.57,0,0,0,1.17,1.28,2.07,2.07,0,0,0,.52.08,4.93,4.93,0,0,0,1.61-.3,8.93,8.93,0,0,0,.86-.35,4.11,4.11,0,0,1-1.09-.47C63.5,36.74,62.63,36.26,62.58,36Z"/><path class="cls-9" d="M72.36,39.24h0a1.54,1.54,0,0,0-.08-1,15.75,15.75,0,0,0-1-1.39,3.25,3.25,0,0,1-.82.63l-.38.12a5,5,0,0,0,.36.92.61.61,0,0,1,.12.19c0,.06,0,.11.05.11Z"/><path class="cls-9" d="M71.51,36.58a.5.5,0,0,0,.53,0,7,7,0,0,0,.88-.83,2.3,2.3,0,0,1-.79.15h0C72,36.06,71.78,36.31,71.51,36.58Z"/><path class="cls-9" d="M71.28,36.81l.23-.23c.26-.27.49-.52.59-.65l.07-.08s-.46-.21-.77-.4c-.13.15-.53.43-.65.4S70.44,35.4,70,35a14,14,0,0,0-1.34-.89l-.15-.08-.05,0-.1,0,0,0c.06.11-.14.56-.21.67a2.33,2.33,0,0,1-1,.17,4.36,4.36,0,0,1-.65-.71,1.49,1.49,0,0,1,0-.56h-.26a1.16,1.16,0,0,1,0,.46c0,.19-.68.56-.82.59a1,1,0,0,1-.61-.43c0-.13.29-.57.33-.6l.28,0h-.32l-.32,0-.1,0-.17,0h.3a.71.71,0,0,0-.22.4,1.22,1.22,0,0,0,0,.3,1.28,1.28,0,0,0-.72-.06,3,3,0,0,1-.68.17,2.45,2.45,0,0,1,.11-.33l-.34.17c-.21.13-.75,0-1-.15s-.8-.66-1.13-.63a1.24,1.24,0,0,0-.75.28c-.17.15-.42,0-.71.18a.53.53,0,0,0-.17.61,2,2,0,0,0,.4,0c.1,0,.17.45.37.66s.82.13,1.15.15.46.46.46.46l.07,0,.91-.4a3.16,3.16,0,0,0,0,.58c0,.25.92.73,1.73,1.24a4.11,4.11,0,0,0,1.09.47,6.11,6.11,0,0,0,.81.16L67,38a7.64,7.64,0,0,0,1.4-.07,12.21,12.21,0,0,0,1.65-.32l.38-.12A3.25,3.25,0,0,0,71.28,36.81ZM60.56,34.55v0c0,.06-.15,0-.24,0a.39.39,0,0,1-.24-.17s.17-.15.21-.18a1.37,1.37,0,0,1,.69.15A1.62,1.62,0,0,1,60.56,34.55Zm5,.3c.1-.06.47-.35.69-.32s.51.35.61.48a6.47,6.47,0,0,1-.16,2c-.11.12-1.14-.21-1.22-.3A4.55,4.55,0,0,1,65.55,34.84Zm-2.32,0a4.66,4.66,0,0,1,1.1-.14,1.87,1.87,0,0,1,.89.14,3.61,3.61,0,0,1-.11,1.67c-.12,0-.37-.26-.8-.48s-.89-.46-1.07-.53S63.06,35,63.23,34.82Zm5.82,1.86a4.72,4.72,0,0,1-1.94.39,4.31,4.31,0,0,1,.22-1.86,1.39,1.39,0,0,1,.77-.21C68.34,35,69.12,36.48,69.06,36.67Zm.39-.14a7.85,7.85,0,0,1-1-2,3.53,3.53,0,0,1,1.26.66c.63.42.89.7.91.85S69.62,36.59,69.45,36.53Z"/><path class="cls-9" d="M60.08,34.39a.39.39,0,0,0,.24.17l-.06,0v-.28a.68.68,0,0,0,.25,0c.06,0,0,.14,0,.23a1.62,1.62,0,0,0,.42-.18,1.37,1.37,0,0,0-.69-.15S60,34.34,60.08,34.39Z"/><path d="M60.52,34.32a.68.68,0,0,1-.25,0v.28l.06,0c.08,0,.24.06.24,0v0C60.56,34.46,60.58,34.32,60.52,34.32Z"/><path class="cls-10" d="M63.87,34.31a1.28,1.28,0,0,1,.72.06,1.22,1.22,0,0,1,0-.3.71.71,0,0,1,.22-.4h-.3l-.3,0h-.06a1.55,1.55,0,0,0-.48.14l0,0a.83.83,0,0,0-.32.29,2.45,2.45,0,0,0-.11.33A3,3,0,0,0,63.87,34.31Z"/><path class="cls-10" d="M66.2,33.54h0a3.19,3.19,0,0,0-.48,0l-.23,0h-.09l-.28,0s-.37.46-.33.6a1,1,0,0,0,.61.43c.14,0,.78-.4.82-.59a1.16,1.16,0,0,0,0-.46s0,0,0,0Z"/><path class="cls-10" d="M67.88,33.72h0l-.09,0-.2-.06-.37-.08h0a2.12,2.12,0,0,0-.65,0,.15.15,0,0,0,0,.07,1.49,1.49,0,0,0,0,.56,4.36,4.36,0,0,0,.65.71,2.33,2.33,0,0,0,1-.17c.07-.11.27-.56.21-.67l0,0A.93.93,0,0,0,67.88,33.72Z"/><path class="cls-10" d="M68.61,34.13h0A14,14,0,0,1,70,35c.46.37.64.78.78.82s.51-.24.65-.4a.19.19,0,0,0,0-.07,3.51,3.51,0,0,0-1.12-.94,2.82,2.82,0,0,0-.89-.23c-.35,0-.67-.07-.78-.08Z"/><path class="cls-10" d="M70.62,36c0-.14-.28-.43-.91-.85a3.53,3.53,0,0,0-1.26-.66,7.85,7.85,0,0,0,1,2C69.62,36.59,70.64,36.16,70.62,36Z"/><path class="cls-10" d="M68.12,35a1.39,1.39,0,0,0-.77.21,4.31,4.31,0,0,0-.22,1.86,4.72,4.72,0,0,0,1.94-.39C69.12,36.48,68.34,35,68.12,35Z"/><path class="cls-10" d="M66.71,37a6.47,6.47,0,0,0,.16-2c-.11-.13-.39-.46-.61-.48s-.59.26-.69.32a4.55,4.55,0,0,0-.07,1.88C65.57,36.81,66.59,37.14,66.71,37Z"/><path class="cls-10" d="M64.31,36c.43.22.67.49.8.48a3.61,3.61,0,0,0,.11-1.67,1.87,1.87,0,0,0-.89-.14,4.66,4.66,0,0,0-1.1.14c-.17.16-.18.58,0,.65S63.88,35.78,64.31,36Z"/><path class="cls-11" d="M55.41,55.92a5.21,5.21,0,0,0,1.2,1.93c0-.41.13-.92.37-1s.34.12.49.33A9.82,9.82,0,0,0,58.11,56a4.55,4.55,0,0,0,.28-.81L57.91,54a1.69,1.69,0,0,0-.88-.26c-.63,0-1.09.72-1.4,1C55.7,55,55.41,55.35,55.41,55.92Z"/><path class="cls-11" d="M74.87,57.15a.34.34,0,0,1,.35-.22.91.91,0,0,1,.59.57,6.8,6.8,0,0,0,1-2,1.48,1.48,0,0,0-.42-1.15,2,2,0,0,0-1.26-.55,1.16,1.16,0,0,0-.32,0l-.77,1.91A9.13,9.13,0,0,0,74.87,57.15Z"/><path class="cls-12" d="M75.9,61.46a4.1,4.1,0,0,0,2.14.66,2.55,2.55,0,0,0,2.49-1.18.36.36,0,0,0,.06-.09.62.62,0,0,0-.43-.56c-.47-.13-1.25.23-1.35.16.12-.1.63-1.4,1.18-2.39a2,2,0,0,1-1.85,1.11A14.94,14.94,0,0,1,75.9,61.46Z"/><path class="cls-12" d="M74.05,55.71l-.11.26-.17,0a13,13,0,0,1-1.28,1.75,9.49,9.49,0,0,0,1.33,2,11.81,11.81,0,0,0,1.69-1.83,7,7,0,0,1-.63-.78A9.13,9.13,0,0,1,74.05,55.71Z"/><path class="cls-12" d="M51.66,60.62l0-.09a1.23,1.23,0,0,0,.2.67L51.79,61A1,1,0,0,1,51.66,60.62Z"/><path class="cls-12" d="M52,60.28c-.24.07-.32.2-.32.34l.13.42a1.48,1.48,0,0,1,.08.2v0a3.08,3.08,0,0,0,2.19.85,7.82,7.82,0,0,0,2.65-.78,16.74,16.74,0,0,1-2-2.2.94.94,0,0,1-.63.12,5,5,0,0,1-1.3-.57c.4.91.7,1.77.7,1.77A2.74,2.74,0,0,0,52,60.28Z"/><path class="cls-12" d="M58.9,56a1.13,1.13,0,0,0-.21,0l-.3-.76a4.55,4.55,0,0,1-.28.81,9.82,9.82,0,0,1-.66,1.18,5.07,5.07,0,0,1-.69.84,12.91,12.91,0,0,0,1.91,1.75A11.72,11.72,0,0,0,60,57.5,13.24,13.24,0,0,1,58.9,56Z"/><path class="cls-12" d="M71.08,63.31a.15.15,0,0,0,.18,0,.16.16,0,0,0,.12-.15,1.76,1.76,0,0,0-.1-.49,1.72,1.72,0,0,0-.17-.47.14.14,0,0,0-.17,0,.16.16,0,0,0-.12.15,1.75,1.75,0,0,0,.1.49A1.72,1.72,0,0,0,71.08,63.31Z"/><path class="cls-12" d="M70,63a.24.24,0,0,0,.16-.1.27.27,0,0,0,0-.19.25.25,0,0,0-.08-.17.23.23,0,0,0-.18,0l-.11,0,.1.47Z"/><polygon class="cls-12" points="77.51 57.94 76.95 57.67 77.39 58.15 77.51 57.94"/><path class="cls-12" d="M65.74,64.14a.11.11,0,0,0,.06,0,.5.5,0,0,0,.06-.17,2.8,2.8,0,0,0,0-.35,2.32,2.32,0,0,0,0-.34.34.34,0,0,0-.06-.16l-.06,0-.12,0h-.12l0,1.13h.25Z"/><path class="cls-12" d="M63.69,63.93a.11.11,0,0,0,.07,0,.44.44,0,0,0,.08-.16,2.8,2.8,0,0,0,.06-.34,2.14,2.14,0,0,0,0-.34.36.36,0,0,0,0-.17l-.06,0-.11,0-.11,0-.16,1.12.12,0Z"/><path class="cls-12" d="M60.35,63a.14.14,0,0,0,.17,0,1.65,1.65,0,0,0,.2-.45,1.76,1.76,0,0,0,.12-.49.16.16,0,0,0-.11-.16.14.14,0,0,0-.18,0,1.69,1.69,0,0,0-.2.45,1.79,1.79,0,0,0-.12.48A.17.17,0,0,0,60.35,63Z"/><path class="cls-12" d="M56.72,61.34a13.5,13.5,0,0,0,9.16,3.76,15.45,15.45,0,0,0,10-3.65,14.94,14.94,0,0,0,2.25-2.29c.87-1.11,1.28-2,1.16-2.41-.38-1.2-3-2.6-3-2.6a1.74,1.74,0,0,1,.15.15,1.48,1.48,0,0,1,.42,1.15,6.8,6.8,0,0,1-1,2l-.3.43a11.81,11.81,0,0,1-1.69,1.83,10.6,10.6,0,0,1-7.46,2.64,13.15,13.15,0,0,1-7.69-2.62A12.91,12.91,0,0,1,56.76,58l-.16-.19a5.21,5.21,0,0,1-1.2-1.93c0-.58.3-.93.23-1.14a.17.17,0,0,0,0-.07c-.09,0-2.48,1.3-2.38,1.85a10.29,10.29,0,0,0,1.52,2.57A16.74,16.74,0,0,0,56.72,61.34ZM77.1,59.58l-1.11-1,.47-.63.19.17-.31.41.26.24.28-.38.18.16-.28.38.31.28.31-.41.19.17Zm1-1.39L77.71,58l-.17.28.26.29-.15.25-1-1.2.2-.33,1.38.59Zm-.67-1.79a.4.4,0,0,1,.33.06l0,0h0l-.12.25,0,0a.27.27,0,0,0-.17,0,.16.16,0,0,0-.1.1.18.18,0,0,0,0,.12.16.16,0,0,0,.08.09c.06,0,.14,0,.25-.06h0l.16-.09a.66.66,0,0,1,.28-.11.49.49,0,0,1,.46.33.56.56,0,0,1-.05.37.37.37,0,0,1-.6.19l-.07,0h0l.12-.27.08,0a.33.33,0,0,0,.18.06.14.14,0,0,0,.09-.09.21.21,0,0,0,0-.15.2.2,0,0,0-.2-.13.54.54,0,0,0-.17.07l-.15.09a.81.81,0,0,1-.28.12.38.38,0,0,1-.2-.06A.41.41,0,0,1,77.1,57a.51.51,0,0,1,0-.35A.43.43,0,0,1,77.39,56.4ZM75.6,58.94a.4.4,0,0,1,.3-.15.42.42,0,0,1,.3.17l0,0v0l-.18.2,0,0a.27.27,0,0,0-.14-.1.14.14,0,0,0-.13.06.16.16,0,0,0,0,.11.16.16,0,0,0,0,.11s.13.06.26,0h0l.18,0a.66.66,0,0,1,.29,0,.44.44,0,0,1,.21.14.47.47,0,0,1,.13.33.52.52,0,0,1-.15.34.41.41,0,0,1-.31.16.46.46,0,0,1-.32-.19L76,60h0l.19-.21.07.07a.34.34,0,0,0,.15.12.13.13,0,0,0,.12-.05.21.21,0,0,0,.06-.14.23.23,0,0,0-.16-.2h-.18l-.17,0a.73.73,0,0,1-.3,0,.37.37,0,0,1-.18-.12.43.43,0,0,1-.12-.31A.47.47,0,0,1,75.6,58.94Zm-.64.7.14.21-.38.32.2.3.35-.3.14.2-.35.3.24.35.39-.32.15.22-.6.51-.87-1.28Zm-1.23,1,.3.53.31-.22-.3-.53.23-.16L75,61.57l-.23.16-.35-.62-.31.22.35.61-.23.16-.77-1.36Zm-.26.18.11.23-.27.16.56,1.19-.24.14-.56-1.19-.27.16-.11-.23Zm-1.79.94.72.89-.38-1,.23-.1.54,1.49-.26.11-.73-.89.38,1-.24.1-.54-1.49Zm-1.13.6a.44.44,0,0,1,.1-.2.53.53,0,0,1,.21-.12.48.48,0,0,1,.23,0,.36.36,0,0,1,.19.1.6.6,0,0,1,.13.2,3.07,3.07,0,0,1,.13.38,2.73,2.73,0,0,1,.09.4.68.68,0,0,1,0,.24.43.43,0,0,1-.1.2.52.52,0,0,1-.21.12.48.48,0,0,1-.23,0,.35.35,0,0,1-.18-.1.55.55,0,0,1-.13-.19,3,3,0,0,1-.13-.38,2.72,2.72,0,0,1-.09-.4A.65.65,0,0,1,70.56,62.3Zm-.57,0a.38.38,0,0,1,.32,0,.49.49,0,0,1,.17.31.55.55,0,0,1,0,.37.41.41,0,0,1-.27.19l-.19.05.14.66-.26.07-.34-1.56Zm-1.22.28.17,1.07a.55.55,0,0,0,.08.24.15.15,0,0,0,.16,0,.16.16,0,0,0,.13-.09.57.57,0,0,0,0-.26l-.17-1.06.26-.05.17,1.09a1.21,1.21,0,0,1,0,.24.34.34,0,0,1,0,.14.4.4,0,0,1-.13.16.58.58,0,0,1-.22.08.43.43,0,0,1-.36,0,.63.63,0,0,1-.17-.39l-.17-1.09ZM68,62.7,68,63l-.31,0,.1,1.34-.27,0L67.45,63l-.31,0,0-.26Zm-1,.08.06,1.6h-.27l-.06-1.6Zm-1.77,0,.43,0a.76.76,0,0,1,.21,0,.31.31,0,0,1,.13.09.46.46,0,0,1,.1.21,1.75,1.75,0,0,1,0,.39,3.47,3.47,0,0,1,0,.48.73.73,0,0,1-.08.24.27.27,0,0,1-.14.13.81.81,0,0,1-.31,0h-.37Zm-.86-.09.74.08,0,.27L64.65,63l0,.37.44,0,0,.25-.44,0,0,.44.48.05,0,.27-.75-.08Zm-.61-.1a.78.78,0,0,1,.2.06.31.31,0,0,1,.12.1.49.49,0,0,1,.08.22,1.77,1.77,0,0,1,0,.39,4,4,0,0,1-.09.47.88.88,0,0,1-.11.23.29.29,0,0,1-.16.11.86.86,0,0,1-.31,0l-.37-.06.22-1.59Zm-1.19-.26.15,1.19.21-1.1.25.06L62.91,64,62.65,64l-.15-1.19-.21,1.1L62,63.82l.32-1.57Zm-1-.31-.28,1a.53.53,0,0,0,0,.25.17.17,0,0,0,.12.11.15.15,0,0,0,.15,0,.53.53,0,0,0,.1-.23l.28-1,.25.08-.28,1.06a1.14,1.14,0,0,1-.08.22.33.33,0,0,1-.08.11.35.35,0,0,1-.18.07.55.55,0,0,1-.23,0,.47.47,0,0,1-.31-.22.67.67,0,0,1,0-.43l.28-1.06Zm-1-.39a.46.46,0,0,1,.23,0,.51.51,0,0,1,.2.13.45.45,0,0,1,.09.21.67.67,0,0,1,0,.24,3,3,0,0,1-.11.39,3,3,0,0,1-.15.37.61.61,0,0,1-.14.19.35.35,0,0,1-.19.09.46.46,0,0,1-.23,0,.51.51,0,0,1-.2-.13A.43.43,0,0,1,60,62.9a.64.64,0,0,1,0-.24,3.08,3.08,0,0,1,.11-.39,3.15,3.15,0,0,1,.15-.37.58.58,0,0,1,.14-.19A.33.33,0,0,1,60.58,61.62Zm-.27-.13-.1.24-.44-.23-.14.35.42.21-.1.23-.42-.21-.27.64L59,62.6l.61-1.46Zm-1.18-.64-.75,1.37-.23-.16.34-.62-.31-.21-.34.62-.23-.16.75-1.37.23.16-.3.54.31.21.3-.54Zm-1.65-.91.14-.21.71.58-.14.21-.25-.2-.71,1.08L57,61.23l.71-1.08Zm-3.31-2.32.58-.33-.17-.36-.58.33L53.88,57l1.29-.73.12.27-.5.29.17.37.51-.29.12.27-1.29.73Zm1.46-.4.41.69-.2.15-.26-.44-.28.21.25.41-.19.14L55.1,58l-.33.24.27.45-.2.15-.42-.7Zm.07,2.7.48-.49-.25-.3-.48.5-.18-.22,1.06-1.09.18.22-.42.43.25.3.42-.43.18.22-1.06,1.09Zm.28.33,1.2-1,.27.27L56.73,61l-.22-.21.18-.36-.23-.23-.29.25Z"/><polygon class="cls-12" points="57.13 59.64 56.64 60.06 56.82 60.23 57.13 59.64"/><path class="cls-11" d="M80.17,60.28a.62.62,0,0,1,.43.56,1.06,1.06,0,0,1,0,.12s.71-2.36.77-2.62.3-1.28-.41-1.38c-.28,0-.63.46-1,1.09-.54,1-1.05,2.29-1.18,2.39C78.92,60.51,79.7,60.15,80.17,60.28Z"/><path class="cls-11" d="M51.63,60.54l0,.09c0-.14.08-.27.32-.34a2.74,2.74,0,0,1,1.53.18s-.3-.86-.7-1.77c-.11-.25-.23-.5-.35-.74-.57-1.11-.76-.93-1.24-.74s-.46.68-.18,1.42C51.2,59.05,51.45,59.91,51.63,60.54Z"/><path class="cls-11" d="M51.84,61.2c0,.09,0,.13,0,.1a.24.24,0,0,0,0-.05,1.48,1.48,0,0,0-.08-.2Z"/><path class="cls-11" d="M51.79,61l-.13-.42A1,1,0,0,0,51.79,61Z"/><path class="cls-5" d="M61.24,50.77h.21l.68-1.88L62.55,50a1.54,1.54,0,0,1,1.24-.7c1.27,0,1.27,1.49,2.55,1.49s1.27-1.49,2.55-1.49c.74,0,1.05.51,1.44.93l.49-1.34.71,1.88c1.17-.08,1.21-1.48,2.45-1.48h1.27V47.05L74,47c-1.28.08-1.28,1.57-2.48,1.65-1.35-.08-1.35-1.57-2.62-1.57s-1.27,1.49-2.55,1.49-1.27-1.49-2.55-1.49-1.27,1.49-2.55,1.49-1.38-1.4-2.55-1.49-1.26.05-1.26.05l0-6.74v8.92h1.27C60,49.28,60,50.77,61.24,50.77Z"/><path class="cls-5" d="M67,55c.66-.39.88-1.31,1.88-1.31l.21,0,.34-1.06-1.34-.94c-.58.42-.83,1.24-1.77,1.24s-1.15-.71-1.65-1.14l-1.17.84.34,1.05c1,0,1.2,1.11,2,1.41l.57-1.64Z"/><path class="cls-5" d="M63.79,56l-.26,0H64Z"/><path class="cls-5" d="M73.84,51.53l-1.63,1.16.56,1.7a1.5,1.5,0,0,1,1.2-.66l.86,0a8.43,8.43,0,0,0,.4-2.2H74Z"/><path class="cls-5" d="M68.88,56h0Z"/><path class="cls-5" d="M63.48,60.62l-.23-.15Z"/><path class="cls-5" d="M62.2,59.7l0,0s.33-1.49,1.6-1.49a1.32,1.32,0,0,1,1,.41l.32-1.05-1.92-1.43c-.69.38-.9,1.33-1.91,1.33-1.19,0-1.37-1.21-2.34-1.44A13.24,13.24,0,0,0,60,57.5,15,15,0,0,0,62.2,59.7Z"/><path class="cls-5" d="M60.31,54.85a1.3,1.3,0,0,0,.93.38c.86,0,1.14-.68,1.63-1.12l-.72-.47Z"/><path class="cls-5" d="M67.39,59.18l-.93-.63-1.08.75a1.3,1.3,0,0,0,.95.39A1.38,1.38,0,0,0,67.39,59.18Z"/><path class="cls-5" d="M69.92,54.22c.42.43.72,1,1.5,1a1.37,1.37,0,0,0,1.07-.52l-1.67-1.08Z"/><path class="cls-5" d="M60.14,54.68l.57-1.79c-.8-.32-1-1.31-2-1.38H57.44a8.52,8.52,0,0,0,.41,2.23h.85C59.45,53.74,59.75,54.26,60.14,54.68Z"/><path class="cls-5" d="M68.12,58.43a1.27,1.27,0,0,1,.76-.23c1.25,0,1.63,1.42,1.61,1.48a15,15,0,0,0,2-1.92A13,13,0,0,0,73.77,56c-1.1.19-1.2,1.37-2.34,1.45s-1.22-.85-1.78-1.25l-1.79,1.35Z"/><path class="cls-5" d="M70.13,60c-.25.18-.6.43-1,.68C69.46,60.44,69.79,60.21,70.13,60Z"/><path class="cls-5" d="M63,60.27l-.42-.3Z"/><path class="cls-11" d="M63.41,44.55l0,.09,0,0Z"/><path class="cls-11" d="M62.16,43.93a3.71,3.71,0,0,1-.13.39l.06,0A2.53,2.53,0,0,1,62.16,43.93Z"/><path class="cls-11" d="M58.69,47.05c1.17.08,1.27,1.49,2.55,1.49s1.27-1.49,2.55-1.49,1.27,1.49,2.55,1.49,1.27-1.49,2.55-1.49,1.27,1.49,2.62,1.57c1.2-.08,1.2-1.57,2.48-1.65l1.27.08V40.36H57.42l0,6.74S57.52,47,58.69,47.05Zm1.91-5.69a4.36,4.36,0,0,1,.42.55,1,1,0,0,1-.47-.14S60.6,41.36,60.6,41.36ZM59,45.44a3.35,3.35,0,0,1,.36.07V45.2l-.51-.35.69.19-.07.09h.25l.07.38a17.27,17.27,0,0,0,2.38.13,1.93,1.93,0,0,0,1.28-.41.72.72,0,0,1-.4-.08l-.12-.08c0,.18,0,.31,0,.31s-.94.19-.94.06,0-.25-.07-.25l-.87.06L61,45l-.72-.12.29-.25s-1.16-.44-1.09-.44a3.26,3.26,0,0,0,.51-.25l-.87-.5h.5a5,5,0,0,1-.65-.5c.07,0,.43.06.43.06l-.22-.5h.22l-.22-.38h0a4.21,4.21,0,0,1-.18-.44s.41.27.49.33l.05,0,.22.31-.07-.75h0s.05-.27.05-.27.49.33.47.33h-.05v.63a2.94,2.94,0,0,0,.22-.44s.39.13.53.15l0,0s0,0,0,0a1.27,1.27,0,0,0-.46,1c.07.57,1.3,1.38,1.3,1.38a1.5,1.5,0,0,1,0-.49c0-.58.67-.66.74-.69a2.92,2.92,0,0,0,.14-.76s-.43.11-.45-.41.74-.2.74-.2.13-.27.34-.28.5-.28.56-.31.31.49.31.49l.33-.21s0,.32.11.33.54.09.58.43-.41.23-.41.23a1.54,1.54,0,0,1-.13.55c-.11.18,0,.22.08.5H71c.72,0,1.37-.25,1.37-.63s-1.16-.44-1.59-.31a12.61,12.61,0,0,1-3.1.82c-.79-.06-1.52-.5-1.59-.94s.36-.82,1.15-.82,1.8.25,2,.19.72-.56.94-.63a8,8,0,0,1,.87-.13l-.29.19.94-.19a4,4,0,0,1-1.44.88,14.68,14.68,0,0,1-2.82.13c-.58,0-.87-.06-.79.31a.77.77,0,0,0,.86.57c.36-.06,1.45-.38,1.45-.38l-.29-.19,1.3-.06s-.07-.19,0-.19l.72.06s-.43-.19-.36-.19a8.5,8.5,0,0,1,.94.06c.58.06,1.81.25,1.73.75a1.08,1.08,0,0,1-1,.94c-.51,0-.94-.12-.94.06s.58.31.94.31a3.18,3.18,0,0,0,.86-.25c.07,0,.22.38.29.38a5.2,5.2,0,0,0,.51-.13l-.29.69.51.12s-.29.25-.22.25.51,0,.51.06-.58.44-.58.5.43.25.43.25l-.11.13a1.93,1.93,0,0,0,.11.34s-.12-.07-.26-.19c0,0-.08.06-.1,0s-.36-.38-.36-.38-.07.25-.22.25H73a2.27,2.27,0,0,1-.34.37c-.06,0,0-.26,0-.41h-.06s.22-.38.14-.38a3.5,3.5,0,0,0-.38.18l0,0-.6,0,.32-.22,0,0s.58-.2.58-.5-.24-.6-1.28-.64a3.55,3.55,0,0,0-1.23.14,2.21,2.21,0,0,0,0,.41.85.85,0,0,0,.25.39,2.25,2.25,0,0,1-.4.06c-.06,0-.11.44-.16.47s-.45-.41-.45-.41a5.15,5.15,0,0,1-.56.38c-.06,0-.06-.3-.06-.3s-.34.38-.36.38a2.5,2.5,0,0,1-.13-.33,2.86,2.86,0,0,1-.59.36c-.11,0,.13-.35.13-.35a2.07,2.07,0,0,0-.45,0c-.14,0-.33.33-.38.36s0,0-.09,0a2.37,2.37,0,0,1-.42.25c-.08,0,.09-.33.18-.45l.09-.23-.47,0h0l-.56.09.45-.28-.07-.11.61,0-.3-.14v0l-.42-.17.51-.11v0a.12.12,0,0,1,.08,0c.13,0,.52.25.52.25s1.39,0,1.37-.16-.46-.43-.67-.6a19.76,19.76,0,0,1-2.82.56H64.7c.06.26.14.73,0,.78s-.51.31-.58.31,0-.44-.14-.31a.86.86,0,0,0-.22.31s-.15-.19-.22-.19-.22.19-.22.19,0-.19-.07-.19a2.26,2.26,0,0,0-.43.31l-.36-.25s-.22.31-.29.31a3.3,3.3,0,0,1-.51-.25l-.72.38s0-.57-.14-.5a5.5,5.5,0,0,1-.94.06s-.22.38-.29.38a.3.3,0,0,1-.13-.09h-.74a4.58,4.58,0,0,1,.58-.39l.08.12c.06-.06.11-.16.06-.2s-.43,0-.43-.06v0h-.88a5.7,5.7,0,0,1,.74-.38.76.76,0,0,1,.07.13C58.93,45.52,58.92,45.44,59,45.44Z"/><path class="cls-13" d="M71.52,50.76l.16.41,2.62,0-.45.32.13,0h1.27V49.28H74C72.73,49.28,72.7,50.68,71.52,50.76Z"/><path class="cls-13" d="M60.71,52.89l.06-.19-2.06-1.46,2.58-.06.16-.42h-.21c-1.27,0-1.27-1.49-2.55-1.49H57.42v2.23h1.27C59.67,51.58,59.91,52.57,60.71,52.89Z"/><path class="cls-13" d="M65.57,51.22l-.89.64c.5.44.77,1.14,1.65,1.14s1.19-.81,1.77-1.24l-.75-.53L70,51.18l.36-1c-.39-.42-.7-.93-1.44-.93-1.27,0-1.27,1.49-2.55,1.49s-1.27-1.49-2.55-1.49a1.54,1.54,0,0,0-1.24.7L63,51.17Z"/><path class="cls-13" d="M58.69,56a1.13,1.13,0,0,1,.21,0c1,.23,1.15,1.44,2.34,1.44,1,0,1.22-.95,1.91-1.33L63,56h.53l.26,0L64,56l1.61,0,.28-.8c-.82-.3-1-1.36-2-1.41L64.27,55l-1.4-.92c-.49.44-.76,1.12-1.63,1.12a1.3,1.3,0,0,1-.93-.38L60,55l.11-.35c-.39-.42-.7-.94-1.45-.94H57.8l.11.28.48,1.2Z"/><path class="cls-13" d="M72.77,54.4,73,55l-.48-.31a1.37,1.37,0,0,1-1.07.52c-.79,0-1.09-.57-1.5-1L68.68,55l.41-1.27-.21,0c-1,0-1.22.92-1.88,1.31l.32.9,1.52,0h.07l1,0-.28.21c.57.4.79,1.19,1.78,1.25s1.24-1.26,2.34-1.45l.17,0,.11-.26.77-1.91,0-.09h0l-.86,0A1.5,1.5,0,0,0,72.77,54.4Z"/><path class="cls-13" d="M68.88,58.2a1.27,1.27,0,0,0-.76.23L68.61,60l-1.22-.83a1.38,1.38,0,0,1-1.06.5,1.3,1.3,0,0,1-.95-.39L64.33,60l.43-1.41a1.32,1.32,0,0,0-1-.41c-1.27,0-1.6,1.49-1.6,1.49l0,0,.34.27.42.3.29.2.23.15a7.08,7.08,0,0,0,2.85,1.29,6.92,6.92,0,0,0,2.8-1.26c.4-.26.75-.51,1-.68l.37-.28h0C70.51,59.62,70.13,58.2,68.88,58.2Z"/><path class="cls-14" d="M59,45.86v0c0,.06.36,0,.43.06s0,.14-.06.2l.15.27h-.08a.3.3,0,0,0,.13.09c.07,0,.29-.38.29-.38a5.5,5.5,0,0,0,.94-.06c.14-.06.14.5.14.5l.72-.38a3.3,3.3,0,0,0,.51.25c.07,0,.29-.31.29-.31l.36.25a2.26,2.26,0,0,1,.43-.31c.07,0,.07.19.07.19s.14-.19.22-.19.22.19.22.19a.86.86,0,0,1,.22-.31c.14-.13.07.31.14.31s.43-.25.58-.31,0-.52,0-.78l-1.12,0c0,.05-.07.09-.16.1a1.93,1.93,0,0,1-1.28.41,17.27,17.27,0,0,1-2.38-.13l-.07-.38h-.25l-.07.09,0,0v.31a3.35,3.35,0,0,0-.36-.07s0,.07,0,.16.11.24.13.25Z"/><path class="cls-14" d="M61,41.93l0,0S61.06,42,61,41.93Z"/><path class="cls-14" d="M62.73,44.64l-.06.34a1.82,1.82,0,0,1-.49-.22c-.11-.07-.12-.27-.1-.45l-.06,0a.31.31,0,0,1-.07.12s-.08,0-.11-.06-1.23-.82-1.3-1.38A1.27,1.27,0,0,1,61,42c-.14,0-.53-.2-.53-.15a2.94,2.94,0,0,1-.22.44v-.63h0a1.53,1.53,0,0,1-.46,0h0l.07.75L59.61,42l-.05,0,0,0-.32.09h0l.22.38h-.22l.22.5s-.36-.06-.43-.06a5,5,0,0,0,.65.5h-.5l.87.5a3.26,3.26,0,0,1-.51.25c-.07,0,1.09.44,1.09.44l-.29.25L61,45l-.07.25.87-.06c.07,0,.07.12.07.25s.87-.06.94-.06,0-.14,0-.31A.51.51,0,0,1,62.73,44.64Z"/><path d="M72.39,46l-.18-.16-.32.22.6,0,0,0S72.39,46,72.39,46Z"/><path d="M72.69,46.62a2.27,2.27,0,0,0,.34-.37l-.3,0C72.69,46.36,72.64,46.65,72.69,46.62Z"/><path d="M73.79,46.35c.14.12.29.24.26.19a1.93,1.93,0,0,1-.11-.34Z"/><path d="M65.81,46l.56-.09-.11-.19Z"/><path d="M66.76,46.08c-.09.12-.26.46-.18.45a2.37,2.37,0,0,0,.42-.25,1.86,1.86,0,0,1-.26-.14Z"/><path d="M66.59,45.16v0l-.51.11.42.17v0h0A.61.61,0,0,1,66.59,45.16Z"/><polygon points="59.42 45.13 59.5 45.04 58.81 44.85 59.32 45.2 59.35 45.22 59.42 45.13"/><path d="M58.14,45.85h.94S59,45.71,59,45.6a.76.76,0,0,0-.07-.13A5.7,5.7,0,0,0,58.14,45.85Z"/><path d="M59.4,46.15,59.32,46a4.58,4.58,0,0,0-.58.39h.81Z"/><path d="M59.55,42c-.08-.06-.47-.33-.49-.33a4.21,4.21,0,0,0,.18.44h0l.32-.09Z"/><path d="M60.25,41.61h.06s-.47-.33-.47-.33,0,.23-.05.27h0A1.49,1.49,0,0,0,60.25,41.61Z"/><path d="M61,41.91a4.36,4.36,0,0,0-.42-.55s-.05.39-.05.41A1,1,0,0,0,61,41.91Z"/><path class="cls-14" d="M68.27,44.56a2.42,2.42,0,0,0-.38,0c.21.17.65.5.67.6s-1.37.16-1.37.16-.4-.27-.52-.25a.12.12,0,0,0-.08,0,.61.61,0,0,0-.1.23h0l.3.14-.61,0,.07.11.11.19h0l.47,0-.09.23,0,.06a1.86,1.86,0,0,0,.26.14s.07,0,.09,0,.23-.31.38-.36a2.07,2.07,0,0,1,.45,0s-.23.35-.13.35a2.86,2.86,0,0,0,.59-.36,2.5,2.5,0,0,0,.13.33s.36-.38.36-.38,0,.3.06.3a5.15,5.15,0,0,0,.56-.38s.4.44.45.41.11-.47.16-.47a2.25,2.25,0,0,0,.4-.06.85.85,0,0,1-.25-.39,2.21,2.21,0,0,1,0-.41,2.25,2.25,0,0,1-.61.05C68.85,44.83,68.85,44.56,68.27,44.56Z"/><path class="cls-14" d="M65.07,44.33c-.07.18-.2.11-.3,0,.07.11.11.25,0,.33s-.29,0-.44-.08l.19.14s.31.25-.13.36a.51.51,0,0,1-.61-.17s-.21-.22-.31-.31l0,0c0,.12.11.31.13.41a.15.15,0,0,1,0,.07l1.12,0h.38a19.76,19.76,0,0,0,2.82-.56,2.42,2.42,0,0,1,.38,0c.58,0,.58.27,1.35.3a2.25,2.25,0,0,0,.61-.05,3.55,3.55,0,0,1,1.23-.14c1,0,1.28.35,1.28.64s-.58.5-.58.5l0,0,.18.16s0,0,.06,0a3.5,3.5,0,0,1,.38-.18c.07,0-.14.38-.14.38h.06l.3,0h.08c.14,0,.22-.25.22-.25s.29.31.36.38.06,0,.1,0l.15-.15.11-.13s-.43-.19-.43-.25.58-.44.58-.5-.43-.06-.51-.06.22-.25.22-.25l-.51-.12.29-.69a5.2,5.2,0,0,1-.51.13c-.07,0-.22-.38-.29-.38a3.18,3.18,0,0,1-.86.25c-.36,0-.94-.13-.94-.31s.43-.06.94-.06a1.08,1.08,0,0,0,1-.94c.07-.5-1.15-.69-1.73-.75a8.5,8.5,0,0,0-.94-.06c-.07,0,.36.19.36.19L70,42.18c-.07,0,0,.19,0,.19l-1.3.06.29.19s-1.08.31-1.45.38a.77.77,0,0,1-.86-.57c-.07-.38.22-.31.79-.31A14.68,14.68,0,0,0,70.29,42a4,4,0,0,0,1.44-.88l-.94.19.29-.19a8,8,0,0,0-.87.13c-.22.06-.72.56-.94.63s-1.23-.19-2-.19-1.23.38-1.15.82.79.88,1.59.94a12.61,12.61,0,0,0,3.1-.82c.43-.13,1.59-.06,1.59.31s-.65.63-1.37.63H64.76v0C64.88,43.9,65.2,44,65.07,44.33Z"/><path class="cls-14" d="M63.57,45.12a.15.15,0,0,0,0-.07c0-.1-.09-.29-.13-.41l0-.09.05.05c.1.09.29.29.31.31a.51.51,0,0,0,.61.17c.43-.11.13-.36.13-.36l-.19-.14c.16.09.33.16.44.08s.07-.22,0-.33c.11.11.23.18.3,0s-.2-.42-.31-.74v0c-.1-.28-.18-.32-.08-.5a1.54,1.54,0,0,0,.13-.55s.45.09.41-.23-.49-.41-.58-.43-.07-.35-.11-.33l-.33.21s-.25-.52-.31-.49-.34.3-.56.31-.34.28-.34.28-.76-.32-.74.2.45.39.45.41a2.92,2.92,0,0,1-.14.76c-.07,0-.7.11-.74.69a1.5,1.5,0,0,0,0,.49c0,.09.07.08.11.06a.31.31,0,0,0,.07-.12,3.71,3.71,0,0,0,.13-.39,2.53,2.53,0,0,0-.07.38c0,.18,0,.37.1.45a1.82,1.82,0,0,0,.49.22l.06-.34a.51.51,0,0,0,.16.43l.12.08a.72.72,0,0,0,.4.08C63.5,45.21,63.55,45.17,63.57,45.12Zm.52-2.86c.15,0,.28.1.36.12a1.48,1.48,0,0,1-.29.12.44.44,0,0,1-.34-.06C63.71,42.39,63.94,42.28,64.09,42.26ZM63.42,44a4.15,4.15,0,0,1-.11-.69,1.72,1.72,0,0,0,.4,0A6,6,0,0,1,63.42,44ZM63,42.4c.08,0,.21-.14.36-.13s.38.13.27.19a.43.43,0,0,1-.34.06A1.62,1.62,0,0,1,63,42.4Z"/><path d="M63.61,42.47c.12-.06-.12-.17-.27-.19s-.28.1-.36.13a1.62,1.62,0,0,0,.29.12A.43.43,0,0,0,63.61,42.47Z"/><path d="M64.16,42.51a1.48,1.48,0,0,0,.29-.12c-.09,0-.21-.14-.36-.12s-.38.13-.27.19A.44.44,0,0,0,64.16,42.51Z"/><path class="cls-15" d="M63.31,43.31a4.15,4.15,0,0,0,.11.69,6,6,0,0,0,.29-.67A1.72,1.72,0,0,1,63.31,43.31Z"/><path class="cls-14" d="M64.76,58.61,64.33,60l1.06-.73,1.08-.75.93.63,1.22.83-.49-1.58-.27-.88,1.79-1.35.28-.21-1,0h-.07l-1.52,0L67,55l-.55-1.53-.57,1.64-.28.8L64,56H63l.16.12,1.92,1.43Zm-1.18-2.44,2.17,0,.71-1.93.72,1.93,2.18,0L67.62,57.4l.63,2-1.79-1.16-1.78,1.17.62-2Z"/><polygon class="cls-16" points="64.68 59.36 66.46 58.19 68.25 59.35 67.62 57.4 69.35 56.16 67.17 56.12 66.45 54.19 65.75 56.13 63.57 56.17 65.31 57.4 64.68 59.36"/><path class="cls-14" d="M64.68,51.85l.89-.64-2.58,0L62.55,50l-.41-1.11-.68,1.88-.16.42-2.58.06,2.06,1.46-.06.19-.57,1.79L60,55l.27-.18,1.84-1.22.72.47,1.4.92-.41-1.27-.34-1.05Zm-.77,2.54-1.77-1.1L60.38,54.4,61,52.55l-1.72-1.16,2.15,0,.7-1.83.71,1.82,2.15,0-1.71,1.17Z"/><polygon class="cls-16" points="65 51.38 62.85 51.34 62.14 49.52 61.44 51.34 59.28 51.39 61 52.55 60.38 54.4 62.15 53.3 63.91 54.4 63.29 52.55 65 51.38"/><path class="cls-14" d="M67.35,51.23l.75.53,1.34.94-.34,1.06L68.68,55l1.24-.81.91-.59,1.67,1.08L73,55l-.2-.62-.56-1.7,1.63-1.16.45-.32-2.62,0-.16-.41-.71-1.88-.49,1.34-.36,1Zm3.47-1.72.72,1.82,2.18,0L72,52.55l.64,1.85-1.79-1.1L69,54.4l.63-1.85-1.74-1.16,2.18,0Z"/><polygon class="cls-16" points="69.66 52.55 69.04 54.4 70.83 53.3 72.62 54.4 71.98 52.55 73.72 51.38 71.54 51.34 70.81 49.52 70.11 51.34 67.92 51.39 69.66 52.55"/><path d="M63.52,64.15a.86.86,0,0,0,.31,0,.29.29,0,0,0,.16-.11.88.88,0,0,0,.11-.23,4,4,0,0,0,.09-.47,1.77,1.77,0,0,0,0-.39.49.49,0,0,0-.08-.22.31.31,0,0,0-.12-.1.78.78,0,0,0-.2-.06l-.43-.07-.22,1.59Zm.09-1.37.11,0,.11,0,.06,0a.36.36,0,0,1,0,.17,2.14,2.14,0,0,1,0,.34,2.8,2.8,0,0,1-.06.34.44.44,0,0,1-.08.16.11.11,0,0,1-.07,0h-.13l-.12,0Z"/><polygon points="65.05 64.08 64.56 64.03 64.6 63.59 65.04 63.64 65.06 63.39 64.62 63.34 64.65 62.97 65.13 63.02 65.15 62.75 64.41 62.67 64.27 64.27 65.02 64.35 65.05 64.08"/><path d="M61,63.42a.47.47,0,0,0,.31.22.55.55,0,0,0,.23,0,.35.35,0,0,0,.18-.07.33.33,0,0,0,.08-.11,1.14,1.14,0,0,0,.08-.22l.28-1.06L62,62.13l-.28,1a.53.53,0,0,1-.1.23.15.15,0,0,1-.15,0,.17.17,0,0,1-.12-.11.53.53,0,0,1,0-.25l.28-1-.26-.09L61.06,63A.67.67,0,0,0,61,63.42Z"/><path d="M65.9,64.36a.27.27,0,0,0,.14-.13.73.73,0,0,0,.08-.24,3.47,3.47,0,0,0,0-.48,1.75,1.75,0,0,0,0-.39.46.46,0,0,0-.1-.21.31.31,0,0,0-.13-.09.76.76,0,0,0-.21,0l-.43,0-.05,1.61h.37A.81.81,0,0,0,65.9,64.36ZM65.53,63h.12l.12,0,.06,0a.34.34,0,0,1,.06.16,2.32,2.32,0,0,1,0,.34,2.8,2.8,0,0,1,0,.35.5.5,0,0,1-.06.17.11.11,0,0,1-.06,0h-.25Z"/><polygon points="62.28 63.88 62.5 62.78 62.65 63.97 62.91 64.04 63.23 62.47 62.98 62.41 62.77 63.51 62.62 62.32 62.35 62.26 62.03 63.82 62.28 63.88"/><polygon points="57.02 61.23 57.23 61.41 57.95 60.33 58.2 60.53 58.34 60.32 57.62 59.73 57.48 59.95 57.73 60.15 57.02 61.23"/><polygon points="55.04 58.67 54.77 58.22 55.1 57.98 55.35 58.38 55.54 58.24 55.29 57.83 55.57 57.63 55.84 58.07 56.03 57.92 55.62 57.23 54.42 58.12 54.84 58.82 55.04 58.67"/><polygon points="67.1 64.38 67.04 62.77 66.78 62.79 66.83 64.39 67.1 64.38"/><polygon points="58.29 61.02 58.58 60.49 58.35 60.33 57.6 61.7 57.83 61.86 58.17 61.23 58.49 61.45 58.15 62.07 58.37 62.23 59.13 60.85 58.9 60.7 58.6 61.24 58.29 61.02"/><polygon points="59.26 62.73 59.53 62.08 59.95 62.3 60.04 62.06 59.63 61.85 59.77 61.51 60.21 61.73 60.31 61.49 59.63 61.14 59.02 62.6 59.26 62.73"/><path d="M60.1,62.27a3.08,3.08,0,0,0-.11.39.64.64,0,0,0,0,.24.43.43,0,0,0,.09.21.51.51,0,0,0,.2.13.46.46,0,0,0,.23,0,.35.35,0,0,0,.19-.09.61.61,0,0,0,.14-.19,3,3,0,0,0,.15-.37,3,3,0,0,0,.11-.39.67.67,0,0,0,0-.24A.45.45,0,0,0,61,61.8a.51.51,0,0,0-.2-.13.46.46,0,0,0-.23,0,.33.33,0,0,0-.19.09.58.58,0,0,0-.14.19A3.15,3.15,0,0,0,60.1,62.27Zm.46-.35a.14.14,0,0,1,.18,0,.16.16,0,0,1,.11.16,1.76,1.76,0,0,1-.12.49,1.65,1.65,0,0,1-.2.45.14.14,0,0,1-.17,0,.17.17,0,0,1-.11-.16,1.79,1.79,0,0,1,.12-.48A1.69,1.69,0,0,1,60.56,61.92Z"/><path d="M70.78,63.32a.55.55,0,0,0,.13.19.35.35,0,0,0,.18.1.48.48,0,0,0,.23,0,.52.52,0,0,0,.21-.12.43.43,0,0,0,.1-.2.68.68,0,0,0,0-.24,2.73,2.73,0,0,0-.09-.4,3.07,3.07,0,0,0-.13-.38.6.6,0,0,0-.13-.2.36.36,0,0,0-.19-.1.48.48,0,0,0-.23,0,.53.53,0,0,0-.21.12.44.44,0,0,0-.1.2.65.65,0,0,0,0,.24,2.72,2.72,0,0,0,.09.4A3,3,0,0,0,70.78,63.32Zm.15-1.12a.14.14,0,0,1,.17,0,1.72,1.72,0,0,1,.17.47,1.76,1.76,0,0,1,.1.49.16.16,0,0,1-.12.15.15.15,0,0,1-.18,0,1.72,1.72,0,0,1-.17-.46,1.75,1.75,0,0,1-.1-.49A.16.16,0,0,1,70.93,62.21Z"/><polygon points="74.5 61.95 74.15 61.33 74.47 61.11 74.82 61.73 75.04 61.57 74.27 60.21 74.05 60.37 74.35 60.9 74.03 61.12 73.73 60.59 73.51 60.75 74.28 62.11 74.5 61.95"/><path d="M77.1,57a.41.41,0,0,0,.21.25.38.38,0,0,0,.2.06.81.81,0,0,0,.28-.12l.15-.09a.54.54,0,0,1,.17-.07.2.2,0,0,1,.2.13.21.21,0,0,1,0,.15.14.14,0,0,1-.09.09.33.33,0,0,1-.18-.06l-.08,0-.12.27h0l.07,0a.37.37,0,0,0,.6-.19.56.56,0,0,0,.05-.37.49.49,0,0,0-.46-.33.66.66,0,0,0-.28.11l-.16.09h0c-.12.07-.2.09-.25.06a.16.16,0,0,1-.08-.09.18.18,0,0,1,0-.12.16.16,0,0,1,.1-.1.27.27,0,0,1,.17,0l0,0,.12-.25h0l0,0a.4.4,0,0,0-.33-.06.43.43,0,0,0-.24.25A.51.51,0,0,0,77.1,57Z"/><polygon points="75.24 61.41 75.84 60.91 75.7 60.69 75.31 61.02 75.07 60.66 75.42 60.37 75.28 60.17 74.93 60.46 74.73 60.16 75.11 59.85 74.96 59.63 74.37 60.13 75.24 61.41"/><polygon points="77.59 58.94 77.4 58.77 77.09 59.18 76.78 58.9 77.07 58.52 76.89 58.36 76.61 58.73 76.35 58.5 76.66 58.09 76.47 57.92 76 58.55 77.1 59.58 77.59 58.94"/><path d="M76.63,57.67l1,1.2.15-.25-.26-.29.17-.28.34.16.16-.27-1.38-.59Zm.88.27-.13.21-.44-.48Z"/><polygon points="73.08 61.3 73.64 62.49 73.88 62.35 73.32 61.16 73.59 61 73.48 60.77 72.69 61.23 72.8 61.46 73.08 61.3"/><path d="M68.83,64.11a.43.43,0,0,0,.36,0,.58.58,0,0,0,.22-.08.4.4,0,0,0,.13-.16.34.34,0,0,0,0-.14,1.21,1.21,0,0,0,0-.24l-.17-1.09-.26.05.17,1.06a.57.57,0,0,1,0,.26.16.16,0,0,1-.13.09.15.15,0,0,1-.16,0,.55.55,0,0,1-.08-.24l-.17-1.07-.27.05.17,1.09A.63.63,0,0,0,68.83,64.11Z"/><path d="M70.14,63.91,70,63.25l.19-.05a.41.41,0,0,0,.27-.19.55.55,0,0,0,0-.37.49.49,0,0,0-.17-.31.38.38,0,0,0-.32,0l-.45.12L69.88,64Zm-.19-1.37a.23.23,0,0,1,.18,0,.25.25,0,0,1,.08.17.27.27,0,0,1,0,.19A.24.24,0,0,1,70,63l-.11,0-.1-.47Z"/><polygon points="67.45 63.01 67.55 64.35 67.82 64.32 67.72 62.99 68.03 62.96 68.01 62.7 67.13 62.78 67.14 63.04 67.45 63.01"/><polygon points="72.2 63.2 71.82 62.16 72.55 63.05 72.8 62.94 72.26 61.45 72.03 61.55 72.41 62.59 71.69 61.7 71.43 61.82 71.97 63.31 72.2 63.2"/><polygon points="55.58 57.16 55.46 56.9 54.95 57.18 54.78 56.82 55.29 56.53 55.17 56.27 53.88 56.99 54 57.26 54.59 56.93 54.75 57.3 54.17 57.63 54.29 57.89 55.58 57.16"/><path d="M75.76,59.68a.73.73,0,0,0,.3,0l.17,0h.18a.23.23,0,0,1,.16.2.21.21,0,0,1-.06.14.13.13,0,0,1-.12.05.34.34,0,0,1-.15-.12l-.07-.07L76,60h0l.05.07a.46.46,0,0,0,.32.19.41.41,0,0,0,.31-.16.52.52,0,0,0,.15-.34.47.47,0,0,0-.13-.33.44.44,0,0,0-.21-.14.66.66,0,0,0-.29,0l-.18,0h0c-.13,0-.22,0-.26,0a.16.16,0,0,1,0-.11.16.16,0,0,1,0-.11.14.14,0,0,1,.13-.06.27.27,0,0,1,.14.1l0,0,.18-.2v0l0,0a.42.42,0,0,0-.3-.17.4.4,0,0,0-.3.15.47.47,0,0,0-.14.31.43.43,0,0,0,.12.31A.37.37,0,0,0,75.76,59.68Z"/><path d="M56.7,60.44l-.18.36.22.21.71-1.45-.27-.27-1.2,1,.21.2.29-.25Zm.43-.8-.31.59-.17-.17Z"/><polygon points="56.75 58.85 56.34 59.27 56.09 58.97 56.5 58.54 56.32 58.33 55.26 59.41 55.44 59.63 55.92 59.14 56.17 59.44 55.69 59.94 55.87 60.15 56.93 59.06 56.75 58.85"/><path class="cls-17" d="M46.87,1.13A45.73,45.73,0,1,0,92.6,46.85,45.73,45.73,0,0,0,46.87,1.13Zm.81,67.46c-19.86,0-36-14-36-31.19s16.1-31.19,36-31.19,36,14,36,31.19S67.54,68.58,47.68,68.58Z"/><ellipse class="cls-18" cx="47.68" cy="37.39" rx="35.95" ry="31.19"/></g></g></svg>