<svg xmlns="http://www.w3.org/2000/svg" xmlns:xlink="http://www.w3.org/1999/xlink" viewBox="0 0 92.93 92.93"><defs><style>.cls-1{isolation:isolate;}.cls-2{fill:#cd3a2b;}.cls-3{fill:#f4d131;}.cls-4{opacity:0.6;mix-blend-mode:multiply;fill:url(#radial-gradient);}.cls-5{opacity:0.7;fill:url(#radial-gradient-2);}</style><radialGradient id="radial-gradient" cx="46.47" cy="46.47" r="46.47" gradientUnits="userSpaceOnUse"><stop offset="0" stop-color="#fff" stop-opacity="0"/><stop offset="0.35" stop-color="#fbfbfb" stop-opacity="0.02"/><stop offset="0.53" stop-color="#eeedec" stop-opacity="0.11"/><stop offset="0.67" stop-color="#d8d6d2" stop-opacity="0.25"/><stop offset="0.79" stop-color="#b8b5ae" stop-opacity="0.44"/><stop offset="0.9" stop-color="#908b80" stop-opacity="0.7"/><stop offset="1" stop-color="#605949"/></radialGradient><radialGradient id="radial-gradient-2" cx="-331.1" cy="-43.34" r="27.44" gradientTransform="translate(497.89 74.42) scale(1.33 1.16)" gradientUnits="userSpaceOnUse"><stop offset="0" stop-color="#fff"/><stop offset="1" stop-color="#fff" stop-opacity="0"/></radialGradient></defs><title>中国</title><g class="cls-1"><g id="Layer_4" data-name="Layer 4"><path class="cls-2" d="M1.47,35.33A46.35,46.35,0,1,1,35.33,91.46,46.35,46.35,0,0,1,1.47,35.33"/><path class="cls-3" d="M49.4,45l-2.17,2.62-3.16-1.26,1.81,2.87-2.17,2.61L47,51l1.81,2.87L49,50.46l3.3-.84-3.16-1.26ZM62,37.85h-3.4l-1-3.23-1.05,3.23H53.08l2.74,2-1.05,3.23,2.75-2,2.74,2-1-3.23ZM56.44,25.41,57,28.77l1.56-3,3.35.54-2.4-2.4,1.55-3-3,1.54L55.59,20l.52,3.35-3,1.53Zm-7-15.55-2.17,2.62-3.15-1.25,1.81,2.86L43.75,16.7,47,15.86l1.81,2.87.22-3.39,3.29-.84-3.15-1.25ZM25.72,24.79,22.54,15l-3.19,9.81H9l8.35,6.07-3.19,9.81,8.35-6.07,8.34,6.07-3.19-9.81L36,24.79Z"/><circle class="cls-4" cx="46.47" cy="46.47" r="46.47"/><ellipse class="cls-5" cx="47.28" cy="36.86" rx="36.53" ry="31.69"/></g></g></svg>