<svg xmlns="http://www.w3.org/2000/svg" xmlns:xlink="http://www.w3.org/1999/xlink" viewBox="0 0 92.93 92.93"><defs><style>.cls-1{isolation:isolate;}.cls-2{fill:#cd3a2b;}.cls-3{fill:#fff;}.cls-4{opacity:0.6;mix-blend-mode:multiply;fill:url(#radial-gradient);}.cls-5{opacity:0.7;fill:url(#radial-gradient-2);}</style><radialGradient id="radial-gradient" cx="46.47" cy="46.47" r="46.47" gradientUnits="userSpaceOnUse"><stop offset="0" stop-color="#fff" stop-opacity="0"/><stop offset="0.35" stop-color="#fbfbfb" stop-opacity="0.02"/><stop offset="0.53" stop-color="#eeedec" stop-opacity="0.11"/><stop offset="0.67" stop-color="#d8d6d2" stop-opacity="0.25"/><stop offset="0.79" stop-color="#b8b5ae" stop-opacity="0.44"/><stop offset="0.9" stop-color="#908b80" stop-opacity="0.7"/><stop offset="1" stop-color="#605949"/></radialGradient><radialGradient id="radial-gradient-2" cx="-193.51" cy="-60.4" r="27.44" gradientTransform="translate(314.72 94.13) scale(1.33 1.16)" gradientUnits="userSpaceOnUse"><stop offset="0" stop-color="#fff"/><stop offset="1" stop-color="#fff" stop-opacity="0"/></radialGradient></defs><title>Hong Kong (English)</title><g class="cls-1"><g id="Layer_4" data-name="Layer 4"><path class="cls-2" d="M1.38,35.31A46.45,46.45,0,1,1,35.3,91.55,46.44,46.44,0,0,1,1.38,35.31"/><path class="cls-3" d="M35.25,40.56a8.19,8.19,0,0,0-10.11-7.16c-4,1.08-5.58-1.95-6.14-5.86-5.07,7.95-1.16,17.12,2.77,20.56,7.16,6.28,19.07,5.83,25.26-1.41C41,50,35.75,44.76,35.25,40.56m13.85-7a8.18,8.18,0,0,0,3.57-11.86c-2.3-3.47.07-5.92,3.61-7.69-9.15-2.28-16.6,4.34-18.61,9.16C34,32,38.19,43.12,47,46.69,41.94,42,45.29,35.37,49.1,33.57m17.43-3C57,29.75,47.72,37.18,47,46.69c2.88-6.28,10.24-5.14,13.12-2.05a8.19,8.19,0,0,0,12.38-.25c2.6-3.26,5.66-1.75,8.42,1.08C80.33,36,71.73,31,66.53,30.56M53,58.54a8.19,8.19,0,0,0,4,11.72c3.9,1.47,3.4,4.84,1.56,8.34,8.77-3.49,10.94-13.21,9.77-18.31C66.23,51,56.28,44.43,47,46.69c6.86.81,8,8.16,6,11.86M37.58,56a8.19,8.19,0,0,0-9.91,7.43c-.21,4.17-3.57,4.72-7.46,4,6,7.27,15.94,6.36,20.41,3.68C48.8,66.29,52,54.8,47,46.69c1.34,6.77-5.3,10.15-9.45,9.32"/><path class="cls-2" d="M27.31,41l.84-1.85-1.77,1-1.51-1.37.42,2-1.77,1,2,.22L26,44l.84-1.86,2,.22Zm10,21.72-1.77,1L34,62.34l.43,2-1.77,1,2,.2.42,2L36,65.68l2,.22-1.51-1.36Zm25.24-1.49-1.76,1-1.52-1.36.43,2-1.76,1,2,.22.42,2,.83-1.86,2,.21-1.51-1.36ZM68,38.57l.82-1.85-1.75,1L65.6,36.38l.43,2-1.77,1,2,.21.43,2,.83-1.86,2,.2Zm-12.39-.8-1.8.71c-4.93,2.28-6,5.17-6.75,7.36L47,45.75l-.36.36c-1.87-1.44-4.24-3.07-4.93-8.5l-.12-1.88a13.43,13.43,0,0,1,1.15-5.5,8.89,8.89,0,0,1,1.14-1.92l0-.32-.31,0a12.46,12.46,0,0,0-2.39,7.7l.12,1.94c.67,5.5,3.19,7.34,5,8.76l-.25.25.21.21c-1.95,1.31-4.27,3-9.56,1.91l-1.82-.47a13.4,13.4,0,0,1-4.86-2.84,9.63,9.63,0,0,1-1.46-1.69l-.3-.07-.08.3h0a12.57,12.57,0,0,0,6.55,4.71l1.87.5c5.48,1.13,8-.72,10-2l.4.4,0,0c.64,2.22,1.43,4.93-1.15,9.54l-1,1.58a13.36,13.36,0,0,1-4.19,3.75,9.12,9.12,0,0,1-2.06.87l-.17.26.27.17A12.5,12.5,0,0,0,45.24,59l1.05-1.62c2.75-4.87,1.78-7.85,1.13-10.11l.3-.3c2.35.08,5.22,0,8.91,4l1.19,1.45a13.4,13.4,0,0,1,2.27,5.15,9.46,9.46,0,0,1,.21,2.22l.19.23.24-.2a12.47,12.47,0,0,0-2.57-7.66l-1.22-1.5c-3.73-4-6.83-4.09-9.16-4.16l-.33-.32c.8-2.22,1.63-5,6.59-7.31l1.75-.68a13.37,13.37,0,0,1,5.59-.6,9.16,9.16,0,0,1,2.18.5l.28-.12-.12-.28a12.43,12.43,0,0,0-8.07.08M44.94,26.06l.43,2,.83-1.86,2,.2L46.69,25l.82-1.86-1.76,1-1.52-1.35.43,2-1.75,1Z"/><circle class="cls-4" cx="46.47" cy="46.47" r="46.47"/><ellipse class="cls-5" cx="47.28" cy="36.86" rx="36.53" ry="31.69"/></g></g></svg>