<svg xmlns="http://www.w3.org/2000/svg" xmlns:xlink="http://www.w3.org/1999/xlink" viewBox="0 0 92.15 92.15"><defs><style>.cls-1{fill:none;}.cls-2{isolation:isolate;}.cls-3{clip-path:url(#clip-path);}.cls-4{fill:#ff0203;}.cls-5{fill:#0083d3;}.cls-6{fill:#ffd221;}.cls-7{opacity:0.6;mix-blend-mode:multiply;fill:url(#radial-gradient);}.cls-8{opacity:0.7;fill:url(#radial-gradient-2);}</style><clipPath id="clip-path"><circle class="cls-1" cx="45.44" cy="46.07" r="46.07"/></clipPath><radialGradient id="radial-gradient" cx="46.07" cy="46.07" r="46.07" gradientUnits="userSpaceOnUse"><stop offset="0" stop-color="#fff" stop-opacity="0"/><stop offset="0.35" stop-color="#fbfbfb" stop-opacity="0.02"/><stop offset="0.53" stop-color="#eeedec" stop-opacity="0.11"/><stop offset="0.67" stop-color="#d8d6d2" stop-opacity="0.25"/><stop offset="0.79" stop-color="#b8b5ae" stop-opacity="0.44"/><stop offset="0.9" stop-color="#908b80" stop-opacity="0.7"/><stop offset="1" stop-color="#605949"/></radialGradient><radialGradient id="radial-gradient-2" cx="-54.17" cy="24.94" r="27.21" gradientTransform="translate(127.93 -7.3) scale(1.33 1.16)" gradientUnits="userSpaceOnUse"><stop offset="0" stop-color="#fff"/><stop offset="1" stop-color="#fff" stop-opacity="0"/></radialGradient></defs><title>Liechtenstein</title><g class="cls-2"><g id="objects"><g class="cls-3"><rect class="cls-4" x="-11.12" y="46.07" width="113.11" height="46.07"/><rect class="cls-5" x="-11.12" y="-5.04" width="113.11" height="51.11"/></g><path d="M28.14,13.31c-.62,0-1.15-1.37-1.15-1.79,0-.27.52-1.79,1.15-1.79s1.11,1.51,1.11,1.79S28.8,13.31,28.14,13.31Z"/><path class="cls-6" d="M27.34,11.52c0,.39.51,1.44.79,1.44s.76-1.18.76-1.44-.48-1.44-.76-1.44S27.34,11.27,27.34,11.52Z"/><path d="M27.59,13.73c0,.62-1.07,1.15-1.4,1.15s-1.4-.52-1.4-1.15,1.18-1.11,1.4-1.11S27.59,13.07,27.59,13.73Z"/><path class="cls-6" d="M26.2,14.53c.3,0,1.12-.51,1.12-.79S26.4,13,26.2,13s-1.13.47-1.13.76S26,14.53,26.2,14.53Z"/><path d="M28.7,13.73c0,.62,1.07,1.15,1.4,1.15s1.4-.52,1.4-1.15-1.17-1.11-1.4-1.11S28.7,13.07,28.7,13.73Z"/><path class="cls-6" d="M30.1,14.53c-.31,0-1.13-.51-1.13-.79s.92-.76,1.12-.76,1.13.47,1.13.76S30.29,14.53,30.1,14.53Z"/><path d="M28.14,16.53a1.05,1.05,0,0,1-1.06-1c0-.57.48-1.3,1.06-1.3s1.06.72,1.06,1.3A1.05,1.05,0,0,1,28.14,16.53Z"/><path class="cls-6" d="M28.84,15.48c0,.38-.32.49-.71.49s-.71-.11-.71-.49.32-.94.71-.94S28.84,15.11,28.84,15.48Z"/><ellipse cx="27.96" cy="37.97" rx="12.55" ry="2.09"/><path d="M37.06,32.55a28.15,28.15,0,0,1-8.92-2,28.15,28.15,0,0,1-8.92,2c-3.72,0-4.92-1.73-5.27-3.19-.17-.38-1.52-3.45-.92-5.88.37-1.5,1.57-4,5.45-4l.67,0a28.39,28.39,0,0,1,4.84.88,16.13,16.13,0,0,0,3.62.63l.5,0h.07l.49,0a16.14,16.14,0,0,0,3.63-.63,28.35,28.35,0,0,1,4.84-.88l.67,0c3.88,0,5.08,2.51,5.45,4,.6,2.43-.75,5.5-.92,5.88-.35,1.47-1.55,3.19-5.27,3.19Z"/><path class="cls-6" d="M42.91,23.57c-.49-2-2-4-5.75-3.72s-6.69,1.73-9,1.49c-2.33.24-5.31-1.22-9-1.49s-5.26,1.75-5.75,3.72c-.6,2.44.92,5.68.92,5.68,1.39,6,13.86.94,13.86.94S40.6,35.29,42,29.24C42,29.24,43.51,26,42.91,23.57Z"/><path d="M15,37.94c-.77-1.89-3.09-6.93-4.52-7.65L9.84,30l.67-.31a7,7,0,0,1,2.62-.53,4.79,4.79,0,0,1,3.4,1.31,6,6,0,0,1,2.7-3.72l.09-.06h.11c.1,0,2.36.16,4.38,3.17a7.15,7.15,0,0,1,4-3.44l.12,0,.12,0a7.15,7.15,0,0,1,4,3.44c2-3,4.28-3.16,4.38-3.17h.11l.09.06a6,6,0,0,1,2.7,3.72,4.79,4.79,0,0,1,3.4-1.31,6.94,6.94,0,0,1,2.62.53l.68.31-.66.33c-1.43.71-3.75,5.76-4.52,7.65l-.43.41-.25-.49c0-.08-.27-.82-5.07-1.23-2.71-.23-5.63-.26-6.77-.26h-.83c-1.13,0-4.06,0-6.77.26-4.8.41-5.06,1.15-5.07,1.23l-.3.4Z"/><path class="cls-6" d="M39.15,31.22A5.63,5.63,0,0,0,36.5,27s-2.43.13-4.47,3.58A6.51,6.51,0,0,0,28,26.73a6.51,6.51,0,0,0-4.07,3.87c-2-3.45-4.47-3.58-4.47-3.58a5.63,5.63,0,0,0-2.65,4.2c-2.3-3-6.1-1.24-6.1-1.24,1.86.93,4.69,7.83,4.69,7.83C15.66,35.9,28,36,28,36s12.29-.12,12.6,1.78c0,0,2.83-6.9,4.69-7.83C45.25,30,41.45,28.25,39.15,31.22Z"/><circle cx="12.36" cy="28" r="0.93"/><circle class="cls-6" cx="12.36" cy="28" r="0.61"/><circle cx="11.94" cy="25.94" r="0.93"/><circle class="cls-6" cx="11.94" cy="25.94" r="0.61"/><circle cx="11.94" cy="23.93" r="0.93"/><circle class="cls-6" cx="11.94" cy="23.93" r="0.61"/><circle cx="12.49" cy="22.08" r="0.93"/><circle class="cls-6" cx="12.49" cy="22.08" r="0.61"/><circle cx="13.59" cy="20.29" r="0.93"/><circle class="cls-6" cx="13.59" cy="20.29" r="0.61"/><circle cx="15.2" cy="19.16" r="0.93"/><circle class="cls-6" cx="15.2" cy="19.16" r="0.61"/><circle cx="17.05" cy="18.56" r="0.93"/><circle class="cls-6" cx="17.05" cy="18.56" r="0.61"/><circle cx="19.01" cy="18.37" r="0.93"/><circle class="cls-6" cx="19.01" cy="18.37" r="0.61"/><circle cx="20.92" cy="18.73" r="0.93"/><circle class="cls-6" cx="20.92" cy="18.73" r="0.61"/><circle cx="22.77" cy="19.13" r="0.93"/><circle class="cls-6" cx="22.78" cy="19.13" r="0.61"/><circle cx="24.71" cy="19.65" r="0.93"/><circle class="cls-6" cx="24.71" cy="19.65" r="0.61"/><circle cx="26.62" cy="19.97" r="0.93"/><circle class="cls-6" cx="26.62" cy="19.97" r="0.61"/><circle cx="43.91" cy="28" r="0.93"/><circle class="cls-6" cx="43.91" cy="28" r="0.61"/><circle cx="44.33" cy="25.94" r="0.93"/><circle class="cls-6" cx="44.33" cy="25.94" r="0.61"/><circle cx="44.33" cy="23.93" r="0.93"/><circle class="cls-6" cx="44.33" cy="23.93" r="0.61"/><circle cx="43.78" cy="22.08" r="0.93"/><circle class="cls-6" cx="43.78" cy="22.08" r="0.61"/><circle cx="42.67" cy="20.29" r="0.93"/><circle class="cls-6" cx="42.68" cy="20.29" r="0.61"/><circle cx="41.07" cy="19.16" r="0.93"/><circle class="cls-6" cx="41.07" cy="19.16" r="0.61"/><circle cx="39.22" cy="18.56" r="0.93"/><circle class="cls-6" cx="39.22" cy="18.56" r="0.61"/><circle cx="37.26" cy="18.37" r="0.93"/><circle class="cls-6" cx="37.26" cy="18.37" r="0.61"/><circle cx="35.35" cy="18.73" r="0.93"/><circle class="cls-6" cx="35.35" cy="18.73" r="0.61"/><circle cx="33.49" cy="19.13" r="0.93"/><circle class="cls-6" cx="33.5" cy="19.13" r="0.61"/><circle cx="31.56" cy="19.65" r="0.93"/><circle class="cls-6" cx="31.56" cy="19.65" r="0.61"/><circle cx="29.64" cy="19.97" r="0.93"/><circle class="cls-6" cx="29.65" cy="19.97" r="0.61"/><circle cx="28.14" cy="13.75" r="0.79"/><circle class="cls-6" cx="28.14" cy="13.75" r="0.52"/><ellipse cx="28.14" cy="20.26" rx="0.93" ry="0.81"/><ellipse class="cls-6" cx="28.14" cy="20.26" rx="0.61" ry="0.53"/><ellipse cx="28.14" cy="17.87" rx="1.94" ry="1.89"/><ellipse class="cls-6" cx="28.14" cy="17.87" rx="1.59" ry="1.54"/><path d="M13.86,29.17s2,.56,4.22-1.54a4.77,4.77,0,0,0-.82,1.48,5.11,5.11,0,0,1-.62,1.39A8.54,8.54,0,0,0,13.86,29.17Z"/><path d="M42.07,29.17s-2,.56-4.22-1.54a4.77,4.77,0,0,1,.82,1.48,5.21,5.21,0,0,0,.62,1.39A8.54,8.54,0,0,1,42.07,29.17Z"/><path d="M21,27.17a10.82,10.82,0,0,0,2.86.92,6.88,6.88,0,0,0,2.62-1l-.1.38a5.54,5.54,0,0,0-2.48,2.68A28.11,28.11,0,0,0,21,27.17Z"/><path d="M34.91,27.17a10.83,10.83,0,0,1-2.86.92,6.88,6.88,0,0,1-2.62-1l.09.38A5.52,5.52,0,0,1,32,30.11,28,28,0,0,1,34.91,27.17Z"/><path d="M25,27.81a41.23,41.23,0,0,0,1.38-6.65L26,21.07a28.43,28.43,0,0,1-1.54,7.1Z"/><path d="M28,26.35a39.76,39.76,0,0,1-.2-5.13l-.55-.06a22.06,22.06,0,0,1-1,6.15Z"/><path d="M31.32,28.1a44,44,0,0,1-1.47-6.94l.38-.09a28.51,28.51,0,0,0,1.54,7.1Z"/><path d="M27.84,26.4a21,21,0,0,0,.64-5.18l.55-.06a24.32,24.32,0,0,0,1.06,6.38Z"/><ellipse cx="28.14" cy="21.87" rx="0.93" ry="0.81"/><ellipse class="cls-6" cx="28.14" cy="21.87" rx="0.61" ry="0.53"/><ellipse cx="28.11" cy="23.4" rx="1.01" ry="0.88"/><ellipse class="cls-6" cx="28.11" cy="23.4" rx="0.66" ry="0.58"/><ellipse cx="28.04" cy="25.27" rx="1.24" ry="1.07"/><ellipse class="cls-6" cx="28.04" cy="25.28" rx="0.81" ry="0.7"/><path d="M15,29.25c-1.17-2.73-2.33-6.57,1.1-8.34,2.73-1.4,9.64.93,9.93,1l-.12.33c-.07,0-7.06-2.38-9.66-1-3.14,1.61-2.15,5.06-.94,7.89Z"/><path d="M41.13,29.31l-.32-.14c1.21-2.82,2.2-6.27-.94-7.89-2.6-1.34-9.48,1-9.55,1L30.2,22c.29-.1,7.09-2.41,9.83-1C43.46,22.74,42.3,26.58,41.13,29.31Z"/><path d="M20.84,20.9s4.41.68,4.47,4.49c0,0,.54-2.15.88-3.13A47.33,47.33,0,0,0,20.84,20.9Z"/><path d="M35.38,21s-4.41.68-4.47,4.49c0,0-.54-2.15-.88-3.13A47.47,47.47,0,0,1,35.38,21Z"/><path d="M26.52,17.7l-.12-.13a3,3,0,0,1,1.26-.35l.08-.93.18,0-.1,1.08h-.07A3.16,3.16,0,0,0,26.52,17.7Z"/><path d="M29.83,17.7a3.15,3.15,0,0,0-1.23-.31h-.08l-.09-1.08.18,0,.08.93a3,3,0,0,1,1.26.35Z"/><path d="M26.43,18.29l-.07-.16A5.55,5.55,0,0,1,29.75,18l0,.17A5.46,5.46,0,0,0,26.43,18.29Z"/><path d="M28,34.42s-.71-3.56-1.84-4.4c0,0,1.78,1.91,1.76-1,0,0,0,1.81.74,1.59a2.41,2.41,0,0,0,1.19-.83A7.85,7.85,0,0,0,28,34.42Z"/><path d="M21.21,34.42s-1.62-3.11-2.74-3.95c0,0,2.19,1.79,1.32-1.09,0,0,.69,1.62,1.49,1.61.47,0,.78-1,.78-1A13.7,13.7,0,0,0,21.21,34.42Z"/><path d="M16.47,35.05a13.82,13.82,0,0,0-3-2.59s2.06,1,.78-1.14c0,0,.87,1.15,1.48,1,.36-.1.39-.93.39-.93A11.72,11.72,0,0,0,16.47,35.05Z"/><path d="M34.67,34.4s1.62-3.11,2.75-3.95c0,0-2.19,1.79-1.32-1.09,0,0-.69,1.62-1.49,1.61-.47,0-.79-1-.79-1A13.64,13.64,0,0,1,34.67,34.4Z"/><path d="M39.41,35a13.77,13.77,0,0,1,3-2.59s-2.06,1-.77-1.14c0,0-.88,1.15-1.48,1-.36-.1-.39-.93-.39-.93A11.76,11.76,0,0,1,39.41,35Z"/><circle class="cls-7" cx="46.07" cy="46.07" r="46.07"/><ellipse class="cls-8" cx="46.07" cy="33.88" rx="36.23" ry="31.43"/></g></g></svg>