<svg xmlns="http://www.w3.org/2000/svg" xmlns:xlink="http://www.w3.org/1999/xlink" viewBox="0 0 121.72 112.86"><defs><style>.cls-1{fill:none;}.cls-2{isolation:isolate;}.cls-3{clip-path:url(#clip-path);}.cls-4{fill:#ff0203;}.cls-5{fill:#ffce00;}.cls-6{opacity:0.6;mix-blend-mode:multiply;fill:url(#radial-gradient);}.cls-7{opacity:0.7;fill:url(#radial-gradient-2);}</style><clipPath id="clip-path"><circle class="cls-1" cx="60.39" cy="56.52" r="46.07"/></clipPath><radialGradient id="radial-gradient" cx="60.39" cy="56.52" r="46.07" gradientUnits="userSpaceOnUse"><stop offset="0" stop-color="#fff" stop-opacity="0"/><stop offset="0.35" stop-color="#fbfbfb" stop-opacity="0.02"/><stop offset="0.53" stop-color="#eeedec" stop-opacity="0.11"/><stop offset="0.67" stop-color="#d8d6d2" stop-opacity="0.25"/><stop offset="0.79" stop-color="#b8b5ae" stop-opacity="0.44"/><stop offset="0.9" stop-color="#908b80" stop-opacity="0.7"/><stop offset="1" stop-color="#605949"/></radialGradient><radialGradient id="radial-gradient-2" cx="79.72" cy="-10.56" r="27.21" gradientTransform="translate(-35.19 46.8) scale(1.33 1.16)" gradientUnits="userSpaceOnUse"><stop offset="0" stop-color="#fff"/><stop offset="1" stop-color="#fff" stop-opacity="0"/></radialGradient></defs><title>Macedonia</title><g class="cls-2"><g id="objects"><g class="cls-3"><rect class="cls-4" x="3.83" y="7.38" width="113.11" height="100.11"/><circle class="cls-5" cx="60.39" cy="56.52" r="8.74"/><polygon class="cls-5" points="51.14 0 58.21 43.88 62.84 43.88 69.64 0 51.14 0"/><polygon class="cls-5" points="116.95 47.26 73.07 54.33 73.07 58.96 116.95 65.77 116.95 47.26"/><polygon class="cls-5" points="112.15 12.09 70.17 45.71 72.56 49.68 121.72 27.93 112.15 12.09"/><polygon class="cls-5" points="9.57 12.09 51.55 45.71 49.16 49.68 0 27.93 9.57 12.09"/><polygon class="cls-5" points="112.15 101.01 70.17 67.38 72.56 63.42 121.72 85.17 112.15 101.01"/><polygon class="cls-5" points="9.57 101.01 51.55 67.38 49.16 63.42 0 85.17 9.57 101.01"/><polygon class="cls-5" points="3.83 47.26 47.72 54.33 47.72 58.96 3.83 65.77 3.83 47.26"/><polygon class="cls-5" points="51.14 112.86 58.21 68.98 62.84 68.98 69.65 112.86 51.14 112.86"/></g><circle class="cls-6" cx="60.39" cy="56.52" r="46.07"/><ellipse class="cls-7" cx="61.2" cy="46.99" rx="36.23" ry="31.43"/></g></g></svg>