<svg xmlns="http://www.w3.org/2000/svg" xmlns:xlink="http://www.w3.org/1999/xlink" viewBox="0 0 97.19 113.11"><defs><style>.cls-1{fill:none;}.cls-2{isolation:isolate;}.cls-3{clip-path:url(#clip-path);}.cls-4{fill:#ff0203;}.cls-5{fill:#009242;}.cls-6,.cls-7{fill:#fff;}.cls-7,.cls-9{mix-blend-mode:multiply;}.cls-8{clip-path:url(#clip-path-2);}.cls-9{opacity:0.6;fill:url(#radial-gradient);}.cls-10{opacity:0.7;fill:url(#radial-gradient-2);}.cls-11,.cls-12,.cls-14{fill-rule:evenodd;}.cls-12{fill:#bababa;}.cls-13,.cls-14{fill:#d90023;}</style><clipPath id="clip-path"><circle class="cls-1" cx="50.82" cy="-63.48" r="46.07"/></clipPath><clipPath id="clip-path-2"><circle class="cls-1" cx="51.11" cy="56.56" r="46.07"/></clipPath><radialGradient id="radial-gradient" cx="51.11" cy="56.56" r="46.07" gradientUnits="userSpaceOnUse"><stop offset="0" stop-color="#fff" stop-opacity="0"/><stop offset="0.35" stop-color="#fbfbfb" stop-opacity="0.02"/><stop offset="0.53" stop-color="#eeedec" stop-opacity="0.11"/><stop offset="0.67" stop-color="#d8d6d2" stop-opacity="0.25"/><stop offset="0.79" stop-color="#b8b5ae" stop-opacity="0.44"/><stop offset="0.9" stop-color="#908b80" stop-opacity="0.7"/><stop offset="1" stop-color="#605949"/></radialGradient><radialGradient id="radial-gradient-2" cx="100.35" cy="3.3" r="27.21" gradientTransform="translate(-72.74 28.16) scale(1.33 1.16)" gradientUnits="userSpaceOnUse"><stop offset="0" stop-color="#fff"/><stop offset="1" stop-color="#fff" stop-opacity="0"/></radialGradient></defs><title>Malta</title><g class="cls-2"><g id="objects"><g class="cls-3"><rect class="cls-4" x="-5.74" y="-109.55" width="113.11" height="109.7"/><rect class="cls-5" x="-5.74" y="-43.81" width="113.11" height="109.7"/><rect class="cls-6" x="-5.74" y="-109.55" width="37.54" height="173.94"/><rect class="cls-4" x="5.56" y="16.62" width="1.74" height="4.34"/><rect class="cls-4" x="17.84" y="16.62" width="1.74" height="4.34"/><rect class="cls-4" x="30.08" y="16.62" width="1.74" height="4.34"/><rect class="cls-4" x="5.56" y="-2.14" width="1.74" height="4.34"/><rect class="cls-4" x="17.84" y="-2.14" width="1.74" height="4.34"/><rect class="cls-4" x="30.08" y="-2.14" width="1.74" height="4.34"/><rect class="cls-4" x="5.56" y="37.53" width="1.74" height="4.34"/><rect class="cls-4" x="17.84" y="37.53" width="1.74" height="4.34"/><rect class="cls-4" x="30.08" y="37.53" width="1.74" height="4.34"/><path class="cls-4" d="M30.33,26.63V23.07H28.8V19.52H27.3V15.68H25.75V12.15H24v3.53H22.45v3.84H21.11v3.56H19.57v3.55H17.95V23.07H16.41V19.52h-1.5V15.68H13.36V12.15H11.62v3.53H10.07v3.84H8.72v3.56H7.19v3.55H5.69v3.57h1.5v3.55H8.72v3.56h1.35v3.87h1.55v3.43h1.74V41.18h1.55V37.31h1.5V33.75h1.54V30.19h1.63v3.55H21.1v3.56h1.35v3.87H24v3.43h1.74V41.18H27.3V37.31h1.5V33.75h1.54V30.19h1.5V26.63Zm-14,3.55H14.88v3.56H13.35v3.57H11.78V33.74H10.25V30.18H8.75V26.64h1.5V23.09h1.53V19.55h1.56v3.54h1.53v3.56h1.49Zm12.39,0h-1.5v3.56H25.73v3.57H24.17V33.74H22.64V30.18h-1.5V26.64h1.5V23.09h1.53V19.55h1.56v3.54h1.53v3.56h1.5Z"/><path class="cls-4" d="M9.49,15.25v-2.1h.81V10.93h.79V7.85H10.3V5.69H9.49V3.59H7.22v2.1H6.39V7.85H5.6v3.08h.79v2.22h.83v2.1ZM7.19,10.07V8.76H8V7.29h.74V8.76h.79v1.31H8.72v1.47H8V10.07Z"/><path class="cls-4" d="M21.79,13.08h.81V10.86h.79V7.78H22.6V5.62h-.81V3.52H19.52v2.1H17.93V3.52H15.66v2.1h-.83V7.78H14v3.07h.79v2.22h.83v2.1h2.27v-2.1h1.59v2.1h2.27Zm-4.64-1.61h-.74V10h-.79V8.69h.79V7.23h.74V8.69h.75V10h-.75Zm3.86,0h-.74V10h-.75V8.69h.75V7.23H21V8.69h.79V10H21Z"/><path class="cls-4" d="M30.17,15.18v-2.1H31V10.86h.79V7.78H31V5.62h-.81V3.52H27.9v2.1h-.83V7.78h-.79v3.07h.79v2.22h.83v2.1ZM27.86,10V8.69h.79V7.23h.74V8.69h.79V10h-.79v1.47h-.74V10Z"/><polygon class="cls-4" points="7.19 -4.56 8.72 -4.56 8.72 -1 10.06 -1 10.06 2.87 11.62 2.87 11.62 6.3 13.36 6.3 13.36 2.87 14.92 2.87 14.92 -1 16.41 -1 16.41 -4.56 17.95 -4.56 17.95 -8.11 17.96 -8.11 19.44 -8.11 19.45 -8.11 19.45 -4.56 20.99 -4.56 20.99 -1 22.48 -1 22.48 2.87 24.04 2.87 24.04 6.3 25.78 6.3 25.78 2.87 27.33 2.87 27.33 -1 28.68 -1 28.68 -4.56 30.21 -4.56 30.21 -8.11 31.71 -8.11 31.71 -11.68 30.21 -11.68 30.21 -15.24 28.68 -15.24 28.68 -18.79 27.33 -18.79 27.33 -22.63 25.81 -22.63 25.81 -18.79 24.12 -18.79 24.12 -15.38 24.12 -15.24 22.53 -15.24 22.53 -11.48 24.12 -11.48 24.12 -7.5 22.53 -7.5 22.53 -10.19 21.02 -10.19 21.02 -15.24 19.45 -15.24 19.45 -11.68 19.44 -11.68 17.96 -11.68 17.95 -11.68 17.95 -15.24 16.38 -15.24 16.38 -10.19 14.87 -10.19 14.87 -7.5 13.28 -7.5 13.28 -11.48 14.87 -11.48 14.87 -15.24 13.28 -15.24 13.28 -15.38 13.28 -18.79 11.59 -18.79 11.59 -22.63 10.06 -22.63 10.06 -18.79 8.72 -18.79 8.72 -15.24 7.19 -15.24 7.19 -11.68 5.69 -11.68 5.69 -8.11 7.19 -8.11 7.19 -4.56"/></g><circle class="cls-7" cx="51.11" cy="56.56" r="46.07"/><g class="cls-8"><rect class="cls-4" x="51.11" width="46.07" height="113.11"/><rect class="cls-6" width="51.11" height="113.11"/></g><circle class="cls-9" cx="51.11" cy="56.56" r="46.07"/><ellipse class="cls-10" cx="51.11" cy="44.37" rx="36.23" ry="31.43"/><path class="cls-11" d="M16.89,33.78H23a4,4,0,0,1,1.18-2.94,4,4,0,0,1,2.95-1.17c0-.53,0-1,0-1.54s0-1,0-1.5v-3l.05-.06,0,0,.15,0h9.24l.15,0,.1.07v6a4,4,0,0,1,2.93,1.2,4,4,0,0,1,1.15,2.91l.46,0h5.24l.46,0v9.73c-1,0-2,0-3.05,0H40.94a4.09,4.09,0,0,1-4.1,4.35v5.82a3.14,3.14,0,0,1-.34,0H27.45l-.32,0V47.9c-2.66-.24-4-1.68-4.17-4.38l-.4,0H16.89ZM32,31.24a7.4,7.4,0,1,0,7.4,7.44A7.4,7.4,0,0,0,32,31.24Zm3.48.64v-7c-.41-.08-6.67-.06-7,0v6.94A7.74,7.74,0,0,1,35.46,31.89Zm0,20.49v-7a7.64,7.64,0,0,1-6.94,0c-.08.48-.06,6.71,0,7Zm3.3-17.23c.17.48.36.92.49,1.37A8.53,8.53,0,0,1,39.52,38a7.31,7.31,0,0,1,0,1.42,8.72,8.72,0,0,1-.28,1.43c-.12.45-.31.87-.48,1.32h6.93c.08-.47.06-6.69,0-7Zm-13.53,0h-7c-.08.41-.07,6.68,0,7h6.94A7.75,7.75,0,0,1,25.22,35.16Zm2.18,9.57-.07,0L25.8,46.31c.14.07.34.26.58.09a2.34,2.34,0,0,0,.92-1.1A3.74,3.74,0,0,0,27.41,44.73ZM24.53,32.47a.76.76,0,0,0,.15.61,1.74,1.74,0,0,0,.88.92c.28.11.42.14.56-.23Zm2.36,11.8L25.23,46l.29.21,1.58-1.7Zm12-12.46-1.39,1.71.26.25,1.43-1.56ZM35.66,46.25a.82.82,0,0,0,.64.19V44.89l-.64.39ZM24.38,32.91a2.15,2.15,0,0,0,0,1.39,1.21,1.21,0,0,0,1-.16A2.49,2.49,0,0,1,24.38,32.91Zm3.19,13.59a3.13,3.13,0,0,0,0-1.52,5.56,5.56,0,0,1-.37.8,6.89,6.89,0,0,1-.64.74A1.76,1.76,0,0,0,27.58,46.51Zm-2.81-1.06,1.69-1.56-.17-.21-1.71,1.45.1.19Zm14.7-.73c-.06-.79-1-1.62-1.56-1.21Zm0-1.75a5.78,5.78,0,0,0-.27-.54.54.54,0,0,0-.67,0c-.17.23-.3.47-.48.76Zm-14-11.6L27,32.95l.24-.2-1.43-1.55Zm-.66.56-.2.34a8.34,8.34,0,0,0,1.65,1.3c0-.1,0-.2-.07-.25C25.79,32.87,25.34,32.43,24.85,31.94ZM37.52,31a1.79,1.79,0,0,0-1.06,0v1.26l.07,0A2,2,0,0,1,37.52,31Zm-1.27,1.35v-1.3c-.53.05-.59.11-.59.57,0,.12,0,.24,0,.37Zm.81.59c.29,0,.55.08.69,0a2.42,2.42,0,0,0,.69-.85c-.42-.1-.46-.1-.6,0S37.36,32.63,37.06,33ZM26.78,44.12c-.28-.13-.35.05-.44.14-.49.44-1,.89-1.46,1.35l.24.21Zm12.65.8-1.37-1.06c0,.27,0,.49.16.63s.69.48,1.06.73Zm-1.86.43-1,1.18c.23.06.4.13.55-.05l.75-.89Zm-9.71,1.06c.45-.12.45-.12.45-.54,0-.09,0-.17,0-.26,0-.38,0-.4-.45-.52Zm9-13.56c.5-.5,1-1,1.42-1.52-.23-.12-.24-.12-.32,0l-1.25,1.33s0,0,0,.08Zm.93,10.8-.1,0-.58.61.77.62.07,0ZM24.45,42.9h1.21c-.35-.69-.3-.58-.77-.56S24.56,42.66,24.45,42.9Zm12.5,1.51-.05.06L38.59,46l.18-.17A9.82,9.82,0,0,0,36.95,44.4ZM24.46,34.6c.1.35.1.35.42.36a2.06,2.06,0,0,0,.33,0,.3.3,0,0,0,.18-.1c.12-.17.23-.36.34-.54Zm15.08,8.58-.79.07.84.92A1.44,1.44,0,0,0,39.53,43.18Zm-15.18,0,.87,1.13.25-.22c-.24-.3-.46-.58-.67-.87S24.55,43.07,24.35,43.2Zm14.29-10c-.15.08-.22.15-.12.26l1,1,.08,0c0-.1,0-.23,0-.29C39.23,33.81,38.93,33.5,38.64,33.2Zm.67-.8-.56.63.19.22.21.19C39.57,32.82,39.57,32.76,39.3,32.39ZM27.9,31.15a2.07,2.07,0,0,0,0,1c.39-.15.39-.15.39-.62S28.27,31.2,27.9,31.15ZM39.16,45.39a3,3,0,0,0-1-.65,1.34,1.34,0,0,0,.17.42,8.27,8.27,0,0,0,.69.58l.09-.2Zm-13-12.53c-.07-.63-.21-1-.68-1.19C25.49,32.38,25.57,32.52,26.11,32.86Zm.67-.92.79-.76a.94.94,0,0,0,.09-.13.29.29,0,0,0-.38,0l-.74.62.1.14Zm11.11-.84a1.33,1.33,0,0,0-1.08,1.19A8.41,8.41,0,0,0,37.89,31.1ZM36.66,44.66a2.79,2.79,0,0,0-.13,1.55c.14-.16.36-.23.31-.5S36.72,45,36.66,44.66Zm1.26-10.75.27.36.65-.2-.53-.56ZM25.25,43.54l.58-.31a1.25,1.25,0,0,0-.92-.13Zm-.89,0a1.47,1.47,0,0,0,0,1l.34-.54Zm13.1,1.67L37.2,45l-.26-.2a.84.84,0,0,0,.14.82ZM38,46.39l.46-.26L38,45.71l-.32.38ZM26.31,32.48l-.06,0c.11.26.07.57.3.83l.28-.31ZM24.43,44.85l.1.08.56-.48-.3-.35ZM27.58,32.4l.12,0-.05-.92c-.18.09-.36.15-.29.36S27.51,32.21,27.58,32.4Zm10.87,2.2c.07.41.34.37.58.36s.31.05.32-.2Zm-13.06,9.1.25.29c.19-.17.41-.27.52-.52A.87.87,0,0,0,25.39,43.69Zm1.49-11.63.52.6a1.59,1.59,0,0,0-.26-.82Zm11.28-.29,0,.07c.16,0,.38.13.48-.12s-.1-.21-.21-.31Zm1.46,1.43h-.1l-.22.43.28.26.07,0C39.64,33.63,39.63,33.42,39.62,33.21Zm-13-1.86c-.33-.3-.34-.3-.52-.19l.32.36.14-.09A.35.35,0,0,0,26.57,31.35Zm12.65,3.2c-.24-.36-.27-.37-.7-.13ZM27,30.93l-.49,0C26.78,31.23,26.78,31.23,27,30.93Zm-2,.9.33.26-.1-.55ZM37.81,46.45l-.25-.25-.24.3,0,.05Zm-.5-13.29,0,.06.13.08,0-.09Z"/><path class="cls-12" d="M32,31.24a7.4,7.4,0,1,1-7.41,7.36A7.39,7.39,0,0,1,32,31.24Zm0,12.69a5.29,5.29,0,1,0-5.28-5.29A5.28,5.28,0,0,0,32,43.93Zm-3.47-9.82-.44-.46c-.39.24-.4.27-.34.48L28,34c.06.33,0,.5-.25.55a.61.61,0,0,1-.61-.5c0-.25.13-.41.44-.41.11,0,.2,0,.22-.19a1.41,1.41,0,0,0-.38,0,.66.66,0,0,0-.52.61.83.83,0,0,0,.56.76.6.6,0,0,0,.71-.26C28.29,34.37,28.38,34.27,28.49,34.11Zm9.06,1.35a1.53,1.53,0,0,1-.07.19l-.34.58c-.08.13-.07.23.09.34L38.36,36c-.11-.2-.12-.2-.24-.15l-.58.29a3.39,3.39,0,0,1,.36-.75c.08-.13.11-.25-.07-.37-.38.2-.78.38-1.16.62a1,1,0,0,0,.09.13Zm-11.67,6a.76.76,0,0,0,.82-.65.65.65,0,0,0-.63-.69.78.78,0,0,0-.82.65A.65.65,0,0,0,25.89,41.48Zm12.83-1L37.57,40c-.13,0-.18,0-.19.17l.47.22-.16.41c-.19.11-.48-.27-.58.13l.18.06a1.77,1.77,0,0,1,.71.24c.16.13.39,0,.48-.19S38.64,40.67,38.72,40.43ZM26.36,39.14l-.58-.06v-.43c.46-.15.46-.15.47-.34h-.18c-.25,0-.48.14-.75,0s-.37.11-.39.31,0,.46,0,.7h1.3S26.29,39.25,26.36,39.14ZM32.67,45s0-.11-.05-.15-.32-.33-.49-.49a.25.25,0,0,0-.14,0c-.34,0-.39.34-.63.46-.07,0-.12.19-.12.29s.51.68.7.69A1.08,1.08,0,0,0,32.67,45Zm3-10.9.28.25c.08.2-.2.42.15.51.15-.38.3-.76.44-1.14a.26.26,0,0,0,0-.23.24.24,0,0,0-.22,0c-.37.19-.74.39-1.11.6C35.38,34.33,35.53,34.08,35.72,34.07Zm-5.36-.87-.93-1c-.21,0-.27.1-.26.27,0,.35,0,.7,0,1a.82.82,0,0,0,0,.17c.3-.05.12-.31.26-.44l.35-.14C30,33.14,30.1,33.42,30.36,33.21Zm-2.55,9.36-.43.32c-.4-.36-.4-.36-.55-.27l.36.45-.23.2c-.1-.11-.18-.2-.27-.28s-.15-.27-.32-.08a2.49,2.49,0,0,0,.63.68l.85-.75C27.95,42.75,28,42.66,27.81,42.57Zm9.11,1c.07-.06.12-.09.12-.11,0-.21-.08-.42-.13-.65l.41.07c.14,0,.28,0,.3-.18l-.13,0a1.67,1.67,0,0,1-1.07-.37c-.1-.1-.17,0-.21.15C36.67,42.63,36.69,43.15,36.93,43.58Zm1.69-5.65L37.9,38a1.51,1.51,0,0,0-.29,0,.13.13,0,0,0-.07.11.14.14,0,0,0,.09.1,1,1,0,0,0,.22,0l.8-.05.12.43c.08-.08.16-.13.15-.17,0-.29,0-.57-.08-.85,0,0-.1-.05-.19-.09C38.64,37.67,38.63,37.77,38.62,37.93Zm-6.93-5.11c0-.15,0-.29,0-.42s0-.35,0-.52-.07-.1-.12-.16-.12.1-.12.15c0,.39,0,.78,0,1.17.63.09.79.06.9-.18Zm2.62.52-.61-.26.06-.2c.08-.24.16-.47.23-.71,0,0,0-.12-.07-.18s-.14.06-.16.11c-.14.37-.26.74-.38,1.11C34,33.49,34.13,33.52,34.31,33.34Zm.62,10.86a.34.34,0,0,0-.44.17.3.3,0,0,0,0,.38.58.58,0,0,0,.32.13c.06,0,.16-.08.18-.14s0-.15-.1-.2-.12,0-.21-.07Zm-5.78.29c-.08,0-.13,0-.17,0s-.16.09-.17.14a.27.27,0,0,0,.12.2.26.26,0,0,0,.37,0,.51.51,0,0,0,.1-.36c0-.1-.15-.17-.24-.25s-.06,0-.11,0Z"/><path class="cls-12" d="M35.46,31.89a7.74,7.74,0,0,0-7,0V24.95c.3-.08,6.56-.09,7,0Z"/><path class="cls-12" d="M35.46,52.38H28.53c-.08-.28-.1-6.5,0-7a7.64,7.64,0,0,0,6.94,0Z"/><path class="cls-12" d="M38.76,35.15h6.91c.09.27.11,6.5,0,7H38.76c.16-.45.35-.88.48-1.32a8.72,8.72,0,0,0,.28-1.43,7.31,7.31,0,0,0,0-1.42,8.53,8.53,0,0,0-.27-1.43C39.12,36.07,38.93,35.64,38.76,35.15Z"/><path class="cls-12" d="M25.22,35.16a7.75,7.75,0,0,0,0,7H18.28c-.08-.28-.09-6.54,0-7Z"/><path class="cls-12" d="M27.41,44.73a3.74,3.74,0,0,1-.11.57,2.34,2.34,0,0,1-.92,1.1c-.24.17-.44,0-.58-.09l1.53-1.59Z"/><path class="cls-12" d="M24.53,32.47l1.59,1.29c-.14.37-.28.34-.56.23a1.74,1.74,0,0,1-.88-.92A.76.76,0,0,1,24.53,32.47Z"/><path class="cls-12" d="M26.89,44.27l.21.19-1.58,1.7L25.23,46Z"/><path class="cls-12" d="M38.93,31.81l.3.39-1.43,1.56-.26-.25Z"/><path class="cls-12" d="M35.66,46.25v-1l.64-.39v1.55A.82.82,0,0,1,35.66,46.25Z"/><path class="cls-12" d="M24.38,32.91a2.49,2.49,0,0,0,1,1.23,1.21,1.21,0,0,1-1,.16A2.15,2.15,0,0,1,24.38,32.91Z"/><path class="cls-12" d="M27.58,46.51a1.76,1.76,0,0,1-1,0,6.89,6.89,0,0,0,.64-.74,5.56,5.56,0,0,0,.38-.8A3.13,3.13,0,0,1,27.58,46.51Z"/><path class="cls-12" d="M24.77,45.45l-.09-.13-.1-.19,1.71-1.45.17.21Z"/><path class="cls-12" d="M39.48,44.72l-1.56-1.21C38.49,43.1,39.42,43.94,39.48,44.72Z"/><path class="cls-12" d="M39.51,43l-1.42.19c.18-.28.32-.53.48-.76a.54.54,0,0,1,.67,0A5.78,5.78,0,0,1,39.51,43Z"/><path class="cls-12" d="M25.51,31.38l.3-.19,1.43,1.55-.24.2Z"/><path class="cls-12" d="M24.85,31.94c.49.49.94.94,1.38,1.39.05.05,0,.16.07.25a8.34,8.34,0,0,1-1.65-1.3Z"/><path class="cls-12" d="M37.52,31a2,2,0,0,0-1,1.27l-.07,0V31A1.79,1.79,0,0,1,37.52,31Z"/><path class="cls-12" d="M36.24,32.37,35.67,32c0-.13,0-.25,0-.37,0-.46.06-.52.59-.57Z"/><path class="cls-12" d="M37.06,33c.3-.33.54-.58.78-.83s.18-.13.6,0a2.42,2.42,0,0,1-.69.85C37.61,33,37.35,33,37.06,33Z"/><path class="cls-12" d="M26.78,44.12l-1.66,1.69-.24-.21c.5-.46,1-.91,1.46-1.35C26.43,44.17,26.5,44,26.78,44.12Z"/><path class="cls-12" d="M39.43,44.91l-.15.3c-.37-.25-.72-.48-1.06-.73s-.16-.36-.16-.63Z"/><path class="cls-12" d="M37.57,45.35l.26.23-.75.89c-.15.18-.33.12-.55.05Z"/><path class="cls-12" d="M27.85,46.41V45.08c.43.12.44.14.45.52,0,.09,0,.17,0,.26C28.3,46.29,28.3,46.29,27.85,46.41Z"/><path class="cls-12" d="M36.89,32.85l-.17-.14s0-.07,0-.08L38,31.3c.08-.09.09-.08.32,0C37.85,31.86,37.39,32.35,36.89,32.85Z"/><path class="cls-12" d="M37.81,43.65,38,44.81l-.07,0-.77-.62.58-.61Z"/><path class="cls-12" d="M24.45,42.9c.1-.24.11-.55.44-.56s.42-.13.77.56Z"/><path class="cls-12" d="M36.95,44.4a9.82,9.82,0,0,1,1.82,1.45l-.18.17L36.9,44.47Z"/><path class="cls-12" d="M24.46,34.6l1.28-.29c-.11.18-.22.37-.34.54a.3.3,0,0,1-.18.1,2.06,2.06,0,0,1-.33,0C24.56,35,24.56,35,24.46,34.6Z"/><path class="cls-12" d="M39.53,43.18a1.44,1.44,0,0,1,.05,1l-.84-.92Z"/><path class="cls-12" d="M24.35,43.2c.2-.13.33-.13.45,0s.44.57.67.87l-.25.22Z"/><path class="cls-12" d="M38.64,33.2c.29.3.59.61.88.93.05.06,0,.19,0,.29l-.08,0-1-1C38.42,33.35,38.49,33.27,38.64,33.2Z"/><path class="cls-12" d="M39.3,32.39c.27.37.26.42-.16,1l-.21-.19L38.74,33Z"/><path class="cls-12" d="M27.9,31.15c.38,0,.4.07.4.42s0,.47-.39.62A2.07,2.07,0,0,1,27.9,31.15Z"/><path class="cls-12" d="M39.16,45.39l-.09.15-.09.2a8.27,8.27,0,0,1-.69-.58,1.34,1.34,0,0,1-.17-.42A3,3,0,0,1,39.16,45.39Z"/><path class="cls-12" d="M26.11,32.86c-.53-.34-.62-.48-.68-1.19C25.9,31.9,26,32.23,26.11,32.86Z"/><path class="cls-12" d="M26.78,31.94l-.14-.14-.1-.14.74-.62a.29.29,0,0,1,.38,0,.94.94,0,0,1-.09.13Z"/><path class="cls-12" d="M37.89,31.1a8.41,8.41,0,0,1-1.08,1.19A1.33,1.33,0,0,1,37.89,31.1Z"/><path class="cls-12" d="M36.66,44.66c.06.36.12.71.19,1.05s-.17.34-.31.5A2.79,2.79,0,0,1,36.66,44.66Z"/><path class="cls-12" d="M37.91,33.91l.39-.41.53.56-.65.2Z"/><path class="cls-12" d="M25.25,43.54l-.33-.44a1.25,1.25,0,0,1,.92.13Z"/><path class="cls-12" d="M24.36,43.51l.33.44-.34.54A1.47,1.47,0,0,1,24.36,43.51Z"/><path class="cls-12" d="M37.46,45.18l-.38.43a.84.84,0,0,1-.14-.82l.26.2Z"/><path class="cls-12" d="M38,46.39l-.32-.3.32-.38.46.43Z"/><path class="cls-12" d="M26.31,32.48l.52.57-.28.31c-.24-.25-.2-.57-.3-.83Z"/><path class="cls-12" d="M24.43,44.85l.37-.75.3.35-.56.48Z"/><path class="cls-12" d="M27.58,32.4c-.07-.19-.15-.39-.22-.58s.11-.27.29-.36l.05.92Z"/><path class="cls-12" d="M38.45,34.6l.91.16c0,.26-.2.2-.32.2S38.52,35,38.45,34.6Z"/><path class="cls-12" d="M25.39,43.69a.87.87,0,0,1,.76-.23c-.11.25-.33.35-.52.52Z"/><path class="cls-12" d="M26.88,32.07l.25-.23a1.59,1.59,0,0,1,.26.82Z"/><path class="cls-12" d="M38.16,31.78l.32-.36c.12.1.29.14.21.31s-.32.09-.48.12Z"/><path class="cls-12" d="M39.62,33.21c0,.21,0,.42,0,.64l-.07,0-.28-.26.22-.43Z"/><path class="cls-12" d="M26.57,31.35a.35.35,0,0,1-.06.08l-.14.09-.32-.36C26.23,31,26.25,31.05,26.57,31.35Z"/><path class="cls-12" d="M39.22,34.55l-.7-.13C39,34.18,39,34.19,39.22,34.55Z"/><path class="cls-12" d="M27,30.93c-.21.3-.21.3-.49,0Z"/><path class="cls-12" d="M25,31.83l.23-.28.1.55Z"/><path class="cls-12" d="M37.81,46.45l-.44.1,0-.05.24-.3Z"/><path class="cls-12" d="M37.31,33.16l.15,0,0,.09-.13-.08Z"/><path class="cls-11" d="M32,43.93a5.29,5.29,0,1,1,5.3-5.27A5.28,5.28,0,0,1,32,43.93Zm3.23-7.72s0,.06,0,.09a4.17,4.17,0,0,0-.51,0c-.15,0-.38-.11-.44.17.25.12.55-.05.77.16-.2,0-.4,0-.6,0s-.42-.09-.59.2a3.63,3.63,0,0,0,1.3-.12c.06,0,.16,0,.25,0l.43.09.33,0V37l-.49.08c.26.29.62,0,.91.25l-.53.06c.12.27.39.13.59.25l-.16.05-.18.1.41.13c-.15.13-.46,0-.4.31l.35.06a2.24,2.24,0,0,1-.76.12c-.08,0-.18-.11-.24-.19a.87.87,0,0,1-.08-.26,2.86,2.86,0,0,0-1,.06l.1.22.25-.11a.29.29,0,0,1,.34.06c.3.3.6.6.89.91a.68.68,0,0,1,.16.63c-.05.25-.29.34-.43.15s-.48-.21-.76-.16c.32,0,.33.31.5.48h1.21a5,5,0,0,0-1.65-5.49,4.85,4.85,0,0,0-4.85-.76c.45,0,.89,0,1.33-.08a.53.53,0,0,1,.52.23.49.49,0,0,1,0,.56,3.7,3.7,0,0,1-.22.3h.66c.06-.41.06-.41.21-.59.09.12.15.3.26.34.45.15.72.55,1.12.76a4.41,4.41,0,0,0,.81.24l-.3.11v.05l.48.1c-.17.15-.41,0-.55.22Zm-4.08,3.36a.81.81,0,0,1,.75-.16.28.28,0,0,0,.18,0l.73-.36c-.07-.14-.1-.33-.19-.36-.25-.09-.3-.27-.37-.5s-.39-.43-.67-.18a.66.66,0,0,1-.48.17l-.38,0c0,.09.07.15.1.2l.12.16c.49-.28.83-.33,1.11-.17a1.55,1.55,0,0,0-1.16.44,2,2,0,0,0-1.42-.31.73.73,0,0,1-.69-.18c-.13-.12-.3-.23-.47-.09s-.44.32-.36.61a2,2,0,0,1,0,1,.6.6,0,0,0,0,.36,7.67,7.67,0,0,0,.5.78.2.2,0,0,0,.19,0,.21.21,0,0,0,.1-.18.61.61,0,0,0-.15-.24,1.66,1.66,0,0,0-.22-.18.73.73,0,0,1,0-.17.87.87,0,0,0,0-.86.87.87,0,0,1-.06-.33.4.4,0,0,1,.38-.43c.2,0,.34.14.38.39s0,.35.06.52c.05.32.2.56.57.59a.36.36,0,0,1,.34.34c0,.18,0,.37.09.55s.07.29.17.35a6.57,6.57,0,0,0,.78.39s.07,0,.14,0c-.14-.2-.28-.37-.4-.55a.81.81,0,0,1-.11-.85.79.79,0,0,0-.15-1.09C30.91,39.27,30.95,39.5,31.12,39.57Zm1.52-2.23c.12.36.2.7.34,1a.91.91,0,0,0,1.25.55c.2-.06.4-.16.6-.2a.66.66,0,0,1,.43,0c.3.17.61.36.62.78a.25.25,0,0,0,.24.28.44.44,0,0,0,0-.62c-.31-.33-.67-.63-1-1l-.54.3a.49.49,0,0,1-.53,0,1.05,1.05,0,0,1-.47-.77c.26.19.25.53.52.62A1,1,0,0,0,33.63,37Zm.18-1.6a3.6,3.6,0,0,0,.41.26,1.22,1.22,0,0,0,.39.11,4.55,4.55,0,0,0,.66,0,.37.37,0,0,0,.24-.12.2.2,0,0,0,0-.29,1.11,1.11,0,0,0-.29-.17,1,1,0,0,1-.47-.35.6.6,0,0,0-.28-.23.88.88,0,0,1-.6-.4,1,1,0,0,1-.34.82.26.26,0,0,0-.09.19,4.62,4.62,0,0,0,.14,1.21l.64-.25C32.78,36,32.78,36,32.82,35.75ZM33,41.39c.05-.18-.08-.39.15-.45a.3.3,0,0,1,.37.18l-.17.26.24.06c.12-.34.12-.34.44-.34a1,1,0,0,0,.86-.27.19.19,0,0,1,.13-.05c.26,0,.24-.18.27-.35s.14-.35,0-.52l-.06,0-.76-.31a4.07,4.07,0,0,0,.17.41.39.39,0,0,1-.06.56.86.86,0,0,1-1.18,0l-.35-.32-.89.39a3.9,3.9,0,0,0,.36.18c.21.08.4.16.35.44C32.89,41.3,33,41.34,33,41.39Zm-4,1.37a.78.78,0,0,0,.65.3h4.6a.69.69,0,0,0,.66-.3Zm-.49-.41a.52.52,0,0,0,.55.26h6.05a.33.33,0,0,0,.3-.25Zm5.68.86H29.76a1.28,1.28,0,0,0,.78.28h2.88A1.31,1.31,0,0,0,34.2,43.21Zm-3.39-7.6.27.35c.2.25.45.24.58,0a.61.61,0,0,1,.49-.41c-.14-.08-.28-.17-.43-.24s-.3-.19-.43-.17a1.82,1.82,0,0,0-1.18.52l.23.28Zm-1.22,6.22a1.47,1.47,0,0,1,1.4.29.54.54,0,0,0,.31.07H33s0,0,.08-.05L33,41.9l-.23.22-.07-.18H31.42a1,1,0,0,1-.5-.09,2.25,2.25,0,0,0-.56-.27C30,41.46,29.92,41.47,29.59,41.83Zm-.1-.22.61-.32-.1-.65H28.8A4.37,4.37,0,0,0,29.49,41.61ZM34.35,38c.07-.1.12-.18.18-.25a3.39,3.39,0,0,1,.31-.32.44.44,0,0,1,.57-.11c.32.19.39.31.35.64a.29.29,0,0,0,.09.24c.12.06.21,0,.26-.14a.44.44,0,0,0-.15-.53c-.19-.18-.39-.35-.56-.54a.24.24,0,0,0-.36-.06l-.53.35C34.25,37.45,34.18,37.67,34.35,38Zm-4.65.25c0-.26-.13-.34-.34-.34-.44,0-.87,0-1.31,0h-.93c-.18,0-.25.07-.18.3h.61a1.2,1.2,0,0,0,.75-.14.41.41,0,0,1,.38,0A1.35,1.35,0,0,0,29.7,38.27Zm6,1.22c0-.27-.11-.27-.25-.27H32.83a.41.41,0,0,0-.41.2,8.06,8.06,0,0,0,2-.07.18.18,0,0,1,.14,0C34.91,39.59,35.3,39.44,35.69,39.48Zm-1.32.29,0-.09a.68.68,0,0,0-.2-.08c-.2,0-.4,0-.6,0l-2-.07a.57.57,0,0,0-.47.26Zm-3.57-5.11H28.95a.47.47,0,0,0-.46.33c.71,0,1.39-.22,2.05.06ZM30.58,38h.66v-.9h-.66Zm-1.51-2.1-.09-.1a1.59,1.59,0,0,0-.95.66c-.16.22-.12.38.11.57a1.26,1.26,0,0,1,.86-.28c.17,0,.3-.07.35-.34l-.29.16a.79.79,0,0,1-.26.13.31.31,0,0,1-.25-.09.32.32,0,0,1,0-.27.8.8,0,0,1,.21-.21Zm3.16,5.27a5.79,5.79,0,0,1,.47.46.66.66,0,0,0,.32.2,2.72,2.72,0,0,0,1.12,0l0-.22h-.5a4.25,4.25,0,0,1-.48,0c-.39-.06-.44-.13-.48-.51C32.38,40.9,32.38,40.9,32.24,41.15Zm-3.49-5.55a1.27,1.27,0,0,0,.85-.09.68.68,0,0,1,.29,0,.7.7,0,0,0,.5-.29,1.6,1.6,0,0,0-1.16-.05C29,35.17,28.91,35.43,28.75,35.59Zm2-.56c.29,0,.53-.05.69-.27a.33.33,0,0,1,.38-.16c.07,0,.21,0,.23-.06a.56.56,0,0,0,0-.38.48.48,0,0,0-.31-.21.24.24,0,0,0-.28.24c0,.22-.15.29-.3.39A1.17,1.17,0,0,0,30.74,35ZM29.18,40.1l-.15-.9A.46.46,0,0,0,29,39c-.06-.07-.15-.15-.22-.14a.29.29,0,0,0-.2.17.66.66,0,0,0,0,.33c.05.25.12.5.18.77Zm0-3c0-.07-.05-.13-.09-.15a.78.78,0,0,0-.89.28.24.24,0,0,0,0,.2.49.49,0,0,0,.48.23c.23,0,.46,0,.6-.28-.26-.21-.44.06-.67.07C28.73,37.15,29,37.17,29.19,37.07ZM31.1,40v.13c.58,0,1.15,0,1.73,0a15.49,15.49,0,0,0,1.75,0c-.07-.07-.1-.13-.13-.13l-3.1,0A1.32,1.32,0,0,0,31.1,40ZM27.8,41.46l0,.08c.09.09.18.24.28.25.44,0,.87,0,1.4,0l-.25-.32c-.16,0-.3.09-.4,0A2.79,2.79,0,0,0,27.8,41.46Zm3.59.19c.42-.28.42-.28.82,0a.34.34,0,0,0,.37,0A1.51,1.51,0,0,0,31,41.16Zm4.78-.18H35c-.22,0-.26.14-.22.35.33,0,.65,0,1,0S36.1,41.73,36.18,41.47Zm-5.29-.56,1,.16c.17,0,.21-.08.25-.2-.16-.19-.16-.19-.32-.19s-.53.07-.74-.18-.24,0-.26.14A1.54,1.54,0,0,0,30.89,40.91Zm3.22-4.59-.05-.09-1.5.73,0,.21A2.31,2.31,0,0,0,34.11,36.32ZM29,34.46l0,.08H31c.09,0,.18-.09.27-.14l0-.07H29.32C29.23,34.33,29.14,34.41,29,34.46Zm-1.26,6,0-.1c-.19-.15-.41-.06-.69-.07l.27.65h.38l.38,0c0-.23-.14-.34-.36-.33h-.43s0-.05,0-.08Zm2.87-1.93a3.18,3.18,0,0,0-1.17-1.11c.14.31.26.57.4.83a.28.28,0,0,0,.16.13C30.25,38.41,30.45,38.45,30.66,38.5Zm3.55,3.68h1.31c.12,0,.22,0,.22-.21H35.3a.94.94,0,0,1-.93-.34Zm-.93-3.13,0-.06c-.49-.3-.58-.83-.74-1.33-.33.23-.21.49-.15.75.36,0,.4.38.5.64Zm-2.57-3.3a1.4,1.4,0,0,0,0,.81h.77l0-.32C31.13,36.38,31,36,30.72,35.76Zm5.72,5.4,0-.09H35.29c-.15,0-.24.09-.31.28.44,0,.86,0,1.27,0C36.31,41.35,36.37,41.22,36.43,41.16Zm-.94-.6h1.23l0-.26H35.7C35.56,40.29,35.45,40.34,35.5,40.55Zm-2.09-.26a.64.64,0,0,0,1.14,0Zm-3.5-4.69c-.64,0-.89.52-1.27.86a.23.23,0,0,0,.18,0A5.1,5.1,0,0,0,29.91,35.61Zm1.26,4.67,0,0c.12.07.24.2.36.21a2.25,2.25,0,0,0,1.09-.25Zm-1.66,1.88h1.23A.86.86,0,0,0,29.51,42.15Zm-1-1.77a2.71,2.71,0,0,0,1.34,0A1.7,1.7,0,0,0,28.55,40.38ZM27.78,39l.06-.08c-.05-.07-.1-.19-.16-.19-.25,0-.51,0-.79,0l0,.27Zm7.54,1.91h1.12c.13,0,.16-.08.14-.19C35.85,40.66,35.54,40.69,35.32,40.93Zm-4.78-4.2,0-.09h-.62c-.42,0-.42,0-.58.2h1.14S30.51,36.77,30.54,36.73Zm-.93-2.59a4.73,4.73,0,0,0,1.7,0A4.5,4.5,0,0,0,29.61,34.13ZM28.19,42a.22.22,0,0,0,.28.2c.3,0,.64.14.94-.2ZM28,37.15c-.18-.35-.46-.21-.68-.23s-.17.08-.12.23Zm3.55-.07-.08,0v.78l.37-.34ZM26.9,39.2c.1.23.1.23.67.21.12,0,.29.06.28-.21A3.33,3.33,0,0,0,26.9,39.2Zm5.88,4.44H31.22A2.8,2.8,0,0,0,32.78,43.64Zm-4.91-5.26a3.35,3.35,0,0,0-1,0c.12.18.16.19.69.17C27.71,38.59,27.86,38.61,27.87,38.38Zm.12-1a.94.94,0,0,0-1,0A2.3,2.3,0,0,0,28,37.41Zm.36.35a2.16,2.16,0,0,0-1.22-.15c-.05,0-.1.06-.16.1l0,.06ZM28,35.44c.66.08.68.07.81-.28C28.55,35.13,28.23,35,28,35.44Zm2.38,1.63a1.43,1.43,0,0,0-.91,0,.48.48,0,0,0,.31.14C30,37.21,30.25,37.31,30.42,37.07Zm.24-.18a1.52,1.52,0,0,0,.83,0s0-.07,0-.1C31.07,36.68,30.83,36.7,30.66,36.88Zm-2.23,4.39c-.24-.33-.58-.17-.89-.16C27.78,41.46,28.13,41.23,28.43,41.27Zm-.65-1.66a1.4,1.4,0,0,0-.8,0c0,.16.05.21.17.18S27.64,39.89,27.78,39.62Zm6.7-.6a3.06,3.06,0,0,0,1,0C35.09,38.6,34.79,38.9,34.48,39Zm-5.89-3.37c-.67-.08-.7-.07-.83.23C28,35.81,28.35,36,28.59,35.64ZM27.78,40a.69.69,0,0,0-.72,0C27.22,40.14,27.38,40.16,27.78,40Zm4.73-4.93h-.66C32.07,35.39,32.27,35.39,32.52,35.1Zm-3.06,1.25a.9.9,0,0,0,.63-.59C29.81,36,29.56,36.07,29.45,36.35Zm5.38,1.32v.08h.79A1.1,1.1,0,0,0,34.83,37.66Zm-5.07-1.23c.49.1.61.09.78-.05A1.29,1.29,0,0,0,29.76,36.43Zm-2,.32v-.1a.48.48,0,0,0-.55.1Zm4.17.7c.18.19.35.19.57,0Zm-.2-1.26h.53l0-.08c-.06,0-.12-.09-.18-.09S31.82,36,31.73,36.19Zm-3.87.13c-.15,0-.36-.14-.49.15C27.58,36.47,27.76,36.58,27.86,36.33Zm6.36,1,.4-.32H34Zm-1.9-.61a.64.64,0,0,0-.67,0A.7.7,0,0,0,32.32,36.74Zm-.05-.26s0-.06,0-.08a.56.56,0,0,0-.53.08ZM27.6,36c.35.15.36.15.51,0Zm2.2,1.35c.32.14.32.14.64,0Zm-.82.38h.53l-.11-.22ZM30.1,36.1c.39.13.39.13.4-.09Zm1.75-.21c.19,0,.34.08.41-.15C32.1,35.66,32,35.65,31.85,35.89Zm2.29,6.27c-.29-.21-.29-.21-.47,0Zm-2.37-7.5-.1.06a.76.76,0,0,0-.13.2s.1.08.15.12a.72.72,0,0,0,.13-.2S31.79,34.72,31.77,34.66Zm-2.89,6.41c-.1.08-.24.14-.1.29a.19.19,0,0,0,.19,0C29.08,41.25,29,41.17,28.87,41.08Zm3.15.68c-.14-.19-.27-.21-.39,0ZM31.8,37v0h.52v0Zm.08.22v0h.45v0Zm-1.77.46.28.2C30.43,37.61,30.3,37.64,30.11,37.67Zm3.4,4.44c-.08,0-.12-.09-.15-.08s-.05.06-.08.1.05.05.08.05A.6.6,0,0,0,33.51,42.11Zm.68-.75V41.3l-.19,0,0,.09Z"/><path class="cls-11" d="M28.49,34.11c-.12.15-.21.26-.28.37a.6.6,0,0,1-.71.26.83.83,0,0,1-.56-.76.66.66,0,0,1,.52-.61,1.41,1.41,0,0,1,.38,0c0,.18-.1.19-.22.19-.31,0-.46.16-.44.41a.61.61,0,0,0,.61.5c.22-.05.31-.22.25-.55l-.31.15c-.07-.21,0-.23.34-.48Z"/><path class="cls-11" d="M37.56,35.46l-.79.29a1,1,0,0,1-.09-.13c.38-.23.78-.42,1.16-.62.18.12.15.24.07.37a3.39,3.39,0,0,0-.36.75l.58-.29c.12-.06.12-.05.24.15l-1.14.59c-.16-.11-.16-.21-.09-.34l.34-.58A1.53,1.53,0,0,0,37.56,35.46Z"/><path class="cls-11" d="M25.89,41.48a.65.65,0,0,1-.63-.69.78.78,0,0,1,.82-.65.65.65,0,0,1,.63.69A.76.76,0,0,1,25.89,41.48Zm.2-1.08c-.31,0-.6.21-.6.44a.39.39,0,0,0,.41.38.56.56,0,0,0,.58-.43A.39.39,0,0,0,26.08,40.39Z"/><path class="cls-11" d="M38.72,40.43c-.08.24-.14.46-.23.66s-.32.33-.48.19A1.77,1.77,0,0,0,37.3,41L37.12,41c.11-.4.39,0,.58-.13l.16-.41-.47-.22c0-.15.06-.21.19-.17Zm-.64,0a2.63,2.63,0,0,0-.1.42.17.17,0,0,0,.3.1,2.41,2.41,0,0,0,.15-.37Z"/><path class="cls-11" d="M26.36,39.14c-.07.11-.1.18-.12.18h-1.3c0-.23,0-.47,0-.7s.22-.38.39-.31.5,0,.75,0h.18c0,.2,0,.2-.47.34v.43Zm-1.2-.05h.37a1,1,0,0,0,0-.32.31.31,0,0,0-.18-.19c-.11,0-.18.06-.18.18S25.16,39,25.16,39.09Z"/><path class="cls-11" d="M32.67,45a1.08,1.08,0,0,1-.74.76c-.19,0-.7-.5-.7-.69s0-.26.12-.29c.24-.12.29-.49.63-.46a.25.25,0,0,1,.14,0c.17.16.34.32.49.49S32.66,44.94,32.67,45Zm-.7.56c.16-.13.2-.39.44-.42,0,0,0-.06,0-.1,0-.23-.42-.14-.38-.43,0,0-.08-.06-.12-.06-.23,0-.17.38-.44.37,0,0-.06.08-.06.12,0,.22.39.17.38.43C31.84,45.47,31.91,45.5,32,45.53Z"/><path class="cls-11" d="M35.72,34.07c-.19,0-.34.25-.51,0,.38-.2.74-.41,1.11-.6a.24.24,0,0,1,.22,0,.26.26,0,0,1,0,.23c-.14.38-.29.76-.44,1.14-.35-.09-.07-.31-.15-.51Zm.59-.29-.06-.06-.35.21.25.2Z"/><path class="cls-11" d="M30.36,33.21c-.27.22-.33-.07-.5-.12l-.35.14c-.13.14,0,.39-.26.44a.82.82,0,0,1,0-.17c0-.35,0-.7,0-1,0-.17.05-.26.26-.27Zm-.62-.33-.33-.36c0,.16,0,.22,0,.28s0,.11,0,.2Z"/><path class="cls-11" d="M27.81,42.57c.16.09.14.18,0,.27l-.85.75a2.49,2.49,0,0,1-.63-.68c.18-.19.24,0,.32.08s.17.18.27.28l.23-.2-.36-.45c.15-.09.15-.09.55.27Z"/><path class="cls-11" d="M36.93,43.58c-.24-.43-.25-.94-.72-1.15,0-.15.12-.25.21-.15a1.67,1.67,0,0,0,1.07.37l.13,0c0,.21-.16.21-.3.18l-.41-.07c0,.24.09.44.13.65C37,43.49,37,43.52,36.93,43.58Z"/><path class="cls-11" d="M38.62,37.93c0-.16,0-.26,0-.42.09,0,.18.06.19.09,0,.28.07.57.08.85,0,0-.08.09-.15.17l-.12-.43-.8.05a1,1,0,0,1-.22,0,.14.14,0,0,1-.09-.1.13.13,0,0,1,.07-.11,1.51,1.51,0,0,1,.29,0Z"/><path class="cls-11" d="M31.69,32.82l.65,0c-.11.24-.27.27-.9.18,0-.38,0-.78,0-1.17,0,0,.08-.1.12-.15s.11.1.12.16,0,.35,0,.52S31.68,32.66,31.69,32.82Z"/><path class="cls-11" d="M34.31,33.34c-.19.18-.33.15-.93-.14.13-.37.25-.74.38-1.11,0,0,.1-.07.16-.11s.08.13.07.18c-.07.24-.15.47-.23.71l-.06.2Z"/><path class="cls-11" d="M34.93,44.2l-.21.26c.09,0,.17,0,.21.07s.12.15.1.2-.12.15-.18.14a.58.58,0,0,1-.32-.13.3.3,0,0,1,0-.37A.34.34,0,0,1,34.93,44.2Z"/><path class="cls-11" d="M29.16,44.49,29,44.18s.1,0,.11,0,.22.15.24.25a.51.51,0,0,1-.1.36.26.26,0,0,1-.37,0,.27.27,0,0,1-.12-.2c0-.05.1-.11.17-.14S29.07,44.49,29.16,44.49Z"/><path class="cls-12" d="M35.2,36.21l-.55-.07c.14-.23.37-.07.55-.22l-.48-.1v-.05l.3-.11a4.41,4.41,0,0,1-.81-.24c-.4-.21-.66-.61-1.12-.76-.11,0-.17-.22-.26-.34-.15.18-.15.18-.21.59H32a3.7,3.7,0,0,0,.22-.3.49.49,0,0,0,0-.56.53.53,0,0,0-.52-.23c-.44,0-.89.07-1.33.08a4.85,4.85,0,0,1,4.85.76,5,5,0,0,1,1.65,5.49H35.63c-.17-.17-.18-.47-.5-.48.28-.05.54-.15.76.16s.38.1.43-.15a.68.68,0,0,0-.16-.63c-.29-.31-.59-.61-.89-.91a.29.29,0,0,0-.34-.06l-.25.11-.1-.22a2.86,2.86,0,0,1,1-.06.87.87,0,0,0,.08.26c.06.08.16.19.24.19a2.24,2.24,0,0,0,.76-.12l-.35-.06c-.05-.33.26-.18.4-.31l-.41-.13.18-.1.16-.05c-.2-.12-.47,0-.59-.25l.53-.06c-.29-.23-.65,0-.91-.25l.49-.08v-.07l-.33,0-.43-.09c-.08,0-.18-.05-.25,0a3.63,3.63,0,0,1-1.3.12c.17-.29.4-.19.59-.2s.39,0,.6,0c-.22-.21-.51,0-.77-.16.06-.28.28-.15.44-.17a4.17,4.17,0,0,1,.51,0S35.2,36.24,35.2,36.21Z"/><path class="cls-12" d="M31.12,39.57c-.17-.07-.21-.31-.48-.28a.79.79,0,0,1,.15,1.09.81.81,0,0,0,.11.85c.12.18.26.35.4.55-.07,0-.12,0-.14,0a6.57,6.57,0,0,1-.78-.39c-.09-.06-.13-.23-.17-.35s-.06-.37-.09-.55a.36.36,0,0,0-.34-.34c-.37,0-.52-.26-.57-.59,0-.17,0-.35-.06-.52s-.17-.39-.38-.39a.4.4,0,0,0-.38.43.87.87,0,0,0,.06.33.87.87,0,0,1,0,.86.73.73,0,0,0,0,.17,1.66,1.66,0,0,1,.22.18.61.61,0,0,1,.15.24.21.21,0,0,1-.1.18.2.2,0,0,1-.19,0,7.67,7.67,0,0,1-.5-.78.6.6,0,0,1,0-.36,2,2,0,0,0,0-1c-.08-.29.17-.45.36-.61s.33,0,.47.09a.73.73,0,0,0,.69.18,2,2,0,0,1,1.42.31A1.55,1.55,0,0,1,32,38.37c-.28-.16-.62-.11-1.11.17l-.12-.16c0-.05-.05-.11-.1-.2l.38,0a.66.66,0,0,0,.48-.17c.28-.25.57-.19.67.18s.11.41.37.5c.09,0,.12.22.19.36l-.73.36a.28.28,0,0,1-.18,0A.81.81,0,0,0,31.12,39.57Zm.28-.8a.57.57,0,0,0,.79-.09Z"/><path class="cls-12" d="M32.63,37.34l1-.35A1,1,0,0,1,34,38.36c-.27-.09-.26-.43-.52-.62a1.05,1.05,0,0,0,.47.77.49.49,0,0,0,.53,0l.54-.3c.37.34.72.64,1,1a.44.44,0,0,1,0,.62.25.25,0,0,1-.24-.28c0-.41-.32-.6-.62-.78a.66.66,0,0,0-.43,0c-.21,0-.4.14-.6.2A.91.91,0,0,1,33,38.36C32.83,38,32.75,37.71,32.63,37.34Z"/><path class="cls-12" d="M32.82,35.75c0,.23,0,.23.36.79l-.64.25a4.62,4.62,0,0,1-.14-1.21.26.26,0,0,1,.09-.19,1,1,0,0,0,.34-.82.88.88,0,0,0,.6.4.6.6,0,0,1,.28.23,1,1,0,0,0,.47.35,1.11,1.11,0,0,1,.29.17.2.2,0,0,1,0,.29.37.37,0,0,1-.24.12,4.55,4.55,0,0,1-.66,0,1.22,1.22,0,0,1-.39-.11A3.6,3.6,0,0,1,32.82,35.75Zm.39-.27.27.06C33.41,35.36,33.35,35.3,33.21,35.48Z"/><path class="cls-12" d="M33,41.39c-.07,0-.16-.09-.16-.12,0-.28-.14-.37-.35-.44a3.9,3.9,0,0,1-.36-.18l.89-.39.35.32a.86.86,0,0,0,1.18,0,.39.39,0,0,0,.06-.56,4.07,4.07,0,0,1-.17-.41l.76.31.06,0c.16.16.06.34,0,.52s0,.36-.27.35a.19.19,0,0,0-.13.05,1,1,0,0,1-.86.27c-.32,0-.32,0-.44.34l-.24-.06.17-.26a.3.3,0,0,0-.37-.18C33,41,33.1,41.21,33,41.39Zm2-1c.1-.16.11-.26,0-.38C34.93,40.17,34.92,40.28,35.07,40.42Z"/><path class="cls-12" d="M29,42.76h5.91a.69.69,0,0,1-.66.3h-4.6A.78.78,0,0,1,29,42.76Z"/><path class="cls-12" d="M28.51,42.35h6.9a.33.33,0,0,1-.3.25H29.06A.52.52,0,0,1,28.51,42.35Z"/><path class="cls-12" d="M34.2,43.21a1.31,1.31,0,0,1-.78.28H30.54a1.28,1.28,0,0,1-.78-.28Z"/><path class="cls-12" d="M30.8,35.61l-.47.28-.23-.28a1.82,1.82,0,0,1,1.18-.52c.14,0,.29.1.43.17s.29.16.43.24a.61.61,0,0,0-.49.41c-.13.28-.38.29-.58,0Z"/><path class="cls-12" d="M29.59,41.83c.33-.36.42-.37.78-.25a2.25,2.25,0,0,1,.56.27,1,1,0,0,0,.5.09h1.27l.07.18L33,41.9l.1.22s-.06.05-.08.05H31.3a.54.54,0,0,1-.31-.07A1.47,1.47,0,0,0,29.59,41.83Z"/><path class="cls-12" d="M29.49,41.61a4.37,4.37,0,0,1-.69-1H30l.1.65Z"/><path class="cls-12" d="M34.35,38c-.17-.36-.1-.57.17-.73l.53-.35a.24.24,0,0,1,.36.06c.17.19.37.36.56.54a.44.44,0,0,1,.15.53c-.05.12-.14.2-.26.14a.29.29,0,0,1-.09-.24c0-.33,0-.45-.35-.64a.44.44,0,0,0-.57.11,3.39,3.39,0,0,0-.31.32C34.47,37.84,34.42,37.92,34.35,38Z"/><path class="cls-12" d="M29.7,38.27a1.35,1.35,0,0,1-1-.17.41.41,0,0,0-.38,0,1.2,1.2,0,0,1-.75.14h-.61c-.08-.22,0-.3.18-.3H28c.44,0,.87,0,1.31,0C29.57,37.93,29.68,38,29.7,38.27Z"/><path class="cls-12" d="M35.69,39.48c-.39,0-.78.11-1.14-.12a.18.18,0,0,0-.14,0,8.06,8.06,0,0,1-2,.07.41.41,0,0,1,.41-.2h2.61C35.58,39.21,35.72,39.21,35.69,39.48Z"/><path class="cls-12" d="M34.37,39.77h-3.2a.57.57,0,0,1,.47-.26l2,.07c.2,0,.4,0,.6,0a.68.68,0,0,1,.2.08Z"/><path class="cls-12" d="M30.81,34.66l-.27.39c-.66-.29-1.34,0-2.05-.06a.47.47,0,0,1,.46-.33Z"/><path class="cls-12" d="M30.58,38v-.9h.66V38Z"/><path class="cls-12" d="M29.07,35.88l-.29.22a.8.8,0,0,0-.21.21.32.32,0,0,0,0,.27.31.31,0,0,0,.25.09.79.79,0,0,0,.26-.13l.29-.16c0,.27-.18.35-.35.34a1.26,1.26,0,0,0-.86.28c-.22-.19-.26-.35-.11-.57a1.59,1.59,0,0,1,.95-.66Z"/><path class="cls-12" d="M32.24,41.15c.14-.25.14-.25.47-.07,0,.38.1.45.48.51a4.25,4.25,0,0,0,.48,0h.5l0,.22a2.72,2.72,0,0,1-1.12,0,.66.66,0,0,1-.32-.2A5.79,5.79,0,0,0,32.24,41.15Z"/><path class="cls-12" d="M28.75,35.59c.16-.16.29-.42.48-.48a1.6,1.6,0,0,1,1.16.05.7.7,0,0,1-.5.29.68.68,0,0,0-.29,0A1.27,1.27,0,0,1,28.75,35.59Z"/><path class="cls-12" d="M30.74,35a1.17,1.17,0,0,1,.45-.44c.15-.1.29-.17.3-.39a.24.24,0,0,1,.28-.24.48.48,0,0,1,.31.21.56.56,0,0,1,0,.38s-.16.08-.23.06a.33.33,0,0,0-.38.16C31.27,35,31,35,30.74,35Z"/><path class="cls-12" d="M29.18,40.1h-.44c-.07-.27-.13-.52-.18-.77a.66.66,0,0,1,0-.33.29.29,0,0,1,.2-.17c.07,0,.17.08.22.14a.46.46,0,0,1,.05.21Z"/><path class="cls-12" d="M29.19,37.07c-.21.1-.46.08-.57.35.23,0,.42-.28.67-.07-.13.25-.37.27-.6.28a.49.49,0,0,1-.48-.23.24.24,0,0,1,0-.2.78.78,0,0,1,.89-.28S29.14,37,29.19,37.07Z"/><path class="cls-12" d="M31.1,40a1.32,1.32,0,0,1,.27-.05l3.1,0s.06.06.13.13a15.49,15.49,0,0,1-1.75,0c-.58,0-1.16,0-1.73,0Z"/><path class="cls-12" d="M27.8,41.46a2.79,2.79,0,0,1,1,.07c.1,0,.23,0,.4,0l.25.32c-.53,0-1,0-1.4,0-.1,0-.18-.16-.28-.25Z"/><path class="cls-12" d="M31.4,41.65l-.38-.5a1.51,1.51,0,0,1,1.57.57.34.34,0,0,1-.37,0C31.82,41.38,31.82,41.38,31.4,41.65Z"/><path class="cls-12" d="M36.18,41.47c-.08.26-.21.36-.43.35s-.64,0-1,0c0-.21,0-.35.22-.35Z"/><path class="cls-12" d="M30.89,40.91a1.54,1.54,0,0,1,0-.28c0-.15.17-.24.26-.14s.48.17.74.18.15,0,.32.19c0,.12-.08.23-.25.2Z"/><path class="cls-12" d="M34.11,36.32a2.31,2.31,0,0,1-1.5.85l0-.21,1.5-.73Z"/><path class="cls-12" d="M29,34.46c.09,0,.18-.13.27-.13h1.89l0,.07c-.09,0-.18.14-.27.14H29.07Z"/><path class="cls-12" d="M27.79,40.43l-.42.06s0,.05,0,.08h.43c.21,0,.31.1.36.33l-.38,0H27.4l-.27-.65c.27,0,.5-.09.69.07Z"/><path class="cls-12" d="M30.66,38.5c-.21,0-.41-.09-.61-.14a.28.28,0,0,1-.16-.13c-.13-.26-.25-.53-.4-.83A3.18,3.18,0,0,1,30.66,38.5Z"/><path class="cls-12" d="M34.22,42.18l.16-.56a.94.94,0,0,0,.93.34h.45c0,.18-.1.21-.22.21Z"/><path class="cls-12" d="M33.29,39.06h-.35c-.11-.27-.14-.59-.5-.64-.06-.27-.18-.53.15-.75.16.5.25,1,.74,1.33Z"/><path class="cls-12" d="M30.72,35.76c.26.28.41.62.85.49l0,.32h-.77A1.4,1.4,0,0,1,30.72,35.76Z"/><path class="cls-12" d="M36.43,41.16c-.06.07-.12.19-.18.2-.41,0-.83,0-1.27,0,.06-.19.16-.28.31-.28H36.4Z"/><path class="cls-12" d="M35.5,40.55c-.05-.21.06-.26.2-.26h1.07l0,.26Z"/><path class="cls-12" d="M33.41,40.29h1.14A.64.64,0,0,1,33.41,40.29Z"/><path class="cls-12" d="M29.91,35.61a5.1,5.1,0,0,1-1.09.91.23.23,0,0,1-.18,0C29,36.12,29.27,35.62,29.91,35.61Z"/><path class="cls-12" d="M31.17,40.28h1.42a2.25,2.25,0,0,1-1.09.25c-.12,0-.24-.13-.36-.21Z"/><path class="cls-12" d="M29.51,42.15a.86.86,0,0,1,1.23,0Z"/><path class="cls-12" d="M28.55,40.38a1.7,1.7,0,0,1,1.34,0A2.71,2.71,0,0,1,28.55,40.38Z"/><path class="cls-12" d="M27.78,39h-.86l0-.27c.28,0,.53,0,.79,0,.06,0,.11.12.16.19Z"/><path class="cls-12" d="M35.32,40.93c.22-.24.53-.27,1.26-.18,0,.11,0,.19-.14.19H35.32Z"/><path class="cls-12" d="M30.54,36.73s-.05.11-.08.11H29.31c.16-.21.16-.21.58-.2h.62Z"/><path class="cls-12" d="M29.61,34.13a4.5,4.5,0,0,1,1.7,0A4.73,4.73,0,0,1,29.61,34.13Z"/><path class="cls-12" d="M28.19,42H29.4c-.3.34-.64.16-.94.2A.22.22,0,0,1,28.19,42Z"/><path class="cls-12" d="M28,37.15h-.8c0-.14,0-.24.12-.23S27.78,36.8,28,37.15Z"/><path class="cls-12" d="M31.51,37.07l.29.47-.37.34V37.1Z"/><path class="cls-12" d="M26.9,39.2a3.33,3.33,0,0,1,.95,0c0,.27-.16.21-.28.21C27,39.43,27,39.43,26.9,39.2Z"/><path class="cls-12" d="M32.78,43.64a2.8,2.8,0,0,1-1.56,0Z"/><path class="cls-12" d="M27.87,38.38c0,.23-.16.2-.29.21-.53,0-.57,0-.69-.17A3.35,3.35,0,0,1,27.87,38.38Z"/><path class="cls-12" d="M28,37.41a2.3,2.3,0,0,1-1,0A.94.94,0,0,1,28,37.41Z"/><path class="cls-12" d="M28.35,37.76H27l0-.06c.05,0,.1-.1.16-.1A2.16,2.16,0,0,1,28.35,37.76Z"/><path class="cls-12" d="M28,35.44c.19-.41.51-.3.81-.28C28.72,35.5,28.7,35.51,28,35.44Z"/><path class="cls-12" d="M30.42,37.07c-.17.24-.4.14-.6.16a.48.48,0,0,1-.31-.14A1.43,1.43,0,0,1,30.42,37.07Z"/><path class="cls-12" d="M30.66,36.88c.17-.19.41-.21.85-.1,0,0,0,.1,0,.1A1.52,1.52,0,0,1,30.66,36.88Z"/><path class="cls-12" d="M28.43,41.27c-.3,0-.65.19-.89-.16C27.85,41.1,28.19,40.95,28.43,41.27Z"/><path class="cls-12" d="M27.78,39.62c-.14.28-.41.12-.62.17s-.19,0-.17-.18A1.4,1.4,0,0,1,27.78,39.62Z"/><path class="cls-12" d="M34.48,39c.3-.12.61-.41,1,0A3.06,3.06,0,0,1,34.48,39Z"/><path class="cls-12" d="M28.59,35.64c-.24.36-.55.16-.83.23C27.89,35.57,27.92,35.56,28.59,35.64Z"/><path class="cls-12" d="M27.78,40c-.4.13-.56.11-.72,0A.69.69,0,0,1,27.78,40Z"/><path class="cls-12" d="M32.52,35.1c-.25.29-.45.29-.66,0Z"/><path class="cls-12" d="M29.45,36.35c.11-.27.36-.38.63-.59A.9.9,0,0,1,29.45,36.35Z"/><path class="cls-12" d="M34.83,37.66a1.1,1.1,0,0,1,.79.08h-.79Z"/><path class="cls-12" d="M29.76,36.43a1.29,1.29,0,0,1,.78-.05C30.36,36.52,30.25,36.53,29.76,36.43Z"/><path class="cls-12" d="M27.77,36.75h-.56a.48.48,0,0,1,.55-.1Z"/><path class="cls-12" d="M31.93,37.45h.57C32.28,37.64,32.12,37.64,31.93,37.45Z"/><path class="cls-12" d="M31.73,36.19c.09-.22.24-.17.36-.17s.12.06.18.09l0,.08Z"/><path class="cls-12" d="M27.86,36.33c-.1.26-.29.14-.49.15C27.5,36.19,27.71,36.36,27.86,36.33Z"/><path class="cls-12" d="M34.22,37.35,34,37h.62Z"/><path class="cls-12" d="M32.32,36.74a.7.7,0,0,1-.67,0A.64.64,0,0,1,32.32,36.74Z"/><path class="cls-12" d="M32.27,36.48h-.53a.56.56,0,0,1,.53-.08S32.27,36.46,32.27,36.48Z"/><path class="cls-12" d="M27.6,36h.51C28,36.18,28,36.18,27.6,36Z"/><path class="cls-12" d="M29.8,37.38h.64C30.12,37.52,30.12,37.52,29.8,37.38Z"/><path class="cls-12" d="M29,37.77l.42-.22.11.22Z"/><path class="cls-12" d="M30.1,36.1l.4-.09C30.49,36.23,30.49,36.23,30.1,36.1Z"/><path class="cls-12" d="M31.85,35.89c.13-.24.25-.23.41-.15C32.19,36,32,35.87,31.85,35.89Z"/><path class="cls-12" d="M34.14,42.16h-.47C33.85,41.95,33.85,41.95,34.14,42.16Z"/><path class="cls-12" d="M31.77,34.66c0,.06.07.12.05.17a.72.72,0,0,1-.13.2c-.05,0-.16-.09-.15-.12a.76.76,0,0,1,.13-.2Z"/><path class="cls-12" d="M28.87,41.08c.11.09.21.17.08.3a.19.19,0,0,1-.19,0C28.64,41.22,28.77,41.16,28.87,41.08Z"/><path class="cls-12" d="M32,41.76l-.39,0C31.75,41.55,31.88,41.56,32,41.76Z"/><path class="cls-12" d="M31.8,37h.52v0H31.8Z"/><path class="cls-12" d="M31.88,37.21h.44v0h-.45Z"/><path class="cls-12" d="M30.11,37.67c.19,0,.32-.06.28.2Z"/><path class="cls-12" d="M33.51,42.11a.6.6,0,0,1-.15.06s-.05,0-.08-.05,0-.09.08-.1S33.43,42.06,33.51,42.11Z"/><path class="cls-12" d="M34.19,41.36l-.18.06,0-.09.19,0Z"/><path class="cls-12" d="M26.08,40.39a.39.39,0,0,1,.4.4.56.56,0,0,1-.58.43.39.39,0,0,1-.41-.38C25.49,40.6,25.77,40.39,26.08,40.39Z"/><path class="cls-12" d="M38.08,40.47l.35.14a2.41,2.41,0,0,1-.15.37.17.17,0,0,1-.3-.1A2.63,2.63,0,0,1,38.08,40.47Z"/><path class="cls-12" d="M25.16,39.09c0-.13,0-.22,0-.32s.07-.21.18-.18a.31.31,0,0,1,.18.19,1,1,0,0,1,0,.32Z"/><path class="cls-12" d="M32,45.53c-.06,0-.13-.06-.13-.08,0-.27-.34-.21-.38-.43,0,0,0-.12.06-.12.27,0,.22-.35.44-.37,0,0,.12,0,.12.06,0,.29.36.2.38.43,0,0,0,.09,0,.1C32.17,45.14,32.14,45.4,32,45.53Z"/><path class="cls-12" d="M36.31,33.79l-.16.35-.25-.2.35-.21Z"/><path class="cls-12" d="M29.74,32.88l-.29.12c0-.08,0-.14,0-.2s0-.12,0-.28Z"/><path class="cls-11" d="M31.39,38.77l.79-.09A.57.57,0,0,1,31.39,38.77Z"/><path class="cls-11" d="M33.21,35.48c.15-.19.2-.12.27.06Z"/><path class="cls-11" d="M35.07,40.42c-.14-.15-.14-.25,0-.38C35.17,40.16,35.17,40.27,35.07,40.42Z"/><rect class="cls-13" x="17.05" y="33.96" width="1" height="9.34"/><polygon class="cls-14" points="17.05 43.3 17.05 42.3 24.39 42.3 24.03 43.3 17.05 43.3"/><polygon class="cls-14" points="17.05 33.96 17.05 34.97 24.26 34.97 23.9 33.96 17.05 33.96"/><rect class="cls-13" x="27.31" y="23.71" width="9.34" height="1"/><polygon class="cls-14" points="27.31 23.71 28.31 23.71 28.31 31.05 27.31 30.68 27.31 23.71"/><polygon class="cls-14" points="36.65 23.71 35.64 23.71 35.64 30.92 36.67 30.62 36.65 23.71"/><path class="cls-14" d="M23.17,34.07a4.35,4.35,0,0,1,1.26-3.23,4.32,4.32,0,0,1,3-.92v.8l-.31,0a3,3,0,0,0-2.06.71A3.15,3.15,0,0,0,24.32,35H23.8Z"/><path class="cls-14" d="M28.31,31A4.31,4.31,0,0,0,27,30.7c-.77-.09,0-.8,0-.8H28.3Z"/><rect class="cls-13" x="45.88" y="33.96" width="1" height="9.34"/><polygon class="cls-14" points="46.88 33.96 46.88 34.96 39.54 34.96 39.91 33.96 46.88 33.96"/><polygon class="cls-14" points="46.88 43.3 46.88 42.29 39.51 42.29 40.04 43.3 46.88 43.3"/><rect class="cls-13" x="27.29" y="52.55" width="9.34" height="1"/><polygon class="cls-14" points="36.63 53.55 35.63 53.55 35.63 46.55 36.63 46.9 36.63 53.55"/><polygon class="cls-14" points="27.29 53.55 28.3 53.55 28.3 46.44 27.29 46.8 27.29 53.55"/><path class="cls-14" d="M40.79,43.44a4.36,4.36,0,0,1-1.26,3.23,4.32,4.32,0,0,1-3,.92v-.8l.3,0a3,3,0,0,0,2.06-.71,3.15,3.15,0,0,0,.78-3.55h.52Z"/><path class="cls-14" d="M40.75,34A4.35,4.35,0,0,0,39.5,30.8a4.32,4.32,0,0,0-3-.92v.8l.3,0a3,3,0,0,1,2.06.71,3.15,3.15,0,0,1,.78,3.55h.52Z"/><path class="cls-14" d="M23.15,43.3a4.54,4.54,0,0,0,1.26,3.32,4.32,4.32,0,0,0,3,.92v-.8a2.45,2.45,0,0,1-.3,0A3,3,0,0,1,25.08,46a3.15,3.15,0,0,1-.78-3.55h-.52Z"/><path class="cls-14" d="M35.63,46.45a4.33,4.33,0,0,0,1.27.35c.77.09,0,.79,0,.79H35.64Z"/></g></g></svg>