<svg xmlns="http://www.w3.org/2000/svg" xmlns:xlink="http://www.w3.org/1999/xlink" viewBox="0 0 113.18 92.25"><defs><style>.cls-1{fill:none;}.cls-2{isolation:isolate;}.cls-3{clip-path:url(#clip-path);}.cls-4,.cls-7{fill:#fff;}.cls-5,.cls-9{fill:#0038a3;}.cls-6{fill:#ff1d23;}.cls-17,.cls-6{mix-blend-mode:multiply;}.cls-10,.cls-11,.cls-12,.cls-13,.cls-14,.cls-15,.cls-16,.cls-7,.cls-8,.cls-9{fill-rule:evenodd;}.cls-8{fill:#c80a1f;}.cls-10{fill:#fafafa;}.cls-11{fill:#c7081e;}.cls-12{fill:#c7081d;}.cls-13{fill:#c7071d;}.cls-14{fill:#c7051b;}.cls-15{fill:#ce2b3d;}.cls-16{fill:#002e9f;}.cls-17{opacity:0.6;fill:url(#radial-gradient);}.cls-18{opacity:0.7;fill:url(#radial-gradient-2);}</style><clipPath id="clip-path"><circle class="cls-1" cx="56.59" cy="46.12" r="46.07"/></clipPath><radialGradient id="radial-gradient" cx="63.13" cy="57.41" r="46.07" gradientTransform="matrix(0, 1, -1, 0, 114.01, -16.95)" gradientUnits="userSpaceOnUse"><stop offset="0" stop-color="#fff" stop-opacity="0"/><stop offset="0.35" stop-color="#fbfbfb" stop-opacity="0.02"/><stop offset="0.53" stop-color="#eeedec" stop-opacity="0.11"/><stop offset="0.67" stop-color="#d8d6d2" stop-opacity="0.25"/><stop offset="0.79" stop-color="#b8b5ae" stop-opacity="0.44"/><stop offset="0.9" stop-color="#908b80" stop-opacity="0.7"/><stop offset="1" stop-color="#605949"/></radialGradient><radialGradient id="radial-gradient-2" cx="110.72" cy="-13.1" r="27.21" gradientTransform="matrix(0, 1.33, -1.15, 0, 54.16, -103.68)" gradientUnits="userSpaceOnUse"><stop offset="0" stop-color="#fff"/><stop offset="1" stop-color="#fff" stop-opacity="0"/></radialGradient></defs><title>Slovensko</title><g class="cls-2"><g id="objects"><g class="cls-3"><rect class="cls-4" x="0.06" y="0.04" width="113.11" height="30.72"/><rect class="cls-5" x="0.03" y="30.76" width="113.11" height="30.72"/><rect class="cls-6" x="0.01" y="61.48" width="113.11" height="30.72"/></g><path class="cls-7" d="M38.37,68.59a4.85,4.85,0,0,1-2.58-1.07c-.43-.27-1-.61-1.67-1a22.93,22.93,0,0,1-8.37-7.93,23.07,23.07,0,0,1-3.94-10.4c-1-6.59-.37-13.21.2-19.08a2,2,0,0,1,2.15-2.43H49.27c1,0,1.95,0,2.92,0h.11a2.43,2.43,0,0,1,2,.82,2.3,2.3,0,0,1,.44,1.84l.08.91c.66,7.29,1.35,14.83-.9,22.29A19,19,0,0,1,51,58.57a23.08,23.08,0,0,1-8.45,8c-.67.39-1.19.72-1.61,1a4.81,4.81,0,0,1-2.57,1.06Z"/><path class="cls-8" d="M53.18,29.49c.16-.79-.12-1.06-1-1-2.3.05-4.6,0-6.9,0H24.62c-.55,0-1.26-.18-1,.81-.62,6.29-1.19,12.59-.23,18.9A21.79,21.79,0,0,0,27,58c.46-.21.46-.67.58-1.06a3.52,3.52,0,0,1,2.6-2.5,3.39,3.39,0,0,1,2.42.44,1.25,1.25,0,0,0,1.85-.52,4.74,4.74,0,0,1,1.7-1.67,1.63,1.63,0,0,0,.91-1.11A20.89,20.89,0,0,0,37.2,47a1.25,1.25,0,0,0-1.39-1.23,28.29,28.29,0,0,0-3.32.09c-.95.09-1.92.62-2.89.06a3.06,3.06,0,0,1-.16-2.64c.28-.68,1-.19,1.4-.53a.86.86,0,0,1,.82-.33c-.29,0-.69,0-.38.47a7.33,7.33,0,0,0,4.91.46c1.63-.35,1-1.92,1-3s-.48-1.7-1.33-1.66c-1.31.08-2.69,0-3.89.71a.34.34,0,0,0,0,.46c-.24-.09-.26-.33-.36-.52a14.46,14.46,0,0,1-.14-2.61c-.09-.66.1-.87.81-.75a14.15,14.15,0,0,0,3.52.34c.62-.05,1.2-.24,1.32-.89a3.86,3.86,0,0,0-.61-3.33.25.25,0,0,0-.29.16c0-.16.17-.23.27-.33.22-.63.27-1.45,1.29-1.27a2.76,2.76,0,0,1,1.45.07c.57,0,.85.35.71.91-.2.78-.16,1.58-.32,2.36A1.82,1.82,0,0,0,40.13,36a2.64,2.64,0,0,0,2.64-.24.29.29,0,0,0-.1-.28.76.76,0,0,1,.16.16c.47.48,1,.31,1.6.24s.82-.21,1.15.19a4,4,0,0,1,.17,2.63,1.27,1.27,0,0,0-.1.28.7.7,0,0,1-.3.41,1.68,1.68,0,0,0-.24.15c-.61.51-.07-.52-.44-.32a8.59,8.59,0,0,0-3.81-.62,1.25,1.25,0,0,0-1.33,1.42c.06,1.14-.69,2.76.9,3.21a7,7,0,0,0,5-.44c.1-.25.1-.36,0-.42l-.35,0a.55.55,0,0,1-.21,0l.21,0c.14,0,.28,0,.35,0l1.16.14a1.2,1.2,0,0,1,.62.73c.21.91.49,1.82-.24,2.65a1.72,1.72,0,0,1-1.22.08A24.59,24.59,0,0,0,41,45.7c-.83.05-1.46.37-1.5,1.25a20.55,20.55,0,0,0,.09,4.57,1.79,1.79,0,0,0,1,1.18,4.87,4.87,0,0,1,1.48,1.41c.76,1.1,1,1.21,2.17.6a3.41,3.41,0,0,1,4.83,2.17c.13.39.12.85.58,1.06a17.36,17.36,0,0,0,2.74-5.65C54.71,44.77,53.86,37.12,53.18,29.49Z"/><path class="cls-9" d="M40,51.76a5.62,5.62,0,0,1,3,3.11c3.47-2,6.43-.65,6.68,3.08a21.67,21.67,0,0,1-7.95,7.51c-4.21,2.45-2.58,2.44-6.86-.06A21.55,21.55,0,0,1,27,58c.24-3.77,3.15-5.14,6.68-3.09a4.92,4.92,0,0,1,1.52-2.15,7.37,7.37,0,0,1,1.52-1,.81.81,0,0,1,.64-.32,3.16,3.16,0,0,0,1.95,0A.79.79,0,0,1,40,51.76Z"/><path class="cls-10" d="M40,51.76l-.69,0q-.92,0-1.85,0l-.69,0c0-1.53-.06-3.07,0-4.6,0-.74-.18-1-.95-1a26.07,26.07,0,0,0-5.82.57c-.84.19-1,0-.83-.79,0-1,0-2,0-3,0-.41-.13-.84.57-.63a6,6,0,0,0,1.08.14c.15-.1.28-.13.39.05a18.46,18.46,0,0,0,5,.41c.45,0,.62-.19.59-.62,0-.23,0-.46,0-.69,0-2.65,0-2.66-2.68-2.36-.75.08-1.48.27-2.23.41-.1.21-.23.17-.37.06-.4,0-.9.14-.67-.61a6,6,0,0,0,0-3.3c-.14-.49-.06-.67.54-.57a28.61,28.61,0,0,0,4.56.58c.64,0,.92-.14.83-.83a13.82,13.82,0,0,0-.41-2.95c-.08,0-.11-.07-.09-.12s0-.07.07-.07l-.19-1.81,1.59.18a2,2,0,0,1,1.38,0c1.61-.11,1.59-.11,1.35,1.55-.16,1.05-.24,2.12-.39,3.17-.11.74.2,1,.88.86a6.76,6.76,0,0,0,1.91-.22h0a10.14,10.14,0,0,0,2.58-.36c.56-.11.68.07.61.55C46,36.88,46,38,46,39c0,.08,0,.16,0,.23.14.47,0,.63-.49.5l-.23,0c-.14.1-.28.15-.37-.06a19.3,19.3,0,0,0-4.18-.57c-.54,0-.79.12-.74.69,0,.3,0,.61,0,.92,0,2.25,0,2.25,2.3,2.21a12.12,12.12,0,0,0,3.28-.4,1.83,1.83,0,0,1,1.33-.23c.51-.07.87,0,.71.67,0,1.07,0,2.15,0,3.22.1.55-.05.73-.67.6a29.38,29.38,0,0,0-5.81-.61c-1,0-1.21.31-1.17,1.23C40.06,48.85,40,50.3,40,51.76Z"/><path class="cls-11" d="M46,39a4.82,4.82,0,0,1,0-3.22A5.3,5.3,0,0,1,46,39Z"/><path class="cls-12" d="M47.63,46.18a4.86,4.86,0,0,1,0-3.22A5.58,5.58,0,0,1,47.63,46.18Z"/><path class="cls-13" d="M29.11,43a4.49,4.49,0,0,1,0,3A4.48,4.48,0,0,1,29.11,43Z"/><path class="cls-11" d="M46.92,42.29a2.56,2.56,0,0,1-1.33.23l-1.1-.08C45.31,42.48,46.09,41.77,46.92,42.29Z"/><path class="cls-11" d="M31.16,42.52l-.39-.05a1.58,1.58,0,0,1,1.5,0Z"/><path class="cls-14" d="M39.06,30.25a2.81,2.81,0,0,1-1.38,0A1.14,1.14,0,0,1,39.06,30.25Z"/><path class="cls-12" d="M36.29,31.88a.14.14,0,0,1,0,.19c0,.29-.05.57-.09,1A1,1,0,0,1,36.29,31.88Z"/><path class="cls-12" d="M31.45,39.74l.37-.06.77.11A1,1,0,0,1,31.45,39.74Z"/><path class="cls-12" d="M44.92,39.68l.37.06a1.14,1.14,0,0,1-1.2.08Z"/><path class="cls-14" d="M42.81,35.62l-1-.11a.71.71,0,0,1,1,.11Z"/><path class="cls-15" d="M45.52,39.76c.36,0,.55-.11.49-.5.15.17.26.36.07.56S45.7,39.91,45.52,39.76Z"/><path class="cls-16" d="M37.45,51.72a2.6,2.6,0,0,1,1.85,0A1.78,1.78,0,0,1,37.45,51.72Z"/><path class="cls-9" d="M36.5,52.82l4.9-.18A4.49,4.49,0,0,0,36.24,52Z"/><circle class="cls-17" cx="56.59" cy="46.18" r="46.07" transform="translate(9.03 101.61) rotate(-88.59)"/><ellipse class="cls-18" cx="56.89" cy="33.99" rx="31.43" ry="36.22" transform="translate(21.51 90.03) rotate(-88.59)"/></g></g></svg>