<svg xmlns="http://www.w3.org/2000/svg" xmlns:xlink="http://www.w3.org/1999/xlink" viewBox="0 0 92.15 92.15"><defs><style>.cls-1{isolation:isolate;}.cls-2{fill:#0080d4;}.cls-3{fill:#ffc800;}.cls-4{opacity:0.6;mix-blend-mode:multiply;fill:url(#radial-gradient);}.cls-5{opacity:0.7;fill:url(#radial-gradient-2);}</style><radialGradient id="radial-gradient" cx="46.07" cy="46.07" r="46.07" gradientUnits="userSpaceOnUse"><stop offset="0" stop-color="#fff" stop-opacity="0"/><stop offset="0.35" stop-color="#fbfbfb" stop-opacity="0.02"/><stop offset="0.53" stop-color="#eeedec" stop-opacity="0.11"/><stop offset="0.67" stop-color="#d8d6d2" stop-opacity="0.25"/><stop offset="0.79" stop-color="#b8b5ae" stop-opacity="0.44"/><stop offset="0.9" stop-color="#908b80" stop-opacity="0.7"/><stop offset="1" stop-color="#605949"/></radialGradient><radialGradient id="radial-gradient-2" cx="5.92" cy="-53.1" r="27.21" gradientTransform="translate(48.73 85.48) scale(1.33 1.16)" gradientUnits="userSpaceOnUse"><stop offset="0" stop-color="#fff"/><stop offset="1" stop-color="#fff" stop-opacity="0"/></radialGradient></defs><title>Sverige</title><g class="cls-1"><g id="objects"><path class="cls-2" d="M92.15,46.07A46,46,0,0,1,46.07,92.15h-.81A46.07,46.07,0,0,1,45.26,0h.81A46,46,0,0,1,92.15,46.07Z"/><path class="cls-3" d="M45.26,0V92.14a45.9,45.9,0,0,1-18.86-4.39V4.4A45.89,45.89,0,0,1,45.26,0Z"/><path class="cls-3" d="M92.15,46.07a46.16,46.16,0,0,1-1,9.43H1A46.55,46.55,0,0,1,1,36.64H91.18A46.15,46.15,0,0,1,92.15,46.07Z"/><circle class="cls-4" cx="46.07" cy="46.07" r="46.07"/><ellipse class="cls-5" cx="46.89" cy="36.55" rx="36.23" ry="31.43"/></g></g></svg>