<svg xmlns="http://www.w3.org/2000/svg" xmlns:xlink="http://www.w3.org/1999/xlink" viewBox="0 0 92.93 92.93"><defs><style>.cls-1{isolation:isolate;}.cls-2{fill:#f0f1f1;}.cls-3{fill:#cd3a2b;}.cls-4{fill:#2f3e70;}.cls-5{opacity:0.6;mix-blend-mode:multiply;fill:url(#radial-gradient);}.cls-6{opacity:0.7;fill:url(#radial-gradient-2);}</style><radialGradient id="radial-gradient" cx="46.47" cy="46.47" r="46.47" gradientUnits="userSpaceOnUse"><stop offset="0" stop-color="#fff" stop-opacity="0"/><stop offset="0.35" stop-color="#fbfbfb" stop-opacity="0.02"/><stop offset="0.53" stop-color="#eeedec" stop-opacity="0.11"/><stop offset="0.67" stop-color="#d8d6d2" stop-opacity="0.25"/><stop offset="0.79" stop-color="#b8b5ae" stop-opacity="0.44"/><stop offset="0.9" stop-color="#908b80" stop-opacity="0.7"/><stop offset="1" stop-color="#605949"/></radialGradient><radialGradient id="radial-gradient-2" cx="-290.89" cy="-10.41" r="27.44" gradientTransform="translate(444.36 36.39) scale(1.33 1.16)" gradientUnits="userSpaceOnUse"><stop offset="0" stop-color="#fff"/><stop offset="1" stop-color="#fff" stop-opacity="0"/></radialGradient></defs><title>United States</title><g class="cls-1"><g id="Layer_4" data-name="Layer 4"><path class="cls-2" d="M1.47,35.33A46.35,46.35,0,1,1,35.33,91.46,46.35,46.35,0,0,1,1.47,35.33"/><path class="cls-3" d="M89.34,28.84H53.43v7.1H91.62a46.35,46.35,0,0,0-2.28-7.1m-9.17-14.2H53.43v7.1H85.67a46.55,46.55,0,0,0-5.5-7.1M13,78.53H80a46.09,46.09,0,0,0,5.58-7.1H7.41A46.53,46.53,0,0,0,13,78.53M57.6,1.47c-1.39-.34-2.78-.62-4.17-.83v6.9H71.65A46.27,46.27,0,0,0,57.6,1.47M92.7,43H53.43v7.1H92.68a46.08,46.08,0,0,0,0-7.1m-89,21.3H89.24a46.7,46.7,0,0,0,2.22-6.74l.09-.37H1.37a46.41,46.41,0,0,0,2.32,7.1M35.33,91.46a46.62,46.62,0,0,0,8.21,1.27h5.9a46.35,46.35,0,0,0,21.82-7.1H21.65a46.29,46.29,0,0,0,13.68,5.83"/><path class="cls-4" d="M49.91,47.53l-1-.73-1,.73.38-1.18-1-.73h1.24l.39-1.18.38,1.18h1.24l-1,.73ZM45,10.17l.38,1.18-1-.73-1,.73.38-1.18-1-.72H44l.39-1.18.38,1.18H46Zm0,10.67L45.37,22l-1-.73-1,.73.38-1.18-1-.73H44l.39-1.18.38,1.18H46ZM44.9,31.3l.38,1.18-1-.73-1,.73.38-1.18-1-.73h1.24l.38-1.18.38,1.18H45.9Zm.29,11.51-1-.73-1,.73.38-1.18-1-.73H43.8l.38-1.18.38,1.18h1.24l-1,.73ZM40.26,15.34l.39,1.18-1-.72-1,.72L39,15.34l-1-.73h1.24l.39-1.18L40,14.62h1.24Zm0,10.34.39,1.18-1-.73-1,.73L39,25.69,38,25h1.24l.39-1.18L40,25h1.24Zm0,10.57.39,1.18-1-.73-1,.73L39,36.26l-1-.72h1.24l.39-1.18L40,35.53h1.24Zm.39,11.27-1-.73-1,.73L39,46.36l-1-.73h1.24l.39-1.18L40,45.63h1.24l-1,.73ZM35.72,10.17l.39,1.18-1-.73-1,.73.38-1.18-1-.72h1.24l.38-1.18.38,1.18h1.24Zm0,10.67L36.1,22l-1-.73-1,.73.38-1.18-1-.73h1.24l.38-1.18.38,1.18h1.24ZM35.63,31.3,36,32.48l-1-.73-1,.73.38-1.18-1-.73h1.24L35,29.4l.38,1.18h1.24Zm.29,11.51-1-.73-1,.73.38-1.18-1-.73h1.24l.39-1.18.38,1.18h1.24l-1,.73ZM31,5l.38,1.18-1-.73-1,.73L29.75,5l-1-.73H30l.38-1.18.38,1.18H32Zm0,10.33.38,1.18-1-.72-1,.72.38-1.18-1-.73H30l.38-1.18.38,1.18H32Zm0,10.34.38,1.18-1-.73-1,.73.38-1.18-1-.73H30l.38-1.18L30.76,25H32Zm0,10.57.38,1.18-1-.73-1,.73.38-1.18-1-.72H30l.38-1.18.38,1.18H32Zm.38,11.27-1-.73-1,.73.38-1.18-1-.73H30l.38-1.18.38,1.18H32l-1,.73ZM26.45,9.8,26.84,11l-1-.73-1,.73.39-1.18-1-.72h1.24l.38-1.18.39,1.18h1.24Zm0,10.67.39,1.18-1-.72-1,.72.39-1.18-1-.73h1.24l.38-1.18.39,1.18h1.24Zm-.09,10.46.39,1.18-1-.73-1,.73.39-1.18-1-.73h1.24L25.74,29l.38,1.18h1.24Zm.29,11.52-1-.73-1,.73L25,41.27l-1-.72h1.24l.39-1.18L26,40.54h1.24l-1,.72Zm-4.92-27.1.39,1.18-1-.72-1,.72.39-1.18-1-.73h1.23l.39-1.18.38,1.18h1.24Zm0,10.34.39,1.18-1-.73-1,.73.39-1.18-1-.73h1.23l.39-1.18L21.49,25h1.24Zm0,10.57.39,1.18-1-.73-1,.73.39-1.18-1-.72h1.23l.39-1.18.38,1.18h1.24Zm.39,11.27-1-.73-1,.73.39-1.18-1-.73h1.23l.39-1.18.38,1.18h1.24l-1,.73ZM17.19,20.37l.38,1.18-1-.73-1,.73.39-1.18-1-.73h1.24l.38-1.18.38,1.18h1.24Zm-.09,10.46L17.48,32l-1-.73-1,.73.38-1.18-1-.73h1.24l.39-1.18.38,1.18h1.24Zm.29,11.51-1-.73-1,.73.38-1.18-1-.73H16l.38-1.18.38,1.18H18l-1,.73ZM39.26,4.28l.39-1.18L40,4.28h1.24l-1,.73.39,1.18-1-.73-1,.73L39,5l-1-.73Zm9.27,31.25.39-1.18.38,1.18h1.24l-1,.72.38,1.18-1-.73-1,.73.38-1.18-1-.72Zm0-10.58.39-1.18L49.29,25h1.24l-1,.73.38,1.18-1-.73-1,.73.38-1.18-1-.73Zm0-10.34.39-1.18.38,1.18h1.24l-1,.73.38,1.18-1-.72-1,.72.38-1.18-1-.73Zm0-10.33.39-1.18.38,1.18h1.24l-1,.73.38,1.18-1-.73-1,.73L48.29,5l-1-.73ZM12.46,25.69l.38,1.18-1-.73-1,.73.38-1.18-1-.73h1.24l.39-1.18L12.22,25h1.24Zm0,10.57.38,1.18-1-.73-1,.73.38-1.18-1-.72h1.24l.39-1.18.38,1.18h1.24Zm.38,11.27-1-.73-1,.73.38-1.18-1-.73h1.24l.39-1.18.38,1.18h1.24l-1,.73Zm-5-16.88.38,1.18-1-.73-1,.73.38-1.18-1-.73H6.82l.38-1.18.39,1.18H8.82Zm.29,11.51-1-.73-1,.73L6.49,41l-1-.73H6.73l.39-1.18.38,1.18H8.73l-1,.73ZM3.57,47.53l-1-.73-1,.73L2,46.36l-1-.73H2.19l.38-1.18L3,45.63H4.19l-1,.73ZM53.43.64C53,.57,49.59.2,49.14.14L40.81.45A46.47,46.47,0,0,0,17.4,10.36l.17.53-.43-.32a46.32,46.32,0,0,0-4.36,4h.68l-1,.73.38,1.18-1-.72-.4.29Q10,17.7,8.78,19.45h.14l-.29.21-.6.87.27.83L7.75,21A46.29,46.29,0,0,0,1.47,35.33l0,.21h.77l.38-1.18L3,35.53H4.19l-1,.72.38,1.18-1-.73-1,.73L2,36.26l-.6-.43A46.28,46.28,0,0,0,.25,50.2H53.43Z"/><circle class="cls-5" cx="46.47" cy="46.47" r="46.47"/><ellipse class="cls-6" cx="47.28" cy="36.86" rx="36.53" ry="31.69"/></g></g></svg>