<svg width="80" height="80" viewBox="0 0 80 80" fill="black" xmlns="http://www.w3.org/2000/svg">
    <path d="M63.333 43.333c2.334 0 4.567.434 6.667 1.167V30L50 10H16.667A6.644 6.644 0 0 0 10 16.667v46.666c0 3.7 3 6.667 6.667 6.667H44.5c-.733-2.1-1.167-4.333-1.167-6.667 0-11.033 8.967-20 20-20zM46.667 15 65 33.333H46.667V15zm21.366 48.333 7.1 7.067-4.733 4.733-7.067-7.1-7.066 7.1-4.7-4.733 7.066-7.067-7.066-7.066 4.7-4.7 7.066 7.066 7.067-7.066 4.733 4.7-7.1 7.066z" fill="black" fill-opacity=""/>
</svg>
