<svg width="14" height="18" viewBox="0 0 14 18" fill="none" xmlns="http://www.w3.org/2000/svg">
<path fill-rule="evenodd" clip-rule="evenodd" d="M12.2504 12.5625L13.2179 13.53C13.6904 14.0025 13.3604 14.8125 12.6854 14.8125H1.3079C0.640405 14.8125 0.310405 14.0025 0.782905 13.53L1.7504 12.5625V8.0625C1.7504 5.55 3.5204 3.45 5.8754 2.94V2.0625C5.8754 1.44 6.3779 0.9375 7.0004 0.9375C7.6229 0.9375 8.1254 1.44 8.1254 2.0625V2.94C10.4804 3.45 12.2504 5.55 12.2504 8.0625V12.5625ZM8.4929 15.57C8.4929 16.395 7.8254 17.0625 7.0004 17.0625C6.17541 17.0625 5.50791 16.395 5.50791 15.57H8.4929ZM7.75041 10.3125V11.8125H6.25041V10.3125H7.75041ZM7.00041 8.8125C7.41291 8.8125 7.75041 8.475 7.75041 8.0625V6.5625C7.75041 6.15 7.41291 5.8125 7.00041 5.8125C6.58791 5.8125 6.25041 6.15 6.25041 6.5625V8.0625C6.25041 8.475 6.58791 8.8125 7.00041 8.8125Z" fill="#FBCF4D"/>
</svg>
