<svg xmlns="http://www.w3.org/2000/svg" xmlns:xlink="http://www.w3.org/1999/xlink" viewBox="0 0 92.93 92.93"><defs><style>.cls-1{isolation:isolate;}.cls-2{fill:#7bb652;}.cls-3{fill:#f9df62;}.cls-4{fill:#fff;}.cls-5{opacity:0.6;mix-blend-mode:multiply;fill:url(#radial-gradient);}.cls-6{opacity:0.7;fill:url(#radial-gradient-2);}</style><radialGradient id="radial-gradient" cx="46.47" cy="46.47" r="46.47" gradientUnits="userSpaceOnUse"><stop offset="0" stop-color="#fff" stop-opacity="0"/><stop offset="0.35" stop-color="#fbfbfb" stop-opacity="0.02"/><stop offset="0.53" stop-color="#eeedec" stop-opacity="0.11"/><stop offset="0.67" stop-color="#d8d6d2" stop-opacity="0.25"/><stop offset="0.79" stop-color="#b8b5ae" stop-opacity="0.44"/><stop offset="0.9" stop-color="#908b80" stop-opacity="0.7"/><stop offset="1" stop-color="#605949"/></radialGradient><radialGradient id="radial-gradient-2" cx="-154.23" cy="-60.27" r="27.44" gradientTransform="translate(262.44 93.97) scale(1.33 1.16)" gradientUnits="userSpaceOnUse"><stop offset="0" stop-color="#fff"/><stop offset="1" stop-color="#fff" stop-opacity="0"/></radialGradient></defs><title>澳門</title><g class="cls-1"><g id="Layer_4" data-name="Layer 4"><path class="cls-2" d="M1.38,35.31A46.45,46.45,0,1,1,35.3,91.55,46.44,46.44,0,0,1,1.38,35.31"/><polygon class="cls-3" points="45.79 9.15 47.3 13.75 52.2 13.75 48.24 16.59 49.75 21.18 45.79 18.34 41.83 21.18 43.35 16.59 39.39 13.75 44.28 13.75 45.79 9.15"/><polygon class="cls-3" points="16.39 29.69 19.36 30.31 20.88 27.71 21.2 30.7 24.18 31.32 21.4 32.54 21.72 35.53 19.68 33.3 16.9 34.52 18.42 31.92 16.39 29.69"/><polygon class="cls-3" points="26.72 16.32 28.97 18.33 31.61 16.83 30.38 19.57 32.63 21.58 29.61 21.27 28.37 24.01 27.74 21.07 24.71 20.75 27.35 19.26 26.72 16.32"/><polygon class="cls-3" points="75.2 29.69 72.23 30.31 70.7 27.71 70.39 30.7 67.41 31.32 70.19 32.54 69.88 35.53 71.91 33.3 74.69 34.52 73.17 31.92 75.2 29.69"/><polygon class="cls-3" points="64.88 16.32 62.61 18.33 59.98 16.83 61.22 19.57 58.95 21.58 61.98 21.27 63.22 24.01 63.86 21.07 66.88 20.75 64.24 19.26 64.88 16.32"/><path class="cls-4" d="M45.87,76.65H31.7a32.48,32.48,0,0,0,13.68,3.19h.83a32.48,32.48,0,0,0,13.68-3.19Z"/><path class="cls-4" d="M45.72,73.46H26.42a31,31,0,0,0,3.73,2.39H61.43a31,31,0,0,0,3.73-2.39H45.72Z"/><polygon class="cls-4" points="45.72 70.27 22.73 70.27 24.43 71.87 45.87 71.87 45.87 71.87 67.15 71.87 68.86 70.27 45.87 70.27 45.72 70.27"/><polygon class="cls-4" points="19.95 67.08 20.57 67.89 45.87 67.89 71.01 67.89 71.63 67.08 45.72 67.08 19.95 67.08"/><path class="cls-4" d="M45.87,57.21h0l-.07-.06h0l-.07.06h0c-4.09,3.39-6.59,5.53-12,5.53l-16.53,0c.42.79.88,1.56,1.35,2.31l15.65,0a16.07,16.07,0,0,0,11.64-4.76A16.07,16.07,0,0,0,57.43,65l15.65,0c.48-.74.94-1.52,1.35-2.31l-16.53,0C52.46,62.74,50,60.6,45.87,57.21Z"/><path class="cls-4" d="M57.69,59.8q-.77,0-1.58,0c10.21-.9,17.13-6.46,19.22-11.6A16.36,16.36,0,0,0,66,45.49a22.51,22.51,0,0,0-12.86,4.2c2.06-2.55,8.41-5.36,13.9-5.36a14,14,0,0,1,2.12.15c.84-.87,1.58-2,2.42-2.82a13.81,13.81,0,0,0-3-.3C62.35,41.36,55,44.94,52,48c2.81-4.46,5-9.37,3.88-15A18.37,18.37,0,0,0,54,27.79c-.84.79-1.78,1.58-2.62,2.37l0,0c3.22,5.82,2.05,12.61-.55,17.35a18.13,18.13,0,0,0-1-18.38,17.32,17.32,0,0,0-4-4.22h0l-.07-.06h0l-.07.06h0a17.32,17.32,0,0,0-4,4.22,18.13,18.13,0,0,0-1,18.38C38.14,42.78,37,36,40.2,30.17l0,0c-.84-.78-1.78-1.58-2.62-2.37a18.37,18.37,0,0,0-1.9,5.11c-1.15,5.67,1.07,10.59,3.88,15-3-3-10.31-6.59-16.59-6.59a13.81,13.81,0,0,0-3,.3c.84.87,1.58,2,2.42,2.82a14,14,0,0,1,2.12-.15c5.49,0,11.84,2.81,13.9,5.36a22.51,22.51,0,0,0-12.86-4.2,16.36,16.36,0,0,0-9.32,2.68c2.09,5.14,9,10.7,19.22,11.6q-.81,0-1.58,0a23.91,23.91,0,0,1-15.1-4.91l-2.53,1.52c2.95,2.2,6.64,5.11,16.58,5.11,7,0,10.07-4.31,13-6.3,2.89,2,5.93,6.3,13,6.3,9.94,0,13.63-2.91,16.58-5.11L72.8,54.89A23.91,23.91,0,0,1,57.69,59.8Z"/><circle class="cls-5" cx="46.47" cy="46.47" r="46.47"/><ellipse class="cls-6" cx="47.28" cy="36.86" rx="36.53" ry="31.69"/></g></g></svg>