<svg xmlns="http://www.w3.org/2000/svg" xmlns:xlink="http://www.w3.org/1999/xlink" viewBox="0 0 113.18 92.67"><defs><style>.cls-1,.cls-11{fill:none;}.cls-2{isolation:isolate;}.cls-3{clip-path:url(#clip-path);}.cls-4{fill:#0080d4;}.cls-12,.cls-14,.cls-5,.cls-7{fill:#fff;}.cls-19,.cls-5,.cls-9{mix-blend-mode:multiply;}.cls-6{clip-path:url(#clip-path-2);}.cls-8{fill:#0038a3;}.cls-9{fill:#ff1d23;}.cls-10{fill:#ff1921;}.cls-11,.cls-14{stroke:#000;stroke-miterlimit:10;stroke-width:0.25px;}.cls-11,.cls-12,.cls-13,.cls-14,.cls-15{fill-rule:evenodd;}.cls-13,.cls-17{fill:#ffe700;}.cls-16{fill:#201600;}.cls-18{fill:#033c89;}.cls-19{opacity:0.6;fill:url(#radial-gradient);}.cls-20{opacity:0.7;fill:url(#radial-gradient-2);}</style><clipPath id="clip-path"><circle class="cls-1" cx="178.01" cy="46.22" r="46.07"/></clipPath><clipPath id="clip-path-2"><circle class="cls-1" cx="56.59" cy="46.55" r="46.07"/></clipPath><radialGradient id="radial-gradient" cx="69.06" cy="57.65" r="46.07" gradientTransform="translate(114.24 -22.51) rotate(90)" gradientUnits="userSpaceOnUse"><stop offset="0" stop-color="#fff" stop-opacity="0"/><stop offset="0.35" stop-color="#fbfbfb" stop-opacity="0.02"/><stop offset="0.53" stop-color="#eeedec" stop-opacity="0.11"/><stop offset="0.67" stop-color="#d8d6d2" stop-opacity="0.25"/><stop offset="0.79" stop-color="#b8b5ae" stop-opacity="0.44"/><stop offset="0.9" stop-color="#908b80" stop-opacity="0.7"/><stop offset="1" stop-color="#605949"/></radialGradient><radialGradient id="radial-gradient-2" cx="114.53" cy="-45.09" r="27.21" gradientTransform="matrix(0, 1.33, -1.15, 0, 17.2, -108.37)" gradientUnits="userSpaceOnUse"><stop offset="0" stop-color="#fff"/><stop offset="1" stop-color="#fff" stop-opacity="0"/></radialGradient></defs><title>Artboard 42</title><g class="cls-2"><g id="objects"><g class="cls-3"><rect class="cls-4" x="75.61" y="36.79" width="184.32" height="18.85"/></g><circle class="cls-5" cx="56.98" cy="46.07" r="46.07"/><g class="cls-6"><rect class="cls-7" x="0.06" y="61.91" width="113.11" height="30.72"/><rect class="cls-8" x="0.03" y="31.19" width="113.11" height="30.72"/><rect class="cls-9" x="0.01" y="0.48" width="113.11" height="30.72"/></g><path class="cls-10" d="M34.43,30.88h-16v24s1.72,16.57,16,16.57,16-16.57,16-16.57v-24Z"/><path class="cls-11" d="M27.71,33.42s.67-.64,1.11-.65a5.77,5.77,0,0,1,1.49.2,12.33,12.33,0,0,0,2.29.72s.26,0,.14.08a1.43,1.43,0,0,1-.83.15h0a3.17,3.17,0,0,1,.68.67c.18.32.68.89.71,1s-.33.17-.84-.4a5.63,5.63,0,0,1,.61.78,6.34,6.34,0,0,0,.5,1c.12.13.36.32.21.35-.43.09-1.27-1-2-1.39"/><path class="cls-11" d="M32.36,36.77s.79.75,1.08.67,0-.3-.09-.33"/><path class="cls-11" d="M32.41,37.28s.44.51.5.41-.22-.64-.22-.64"/><path class="cls-11" d="M32,37.11s.31.78.43.69.11-.33.11-.33"/><path class="cls-11" d="M32.12,37.28s.21.93-.07.87c-.1,0-.24-.54-.24-.54s-.15.92-.36.95,0-.28-.07-.59v-.15a6.57,6.57,0,0,0-.31-.92"/><path class="cls-11" d="M31.42,37.91a3.36,3.36,0,0,1-.32.43c-.11.12-.23.21-.31.17s.15-.29.18-.6a1.32,1.32,0,0,0-.71-1.59v0"/><path class="cls-11" d="M31.11,38.3s-.41.89-.29.92.43-.32.43-.32"/><path class="cls-11" d="M31.39,38s-.3,1.33-.18,1.3.48-.5.48-.5"/><path class="cls-11" d="M31.7,38.12s0,1.34.25,1.28.27-.58.27-.58"/><path class="cls-11" d="M32.11,38.14s.13,1.23.36,1.15"/><path class="cls-11" d="M32.73,33.76l0,0S32.8,33.75,32.73,33.76Z"/><path class="cls-12" d="M28.51,43s-.11-.56-.47-.72a6.64,6.64,0,0,1-1.6-1,7.15,7.15,0,0,0-.86-.95,5.29,5.29,0,0,1-.5-1.83c0-.38-.52-1-.54-1.49s-.27-.78,0-1.07,1-2.16.29-2.54-2.88.88-3,1.35-1.69,4.62-1.4,4.86-1.08,6.28-.7,6.37.19,0,.19,0a15.17,15.17,0,0,0-.09,2.61c.15,0,.32-.24.32-.24a1.38,1.38,0,0,0-.3,1c.07.56.3,2.79.47,2.7a.52.52,0,0,0,.23-.26,2.23,2.23,0,0,0-.1.75,19.31,19.31,0,0,0,.29,2.86,1,1,0,0,0,.18-.19.83.83,0,0,0-.18.46c0,.25-.14,2.15.48,2.43,0,0,.27.13.38-.82,0,0,0,.44.18.43s.35-.67.35-.67,0,.3.2.34.3-.66.3-.67,0,.35.23.37.22-.66.35-1a19.48,19.48,0,0,0,.93-3,1.19,1.19,0,0,0-.13-.35s.16.22.2.16a5.6,5.6,0,0,0,.19-.62s0,.54.13.57.24-.2.31-.48.8-2,.81-2.14,0,1.5.33,1.49,1-1.72,1-1.72,0,1,.35,1.06,1.07-1.92,1-2.07a.46.46,0,0,1-.1-.28s.08.21.17.14.11-.45.11-.45Z"/><path d="M21.27,58.17h0c-.57-.26-.52-1.81-.5-2.33,0-.06,0-.1,0-.12a.71.71,0,0,1,.06-.28l0,0h0s-.09,0-.2-1.31c-.06-.77-.11-1.57-.11-1.58A2.14,2.14,0,0,1,20.5,52a.58.58,0,0,1-.16.13h0c-.13,0-.25-.67-.46-2.47l0-.24a1.34,1.34,0,0,1,.18-.81.39.39,0,0,1-.17.09h0a14.24,14.24,0,0,1,.09-2.56l-.17,0c-.21,0,0-1.3.33-3.36a13.2,13.2,0,0,0,.36-3c-.22-.19.47-2.23,1.13-4.12.13-.38.23-.66.26-.76a4.3,4.3,0,0,1,2.7-1.44.71.71,0,0,1,.35.07.6.6,0,0,1,.29.47,3.58,3.58,0,0,1-.58,2.1c-.17.19-.12.38-.07.63a2.06,2.06,0,0,1,.07.43,2.51,2.51,0,0,0,.3.84,2.47,2.47,0,0,1,.24.65,5.27,5.27,0,0,0,.49,1.81,6.93,6.93,0,0,1,.86,1,6.61,6.61,0,0,0,1.59,1c.37.16.48.71.49.74v5.46s0,.4-.12.47l0,0h0a.12.12,0,0,1-.09-.05.56.56,0,0,0,.07.14,4,4,0,0,1-.51,1.56c-.19.37-.35.55-.47.55-.31,0-.36-.69-.37-1-.16.4-.67,1.62-1,1.63s-.34-1-.35-1.37c-.07.19-.21.54-.35.91s-.38,1-.42,1.09-.16.5-.31.5h0c-.1,0-.13-.27-.14-.44a3,3,0,0,1-.15.48l0,0a.15.15,0,0,1-.09-.06,1.83,1.83,0,0,1,.06.2,19.57,19.57,0,0,1-.93,3,1.85,1.85,0,0,0-.1.43c0,.29-.09.57-.28.56a.24.24,0,0,1-.17-.08.32.32,0,0,1-.06-.14c0,.21-.14.55-.3.52a.3.3,0,0,1-.21-.25c-.06.19-.19.58-.34.59h0c-.11,0-.16-.14-.18-.27C21.53,58.07,21.37,58.17,21.27,58.17Zm-.35-2.94,0,0,0,0a.75.75,0,0,0-.14.41s0,.07,0,.13c0,.5-.07,2,.47,2.29h0c.06,0,.24-.06.33-.81h0c0,.11,0,.41.16.41s.27-.41.33-.66l0-.15v.16s0,.28.19.32.25-.47.27-.65v0h0v0a.42.42,0,0,0,.07.27.2.2,0,0,0,.14.07h0c.14,0,.18-.27.22-.52a2,2,0,0,1,.1-.44,19.57,19.57,0,0,0,.93-3,1.17,1.17,0,0,0-.12-.34l0,0c.06.08.14.16.16.16a5.2,5.2,0,0,0,.18-.61l0-.16v.17c0,.22,0,.53.12.55s.2-.15.28-.47c0-.14.23-.62.42-1.1s.39-1,.39-1h0c0,.41.05,1.47.3,1.47s.79-1.23,1-1.71L27,50v.13c0,.28,0,1,.32,1h0c.1,0,.26-.19.43-.52a4.21,4.21,0,0,0,.51-1.51.47.47,0,0,1-.1-.29v-.1l0,.09s.07.14.11.14h0c.06,0,.1-.29.11-.43V43s-.11-.55-.46-.7a6.68,6.68,0,0,1-1.61-1,6.92,6.92,0,0,0-.85-.94,5.21,5.21,0,0,1-.5-1.84,2.46,2.46,0,0,0-.24-.63,2.56,2.56,0,0,1-.3-.86,2.39,2.39,0,0,0-.07-.42c-.06-.25-.11-.47.08-.67a3.61,3.61,0,0,0,.57-2.07.57.57,0,0,0-.27-.44.67.67,0,0,0-.33-.07,4.35,4.35,0,0,0-2.66,1.41c0,.1-.13.38-.26.76-.41,1.16-1.36,3.89-1.14,4.08a10.33,10.33,0,0,1-.34,3.06c-.24,1.45-.54,3.26-.37,3.31l.16,0v0h0c.06,0,.06,0,.06.06s0,0,0,0h0a14.41,14.41,0,0,0-.1,2.52.65.65,0,0,0,.29-.22v0l0,0v0a1.36,1.36,0,0,0-.28,1l0,.24a12.39,12.39,0,0,0,.41,2.43.51.51,0,0,0,.22-.24l0,0a2.19,2.19,0,0,0-.1.75,23.73,23.73,0,0,0,.27,2.84.84.84,0,0,0,.13-.14Z"/><path class="cls-12" d="M38.22,63.06a.8.8,0,0,0,.67-.17c.22-.25-1.29-2.45-1.29-2.45a.78.78,0,0,0,.62-.06c.25-.18-1.53-2.87-1.53-2.87L34.43,58l-2.24-.46s-1.78,2.69-1.53,2.87a.77.77,0,0,0,.62.06s-1.51,2.21-1.3,2.45a.8.8,0,0,0,.67.17s-2.08,3.36-1.5,3.43,1.08-.63,1.08-.63S29.92,67,30.12,67s.9-.69.9-.69-.13,1.07.15,1.06.85-.68.85-.68,0,1,.17,1,.8-.8.8-.8-.11,1,.29.91a.58.58,0,0,0,.5-.3s.1,1.3.65,1.41c.56-.11.65-1.41.65-1.41a.58.58,0,0,0,.5.3c.41.05.29-.91.29-.91s.62.79.8.8.17-1,.17-1,.58.67.86.68.15-1.06.15-1.06.7.69.9.69-.11-1.18-.11-1.18.5.71,1.08.63S38.22,63.06,38.22,63.06Z"/><path d="M34.43,69h0c-.5-.09-.64-1.08-.66-1.36a.65.65,0,0,1-.48.25.22.22,0,0,1-.2-.07A1.32,1.32,0,0,1,33,67c-.15.19-.61.74-.77.75h0a.07.07,0,0,1-.06,0A2.27,2.27,0,0,1,32,66.8c-.14.15-.59.63-.83.64h0a.13.13,0,0,1-.1,0c-.15-.17-.1-.78-.07-1-.16.15-.69.65-.87.65a.07.07,0,0,1-.06,0c-.1-.13,0-.8.12-1.08a1.38,1.38,0,0,1-.94.56h-.1a.13.13,0,0,1-.1-.08c-.21-.45,1.33-3,1.56-3.35h-.12A.68.68,0,0,1,30,62.9c-.21-.24,1-2,1.26-2.43a.92.92,0,0,1-.22,0,.61.61,0,0,1-.35-.1c-.25-.18,1.23-2.45,1.52-2.9h0l2.25.46,2.25-.46h0c.3.45,1.78,2.72,1.53,2.9a.61.61,0,0,1-.36.1.92.92,0,0,1-.22,0c.26.38,1.47,2.19,1.26,2.43a.67.67,0,0,1-.52.19h-.12c.23.37,1.77,2.9,1.56,3.35a.13.13,0,0,1-.1.08h-.1a1.38,1.38,0,0,1-.94-.56c.07.27.22.94.12,1.08a.07.07,0,0,1-.06,0c-.18,0-.71-.5-.87-.65,0,.2.07.81-.08,1a.12.12,0,0,1-.1,0c-.25,0-.7-.49-.84-.64a2.24,2.24,0,0,1-.13.92.08.08,0,0,1-.06,0c-.16,0-.62-.56-.77-.75a1.32,1.32,0,0,1-.13.79.21.21,0,0,1-.2.07.64.64,0,0,1-.47-.25c0,.28-.17,1.26-.67,1.36Zm-.64-1.53v.1s.1,1.28.63,1.39c.53-.11.63-1.37.63-1.39v-.1l0,.1a.56.56,0,0,0,.48.29.16.16,0,0,0,.16-.06c.18-.2.11-.82.11-.83v-.08l0,.06c.25.31.66.78.78.79h0a2.47,2.47,0,0,0,.12-.95v-.06l0,0s.57.66.84.67a.08.08,0,0,0,.07,0c.16-.18.06-1,.06-1v-.06l0,0c.19.19.73.68.88.68h0a2.91,2.91,0,0,0-.15-1.14l0-.12.07.1s.44.63,1,.63h.09a.08.08,0,0,0,.07,0C40,66,38.22,63.1,38.2,63.07l0,0h.21a.63.63,0,0,0,.48-.17c.15-.17-.69-1.55-1.29-2.43l0-.05.06,0a.88.88,0,0,0,.27,0,.55.55,0,0,0,.33-.09c.17-.12-.85-1.79-1.53-2.83L34.43,58h0l-2.23-.46c-.68,1-1.7,2.71-1.53,2.83a.55.55,0,0,0,.33.09.87.87,0,0,0,.27,0l.06,0,0,.05c-.6.88-1.45,2.25-1.3,2.43a.64.64,0,0,0,.48.17h.21l0,0s-1.79,2.9-1.58,3.35a.08.08,0,0,0,.07,0h.09c.53,0,1-.62,1-.63l.07-.1,0,.12A2.88,2.88,0,0,0,30.1,67h0c.16,0,.69-.49.88-.68l0,0v.06s-.1.82.06,1a.07.07,0,0,0,.06,0c.27,0,.84-.66.84-.67l0,0v.06a2.51,2.51,0,0,0,.12.95h0c.13,0,.54-.48.79-.79l0-.06v.08s-.07.63.11.83a.17.17,0,0,0,.16.06.56.56,0,0,0,.48-.29Z"/><path class="cls-13" d="M30.52,36.26a10.13,10.13,0,0,0-1,.17c-.21.07-.91.63-1.29.07a.91.91,0,0,0,.51-.14,2,2,0,0,1,.95-.33A1.49,1.49,0,0,0,28.54,35a3.5,3.5,0,0,1-1.47-.19h0a.41.41,0,0,0-.67.3c0,.15,0,.23-.1.16a.88.88,0,0,1-.25-.62,1.24,1.24,0,0,1,.34-.77,1.75,1.75,0,0,1,1.29-.39s0,0,0,0a.56.56,0,0,1,.55.26.65.65,0,0,0,.22.17h0c.14.07.3.11.35.14s-.33.06-.33.06a2,2,0,0,0,.5.51h0l.13.07a1.4,1.4,0,0,1,.63.78c.14.3.9.5,1,.62S30.67,36.23,30.52,36.26Z"/><path d="M28.63,36.78a.55.55,0,0,1-.47-.26l0,0h0a.88.88,0,0,0,.5-.14A2.08,2.08,0,0,1,29.6,36h0a1.49,1.49,0,0,0-1.07-1h-.29a2.82,2.82,0,0,1-1.19-.2h0a.58.58,0,0,0-.27-.08c-.26,0-.35.28-.36.37s0,.2-.08.2a.08.08,0,0,1-.06,0,.88.88,0,0,1-.25-.64,1.25,1.25,0,0,1,.35-.78l0,0a1.78,1.78,0,0,1,1.06-.37h.23v0h.06a.57.57,0,0,1,.53.27.61.61,0,0,0,.21.16h0l.23.09.12,0a0,0,0,0,1,0,0s0,.05-.32.06a2,2,0,0,0,.47.47h0l.12.07a1.35,1.35,0,0,1,.62.75l0,0c.09.18.42.33.66.44a1,1,0,0,1,.32.18.07.07,0,0,1,0,.06s0,.07-.25.12a9.9,9.9,0,0,0-1,.17l-.16.08A1.61,1.61,0,0,1,28.63,36.78Zm-.41-.25a.49.49,0,0,0,.41.2,1.54,1.54,0,0,0,.67-.23l.16-.08a9.74,9.74,0,0,1,1.06-.18c.18,0,.21-.08.22-.09s0,0,0,0a1.14,1.14,0,0,0-.3-.17c-.26-.12-.59-.27-.68-.46l0,0a1.32,1.32,0,0,0-.6-.73L29,34.66h0a2,2,0,0,1-.51-.51l0,0h0l.3,0-.1,0L28.48,34h0a.63.63,0,0,1-.23-.18.54.54,0,0,0-.53-.25s-.06,0-.07,0h-.19a1.72,1.72,0,0,0-1,.37l0,0a1.22,1.22,0,0,0-.33.75.84.84,0,0,0,.24.6l0,0s0-.06,0-.16.11-.41.4-.41a.64.64,0,0,1,.3.09h0a2.87,2.87,0,0,0,1.17.2h.3A1.52,1.52,0,0,1,29.66,36v0h0a2,2,0,0,0-.93.33A.87.87,0,0,1,28.23,36.53Z"/><path class="cls-13" d="M27.21,35.75A1,1,0,0,0,28,36c.46,0,1.13-.29,1.32-.24a.37.37,0,0,0-.35-.28c-.31,0-.76.24-1,.24Z"/><path d="M27.92,36.06a1.07,1.07,0,0,1-.71-.29h0l-.05,0h.8a1.34,1.34,0,0,0,.38-.1,1.58,1.58,0,0,1,.61-.13.39.39,0,0,1,.37.3v0h-.09a2.64,2.64,0,0,0-.5.1,4.16,4.16,0,0,1-.76.15Zm-.65-.29a1,1,0,0,0,.65.24h0a4.37,4.37,0,0,0,.75-.14,2.24,2.24,0,0,1,.54-.1.35.35,0,0,0-.32-.23,1.45,1.45,0,0,0-.59.13,1.47,1.47,0,0,1-.4.1Z"/><path class="cls-13" d="M26.26,56.22l-2.35,2.6s-.45,0-.35.16a1.12,1.12,0,0,0,.13.2A1.67,1.67,0,0,0,23,59c-.26,0-.45-.53-.68-.47a1.18,1.18,0,0,1-.31.06s-.42-.28-.63-.16-.19.63-.19.63.12-.21.3-.13a1.53,1.53,0,0,1,.33.2s.07.19-.06.19h-.23s.24.3.49.25.37-.05.45,0a.48.48,0,0,0,.39,0,1,1,0,0,1-.67.28c-.42,0-.48.26-.48.26s-.56.14-.43.36c0,0,0,.1.14.07s-.41.23-.41.41a.63.63,0,0,0,.06.32l.2.18s-.08-.16,0-.22.62-.36.62-.36.1.18.23.19.27,0,.27-.16,0-.32,0-.36.5-.15.57-.26.48-.54.48-.54a.82.82,0,0,1-.46.66c-.4.14-.51.2-.51.32s0,.34,0,.36-.28.06-.29.14.13.23.13.25-.13.18-.13.18a.94.94,0,0,0,.25.09c.06,0-.18.85.16,1a1.11,1.11,0,0,0,.51.13s-.27-.17-.21-.41.12-.5.12-.5,0,.08.12,0a.9.9,0,0,0,.49-.47A12.78,12.78,0,0,1,23.82,60c.09,0,.16,0,.22-.1s.17-.31.28-.22.11.15.28.19a2.81,2.81,0,0,0,.77,0c.06,0,.24-.5.35-.56a.67.67,0,0,1,.37,0,.65.65,0,0,0,.32-.19.42.42,0,0,1,.6.14s.12-.71-.57-.64c0,0,0-.16-.3-.13a1.74,1.74,0,0,0-.58.26s-.32.12-.33.19S25,59,25,59l2.45-2.33.18-.34A.76.76,0,0,0,26.26,56.22Z"/><path d="M23,62.95a1.31,1.31,0,0,1-.5-.14c-.26-.11-.21-.57-.18-.84a.91.91,0,0,0,0-.16,1.05,1.05,0,0,1-.25-.09h0l0,0a1.22,1.22,0,0,0,.12-.16l0,0a.44.44,0,0,1-.11-.22c0-.08.15-.13.3-.16h0s0-.15,0-.23a.94.94,0,0,1,0-.1c0-.14.11-.2.52-.34a.75.75,0,0,0,.43-.56c-.11.12-.37.4-.42.48a1.15,1.15,0,0,1-.47.23l-.1,0s0,.09,0,.19,0,.09,0,.14a.19.19,0,0,1,0,.14.2.2,0,0,1-.15,0H22c-.11,0-.2-.14-.23-.19s-.55.3-.6.34,0,.16,0,.2l0,.1-.08-.07-.2-.17a.68.68,0,0,1-.06-.34c0-.15.23-.31.35-.39a.12.12,0,0,1-.08-.08.15.15,0,0,1,0-.13c.07-.15.38-.24.44-.26s.12-.26.5-.26a1,1,0,0,0,.58-.2h-.05a.49.49,0,0,1-.26-.06c-.07-.06-.18-.06-.43,0H21.9a.68.68,0,0,1-.44-.26l0,0h.28s0,0,0,0,0-.1,0-.14a1.46,1.46,0,0,0-.32-.2l-.07,0c-.12,0-.2.14-.2.14l0,.06v-.07s0-.53.2-.65a.28.28,0,0,1,.14,0,1.13,1.13,0,0,1,.51.19,1.24,1.24,0,0,0,.29-.06h0c.11,0,.21.11.31.24s.22.26.33.24H23a1.76,1.76,0,0,1,.57.14L23.53,59a.08.08,0,0,1,0-.09c.05-.09.31-.11.37-.11l2.35-2.59a1,1,0,0,1,.71-.45c.44,0,.7.5.72.52h0l-.18.35-2.41,2.29h0c.06,0,.09,0,.09,0s.26-.18.34-.21a1.73,1.73,0,0,1,.59-.26h.07a.25.25,0,0,1,.25.13.53.53,0,0,1,.47.16.7.7,0,0,1,.11.51v.06l0-.06a.39.39,0,0,0-.35-.2.33.33,0,0,0-.21.06.65.65,0,0,1-.34.2h-.18a.37.37,0,0,0-.19,0,1.24,1.24,0,0,0-.23.36c-.06.12-.1.19-.13.21a1.76,1.76,0,0,1-.43,0,2,2,0,0,1-.35,0,.34.34,0,0,1-.21-.12l-.08-.07h0c-.06,0-.13.11-.17.18l0,.06a.25.25,0,0,1-.14.08l-.08,0a5.45,5.45,0,0,0-.17,1c0,.25-.06.47-.08.55a.9.9,0,0,1-.5.49.15.15,0,0,1-.12,0l-.11.45c-.06.22.2.38.2.38l.05,0H23Zm-.66-1.19h0s0,.07,0,.2-.08.7.15.8a1.39,1.39,0,0,0,.44.13.41.41,0,0,1-.16-.39c.06-.23.12-.5.12-.5h0a0,0,0,0,0,0,0s0,0,.09,0a.86.86,0,0,0,.47-.46c0-.08,0-.29.08-.55.09-.69.14-1,.2-1l.09,0a.23.23,0,0,0,.12-.06l0-.06c.05-.08.13-.2.21-.2l.06,0,.08.08a.29.29,0,0,0,.19.1l.34,0a1.78,1.78,0,0,0,.41,0,1.08,1.08,0,0,0,.11-.19,1.14,1.14,0,0,1,.25-.37.43.43,0,0,1,.21,0h.18a.66.66,0,0,0,.3-.17s.14-.09.25-.09a.43.43,0,0,1,.35.17.62.62,0,0,0-.11-.42.46.46,0,0,0-.37-.14h-.1v0s0-.12-.21-.12h-.06a1.73,1.73,0,0,0-.58.26h0a.77.77,0,0,0-.32.17s-.05.07-.14.07H25l2.48-2.36.17-.33c0-.07-.29-.49-.67-.49a.92.92,0,0,0-.67.43l-2.36,2.61h0c-.11,0-.31,0-.34.08a0,0,0,0,0,0,0,1.07,1.07,0,0,0,.13.2l.09.09-.11-.05A2,2,0,0,0,23,59H23c-.14,0-.26-.11-.38-.25s-.2-.24-.3-.22a1.37,1.37,0,0,1-.31.06h0a1.13,1.13,0,0,0-.5-.19.25.25,0,0,0-.12,0c-.16.08-.17.4-.17.54a.27.27,0,0,1,.2-.1l.09,0a1.47,1.47,0,0,1,.33.2h0s0,.12,0,.18a.09.09,0,0,1-.08,0h-.19a.6.6,0,0,0,.38.21H22a1.42,1.42,0,0,1,.29,0,.28.28,0,0,1,.18.05.46.46,0,0,0,.23.05.27.27,0,0,0,.13,0l0,0a1,1,0,0,1-.69.28c-.39,0-.46.23-.46.24h0s-.36.09-.42.23a.11.11,0,0,0,0,.09h0a.07.07,0,0,0,.08.06h0l.15,0-.13.08c-.11.06-.4.25-.4.39a.7.7,0,0,0,0,.31l.14.12a.18.18,0,0,1,0-.16c.06-.06.57-.33.63-.36h0v0s.1.17.21.18h.1a.16.16,0,0,0,.12,0,.14.14,0,0,0,0-.11s0-.1,0-.14,0-.21.05-.24l.11,0a1.3,1.3,0,0,0,.45-.21c.07-.11.46-.53.48-.54l0-.05v.07a.83.83,0,0,1-.47.68c-.4.14-.49.19-.49.29s0,.06,0,.1,0,.26-.06.28h0c-.17,0-.26.08-.26.12s.06.14.1.19l0,.05s0,0-.11.17a.77.77,0,0,0,.21.08Z"/><path class="cls-13" d="M26.41,63.88s-.77-2.59.32-3.89c0,0,1.16,1.12.36,3.89Z"/><path d="M27.1,63.9h-.71v0s-.76-2.62.32-3.91l0,0,0,0s1.16,1.16.37,3.91Zm-.68,0h.64c.72-2.53-.2-3.68-.34-3.83C25.72,61.25,26.37,63.63,26.43,63.85Z"/><path class="cls-13" d="M25,63.65s-.25-1,.42-.9a.93.93,0,0,1,.81.54l-.13-1.53a.93.93,0,0,0-1-.22A1.2,1.2,0,0,0,25,63.65Z"/><path d="M25.08,63.7l0,0a1.24,1.24,0,0,1-.6-1.18,1.2,1.2,0,0,1,.67-1,1,1,0,0,1,.37-.08,1,1,0,0,1,.69.3h0l.15,1.73-.06-.19a.91.91,0,0,0-.79-.52.35.35,0,0,0-.34.11c-.18.23-.06.76-.06.76Zm.39-2.21a1,1,0,0,0-.36.07,1.14,1.14,0,0,0-.64.93A1.19,1.19,0,0,0,25,63.6a1,1,0,0,1,.08-.74.38.38,0,0,1,.38-.12,1,1,0,0,1,.77.44l-.12-1.4A1,1,0,0,0,25.47,61.49Z"/><path class="cls-13" d="M28.45,63.68s.25-1-.42-.9a.92.92,0,0,0-.81.54l.13-1.53a.93.93,0,0,1,1-.22A1.2,1.2,0,0,1,28.45,63.68Z"/><path d="M28.41,63.73v-.06s.13-.53-.06-.76A.34.34,0,0,0,28,62.8a.91.91,0,0,0-.79.52l-.06.19.15-1.74h0a1,1,0,0,1,.69-.3,1,1,0,0,1,.38.08,1.19,1.19,0,0,1,.67,1,1.23,1.23,0,0,1-.6,1.18Zm-.3-1a.36.36,0,0,1,.29.13,1,1,0,0,1,.08.74,1.19,1.19,0,0,0,.54-1.1,1.15,1.15,0,0,0-.64-.93,1,1,0,0,0-.36-.07.94.94,0,0,0-.65.28l-.12,1.4a1,1,0,0,1,.77-.44Z"/><path class="cls-13" d="M27.44,64.09a.22.22,0,0,1-.22.22h-1a.22.22,0,0,1-.22-.22h0a.22.22,0,0,1,.22-.22h1a.22.22,0,0,1,.22.22Z"/><path d="M27.23,64.33h-1a.24.24,0,0,1,0-.48h1a.24.24,0,0,1,0,.48Zm-1-.43a.19.19,0,0,0,0,.39h1a.19.19,0,0,0,0-.39Z"/><path class="cls-13" d="M25.54,64.44s0,.7.49.6.38-.19.38-.19l.08-.54h-.16A.49.49,0,0,1,25.54,64.44Z"/><path d="M25.94,65.07c-.41,0-.42-.62-.42-.63v0l0,0a.58.58,0,0,0,.36.15.53.53,0,0,0,.41-.27h.2l-.09.55a.06.06,0,0,1,0,0c0,.06-.15.12-.41.17Zm-.37-.58c0,.14.08.53.38.53H26c.32-.07.37-.12.37-.14h0l.08-.51h-.12a.55.55,0,0,1-.44.28A.58.58,0,0,1,25.57,64.49Z"/><path class="cls-13" d="M27.92,64.44s0,.7-.49.6-.38-.19-.38-.19L27,64.31h.16A.49.49,0,0,0,27.92,64.44Z"/><path d="M27.52,65.07h-.09c-.26-.05-.39-.11-.41-.17a0,0,0,0,1,0,0l-.09-.55h.2a.53.53,0,0,0,.41.27h0a.58.58,0,0,0,.36-.15l0,0v0S27.93,65.07,27.52,65.07ZM27,64.33l.08.52h0s0,.07.37.14h.09c.3,0,.36-.39.38-.53a.59.59,0,0,1-.34.13h0a.55.55,0,0,1-.44-.28Z"/><path class="cls-13" d="M26.74,65.57a.82.82,0,0,1-.38-.85c.11-.57.09-.41.09-.41H27a3.52,3.52,0,0,1,.13.56A1.15,1.15,0,0,1,26.74,65.57Z"/><path d="M26.74,65.6h0a.85.85,0,0,1-.39-.87c.09-.45.09-.45.11-.45H27v0a3.43,3.43,0,0,1,.13.57,1.17,1.17,0,0,1-.41.72Zm-.28-1.27s0,.15-.08.39a.8.8,0,0,0,.36.82,1.13,1.13,0,0,0,.38-.68,3.27,3.27,0,0,0-.12-.54Z"/><path class="cls-13" d="M41.79,63.88S41,61.28,42.1,60c0,0,1.16,1.12.36,3.89Z"/><path d="M42.48,63.9h-.71v0S41,61.26,42.08,60l0,0,0,0s1.16,1.16.37,3.91Zm-.68,0h.64c.72-2.53-.2-3.68-.34-3.83C41.1,61.25,41.74,63.63,41.8,63.85Z"/><path class="cls-13" d="M40.42,63.65s-.25-1,.42-.9a.92.92,0,0,1,.81.54l-.13-1.53a.93.93,0,0,0-1-.22A1.2,1.2,0,0,0,40.42,63.65Z"/><path d="M40.45,63.7l0,0a1.23,1.23,0,0,1-.6-1.18,1.19,1.19,0,0,1,.67-1,1,1,0,0,1,.37-.08,1,1,0,0,1,.69.3h0l.15,1.73-.06-.19a.91.91,0,0,0-.79-.52.35.35,0,0,0-.34.11c-.18.23-.06.76-.06.76Zm.39-2.21a1,1,0,0,0-.36.07,1.14,1.14,0,0,0-.64.93,1.19,1.19,0,0,0,.54,1.1,1,1,0,0,1,.07-.74.38.38,0,0,1,.39-.12,1,1,0,0,1,.77.44l-.12-1.4A1,1,0,0,0,40.85,61.49Z"/><path class="cls-13" d="M43.83,63.68s.25-1-.42-.9a.92.92,0,0,0-.81.54l.13-1.53a.94.94,0,0,1,1-.22A1.2,1.2,0,0,1,43.83,63.68Z"/><path d="M43.79,63.73v-.06s.13-.53-.06-.76a.35.35,0,0,0-.34-.11.91.91,0,0,0-.79.52l-.06.19.15-1.74h0a1,1,0,0,1,.69-.3,1,1,0,0,1,.38.08,1.2,1.2,0,0,1,.67,1,1.23,1.23,0,0,1-.6,1.18Zm-.3-1a.36.36,0,0,1,.29.13,1.05,1.05,0,0,1,.08.74,1.19,1.19,0,0,0,.54-1.1,1.15,1.15,0,0,0-.64-.93,1,1,0,0,0-.36-.07.94.94,0,0,0-.65.28l-.12,1.4a1,1,0,0,1,.77-.44Z"/><path class="cls-13" d="M42.82,64.09a.22.22,0,0,1-.22.22h-1a.22.22,0,0,1-.22-.22h0a.22.22,0,0,1,.22-.22h1a.22.22,0,0,1,.22.22Z"/><path d="M42.6,64.33h-1a.24.24,0,1,1,0-.48h1a.24.24,0,1,1,0,.48Zm-1-.43a.19.19,0,0,0,0,.39h1a.19.19,0,1,0,0-.39Z"/><path class="cls-13" d="M40.92,64.44s0,.7.49.6.38-.19.38-.19l.08-.54h-.16A.49.49,0,0,1,40.92,64.44Z"/><path d="M41.32,65.07c-.41,0-.42-.62-.42-.63v0l0,0a.58.58,0,0,0,.36.15.53.53,0,0,0,.41-.27h.2l-.09.55a0,0,0,0,1,0,0c0,.06-.15.12-.41.17Zm-.37-.58c0,.14.08.53.38.53h.09c.32-.07.37-.12.37-.14h0l.08-.51h-.12a.55.55,0,0,1-.44.28A.59.59,0,0,1,40.94,64.49Z"/><path class="cls-13" d="M43.3,64.44s0,.7-.49.6-.38-.19-.38-.19l-.08-.54h.16A.49.49,0,0,0,43.3,64.44Z"/><path d="M42.89,65.07h-.1c-.25-.05-.39-.11-.41-.17a.06.06,0,0,1,0,0l-.09-.55h.2a.53.53,0,0,0,.41.27h0a.58.58,0,0,0,.36-.15l0,0v0S43.3,65.07,42.89,65.07Zm-.53-.74.08.52h0s0,.07.37.14h.09c.3,0,.36-.39.38-.53a.59.59,0,0,1-.35.13h0a.55.55,0,0,1-.44-.28Z"/><path class="cls-13" d="M42.11,65.57a.82.82,0,0,1-.38-.85c.11-.57.09-.41.09-.41h.56a3.54,3.54,0,0,1,.13.56A1.15,1.15,0,0,1,42.11,65.57Z"/><path d="M42.11,65.6h0a.86.86,0,0,1-.39-.87c.09-.45.09-.45.12-.45h.58v0a3.64,3.64,0,0,1,.13.57,1.16,1.16,0,0,1-.41.72Zm-.28-1.27s0,.15-.08.39a.8.8,0,0,0,.36.82,1.14,1.14,0,0,0,.38-.68,3,3,0,0,0-.12-.54Z"/><path class="cls-12" d="M28.47,52.2a3.46,3.46,0,0,0-1.76.51,3.34,3.34,0,0,1-1.34.82c-.2,0-.2.47.65.5s.38,0,.38,0-1,1-.65,1.06a3.54,3.54,0,0,0,.93,0s-.82,1-.42,1.12a2.74,2.74,0,0,0,1-.14s.29,1.34.76,1.14.48-.92.48-.92.45.68.75.72.37-.58.37-.58.43.48.66.39a.38.38,0,0,0,.25-.29Z"/><path d="M28,57.27c-.4,0-.64-1-.68-1.16a3.2,3.2,0,0,1-.83.15l-.2,0a.15.15,0,0,1-.11-.09c-.09-.24.36-.86.49-1a4.66,4.66,0,0,1-.48,0,2,2,0,0,1-.41,0,.1.1,0,0,1-.09-.07c-.06-.2.46-.76.68-1H26c-.62,0-.78-.26-.79-.4a.14.14,0,0,1,.13-.15,3.36,3.36,0,0,0,1.32-.81,3.41,3.41,0,0,1,1.78-.52h0l2.11,4.35h0a.4.4,0,0,1-.26.31h-.07c-.2,0-.48-.27-.58-.37,0,.15-.11.59-.38.55s-.61-.51-.73-.67a1,1,0,0,1-.49.87Zm-.65-1.21v0s.25,1.14.64,1.14l.09,0c.45-.19.47-.89.47-.9v-.07l0,.06s.44.67.73.71.34-.56.34-.56v-.05l0,0s.36.39.58.39h.06a.36.36,0,0,0,.24-.26l-2.09-4.32a3.39,3.39,0,0,0-1.74.5,3.31,3.31,0,0,1-1.35.83.1.1,0,0,0-.09.11c0,.11.16.33.74.35h.38c.16,0,.16,0,.16,0s0,0-.06,0h-.1c-.29.29-.75.8-.7,1s0,0,.06,0a2,2,0,0,0,.4,0,4.68,4.68,0,0,0,.53,0h.06l0,0c-.17.21-.59.82-.51,1a.1.1,0,0,0,.08.06l.19,0a3.21,3.21,0,0,0,.84-.15Z"/><path class="cls-14" d="M30.29,34.22h0Z"/><path class="cls-12" d="M40.07,32.79a4.78,4.78,0,0,0-2.46.5,6.28,6.28,0,0,1-1.51.45,1.29,1.29,0,0,0,.87.13,4.31,4.31,0,0,0-.68.66c-.16.24-.78.87-.71,1s.8-.35.84-.38a6.67,6.67,0,0,0-.63.79,7.12,7.12,0,0,1-.46.93c-.1.11-.38.4-.24.4a1,1,0,0,0,.28-.06s-.26.17,0,.24c0,0-.62,1.47-.49,1.59S35,39,35,39c-.12.24-.61,1.22-.46,1.22h.08s.05,0,0,0l-.22.41-.22-.41c-.06,0,0,0,0,0h.08c.15,0-.33-1-.46-1.22,0,0,.08.08.16,0s-.49-1.59-.49-1.59c.23-.07,0-.24,0-.24a1,1,0,0,0,.28.06c.14,0-.15-.29-.24-.4a7.23,7.23,0,0,1-.46-.93,6.63,6.63,0,0,0-.63-.79s.77.46.84.38-.55-.71-.71-1a4.31,4.31,0,0,0-.68-.66,1.28,1.28,0,0,0,.87-.13,6.29,6.29,0,0,1-1.51-.45,4.78,4.78,0,0,0-2.45-.5,2.06,2.06,0,0,0-1.1.67s0,0,0,0a.56.56,0,0,1,.54.26c.15.2.49.26.58.31s-.33.06-.33.06a1.9,1.9,0,0,0,.63.58,1.41,1.41,0,0,1,.63.78c.14.3.89.5,1,.62s-.09.11-.23.15l-.3.05c.37,0,.52.42.7.74s-.1,1.25-.17,1.43.29-.11.32-.13l-.32.82c-.08.19.17.06.19,0s-.31.81-.37,1,.14.1.14.1-.58,1-.65,1.08.14.15.14.15c-.09.4-1.26,1.25-1.39,1.31s.12.12.12.12h11s.25-.06.12-.12-1.3-.92-1.39-1.31c0,0,.22-.06.14-.15s-.66-1.08-.66-1.08.21.06.14-.1-.35-.91-.37-1,.26.15.19,0l-.32-.82s.4.3.32.13-.36-1.11-.17-1.43.33-.75.71-.74l-.3-.05c-.14,0-.27-.08-.23-.15s.84-.33,1-.62a1.4,1.4,0,0,1,.63-.78,1.9,1.9,0,0,0,.63-.58s-.42,0-.33-.06.43-.11.58-.31a.56.56,0,0,1,.54-.26s0,0,0,0A2.05,2.05,0,0,0,40.07,32.79Z"/><path d="M39.91,42.94h-11c-.06,0-.17,0-.18-.11s0,0,0-.06,1.25-.89,1.37-1.28c0,0-.13,0-.15-.1a.07.07,0,0,1,0-.07c.06-.08.51-.84.63-1h0a.1.1,0,0,1-.09,0,.1.1,0,0,1,0-.1l.35-.9-.12,0a.06.06,0,0,1-.06,0s0-.06,0-.11L31,38.4a.69.69,0,0,1-.26.14,0,0,0,0,1,0,0,.08.08,0,0,1,0-.07c.09-.2.35-1.11.17-1.41l-.1-.18c-.14-.27-.29-.55-.57-.55h0v0l.3-.06c.19,0,.22-.08.22-.1s0,0,0,0a1.05,1.05,0,0,0-.3-.17c-.26-.12-.59-.27-.68-.46l0,0a1.32,1.32,0,0,0-.6-.73,1.89,1.89,0,0,1-.64-.59l0,0h0l.3,0-.1,0a1,1,0,0,1-.47-.27.54.54,0,0,0-.53-.25c-.06,0-.07,0-.07,0a2,2,0,0,1,1.12-.69h.08l.28,0a6.38,6.38,0,0,1,2.11.53,6.62,6.62,0,0,0,1.5.45h.1l-.08,0a1.2,1.2,0,0,1-.62.16H32a3.88,3.88,0,0,1,.62.61,4.29,4.29,0,0,0,.31.38c.32.37.45.54.4.6l0,0a2.49,2.49,0,0,1-.7-.32,4.82,4.82,0,0,1,.54.69,7.08,7.08,0,0,0,.46.92l0,0c.18.2.26.31.24.36a.05.05,0,0,1-.05,0l-.19,0a.14.14,0,0,1,0,.11s0,.07-.09.09c.12.29.6,1.47.47,1.59a.14.14,0,0,1-.12,0c.16.32.51,1,.44,1.15a0,0,0,0,1,0,0h0l.18.34.18-.34h0a0,0,0,0,1,0,0c-.07-.12.27-.83.44-1.15a.14.14,0,0,1-.12,0c-.13-.12.35-1.3.47-1.59-.05,0-.08,0-.09-.09a.15.15,0,0,1,0-.11l-.18,0h0s-.05,0-.06,0,.06-.16.24-.36l0,0a7,7,0,0,0,.46-.92,4.81,4.81,0,0,1,.54-.69,2.5,2.5,0,0,1-.7.32l0,0c-.05-.06.08-.23.4-.6a4.39,4.39,0,0,0,.31-.38,3.84,3.84,0,0,1,.62-.61h-.18a1.2,1.2,0,0,1-.62-.16l-.08,0h.1a6.58,6.58,0,0,0,1.5-.45,6.38,6.38,0,0,1,2.11-.53l.28,0h.08a2,2,0,0,1,1.12.69s0,0-.07,0h0a.53.53,0,0,0-.5.25,1,1,0,0,1-.47.27l-.1,0,.3,0h0l0,0a1.88,1.88,0,0,1-.64.59,1.32,1.32,0,0,0-.6.73l0,0c-.09.19-.42.34-.68.46a1.06,1.06,0,0,0-.3.17,0,0,0,0,0,0,0s0,.05.22.1l.3.06v0h0c-.28,0-.43.28-.57.55l-.1.18c-.17.3.09,1.21.17,1.41a.08.08,0,0,1,0,.07l0,0a.7.7,0,0,1-.27-.14l.3.75a.12.12,0,0,1,0,.11.06.06,0,0,1-.05,0l-.12,0,.35.9a.1.1,0,0,1,0,.1.1.1,0,0,1-.09,0h0c.11.19.56,1,.63,1a.08.08,0,0,1,0,.07c0,.06-.11.09-.15.1.12.39,1.24,1.22,1.37,1.28s.05,0,0,.06-.12.09-.17.11Zm-9.13-2.72,0,0s-.58,1-.66,1.08a0,0,0,0,0,0,0s.09.07.14.08h0v0c-.09.41-1.26,1.26-1.4,1.33h0a.28.28,0,0,0,.14.06h11a.27.27,0,0,0,.14-.06h0c-.14-.07-1.31-.93-1.4-1.33v0h0s.13,0,.14-.08,0,0,0,0-.63-1-.66-1.08l0,0,.05,0h.12a.07.07,0,0,0,0-.06l-.35-.91,0-.1.06,0a.37.37,0,0,0,.15.05h0s0,0,0-.07l-.32-.82,0-.07.07,0a.87.87,0,0,0,.29.17v0c-.07-.17-.36-1.12-.17-1.45l.1-.18c.13-.24.25-.48.47-.55l-.15,0c-.23-.05-.25-.11-.25-.12a.06.06,0,0,1,0-.06,1,1,0,0,1,.32-.18c.24-.11.57-.26.66-.44l0,0a1.36,1.36,0,0,1,.62-.75,1.86,1.86,0,0,0,.6-.54c-.3,0-.31,0-.32-.06a0,0,0,0,1,0,0l.13-.05a1,1,0,0,0,.45-.25.58.58,0,0,1,.54-.27h.06a2.11,2.11,0,0,0-1.08-.65h-.35a6.33,6.33,0,0,0-2.09.52,9.54,9.54,0,0,1-1.44.44,1.23,1.23,0,0,0,.53.11l.25,0h.09l-.07.05a4.33,4.33,0,0,0-.67.65,4.88,4.88,0,0,1-.31.38c-.16.18-.43.49-.4.54h0a2.44,2.44,0,0,0,.78-.37l.14-.08-.09.1a6.22,6.22,0,0,0-.63.79,7.71,7.71,0,0,1-.46.93l0,0c-.06.07-.25.27-.23.31h0a1.12,1.12,0,0,0,.27-.06l.18-.07-.16.11s-.12.1-.11.14,0,0,.08.06h0v0A5.2,5.2,0,0,0,34.87,39c.05,0,.09,0,.13,0l0,0a3.92,3.92,0,0,0-.48,1.19h.09s0,0,0,0,0,0,0,0l-.23.43-.23-.43h0s0,0,0,0,0,0,0,0h.08A3.76,3.76,0,0,0,33.81,39l0,0c0,.05.08.05.13,0a5.22,5.22,0,0,0-.49-1.56v0h0s.07,0,.08-.06-.07-.11-.11-.14l-.16-.11.18.07a1.12,1.12,0,0,0,.27.06h0s-.17-.24-.23-.31l0,0A7.77,7.77,0,0,1,33,35.9a6.35,6.35,0,0,0-.63-.79l-.09-.1.14.08a2.43,2.43,0,0,0,.78.37h0s-.24-.36-.4-.54a4.5,4.5,0,0,1-.31-.38,4.31,4.31,0,0,0-.67-.65l-.07-.05h.09l.25,0a1.23,1.23,0,0,0,.53-.11,9.65,9.65,0,0,1-1.44-.44,6.33,6.33,0,0,0-2.09-.52h-.35a2.1,2.1,0,0,0-1.08.65h.06a.58.58,0,0,1,.53.27,1,1,0,0,0,.45.25l.13.05a0,0,0,0,1,0,0s0,.05-.32.06a1.86,1.86,0,0,0,.6.54,1.36,1.36,0,0,1,.62.75l0,0c.09.18.42.33.66.44a1,1,0,0,1,.32.18.06.06,0,0,1,0,.06s0,.07-.25.12l-.15,0c.22.07.35.31.47.55L31,37c.19.33-.1,1.28-.17,1.45v0s.09,0,.29-.17l.07,0,0,.07-.32.82s0,.06,0,.07h0a.37.37,0,0,0,.14-.05l.06,0,0,.1c-.2.52-.32.82-.36.91s0,0,0,.06h.12Z"/><path class="cls-12" d="M40.33,43s.11-.56.47-.72a6.65,6.65,0,0,0,1.6-1,7.14,7.14,0,0,1,.85-.95,5.28,5.28,0,0,0,.5-1.83c0-.38.52-1,.54-1.49s.27-.78,0-1.07-1-2.16-.29-2.54,2.88.88,3,1.35,1.69,4.62,1.4,4.86,1.08,6.28.7,6.37-.19,0-.19,0A15.18,15.18,0,0,1,49,48.64c-.15,0-.32-.24-.32-.24a1.38,1.38,0,0,1,.3,1c-.07.56-.3,2.79-.47,2.7a.51.51,0,0,1-.23-.26,2.23,2.23,0,0,1,.1.75,19.84,19.84,0,0,1-.29,2.86.94.94,0,0,1-.18-.19.83.83,0,0,1,.18.46c0,.25.13,2.15-.49,2.43,0,0-.27.13-.38-.82,0,0,0,.44-.19.43s-.35-.67-.35-.67,0,.3-.2.34-.3-.66-.3-.67,0,.35-.23.37-.22-.66-.35-1a19.51,19.51,0,0,1-.93-3,1.14,1.14,0,0,1,.13-.35s-.16.22-.2.16a5.36,5.36,0,0,1-.19-.62s0,.54-.14.57-.24-.2-.31-.48-.8-2-.81-2.14,0,1.5-.33,1.49-1-1.72-1-1.72,0,1-.35,1.06-1.07-1.92-1-2.07a.45.45,0,0,0,.1-.28s-.08.21-.17.14-.11-.45-.11-.45Z"/><path d="M47.58,58.17c-.09,0-.26-.09-.35-.67,0,.13-.08.27-.18.27h0c-.14,0-.28-.39-.34-.59a.3.3,0,0,1-.21.25c-.16,0-.25-.31-.3-.52a.32.32,0,0,1-.06.14.25.25,0,0,1-.17.08h0c-.18,0-.22-.27-.27-.56a2,2,0,0,0-.1-.43,19.5,19.5,0,0,1-.93-3,1.91,1.91,0,0,1,.06-.2.15.15,0,0,1-.09.06l0,0a3.31,3.31,0,0,1-.15-.48c0,.17,0,.42-.15.44h0c-.15,0-.25-.27-.31-.5s-.23-.62-.42-1.09-.28-.71-.35-.91c0,.39-.06,1.37-.35,1.37s-.81-1.23-1-1.62c0,.28-.06,1-.37,1h0q-.19,0-.47-.55a4,4,0,0,1-.51-1.56.54.54,0,0,0,.07-.14.12.12,0,0,1-.09.05l-.05,0c-.1-.07-.12-.43-.12-.47V43s.12-.58.49-.74a6.6,6.6,0,0,0,1.59-1,7,7,0,0,1,.86-1,5.28,5.28,0,0,0,.49-1.81,2.44,2.44,0,0,1,.24-.65,2.52,2.52,0,0,0,.3-.84,2.13,2.13,0,0,1,.07-.43c.06-.25.11-.44-.06-.63a3.59,3.59,0,0,1-.58-2.1.61.61,0,0,1,.29-.47.71.71,0,0,1,.35-.07A4.29,4.29,0,0,1,47,34.79c0,.1.13.38.26.76.66,1.9,1.35,3.94,1.13,4.13a13.19,13.19,0,0,0,.36,3c.34,2.06.54,3.31.33,3.36l-.17,0A14.37,14.37,0,0,1,49,48.65h0a.42.42,0,0,1-.18-.09,1.33,1.33,0,0,1,.18.81l0,.24c-.21,1.8-.33,2.47-.46,2.47h0a.56.56,0,0,1-.16-.13,2.18,2.18,0,0,1,.06.61s0,.81-.11,1.58c-.11,1.31-.16,1.31-.2,1.31h0l0,0a.7.7,0,0,1,.06.28s0,.07,0,.12c0,.51.07,2.07-.5,2.33Zm-.33-.86c.09.75.27.81.33.81h0c.54-.25.49-1.78.48-2.29,0-.06,0-.1,0-.13a.77.77,0,0,0-.14-.41l0,0,0,0,0,0a1,1,0,0,0,.14.14,23.88,23.88,0,0,0,.26-2.84,2.24,2.24,0,0,0-.1-.75l0,0a.49.49,0,0,0,.22.24,12.4,12.4,0,0,0,.41-2.43l0-.24a1.36,1.36,0,0,0-.28-1v0l0,0v0a.65.65,0,0,0,.29.22,14.44,14.44,0,0,0-.1-2.52h0s0,0,0,0,0,0,.06-.06h0v0l.16,0c.18,0-.12-1.85-.37-3.31a10.33,10.33,0,0,1-.34-3.06c.22-.18-.73-2.91-1.14-4.08-.13-.38-.23-.66-.26-.76a4.36,4.36,0,0,0-2.66-1.41.67.67,0,0,0-.33.07.57.57,0,0,0-.27.44A3.62,3.62,0,0,0,44.31,36c.19.2.14.42.08.67a2.3,2.3,0,0,0-.07.42,2.57,2.57,0,0,1-.3.86,2.45,2.45,0,0,0-.24.63,5.26,5.26,0,0,1-.5,1.84,6.79,6.79,0,0,0-.85.94,6.72,6.72,0,0,1-1.61,1c-.34.15-.46.7-.46.71v5.45a.92.92,0,0,0,.1.43h0s.09-.09.11-.14l0-.09v.1a.48.48,0,0,1-.1.29A4.18,4.18,0,0,0,41,50.61c.18.34.33.52.43.52.28,0,.33-.75.33-1V50l0,.12c.18.47.71,1.7,1,1.71s.31-1.06.31-1.47h0c0,.07.2.56.39,1s.38,1,.42,1.1c.08.31.19.49.28.47s.12-.33.12-.55V52.2l0,.16a4.91,4.91,0,0,0,.18.61s.11-.08.16-.16l0,0a1.18,1.18,0,0,0-.12.34,19.49,19.49,0,0,0,.93,3,2,2,0,0,1,.1.44c0,.26.08.52.22.52h0a.19.19,0,0,0,.14-.07.42.42,0,0,0,.07-.27v0h0v0c0,.17.14.67.27.64s.19-.31.19-.32v-.16l0,.15c.07.25.22.65.33.66h0c.12,0,.16-.3.16-.41Z"/><path class="cls-13" d="M38.32,36.26a10.08,10.08,0,0,1,1,.17c.21.07.91.63,1.29.07a.91.91,0,0,1-.51-.14,2,2,0,0,0-.95-.33A1.49,1.49,0,0,1,40.31,35a3.5,3.5,0,0,0,1.47-.19h0a.41.41,0,0,1,.67.3c0,.15,0,.23.1.16a.88.88,0,0,0,.25-.62,1.24,1.24,0,0,0-.34-.77,1.75,1.75,0,0,0-1.29-.39s0,0,0,0a.56.56,0,0,0-.54.26.63.63,0,0,1-.23.17h0c-.14.07-.3.11-.35.14s.33.06.33.06a2,2,0,0,1-.5.51h0l-.13.07a1.4,1.4,0,0,0-.63.78c-.14.3-.9.5-1,.62S38.18,36.23,38.32,36.26Z"/><path d="M40.21,36.78h0a1.6,1.6,0,0,1-.69-.24l-.16-.08a9.92,9.92,0,0,0-1-.17c-.23-.06-.25-.11-.25-.12a.06.06,0,0,1,0-.06,1,1,0,0,1,.32-.18c.24-.11.57-.26.66-.44l0,0a1.35,1.35,0,0,1,.62-.75l.12-.07h0a2,2,0,0,0,.47-.47c-.3,0-.31,0-.32-.06a0,0,0,0,1,0,0l.12,0,.23-.09h0a.59.59,0,0,0,.21-.16.59.59,0,0,1,.57-.27h0v0h.22a1.77,1.77,0,0,1,1.06.37l0,0a1.26,1.26,0,0,1,.35.78.89.89,0,0,1-.26.64.08.08,0,0,1-.06,0c-.05,0-.07-.09-.08-.2s-.1-.37-.36-.37a.58.58,0,0,0-.27.08h0a2.81,2.81,0,0,1-1.19.2h-.3a1.48,1.48,0,0,0-1.07,1h0a2.08,2.08,0,0,1,.92.34.88.88,0,0,0,.49.14h0l0,0A.55.55,0,0,1,40.21,36.78Zm-.38-2.11-.12.07a1.32,1.32,0,0,0-.6.73l0,0c-.09.19-.42.34-.68.46a1.11,1.11,0,0,0-.3.17,0,0,0,0,0,0,0s0,.05.22.09a9.78,9.78,0,0,1,1.05.18l.16.08a1.55,1.55,0,0,0,.67.23h0a.49.49,0,0,0,.41-.2.86.86,0,0,1-.48-.15,2,2,0,0,0-.93-.33h0v0A1.52,1.52,0,0,1,40.3,35h.3a2.85,2.85,0,0,0,1.17-.2h0a.64.64,0,0,1,.3-.09c.29,0,.39.31.4.41s0,.16,0,.16l0,0a.86.86,0,0,0,.24-.6,1.23,1.23,0,0,0-.33-.75l0,0a1.72,1.72,0,0,0-1-.37H41.2s0,0-.07,0h0a.53.53,0,0,0-.5.25.65.65,0,0,1-.23.18h0l-.23.09-.1,0,.3,0h0l0,0a2,2,0,0,1-.51.52h0Z"/><path class="cls-13" d="M41.64,35.75a1,1,0,0,1-.76.29c-.46,0-1.13-.29-1.32-.24a.37.37,0,0,1,.35-.28c.31,0,.76.24,1,.24Z"/><path d="M40.93,36.06h-.05a4.17,4.17,0,0,1-.76-.15,2.63,2.63,0,0,0-.5-.1h-.09v0a.39.39,0,0,1,.37-.3,1.58,1.58,0,0,1,.61.13,1.34,1.34,0,0,0,.38.1h.81l-.06,0h0A1.07,1.07,0,0,1,40.93,36.06Zm-1.31-.29a2.58,2.58,0,0,1,.51.1,4.42,4.42,0,0,0,.75.14h0a1,1,0,0,0,.65-.24H40.9a1.47,1.47,0,0,1-.4-.1,1.46,1.46,0,0,0-.59-.13.35.35,0,0,0-.32.23Z"/><path class="cls-13" d="M42.59,56.22l2.35,2.6s.45,0,.35.16a1.06,1.06,0,0,1-.13.2,1.67,1.67,0,0,1,.73-.17c.26,0,.45-.53.68-.47a1.18,1.18,0,0,0,.31.06s.42-.28.63-.16.19.63.19.63-.12-.21-.3-.13a1.53,1.53,0,0,0-.33.2s-.07.19.06.19h.23s-.24.3-.49.25-.37-.05-.45,0a.48.48,0,0,1-.39,0,1,1,0,0,0,.67.28c.42,0,.48.26.48.26s.56.14.43.36c0,0,0,.1-.14.07s.41.23.41.41a.64.64,0,0,1-.05.32l-.2.18s.08-.16,0-.22-.62-.36-.62-.36-.1.18-.23.19-.27,0-.27-.16,0-.32,0-.36-.5-.15-.57-.26-.48-.54-.48-.54a.82.82,0,0,0,.46.66c.4.14.51.2.51.32s0,.34,0,.36.28.06.29.14-.13.23-.13.25.13.18.13.18a1,1,0,0,1-.25.09c-.06,0,.18.85-.16,1a1.11,1.11,0,0,1-.51.13s.27-.17.21-.41-.12-.5-.12-.5,0,.08-.12,0a.9.9,0,0,1-.49-.47A12.75,12.75,0,0,0,45,60c-.09,0-.16,0-.22-.1s-.17-.31-.28-.22-.11.15-.28.19a2.81,2.81,0,0,1-.77,0c-.06,0-.24-.5-.36-.56a.66.66,0,0,0-.37,0,.65.65,0,0,1-.32-.19.41.41,0,0,0-.6.14s-.13-.71.57-.64c0,0,0-.16.3-.13a1.73,1.73,0,0,1,.58.26s.32.12.33.19.19,0,.19,0l-2.45-2.33-.18-.34A.76.76,0,0,1,42.59,56.22Z"/><path d="M45.84,62.95h-.08l.05,0s.26-.17.2-.38-.09-.36-.11-.45a.15.15,0,0,1-.12,0,.9.9,0,0,1-.5-.49c0-.08,0-.3-.08-.55a5.28,5.28,0,0,0-.18-1l-.08,0a.25.25,0,0,1-.14-.08l0-.06c0-.07-.11-.18-.17-.18h0l-.08.07a.34.34,0,0,1-.21.12,2,2,0,0,1-.35,0,1.77,1.77,0,0,1-.43,0s-.06-.08-.13-.21a1.21,1.21,0,0,0-.23-.36.38.38,0,0,0-.19,0h-.18a.64.64,0,0,1-.34-.21.35.35,0,0,0-.21-.06.39.39,0,0,0-.35.2l0,.06v-.06a.7.7,0,0,1,.11-.51.53.53,0,0,1,.47-.16.25.25,0,0,1,.25-.13h.07a1.74,1.74,0,0,1,.59.26c.08,0,.33.13.34.21s0,0,.09,0h0l-2.42-2.3-.18-.35h0s.28-.52.72-.52a1,1,0,0,1,.71.45L45,58.8c.06,0,.31,0,.37.11a.08.08,0,0,1,0,.09l-.09.14A1.79,1.79,0,0,1,45.8,59h.09c.12,0,.23-.11.33-.24s.19-.24.3-.24h0a1.31,1.31,0,0,0,.29.06,1.14,1.14,0,0,1,.52-.19.28.28,0,0,1,.14,0c.23.12.2.63.2.65v.07l0-.06s-.08-.14-.2-.14l-.07,0a1.48,1.48,0,0,0-.32.2s0,.1,0,.14,0,0,0,0h.28l0,0a.67.67,0,0,1-.44.26h-.07c-.25-.06-.35-.06-.43,0a.49.49,0,0,1-.26.06h-.05a1,1,0,0,0,.58.2c.38,0,.47.21.5.26s.38.11.44.26a.14.14,0,0,1,0,.13.11.11,0,0,1-.08.08c.12.08.35.24.35.39a.69.69,0,0,1-.06.34l-.2.17-.08.07,0-.1s.06-.16,0-.2S47.22,61,47,61s-.12.18-.23.19h-.1a.2.2,0,0,1-.15,0,.2.2,0,0,1,0-.14c0-.05,0-.1,0-.14s0-.18,0-.19l-.1,0a1.15,1.15,0,0,1-.47-.23c-.05-.08-.31-.36-.42-.48a.75.75,0,0,0,.43.56c.41.14.53.2.52.34s0,.06,0,.1,0,.22,0,.23h0c.15,0,.29.08.3.16a.44.44,0,0,1-.11.22l0,0a1.3,1.3,0,0,0,.12.16l0,0h0a1,1,0,0,1-.25.09.91.91,0,0,0,0,.16c0,.27.08.73-.18.84A1.31,1.31,0,0,1,45.84,62.95Zm.09-.94s.06.27.12.5a.4.4,0,0,1-.16.39,1.37,1.37,0,0,0,.44-.13c.23-.1.18-.55.15-.8s0-.18,0-.2h0a.76.76,0,0,0,.21-.08c-.12-.14-.11-.16-.11-.17l0-.05s.1-.14.1-.19-.09-.08-.26-.12h0c-.08,0-.07-.15-.06-.28s0-.07,0-.1-.09-.16-.49-.29a.83.83,0,0,1-.47-.68v-.07l0,.05s.41.44.48.54a1.3,1.3,0,0,0,.45.21l.11,0c.07,0,.06.12.05.24s0,.09,0,.14a.15.15,0,0,0,0,.11.16.16,0,0,0,.12,0h.1c.11,0,.21-.18.21-.18v0h0c.06,0,.57.3.63.36a.18.18,0,0,1,0,.16l.14-.12a.7.7,0,0,0,0-.31c0-.14-.29-.33-.4-.39l-.14-.08.15,0h0a.07.07,0,0,0,.08-.06h0a.1.1,0,0,0,0-.09c-.06-.14-.42-.23-.43-.23h0s-.06-.24-.46-.24a1,1,0,0,1-.69-.28l0,0a.26.26,0,0,0,.13,0,.46.46,0,0,0,.23-.05.28.28,0,0,1,.18-.05,1.41,1.41,0,0,1,.29,0h.06a.6.6,0,0,0,.38-.21h-.19a.1.1,0,0,1-.08,0c0-.06,0-.17,0-.18h0a1.46,1.46,0,0,1,.33-.2l.09,0a.27.27,0,0,1,.2.1c0-.14,0-.46-.18-.54a.24.24,0,0,0-.12,0,1.13,1.13,0,0,0-.5.19h0a1.31,1.31,0,0,1-.31-.06c-.1,0-.2.1-.3.22s-.23.28-.38.25H45.8a2,2,0,0,0-.64.17l-.11.05.09-.09a1.07,1.07,0,0,0,.13-.2.05.05,0,0,0,0,0c0-.06-.23-.08-.34-.08h0l-2.35-2.6a.92.92,0,0,0-.68-.43c-.38,0-.63.42-.67.49l.17.33L43.87,59h-.13c-.09,0-.13,0-.14-.07a.79.79,0,0,0-.32-.17h0a1.7,1.7,0,0,0-.58-.26h-.06a.2.2,0,0,0-.21.12v0h-.1a.46.46,0,0,0-.37.14.62.62,0,0,0-.11.42.43.43,0,0,1,.35-.17c.12,0,.24,0,.25.09a.67.67,0,0,0,.3.17h.18a.43.43,0,0,1,.21,0,1.13,1.13,0,0,1,.25.38,1,1,0,0,0,.11.19,1.79,1.79,0,0,0,.41,0l.34,0a.29.29,0,0,0,.19-.1l.08-.08.06,0c.08,0,.16.12.21.2l0,.06A.23.23,0,0,0,45,60L45,60c.06,0,.11.32.2,1,0,.25.06.47.08.55a.87.87,0,0,0,.47.46s.08,0,.09,0a0,0,0,0,0,0,0Z"/><path class="cls-12" d="M40.37,52.2a3.46,3.46,0,0,1,1.76.51,3.34,3.34,0,0,0,1.34.82c.2,0,.2.47-.65.5s-.38,0-.38,0,1,1,.65,1.06a3.54,3.54,0,0,1-.93,0s.81,1,.42,1.12a2.74,2.74,0,0,1-1-.14s-.29,1.34-.76,1.14-.48-.92-.48-.92-.45.68-.75.72-.36-.58-.36-.58-.43.48-.66.39a.38.38,0,0,1-.25-.29Z"/><path d="M40.87,57.27l-.1,0a1,1,0,0,1-.49-.87c-.12.16-.46.63-.73.67s-.36-.4-.38-.55c-.1.1-.38.37-.58.37h-.07a.4.4,0,0,1-.26-.31h0l2.11-4.36h0a3.41,3.41,0,0,1,1.78.52,3.37,3.37,0,0,0,1.32.81.14.14,0,0,1,.13.15c0,.14-.17.37-.79.4h-.31c.21.22.74.78.68,1a.1.1,0,0,1-.09.07,2,2,0,0,1-.41,0,4.67,4.67,0,0,1-.48,0c.13.17.58.79.49,1a.14.14,0,0,1-.11.09l-.2,0a3.21,3.21,0,0,1-.83-.15c0,.17-.28,1.16-.68,1.16Zm-.56-1v.07s0,.71.47.9l.09,0c.39,0,.64-1.13.64-1.14v0h0a3.25,3.25,0,0,0,.84.15l.19,0a.1.1,0,0,0,.08-.06c.07-.2-.35-.81-.51-1l0,0h.05a4.77,4.77,0,0,0,.53,0,2,2,0,0,0,.4,0s.05,0,.06,0-.42-.68-.7-1h-.11s-.05,0-.05,0,0,0,.15,0h.38c.58,0,.74-.24.74-.35a.1.1,0,0,0-.09-.11,3.31,3.31,0,0,1-1.35-.83,3.38,3.38,0,0,0-1.73-.5l-2.09,4.32a.36.36,0,0,0,.24.26h.06c.22,0,.58-.39.58-.39l0,0v.05s.06.56.31.56h0c.29,0,.73-.7.73-.71Z"/><path class="cls-15" d="M38.56,34.22h0a3.86,3.86,0,0,0,.58-.09h0c.08-.05-.12.61.63.52h0a2,2,0,0,0,.5-.51s-.42,0-.33-.06.21-.07.35-.14a4.05,4.05,0,0,0-1.14,0A4.15,4.15,0,0,1,38.56,34.22Z"/><path d="M39.7,34.67a.44.44,0,0,1-.5-.48.27.27,0,0,0,0,0h0a3.85,3.85,0,0,1-.58.1h-.05l-.19,0h.2a4.08,4.08,0,0,0,.65-.24,1.67,1.67,0,0,1,.58-.07c.29,0,.56,0,.57,0h.08l-.07,0-.24.09-.1,0,.3,0h0l0,0a2,2,0,0,1-.51.52H39.7Zm-.49-.58s0,0,0,.09a.4.4,0,0,0,.45.44h.12a2,2,0,0,0,.47-.47c-.3,0-.31,0-.32-.06a0,0,0,0,1,0,0l.12,0,.15-.05-.48,0a1.71,1.71,0,0,0-.56.06l-.47.19a2.38,2.38,0,0,0,.42-.08h0Z"/><path class="cls-12" d="M39.83,34.6s-.43,0-.48-.25a1.14,1.14,0,0,0,0-.23h.12s0,.39.57.35Z"/><path class="cls-15" d="M30.28,34.22h0a3.83,3.83,0,0,1-.58-.09h0c-.07-.05.13.61-.62.52h0a2,2,0,0,1-.5-.51s.42,0,.33-.06-.21-.07-.35-.14a4.06,4.06,0,0,1,1.14,0A4.08,4.08,0,0,0,30.28,34.22Z"/><path d="M29.15,34.67H29a2,2,0,0,1-.51-.51l0,0h0l.3,0-.1,0L28.47,34l-.07,0h.08s.29,0,.57,0a1.68,1.68,0,0,1,.58.07,4,4,0,0,0,.65.24h.19l-.19,0h0a3.81,3.81,0,0,1-.59-.1h0a.26.26,0,0,0,0,0A.44.44,0,0,1,29.15,34.67ZM29,34.62h.12a.4.4,0,0,0,.45-.44c0-.05,0-.09,0-.09h0a2.32,2.32,0,0,0,.42.08L29.62,34a1.71,1.71,0,0,0-.56-.06l-.48,0,.15.05.12,0a0,0,0,0,1,0,0s0,.05-.32.06A2,2,0,0,0,29,34.62Z"/><path class="cls-12" d="M29,34.6s.43,0,.48-.25a1.13,1.13,0,0,1,0-.23h-.12s0,.39-.57.35Z"/><path class="cls-10" d="M34.42,42.72h-6.1v9.13s.66,6.3,6.1,6.3,6.1-6.3,6.1-6.3V42.72Z"/><path class="cls-16" d="M28.24,42.63v9.22c0,.05.52,4.52,3.91,5.94a1.24,1.24,0,0,0,.23.09l.2.08a6,6,0,0,0,1.8.27h0A5.91,5.91,0,0,0,36.26,58l.2-.08.23-.09c3.4-1.42,3.9-5.89,3.91-5.95V42.63ZM35.53,58a5.53,5.53,0,0,1-1.11.11h0A5.25,5.25,0,0,1,33.31,58a2.46,2.46,0,0,1-.36-.08l-.33-.09c-3.67-1.2-4.21-5.9-4.21-5.95v-9h12v9c0,.05-.55,4.76-4.22,6l-.33.09A2.4,2.4,0,0,1,35.53,58Z"/><rect class="cls-7" x="33.55" y="42.8" width="1.87" height="15.43"/><rect class="cls-7" x="28.41" y="48.81" width="12.04" height="1.87"/><path class="cls-7" d="M30.55,44.86c-.14.07-.1.2-.26.26s-.46,0-.38-.33.5-.34.72-.31,1.12.14,1.19.18a.63.63,0,0,1,.38.54c0,.39,0,1.91,0,1.91s0,.27-.45.37a6.92,6.92,0,0,1-1.47.2.39.39,0,0,1-.38-.33.29.29,0,0,1,.29-.34s.24,0,.31.28c0,0,.28.1.31-.17a2.16,2.16,0,0,0,0-.52s-.28-.32-.28-.42,0-.25,0-.26.25-.22.26-.31S30.82,44.71,30.55,44.86Z"/><path d="M30.36,47.7h-.1a.41.41,0,0,1-.39-.35.34.34,0,0,1,.07-.27.3.3,0,0,1,.23-.1s.25,0,.33.29h.09c.1,0,.16-.06.17-.17a2.56,2.56,0,0,0,0-.51s-.28-.32-.28-.43v-.05c0-.17,0-.22,0-.23s.24-.21.25-.3a1.4,1.4,0,0,0-.11-.7.08.08,0,0,0-.11,0,.27.27,0,0,0-.11.11.28.28,0,0,1-.16.15l-.1,0a.35.35,0,0,1-.27-.11.29.29,0,0,1,0-.26c.06-.28.35-.34.58-.34h.17s1.12.14,1.19.18l0,0a.64.64,0,0,1,.36.54c0,.39,0,1.89,0,1.91s0,.29-.47.39A8.76,8.76,0,0,1,30.36,47.7ZM30.21,47h0a.26.26,0,0,0-.21.09.29.29,0,0,0-.06.23.37.37,0,0,0,.36.31h.09a8.55,8.55,0,0,0,1.37-.21c.41-.1.43-.34.43-.35s0-1.52,0-1.9a.59.59,0,0,0-.34-.5l0,0c-.06,0-1-.15-1.18-.18h-.16c-.22,0-.48.05-.54.3A.25.25,0,0,0,30,45a.31.31,0,0,0,.23.1h.09a.24.24,0,0,0,.14-.13.32.32,0,0,1,.12-.13.13.13,0,0,1,.17,0c.14.15.13.67.13.74s-.23.3-.27.33a.88.88,0,0,0,0,.19v.05c0,.09.24.37.27.4a1.86,1.86,0,0,1,0,.54.21.21,0,0,1-.22.21h0a.33.33,0,0,1-.12,0h0C30.42,47,30.27,47,30.21,47Z"/><path class="cls-7" d="M31.2,45a.53.53,0,0,1,.06.19c0,.09,0,.73-.21.84a.77.77,0,0,1,.17.29c0,.12.07.69,0,.75s0,0,.14,0,.5,0,.52-.33,0-1.5,0-1.5,0-.22-.19-.26A2.4,2.4,0,0,0,31.2,45Z"/><path d="M31.42,47.15h-.09c-.15,0-.16,0-.17,0a0,0,0,0,1,0,0s.08-.09,0-.71h0a.72.72,0,0,0-.16-.28l0,0h0c.22-.1.2-.74.2-.81a.49.49,0,0,0-.06-.18l0,0h.22l.28,0c.18,0,.21.26.21.27s0,1.17,0,1.5S31.71,47.15,31.42,47.15Zm-.2-.06h.2c.27,0,.4-.1.41-.31s0-1.49,0-1.5,0-.2-.17-.23l-.28,0h-.15a.5.5,0,0,1,.05.17c0,.12,0,.7-.2.84a.67.67,0,0,1,.16.28h0C31.29,46.89,31.26,47,31.22,47.09Z"/><path class="cls-7" d="M38.36,44.86c.14.08.1.2.26.26s.45,0,.38-.33-.5-.34-.72-.31-1.12.14-1.18.18a.63.63,0,0,0-.38.54c0,.39,0,1.91,0,1.91s0,.27.45.37a7,7,0,0,0,1.47.2.39.39,0,0,0,.38-.33.29.29,0,0,0-.29-.34s-.24,0-.31.28c0,0-.28.1-.31-.17a2.07,2.07,0,0,1,0-.52s.28-.32.28-.42,0-.25,0-.26-.25-.22-.26-.31S38.09,44.71,38.36,44.86Z"/><path d="M38.55,47.7a8.76,8.76,0,0,1-1.38-.21c-.45-.1-.47-.38-.47-.39s0-1.52,0-1.91a.64.64,0,0,1,.36-.54l0,0c.07,0,1.18-.18,1.19-.18h.17c.23,0,.52.06.58.34A.3.3,0,0,1,39,45a.36.36,0,0,1-.27.11l-.1,0a.3.3,0,0,1-.16-.15.25.25,0,0,0-.1-.11.08.08,0,0,0-.11,0,1.42,1.42,0,0,0-.12.7c0,.08.22.28.25.3s0,.05,0,.22v.05c0,.11-.25.4-.28.43a2.59,2.59,0,0,0,0,.51c0,.11.07.17.17.17h.09c.06-.26.23-.29.3-.29h0a.3.3,0,0,1,.23.1.34.34,0,0,1,.07.27.41.41,0,0,1-.39.35Zm-.1-3.21h-.16c-.21,0-1.12.14-1.18.18l0,0a.59.59,0,0,0-.34.5c0,.39,0,1.89,0,1.91s0,.25.43.35a8.54,8.54,0,0,0,1.37.21h.09a.37.37,0,0,0,.36-.31.29.29,0,0,0-.06-.23.25.25,0,0,0-.2-.09h0c-.06,0-.21,0-.26.27h0a.33.33,0,0,1-.12,0,.21.21,0,0,1-.22-.21,1.86,1.86,0,0,1,0-.54s.27-.32.27-.4v-.05a.83.83,0,0,0,0-.19s-.26-.23-.27-.33,0-.59.13-.74a.13.13,0,0,1,.17,0,.32.32,0,0,1,.12.13.24.24,0,0,0,.14.13h.09a.31.31,0,0,0,.23-.1.26.26,0,0,0,0-.22C38.93,44.54,38.66,44.49,38.44,44.49Z"/><path class="cls-7" d="M37.71,45a.52.52,0,0,0-.06.19c0,.09,0,.73.21.84a.77.77,0,0,0-.17.29c0,.12-.07.69,0,.75s0,0-.14,0-.5,0-.52-.33,0-1.5,0-1.5,0-.22.19-.26A2.4,2.4,0,0,1,37.71,45Z"/><path d="M37.48,47.15c-.29,0-.44-.12-.45-.35s0-1.49,0-1.5,0-.24.21-.28l.29,0h.22l0,0a.44.44,0,0,0-.06.18c0,.07,0,.71.2.81h0l0,0a.72.72,0,0,0-.16.28h0c-.06.62,0,.7,0,.71a0,0,0,0,1,0,0s0,0-.17,0Zm0-2.11-.28,0c-.15,0-.17.23-.17.24s0,1.17,0,1.5.14.31.4.31h.2s-.07-.2,0-.74h0a.7.7,0,0,1,.15-.28c-.22-.14-.2-.72-.2-.84a.51.51,0,0,1,0-.17Z"/><path class="cls-7" d="M30.55,51.91c-.14.08-.1.2-.26.26s-.46,0-.38-.33.5-.33.72-.31,1.12.14,1.19.18a.63.63,0,0,1,.38.53c0,.39,0,1.91,0,1.91s0,.27-.45.37a6.9,6.9,0,0,1-1.47.2.39.39,0,0,1-.38-.33.29.29,0,0,1,.29-.34s.24,0,.31.29c0,0,.28.1.31-.17a2.13,2.13,0,0,0,0-.52s-.28-.32-.28-.42,0-.25,0-.26.25-.22.26-.32S30.82,51.75,30.55,51.91Z"/><path d="M30.36,54.75h-.1a.41.41,0,0,1-.39-.35.33.33,0,0,1,.07-.27.3.3,0,0,1,.23-.1s.25,0,.33.29h.09c.1,0,.16-.06.17-.17a2.56,2.56,0,0,0,0-.51s-.28-.32-.28-.43v-.05c0-.17,0-.21,0-.22s.24-.21.25-.3a1.41,1.41,0,0,0-.11-.7.09.09,0,0,0-.11,0,.29.29,0,0,0-.11.12.27.27,0,0,1-.16.15l-.1,0a.35.35,0,0,1-.27-.11.3.3,0,0,1,0-.26c.06-.28.35-.34.58-.34h.17s1.12.14,1.19.18l0,0a.63.63,0,0,1,.36.54c0,.39,0,1.9,0,1.91s0,.29-.47.39A8.65,8.65,0,0,1,30.36,54.75Zm-.15-.68h0a.26.26,0,0,0-.21.09.29.29,0,0,0-.06.23.37.37,0,0,0,.36.31h.09a8.56,8.56,0,0,0,1.37-.21c.41-.1.43-.34.43-.35s0-1.52,0-1.91a.59.59,0,0,0-.34-.5l0,0c-.06,0-1-.15-1.18-.18h-.16c-.22,0-.48.05-.54.3a.26.26,0,0,0,0,.22.31.31,0,0,0,.23.1h.09a.24.24,0,0,0,.14-.13.3.3,0,0,1,.12-.13.12.12,0,0,1,.17,0c.14.15.13.67.13.74s-.23.3-.27.33a.87.87,0,0,0,0,.18v.05c0,.08.24.37.27.4a1.86,1.86,0,0,1,0,.54.21.21,0,0,1-.22.21h0a.38.38,0,0,1-.12,0h0C30.42,54.09,30.27,54.06,30.21,54.06Z"/><path class="cls-7" d="M31.2,52.07a.53.53,0,0,1,.06.19c0,.09,0,.73-.21.83a.77.77,0,0,1,.17.29c0,.12.07.69,0,.74s0,0,.14,0,.5,0,.52-.33,0-1.5,0-1.5,0-.22-.19-.25A2.37,2.37,0,0,0,31.2,52.07Z"/><path d="M31.42,54.19h-.09c-.15,0-.16,0-.17,0a0,0,0,0,1,0,0s.08-.09,0-.71h0a.76.76,0,0,0-.16-.28l0,0h0c.22-.1.2-.74.2-.81a.51.51,0,0,0-.06-.18l0,0h.22l.28,0c.18,0,.21.26.21.27s0,1.18,0,1.5S31.71,54.19,31.42,54.19Zm-.2-.06h.2c.27,0,.4-.1.41-.31s0-1.49,0-1.5,0-.2-.17-.23l-.28,0h-.15a.5.5,0,0,1,.05.17c0,.12,0,.7-.2.84a.66.66,0,0,1,.16.28h0C31.29,53.93,31.26,54.09,31.22,54.13Z"/><path class="cls-7" d="M38.36,51.91c.14.08.1.2.26.26s.45,0,.38-.33-.5-.33-.72-.31-1.12.14-1.18.18a.63.63,0,0,0-.38.53c0,.39,0,1.91,0,1.91s0,.27.45.37a6.8,6.8,0,0,0,1.47.2.39.39,0,0,0,.38-.33.29.29,0,0,0-.29-.34s-.24,0-.31.29c0,0-.28.1-.31-.17a2,2,0,0,1,0-.52s.28-.32.28-.42,0-.25,0-.26-.25-.22-.26-.32S38.09,51.75,38.36,51.91Z"/><path d="M38.55,54.75a8.65,8.65,0,0,1-1.38-.21c-.45-.1-.47-.38-.47-.39s0-1.52,0-1.91a.63.63,0,0,1,.36-.54l0,0c.07,0,1.18-.18,1.19-.18h.17c.23,0,.52.06.58.34a.3.3,0,0,1,0,.26.35.35,0,0,1-.27.11l-.1,0a.28.28,0,0,1-.16-.15.28.28,0,0,0-.1-.12.08.08,0,0,0-.11,0,1.42,1.42,0,0,0-.12.7c0,.08.22.28.25.3s0,.06,0,.22v.05c0,.11-.25.4-.28.43a2.59,2.59,0,0,0,0,.51c0,.11.07.17.17.17h.09c.06-.26.23-.29.3-.29h0a.29.29,0,0,1,.23.1.33.33,0,0,1,.07.27.41.41,0,0,1-.39.35Zm-.1-3.21h-.16c-.21,0-1.12.14-1.18.18l0,0a.59.59,0,0,0-.34.5c0,.39,0,1.89,0,1.91s0,.25.43.35a8.55,8.55,0,0,0,1.37.21h.09a.37.37,0,0,0,.36-.31.29.29,0,0,0-.06-.23.26.26,0,0,0-.2-.09h0c-.06,0-.21,0-.26.27h0a.38.38,0,0,1-.12,0,.21.21,0,0,1-.22-.21,1.86,1.86,0,0,1,0-.54s.27-.32.27-.4v-.05a.83.83,0,0,0,0-.18s-.26-.23-.27-.33,0-.59.13-.74a.12.12,0,0,1,.17,0,.31.31,0,0,1,.12.13.24.24,0,0,0,.14.13h.09a.31.31,0,0,0,.23-.1.27.27,0,0,0,0-.22C38.93,51.59,38.66,51.54,38.44,51.54Z"/><path class="cls-7" d="M37.71,52.07a.52.52,0,0,0-.06.19c0,.09,0,.73.21.83a.75.75,0,0,0-.17.29c0,.12-.07.69,0,.74s0,0-.14,0-.5,0-.52-.33,0-1.5,0-1.5,0-.22.19-.25A2.37,2.37,0,0,1,37.71,52.07Z"/><path d="M37.48,54.19c-.29,0-.44-.12-.45-.35s0-1.49,0-1.5,0-.24.21-.28l.29,0h.22l0,0a.47.47,0,0,0-.06.18c0,.07,0,.71.2.81h0l0,0a.75.75,0,0,0-.16.28h0c-.06.62,0,.7,0,.71a0,0,0,0,1,0,0s0,0-.17,0Zm0-2.1-.28,0c-.15,0-.17.23-.17.24s0,1.17,0,1.5.14.31.4.31h.2s-.07-.2,0-.74h0a.69.69,0,0,1,.15-.28c-.22-.14-.2-.72-.2-.84a.5.5,0,0,1,0-.17Z"/><path class="cls-17" d="M45.46,21.17a5.47,5.47,0,0,0-3.37-1.35s-1.8-2.51-6.6-1.6l-1.06,0h0l-1.06,0c-4.8-.91-6.6,1.6-6.6,1.6a5.46,5.46,0,0,0-3.37,1.35c-1.4,1.33.64,4,.64,4l1,.29a4.44,4.44,0,0,1,.3-.68.63.63,0,0,0,.14-.38c0-.14-1-1.15-1.19-1.56s.08-.88.32-1.24a5,5,0,0,1,1.59-.82A4.15,4.15,0,0,0,26,22.46a3.28,3.28,0,0,0,.78,1.76,10.31,10.31,0,0,0,1.4.21l1.07,0a1.42,1.42,0,0,1-.07-.53c0-.18.42-.69.49-.87s-1-.94-1.15-2a1.36,1.36,0,0,1,1.06-1.69A11.28,11.28,0,0,1,33,19.07s0,1.62,0,2-.28,1.16-.29,1.36.77.5.77.5l.92.22h0l.92-.22s.78-.29.77-.5a13.82,13.82,0,0,1-.29-1.36c0-.37,0-2,0-2a11.27,11.27,0,0,1,3.42.22A1.36,1.36,0,0,1,40.29,21c-.14,1.09-1.21,1.84-1.15,2s.45.69.49.87a1.39,1.39,0,0,1-.07.53l1.07,0a10.29,10.29,0,0,0,1.4-.21,3.28,3.28,0,0,0,.78-1.76,4.17,4.17,0,0,0-.14-1.65,5,5,0,0,1,1.59.82c.24.36.51.83.32,1.24s-1.2,1.41-1.18,1.56a.63.63,0,0,0,.13.38,4.39,4.39,0,0,1,.3.68l1-.29S46.85,22.5,45.46,21.17Z"/><path d="M43.83,25.51v0a4.42,4.42,0,0,0-.3-.67.64.64,0,0,1-.14-.39c0-.08.17-.29.5-.67a5.9,5.9,0,0,0,.69-.9c.18-.38-.06-.83-.32-1.22a4.55,4.55,0,0,0-1.53-.79,4.61,4.61,0,0,1,.11,1.62,3.26,3.26,0,0,1-.8,1.78,10,10,0,0,1-1.41.21l-1.1,0v0a1.38,1.38,0,0,0,.07-.52,2.43,2.43,0,0,0-.26-.48,2.89,2.89,0,0,1-.22-.39c0-.08.08-.2.26-.41A3.26,3.26,0,0,0,40.27,21a1.33,1.33,0,0,0-1-1.67A7.39,7.39,0,0,0,37,19.05c-.58,0-1.07,0-1.17,0,0,.19,0,1.63,0,2A4.69,4.69,0,0,0,36,22a3.78,3.78,0,0,1,.11.45c0,.22-.7.49-.78.52l-.93.22h0L33.48,23c-.08,0-.8-.3-.78-.52a3.7,3.7,0,0,1,.1-.45,4.68,4.68,0,0,0,.19-.91c0-.35,0-1.79,0-2-.1,0-.59,0-1.17,0a7.39,7.39,0,0,0-2.21.26,1.33,1.33,0,0,0-1,1.67,3.26,3.26,0,0,0,.89,1.63c.18.21.29.33.26.41a2.79,2.79,0,0,1-.22.39,2.33,2.33,0,0,0-.26.48,1.33,1.33,0,0,0,.07.52v0l-1.1,0a10,10,0,0,1-1.41-.21A3.28,3.28,0,0,1,26,22.47a4.57,4.57,0,0,1,.11-1.62,4.6,4.6,0,0,0-1.53.79c-.26.39-.5.83-.32,1.22a5.92,5.92,0,0,0,.69.9c.32.37.5.59.5.67a.66.66,0,0,1-.14.39,4.51,4.51,0,0,0-.3.67v0l-1-.3h0s-2-2.72-.64-4a5.52,5.52,0,0,1,3.37-1.36A5.74,5.74,0,0,1,31.34,18a10.69,10.69,0,0,1,2,.2l1,0h.06l1,0a10.77,10.77,0,0,1,2-.2,5.74,5.74,0,0,1,4.61,1.8,5.53,5.53,0,0,1,3.37,1.36c1.39,1.33-.62,4-.64,4h0Zm-1.21-4.74.06,0a4.88,4.88,0,0,1,1.61.83,1.37,1.37,0,0,1,.32,1.26,5.7,5.7,0,0,1-.7.91,3.1,3.1,0,0,0-.48.63.59.59,0,0,0,.13.36,3.93,3.93,0,0,1,.3.66l.95-.28c.1-.14,2-2.71.64-4a5.49,5.49,0,0,0-3.35-1.34h0S40.75,18,37.49,18a10.92,10.92,0,0,0-2,.2l-1.08,0h0l-1.06,0a11,11,0,0,0-2-.2c-3.26,0-4.57,1.77-4.59,1.79h0a5.48,5.48,0,0,0-3.35,1.34c-1.34,1.27.54,3.84.64,4l.95.28a3.88,3.88,0,0,1,.3-.66.59.59,0,0,0,.13-.36,3.25,3.25,0,0,0-.48-.63,5.72,5.72,0,0,1-.7-.91,1.37,1.37,0,0,1,.32-1.26,4.89,4.89,0,0,1,1.61-.83l.06,0,0,.05A4.25,4.25,0,0,0,26,22.46a3.33,3.33,0,0,0,.77,1.75,10.34,10.34,0,0,0,1.39.21l1,0a1.27,1.27,0,0,1-.06-.51,2.38,2.38,0,0,1,.27-.49,2.82,2.82,0,0,0,.22-.38s-.11-.2-.25-.36a3.31,3.31,0,0,1-.9-1.65,1.38,1.38,0,0,1,1.07-1.72A7.5,7.5,0,0,1,31.82,19c.66,0,1.19,0,1.2,0h0v0s0,1.62,0,2a4.65,4.65,0,0,1-.19.92,3.18,3.18,0,0,0-.1.44c0,.16.54.39.75.47l.92.22h0l.92-.22c.21-.08.76-.32.75-.47A3.62,3.62,0,0,0,36,22a4.73,4.73,0,0,1-.19-.92c0-.37,0-2,0-2v0h0s.53,0,1.19,0a7.49,7.49,0,0,1,2.23.26A1.38,1.38,0,0,1,40.31,21a3.3,3.3,0,0,1-.9,1.65c-.14.17-.27.31-.25.36a3,3,0,0,0,.22.38,2.53,2.53,0,0,1,.27.49,1.26,1.26,0,0,1-.06.51l1,0A10.36,10.36,0,0,0,42,24.21a3.34,3.34,0,0,0,.77-1.75,4.27,4.27,0,0,0-.14-1.64Z"/><path d="M25,24.82a.21.21,0,0,1-.16-.08,3.49,3.49,0,0,1-.41-.51l-.06-.1a4,4,0,0,1-.63-1.39,1.83,1.83,0,0,1,1.35-2l1.53-.58h0v0a15.85,15.85,0,0,0-.12,1.72,3,3,0,0,0,.82,1.95s.08.09,0,.17-.11.09-.26.09h-.06c-.06,0-.2,0-.34-.24a3.74,3.74,0,0,1-.55-1.61,10.87,10.87,0,0,1,.11-1.66,11.26,11.26,0,0,0-1.51.68A1.54,1.54,0,0,0,24,22.38a1.71,1.71,0,0,0,.21.91,12.22,12.22,0,0,0,.89,1.16.23.23,0,0,1,0,.24A.2.2,0,0,1,25,24.82Zm1.61-4.6-1.5.56a1.79,1.79,0,0,0-1.33,1.94,4,4,0,0,0,.62,1.37l.07.1a3.61,3.61,0,0,0,.41.51.18.18,0,0,0,.12.06.16.16,0,0,0,.13-.1.19.19,0,0,0,0-.2,13.09,13.09,0,0,1-.89-1.17,1.77,1.77,0,0,1-.21-.94,1.58,1.58,0,0,1,.78-1.11,11.41,11.41,0,0,1,1.55-.7h0v0a11.47,11.47,0,0,0-.11,1.68,3.72,3.72,0,0,0,.54,1.6c.13.2.26.21.3.21h.06c.15,0,.2,0,.22-.06s0-.11,0-.12a3.07,3.07,0,0,1-.83-2A14.63,14.63,0,0,1,26.58,20.22Z"/><path d="M28.88,23.43c-.36,0-1.21-1.75-1.3-2.54a1.77,1.77,0,0,1,.8-1.81,4,4,0,0,1,2.1-.54h.08c.52,0,2.59.13,2.61.13h0V19h0s-1.39-.1-2.52-.1a7,7,0,0,0-1.25.08,1.77,1.77,0,0,0-1.49,1.61c-.08.8,1,2.33,1.16,2.48a.31.31,0,0,1,.07.3C29.11,23.37,29,23.43,28.88,23.43Zm1.68-4.85h-.08a4,4,0,0,0-2.08.53,1.73,1.73,0,0,0-.78,1.77c.1.82.94,2.51,1.26,2.51.11,0,.18,0,.21-.09A.26.26,0,0,0,29,23c-.15-.17-1.26-1.69-1.17-2.51a1.81,1.81,0,0,1,1.52-1.65,7.17,7.17,0,0,1,1.26-.08c1.05,0,2.31.09,2.5.1v-.19C32.93,18.7,31,18.58,30.56,18.58Z"/><path d="M33.13,22.49h0a.42.42,0,0,1-.17,0c-.1,0,0-.35.14-.94,0-.11.06-.21.07-.26s0-3,0-3v0l.36,0v3.29s-.16.61-.17.81A.18.18,0,0,1,33.13,22.49Zm.06-4.22c0,.28.07,2.81,0,3s0,.14-.07.26-.25.85-.17.88a.36.36,0,0,0,.15,0c.09,0,.14,0,.15-.15a7.66,7.66,0,0,1,.17-.82V18.25Z"/><path d="M43.86,24.79a.2.2,0,0,1-.17-.13.23.23,0,0,1,0-.24,12.4,12.4,0,0,0,.89-1.17,1.72,1.72,0,0,0,.21-.91,1.54,1.54,0,0,0-.75-1.08,11.13,11.13,0,0,0-1.51-.68,11.14,11.14,0,0,1,.11,1.66,3.76,3.76,0,0,1-.55,1.62c-.14.21-.28.24-.34.24h-.06c-.15,0-.23,0-.26-.09s0-.17,0-.17a3,3,0,0,0,.82-1.95,15.66,15.66,0,0,0-.12-1.72v0h0l1.53.58a1.83,1.83,0,0,1,1.35,2,4,4,0,0,1-.62,1.39l-.06.1a3.52,3.52,0,0,1-.41.52A.23.23,0,0,1,43.86,24.79Zm-1.37-4.28h0a11.07,11.07,0,0,1,1.55.7,1.58,1.58,0,0,1,.78,1.11,1.75,1.75,0,0,1-.21.94,12.18,12.18,0,0,1-.9,1.17.2.2,0,0,0,0,.2.15.15,0,0,0,.13.1.18.18,0,0,0,.12-.07,3.39,3.39,0,0,0,.41-.5l.06-.11a4,4,0,0,0,.62-1.37,1.79,1.79,0,0,0-1.33-1.94l-1.5-.56a15.15,15.15,0,0,1,.12,1.69,3.06,3.06,0,0,1-.83,2s-.06.08,0,.12.07.07.25.06h0s.17,0,.3-.22a3.67,3.67,0,0,0,.54-1.59,11.55,11.55,0,0,0-.11-1.68Z"/><path d="M39.94,23.41c-.16,0-.23-.06-.25-.12a.32.32,0,0,1,.07-.3c.13-.15,1.24-1.68,1.16-2.47a1.77,1.77,0,0,0-1.49-1.61,6.94,6.94,0,0,0-1.25-.08c-1.14,0-2.51.1-2.52.1h0v-.29h0s2.1-.13,2.61-.13h.08a4,4,0,0,1,2.1.53,1.77,1.77,0,0,1,.8,1.82C41.15,21.65,40.31,23.41,39.94,23.41Zm-1.76-4.62a7,7,0,0,1,1.26.08A1.81,1.81,0,0,1,41,20.51c.09.82-1,2.33-1.17,2.51a.27.27,0,0,0-.06.25c0,.06.1.09.21.09.31,0,1.16-1.68,1.26-2.51a1.73,1.73,0,0,0-.78-1.77,4,4,0,0,0-2.08-.53h-.08c-.49,0-2.37.12-2.59.13v.19C35.87,18.87,37.13,18.78,38.18,18.78Z"/><path d="M35.7,22.46a.18.18,0,0,1-.19-.19,7.91,7.91,0,0,0-.17-.81h0V18.17l.36,0v0s-.07,2.82,0,3,0,.14.07.26c.17.59.24.89.14.94A.42.42,0,0,1,35.7,22.46Zm-.32-1a7.86,7.86,0,0,1,.17.82.14.14,0,0,0,.15.15.35.35,0,0,0,.15,0c.08,0-.1-.63-.17-.89s-.06-.21-.07-.26,0-2.71,0-3l-.27,0Z"/><circle class="cls-7" cx="34.41" cy="19.21" r="0.48"/><path d="M34.4,19.71a.5.5,0,1,1,.51-.5A.5.5,0,0,1,34.4,19.71Zm0-1a.46.46,0,1,0,.46.46A.46.46,0,0,0,34.4,18.75Z"/><circle class="cls-7" cx="34.41" cy="20.14" r="0.52"/><path d="M34.4,20.69a.55.55,0,1,1,.55-.55A.55.55,0,0,1,34.4,20.69Zm0-1.05a.5.5,0,1,0,.5.5A.5.5,0,0,0,34.4,19.64Z"/><circle class="cls-7" cx="34.45" cy="21.07" r="0.53"/><path d="M34.45,21.62a.55.55,0,1,1,.55-.55A.55.55,0,0,1,34.45,21.62Zm0-1a.5.5,0,1,0,.5.5A.5.5,0,0,0,34.45,20.57Z"/><circle class="cls-7" cx="34.45" cy="22.01" r="0.53"/><path d="M34.45,22.55A.55.55,0,1,1,35,22,.55.55,0,0,1,34.45,22.55Zm0-1a.5.5,0,1,0,.5.5A.5.5,0,0,0,34.45,21.5Z"/><circle class="cls-7" cx="30.65" cy="17.96" r="0.53"/><path d="M30.65,18.5A.55.55,0,1,1,31.2,18,.55.55,0,0,1,30.65,18.5Zm0-1.05a.5.5,0,1,0,.5.5A.5.5,0,0,0,30.65,17.45Z"/><circle class="cls-7" cx="29.6" cy="18.04" r="0.53"/><path d="M29.6,18.58a.55.55,0,1,1,.55-.55A.55.55,0,0,1,29.6,18.58Zm0-1a.5.5,0,1,0,.5.5A.5.5,0,0,0,29.6,17.53Z"/><circle class="cls-7" cx="28.67" cy="18.24" r="0.53"/><path d="M28.67,18.79a.55.55,0,1,1,.55-.55A.55.55,0,0,1,28.67,18.79Zm0-1.05a.5.5,0,1,0,.5.5A.5.5,0,0,0,28.67,17.74Z"/><circle class="cls-7" cx="27.8" cy="18.76" r="0.53"/><path d="M27.8,19.31a.55.55,0,1,1,.55-.55A.55.55,0,0,1,27.8,19.31Zm0-1a.5.5,0,1,0,.5.5A.5.5,0,0,0,27.8,18.26Z"/><circle class="cls-7" cx="27.08" cy="19.53" r="0.53"/><path d="M27.08,20.08a.55.55,0,1,1,.55-.55A.55.55,0,0,1,27.08,20.08Zm0-1a.5.5,0,1,0,.5.5A.5.5,0,0,0,27.08,19Z"/><circle class="cls-7" cx="26.94" cy="20.58" r="0.53"/><path d="M26.94,21.13a.55.55,0,1,1,.55-.55A.55.55,0,0,1,26.94,21.13Zm0-1.05a.5.5,0,1,0,.5.5A.5.5,0,0,0,26.94,20.08Z"/><circle class="cls-7" cx="27.01" cy="21.54" r="0.53"/><path d="M27,22.09a.55.55,0,1,1,.55-.55A.55.55,0,0,1,27,22.09ZM27,21a.5.5,0,1,0,.5.5A.5.5,0,0,0,27,21Z"/><circle class="cls-7" cx="27.36" cy="22.48" r="0.53"/><path d="M27.36,23a.55.55,0,1,1,.55-.55A.55.55,0,0,1,27.36,23Zm0-1a.5.5,0,1,0,.5.5A.5.5,0,0,0,27.36,22Z"/><circle class="cls-7" cx="27.8" cy="23.35" r="0.53"/><path d="M27.8,23.9a.55.55,0,1,1,.55-.55A.55.55,0,0,1,27.8,23.9Zm0-1.05a.5.5,0,1,0,.5.5A.5.5,0,0,0,27.8,22.84Z"/><circle class="cls-7" cx="32.66" cy="18.08" r="0.48"/><path d="M32.66,18.58a.5.5,0,1,1,.5-.5A.5.5,0,0,1,32.66,18.58Zm0-1a.46.46,0,1,0,.46.46A.46.46,0,0,0,32.66,17.62Z"/><circle class="cls-7" cx="31.65" cy="18.04" r="0.53"/><path d="M31.65,18.58A.55.55,0,1,1,32.2,18,.55.55,0,0,1,31.65,18.58Zm0-1a.5.5,0,1,0,.5.5A.5.5,0,0,0,31.65,17.53Z"/><path class="cls-17" d="M45.88,25.08c-.45-.43-1.27,0-1.27,0s0-.14-.36-.14-.36.44-.36.44-.15-.62-.91-.28a.81.81,0,0,0-.44,1.2c.14.17.57,0,.57,0-.94.94-1.19.37-1.26.1s.21-.66.26-.73a.4.4,0,1,0-.45-.4.36.36,0,0,0,.07.21h0s-.52,1-1.22.91-.33-.92-.33-.92l.17-.21a.38.38,0,0,1,.36-.17c.16,0,.19.18.19.18-.62-.21-.65.62-.31.75s1-.43,1-1.11-.8-.49-.8-.49l.49-.5L41,24l0-.59-.66.29a3.06,3.06,0,0,0-.22-.36s-.34,1-.34,1a.93.93,0,0,0-1.57.57.65.65,0,0,0,.69.84.64.64,0,0,0,.45-.57c0-.28-.44-.16-.44-.16s.37-.25.58.07-.27,1.12-1,1S37.61,25,37.61,25h0a.49.49,0,0,0,.33-.45.53.53,0,0,0-1.05,0,.48.48,0,0,0,.27.42h-.05a1,1,0,0,1-1.1.94c-.91,0-1-.6-1-.73a.41.41,0,0,1,.2-.44.38.38,0,0,1,.5.1.22.22,0,0,1,0,.26.28.28,0,0,0-.3-.27c-.44,0-.24.7,0,.8a.81.81,0,0,0,1.11-.7,1,1,0,0,0-.83-1.19,1.1,1.1,0,0,0-.76.17,2.57,2.57,0,0,1,.56-1c-.27-.28-.68.07-.68.07,0-.22-.37-.68-.37-.68S34,22.74,34,23c0,0-.41-.36-.68-.07a2.57,2.57,0,0,1,.56,1,1.09,1.09,0,0,0-.75-.17,1,1,0,0,0-.83,1.19.81.81,0,0,0,1.11.7c.29-.1.49-.79,0-.8a.28.28,0,0,0-.3.27.23.23,0,0,1,0-.26.38.38,0,0,1,.49-.1.42.42,0,0,1,.2.44c0,.13-.08.76-1,.73a1,1,0,0,1-1.1-.94h-.05a.48.48,0,0,0,.27-.42.53.53,0,0,0-1.05,0,.49.49,0,0,0,.33.45h0s-.12,1-.85,1.09-1.22-.72-1-1,.58-.07.58-.07-.45-.12-.44.16a.63.63,0,0,0,.45.57.65.65,0,0,0,.69-.84.93.93,0,0,0-1.57-.57s-.32-.94-.34-1a3.05,3.05,0,0,0-.22.36l-.66-.29,0,.59-.3,0,.48.5s-.75-.19-.8.49.65,1.25,1,1.11.31-1-.31-.75c0,0,0-.18.19-.18a.38.38,0,0,1,.36.17l.17.21s.37.79-.33.92-1.22-.9-1.23-.91a.36.36,0,0,0,.07-.2.45.45,0,1,0-.47.4c0,.06.33.48.27.73s-.32.85-1.26-.1c0,0,.43.17.57,0a.8.8,0,0,0-.43-1.2c-.76-.34-.91.28-.91.28s0-.44-.36-.44-.36.14-.36.14-.82-.47-1.27,0,.12.41.09.4h0a2.64,2.64,0,0,1,.68,0c.11,0,.51.08.65.3s1.17,2,2.26,1.76.93-.69.93-.69a.93.93,0,0,0,1,.18,1.54,1.54,0,0,0,.83-.61,1.14,1.14,0,0,0,1.1.29,2.56,2.56,0,0,0,1-.65,2.09,2.09,0,0,0,1.27.47,1.57,1.57,0,0,0,1.66-1.35,1.57,1.57,0,0,0,1.66,1.35A2.08,2.08,0,0,0,37.35,26a2.56,2.56,0,0,0,1,.65,1.14,1.14,0,0,0,1.1-.29,1.54,1.54,0,0,0,.83.61.93.93,0,0,0,1-.18s-.17.43.93.69,2.12-1.54,2.26-1.76.54-.25.65-.3a2.63,2.63,0,0,1,.68,0h0S46.33,25.52,45.88,25.08Z"/><path d="M42.38,27.57l-.22,0c-.62-.15-.84-.35-.91-.5a.33.33,0,0,1,0-.16.92.92,0,0,1-.59.21,1.06,1.06,0,0,1-.37-.07,1.59,1.59,0,0,1-.82-.6,1.26,1.26,0,0,1-.79.33.9.9,0,0,1-.31-.05,2.57,2.57,0,0,1-1-.64,2.12,2.12,0,0,1-1.24.47h0a1.62,1.62,0,0,1-1.66-1.24,1.62,1.62,0,0,1-1.66,1.24h0a2.11,2.11,0,0,1-1.24-.47,2.61,2.61,0,0,1-1,.64.91.91,0,0,1-.31.05,1.25,1.25,0,0,1-.79-.33,1.6,1.6,0,0,1-.82.6,1.07,1.07,0,0,1-.37.07.94.94,0,0,1-.59-.21.31.31,0,0,1,0,.16c-.08.14-.3.35-.91.5l-.23,0c-.44,0-1.15-.3-2-1.75l0,0a.82.82,0,0,0-.5-.25l-.14,0h-.13a4.73,4.73,0,0,0-.54,0H23s-.2,0-.25-.11,0-.19.17-.34a.71.71,0,0,1,.51-.19,1.76,1.76,0,0,1,.76.21s.11-.13.37-.13h0c.26,0,.34.23.36.37a.52.52,0,0,1,.49-.31,1,1,0,0,1,.42.11,1.06,1.06,0,0,1,.43.33.41.41,0,0,1,0-.14.47.47,0,0,1,.94,0,.39.39,0,0,1-.06.21c.06.11.49.89,1.08.89h.12a.47.47,0,0,0,.36-.23.89.89,0,0,0,0-.65l-.17-.21a.37.37,0,0,0-.34-.16.18.18,0,0,0-.16.13.37.37,0,0,1,.51.29.48.48,0,0,1-.23.52l-.12,0a.88.88,0,0,1-.58-.31,1.13,1.13,0,0,1-.32-.84.54.54,0,0,1,.59-.53H28l-.48-.49.34,0,0-.6.67.29c.19-.35.21-.35.23-.35h0s0,0,.33.93a1.09,1.09,0,0,1,.65-.24,1,1,0,0,1,.92.84.74.74,0,0,1-.13.63.69.69,0,0,1-.58.23.66.66,0,0,1-.47-.59.17.17,0,0,1,0-.14.28.28,0,0,1,.21-.07h0l-.14,0a.31.31,0,0,0-.27.15.49.49,0,0,0,0,.48,1,1,0,0,0,.85.52h.1c.71-.07.83-1.06.83-1.07h0a.51.51,0,0,1-.29-.45.55.55,0,0,1,1.1,0,.5.5,0,0,1-.22.41h0a1,1,0,0,0,1.08.91h.06c.54,0,.84-.24.91-.7h0a.39.39,0,0,0-.19-.41.42.42,0,0,0-.19,0,.31.31,0,0,0-.28.14.19.19,0,0,0,0,.19.28.28,0,0,1,.3-.23h0a.26.26,0,0,1,.27.23.62.62,0,0,1-.32.61,1.07,1.07,0,0,1-.32,0,.76.76,0,0,1-.82-.77,1,1,0,0,1,.85-1.21l.17,0a1.24,1.24,0,0,1,.56.17,2.74,2.74,0,0,0-.55-1v0a.37.37,0,0,1,.27-.11.76.76,0,0,1,.41.16,2.2,2.2,0,0,1,.37-.65l0,0,0,0a2.15,2.15,0,0,1,.37.65.77.77,0,0,1,.41-.16.37.37,0,0,1,.27.11v0a2.67,2.67,0,0,0-.55,1,1.22,1.22,0,0,1,.56-.17l.17,0a1,1,0,0,1,.85,1.21.76.76,0,0,1-.82.77,1.08,1.08,0,0,1-.32,0,.62.62,0,0,1-.32-.61.26.26,0,0,1,.28-.23h0a.29.29,0,0,1,.3.23.2.2,0,0,0,0-.19.31.31,0,0,0-.27-.14.42.42,0,0,0-.19,0,.39.39,0,0,0-.19.41h0c.07.46.37.7.91.7H36A1,1,0,0,0,37,24.95h0a.5.5,0,0,1-.22-.41.55.55,0,0,1,1.1,0,.51.51,0,0,1-.29.45h0s.12,1,.83,1.07h.1a1,1,0,0,0,.85-.52.49.49,0,0,0,0-.48.31.31,0,0,0-.27-.15l-.14,0h0a.29.29,0,0,1,.22.07.18.18,0,0,1,0,.14.66.66,0,0,1-.47.59.69.69,0,0,1-.58-.23.75.75,0,0,1-.13-.63,1,1,0,0,1,.93-.84,1.09,1.09,0,0,1,.65.24,9.74,9.74,0,0,1,.33-.93h0s0,0,.23.35l.67-.29,0,.6.34,0-.48.49H41a.54.54,0,0,1,.59.53,1.13,1.13,0,0,1-.32.84.88.88,0,0,1-.58.31l-.12,0a.48.48,0,0,1-.23-.52.37.37,0,0,1,.51-.29.17.17,0,0,0-.16-.12h0a.39.39,0,0,0-.3.16l-.17.21h0a.89.89,0,0,0,0,.65.47.47,0,0,0,.36.23h.12c.61,0,1.06-.86,1.08-.9a.37.37,0,0,1-.06-.19.47.47,0,0,1,.94,0,.36.36,0,0,1,0,.11,1.06,1.06,0,0,1,.41-.3A1,1,0,0,1,43.4,25a.52.52,0,0,1,.49.31c0-.13.11-.37.36-.37h0c.26,0,.34.09.37.13a1.77,1.77,0,0,1,.76-.21.72.72,0,0,1,.51.19c.15.14.2.25.17.34s-.21.11-.25.11h-.06a4.73,4.73,0,0,0-.54,0h-.13l-.14,0a.82.82,0,0,0-.5.25l0,0C43.54,27.26,42.82,27.57,42.38,27.57Zm-1.09-.84,0,.11a.24.24,0,0,0,0,.19c.07.14.29.33.88.47l.22,0c.43,0,1.13-.3,2-1.73l0,0a.84.84,0,0,1,.53-.28l.13,0,.15,0a4.9,4.9,0,0,1,.54,0h.06c.06,0,.18,0,.2-.08s0-.13-.16-.29a.66.66,0,0,0-.48-.18,1.79,1.79,0,0,0-.76.22l0,0v0s0-.11-.34-.12h0c-.31,0-.33.41-.33.41v.16l0-.16a.48.48,0,0,0-.47-.37,1,1,0,0,0-.4.1.86.86,0,0,0-.53.58.74.74,0,0,0,.1.59.24.24,0,0,0,.19.07,1.16,1.16,0,0,0,.35-.07l.1,0-.08.08a1.42,1.42,0,0,1-.86.53c-.21,0-.36-.15-.44-.44s.21-.66.26-.75h0a.38.38,0,1,0-.43-.38.35.35,0,0,0,.06.2l0,.07-.07,0c-.07.14-.51.91-1.11.91h-.13a.52.52,0,0,1-.39-.26.9.9,0,0,1,0-.69l.17-.22a.4.4,0,0,1,.39-.17h0a.23.23,0,0,1,.21.2v0h0l-.18,0a.31.31,0,0,0-.31.27.43.43,0,0,0,.2.47l.11,0a.83.83,0,0,0,.54-.3,1.09,1.09,0,0,0,.31-.81.49.49,0,0,0-.55-.49.87.87,0,0,0-.22,0l-.08,0,.5-.51-.26,0,0-.57-.64.28v0l-.19-.33-.32.92v0l0,0a1.05,1.05,0,0,0-.65-.25.91.91,0,0,0-.88.8.69.69,0,0,0,.13.59.66.66,0,0,0,.48.22h.05a.61.61,0,0,0,.43-.55.14.14,0,0,0,0-.1A.25.25,0,0,0,39.1,25a.91.91,0,0,0-.2,0l-.13,0,.11-.08a.59.59,0,0,1,.3-.1.36.36,0,0,1,.31.17.53.53,0,0,1,0,.53,1,1,0,0,1-.89.55h-.1c-.69-.07-.85-1-.87-1.1h-.13l.1,0a.47.47,0,0,0,.31-.43.5.5,0,0,0-1,0,.46.46,0,0,0,.26.4l.09,0h-.14a1,1,0,0,1-1.12.93h-.06a.85.85,0,0,1-1-.74h0a.43.43,0,0,1,.21-.46.49.49,0,0,1,.21-.05.36.36,0,0,1,.31.16.25.25,0,0,1,0,.29l0,0v-.06a.25.25,0,0,0-.27-.25h0a.22.22,0,0,0-.23.2.58.58,0,0,0,.29.56,1.05,1.05,0,0,0,.31,0,.71.71,0,0,0,.77-.73,1,1,0,0,0-.82-1.16l-.15,0a1.21,1.21,0,0,0-.58.19l0,0v0a2.47,2.47,0,0,1,.55-1,.31.31,0,0,0-.22-.09.77.77,0,0,0-.42.18l0,0v0a1.73,1.73,0,0,0-.35-.65,1.76,1.76,0,0,0-.35.65v0l0,0a.78.78,0,0,0-.42-.18.31.31,0,0,0-.22.09,2.49,2.49,0,0,1,.55,1v0l0,0a1.2,1.2,0,0,0-.58-.19l-.16,0a1,1,0,0,0-.82,1.16.72.72,0,0,0,.78.73,1,1,0,0,0,.3,0,.58.58,0,0,0,.29-.56.22.22,0,0,0-.23-.2h0a.25.25,0,0,0-.26.25v.06l0,0a.25.25,0,0,1,0-.29.36.36,0,0,1,.31-.16.48.48,0,0,1,.21.05.44.44,0,0,1,.21.46h0a.85.85,0,0,1-1,.74h-.06A1,1,0,0,1,31.76,25h-.13l.09,0a.46.46,0,0,0,.26-.4.51.51,0,0,0-1,0,.47.47,0,0,0,.31.43l.1,0h-.13c0,.14-.18,1-.87,1.1h-.1a1,1,0,0,1-.89-.55.53.53,0,0,1,0-.53.36.36,0,0,1,.31-.17.58.58,0,0,1,.3.1l.11.08-.13,0a.87.87,0,0,0-.19,0,.25.25,0,0,0-.18.05.13.13,0,0,0,0,.1.61.61,0,0,0,.43.55H30a.66.66,0,0,0,.48-.22.7.7,0,0,0,.12-.59.91.91,0,0,0-.88-.8,1,1,0,0,0-.65.25l0,0v0c-.11-.33-.28-.8-.32-.92l-.19.33v0l-.65-.28,0,.57-.27,0,.5.51-.08,0a.84.84,0,0,0-.22,0,.49.49,0,0,0-.55.49,1.09,1.09,0,0,0,.31.81.83.83,0,0,0,.55.3l.1,0a.43.43,0,0,0,.2-.47.31.31,0,0,0-.31-.27.56.56,0,0,0-.18,0h0v0a.23.23,0,0,1,.21-.2.4.4,0,0,1,.38.17l.17.21a.91.91,0,0,1,0,.7.52.52,0,0,1-.39.26h-.12c-.64,0-1.1-.89-1.12-.93h0a.33.33,0,0,0,.06-.19.43.43,0,0,0-.85,0,.4.4,0,0,0,.41.38h0c.06.08.34.49.27.75s-.23.44-.44.44a1.44,1.44,0,0,1-.86-.53l-.08-.08.1,0a1.16,1.16,0,0,0,.35.07.24.24,0,0,0,.19-.07.76.76,0,0,0,.1-.59.87.87,0,0,0-.53-.58,1,1,0,0,0-.4-.1.49.49,0,0,0-.47.37l0,.16v-.16s0-.41-.33-.41h0c-.32,0-.34.12-.34.12v0l0,0a1.79,1.79,0,0,0-.76-.22.67.67,0,0,0-.48.18c-.16.16-.18.24-.16.29s.15.08.21.08h.06a4.85,4.85,0,0,1,.54,0l.15,0,.13,0a.85.85,0,0,1,.53.28l0,0c.87,1.43,1.57,1.73,2,1.73l.21,0c.6-.14.81-.33.88-.47a.24.24,0,0,0,0-.19l0-.11.08.08a.9.9,0,0,0,.61.24,1,1,0,0,0,.35-.07,1.54,1.54,0,0,0,.81-.6l0,0,0,0a1.24,1.24,0,0,0,.78.34.84.84,0,0,0,.29-.05,2.5,2.5,0,0,0,1-.65l0,0,0,0a2.08,2.08,0,0,0,1.23.47h0a1.56,1.56,0,0,0,1.63-1.33l0-.15,0,.15a1.56,1.56,0,0,0,1.63,1.33h0A2.09,2.09,0,0,0,37.34,26l0,0v0a2.52,2.52,0,0,0,1,.65.84.84,0,0,0,.29.05,1.24,1.24,0,0,0,.78-.34l0,0,0,0a1.52,1.52,0,0,0,.81.6,1,1,0,0,0,.35.07.88.88,0,0,0,.61-.24Zm.84-1c-.05.08-.32.47-.25.7.15.55.56.54,1.15,0a1,1,0,0,1-.27,0,.28.28,0,0,1-.23-.09.79.79,0,0,1-.11-.62.71.71,0,0,1,0-.14A.49.49,0,0,1,42.13,25.73Zm-16.32.66c.6.58,1,.59,1.15,0,.06-.23-.2-.62-.25-.7a.48.48,0,0,1-.34-.16.86.86,0,0,1,.06.16.78.78,0,0,1-.11.62.28.28,0,0,1-.23.09A1,1,0,0,1,25.81,26.39Z"/><circle class="cls-7" cx="23.95" cy="20.72" r="0.52"/><path d="M24,21.26a.55.55,0,1,1,.55-.55A.55.55,0,0,1,24,21.26Zm0-1a.5.5,0,1,0,.5.5A.5.5,0,0,0,24,20.21Z"/><circle class="cls-7" cx="23.27" cy="21.48" r="0.53"/><path d="M23.27,22a.55.55,0,1,1,.55-.55A.55.55,0,0,1,23.27,22Zm0-1a.5.5,0,1,0,.5.5A.5.5,0,0,0,23.27,21Z"/><circle class="cls-7" cx="23.05" cy="22.48" r="0.53"/><path d="M23.05,23a.55.55,0,1,1,.55-.55A.55.55,0,0,1,23.05,23Zm0-1a.5.5,0,1,0,.5.5A.5.5,0,0,0,23.05,22Z"/><circle class="cls-7" cx="23.21" cy="23.49" r="0.53"/><path d="M23.21,24a.55.55,0,1,1,.55-.55A.55.55,0,0,1,23.21,24Zm0-1a.5.5,0,1,0,.5.5A.5.5,0,0,0,23.21,23Z"/><circle class="cls-7" cx="25.68" cy="19.82" r="0.48"/><path d="M25.68,20.33a.5.5,0,1,1,.5-.5A.5.5,0,0,1,25.68,20.33Zm0-1a.46.46,0,1,0,.46.46A.46.46,0,0,0,25.68,19.36Z"/><circle class="cls-7" cx="24.76" cy="20.14" r="0.53"/><path d="M24.76,20.69a.55.55,0,1,1,.55-.55A.55.55,0,0,1,24.76,20.69Zm0-1.05a.5.5,0,1,0,.5.5A.5.5,0,0,0,24.76,19.64Z"/><circle class="cls-7" cx="23.73" cy="24.42" r="0.55"/><path d="M23.73,25a.57.57,0,1,1,.58-.58A.57.57,0,0,1,23.73,25Zm0-1.1a.53.53,0,1,0,.53.53A.53.53,0,0,0,23.73,23.9Z"/><circle class="cls-7" cx="38.19" cy="17.99" r="0.52"/><path d="M38.19,18.54a.55.55,0,1,1,.55-.55A.55.55,0,0,1,38.19,18.54Zm0-1.05a.5.5,0,1,0,.5.5A.5.5,0,0,0,38.19,17.49Z"/><circle class="cls-7" cx="39.24" cy="18.07" r="0.53"/><path d="M39.24,18.62a.55.55,0,1,1,.55-.55A.55.55,0,0,1,39.24,18.62Zm0-1a.5.5,0,1,0,.5.5A.5.5,0,0,0,39.24,17.57Z"/><circle class="cls-7" cx="40.16" cy="18.27" r="0.53"/><path d="M40.16,18.82a.55.55,0,1,1,.55-.55A.55.55,0,0,1,40.16,18.82Zm0-1.05a.5.5,0,1,0,.5.5A.5.5,0,0,0,40.16,17.77Z"/><circle class="cls-7" cx="41.04" cy="18.8" r="0.53"/><path d="M41,19.35a.55.55,0,1,1,.55-.55A.55.55,0,0,1,41,19.35Zm0-1a.5.5,0,1,0,.5.5A.5.5,0,0,0,41,18.3Z"/><circle class="cls-7" cx="41.76" cy="19.56" r="0.52"/><path d="M41.76,20.11a.55.55,0,1,1,.55-.55A.55.55,0,0,1,41.76,20.11Zm0-1.05a.5.5,0,1,0,.5.5A.5.5,0,0,0,41.76,19.06Z"/><circle class="cls-7" cx="41.9" cy="20.61" r="0.53"/><path d="M41.9,21.16a.55.55,0,1,1,.55-.55A.55.55,0,0,1,41.9,21.16Zm0-1a.5.5,0,1,0,.5.5A.5.5,0,0,0,41.9,20.11Z"/><circle class="cls-7" cx="41.83" cy="21.57" r="0.53"/><path d="M41.83,22.12a.55.55,0,1,1,.55-.55A.55.55,0,0,1,41.83,22.12Zm0-1a.5.5,0,1,0,.5.5A.5.5,0,0,0,41.83,21.07Z"/><circle class="cls-7" cx="41.48" cy="22.52" r="0.52"/><path d="M41.48,23.06a.55.55,0,1,1,.55-.55A.55.55,0,0,1,41.48,23.06Zm0-1.05a.5.5,0,1,0,.5.5A.5.5,0,0,0,41.48,22Z"/><circle class="cls-7" cx="41.04" cy="23.38" r="0.53"/><path d="M41,23.93a.55.55,0,1,1,.55-.55A.55.55,0,0,1,41,23.93Zm0-1.05a.5.5,0,1,0,.5.5A.5.5,0,0,0,41,22.88Z"/><circle class="cls-7" cx="36.18" cy="18.12" r="0.48"/><path d="M36.18,18.62a.5.5,0,1,1,.5-.5A.5.5,0,0,1,36.18,18.62Zm0-1a.46.46,0,1,0,.46.46A.46.46,0,0,0,36.18,17.66Z"/><circle class="cls-7" cx="37.19" cy="18.07" r="0.53"/><path d="M37.19,18.62a.55.55,0,1,1,.55-.55A.55.55,0,0,1,37.19,18.62Zm0-1a.5.5,0,1,0,.5.5A.5.5,0,0,0,37.19,17.57Z"/><circle class="cls-7" cx="44.89" cy="20.75" r="0.53"/><path d="M44.89,21.3a.55.55,0,1,1,.55-.55A.55.55,0,0,1,44.89,21.3Zm0-1a.5.5,0,1,0,.5.5A.5.5,0,0,0,44.89,20.25Z"/><circle class="cls-7" cx="45.57" cy="21.52" r="0.52"/><path d="M45.57,22.06a.55.55,0,1,1,.55-.55A.55.55,0,0,1,45.57,22.06Zm0-1a.5.5,0,1,0,.5.5A.5.5,0,0,0,45.57,21Z"/><circle class="cls-7" cx="45.79" cy="22.52" r="0.53"/><path d="M45.79,23.06a.55.55,0,1,1,.55-.55A.55.55,0,0,1,45.79,23.06Zm0-1.05a.5.5,0,1,0,.5.5A.5.5,0,0,0,45.79,22Z"/><circle class="cls-7" cx="45.63" cy="23.52" r="0.53"/><path d="M45.63,24.07a.55.55,0,1,1,.55-.55A.55.55,0,0,1,45.63,24.07Zm0-1a.5.5,0,1,0,.5.5A.5.5,0,0,0,45.63,23Z"/><circle class="cls-7" cx="43.16" cy="19.86" r="0.48"/><path d="M43.16,20.36a.5.5,0,1,1,.5-.5A.51.51,0,0,1,43.16,20.36Zm0-1a.46.46,0,1,0,.46.46A.46.46,0,0,0,43.16,19.4Z"/><circle class="cls-7" cx="44.07" cy="20.18" r="0.53"/><path d="M44.07,20.73a.55.55,0,1,1,.55-.55A.55.55,0,0,1,44.07,20.73Zm0-1.05a.5.5,0,1,0,.5.5A.5.5,0,0,0,44.07,19.68Z"/><circle class="cls-7" cx="45.11" cy="24.46" r="0.55"/><path d="M45.11,25a.57.57,0,1,1,.58-.58A.57.57,0,0,1,45.11,25Zm0-1.1a.53.53,0,1,0,.53.53A.53.53,0,0,0,45.11,23.93Z"/><path class="cls-17" d="M43,27.78a.23.23,0,0,1-.28.18,41.93,41.93,0,0,0-16.55,0,.23.23,0,0,1-.27-.18h0A.23.23,0,0,1,26,27.5a42.39,42.39,0,0,1,16.73,0,.23.23,0,0,1,.18.27Z"/><path d="M42.74,28h0a41.87,41.87,0,0,0-16.54,0h-.05a.25.25,0,0,1-.21-.39.27.27,0,0,1,.17-.11,42.47,42.47,0,0,1,16.74,0,.26.26,0,0,1,.16.11.24.24,0,0,1,0,.19A.25.25,0,0,1,42.74,28Zm-8.32-.87a42,42,0,0,1,8.28.83h0a.21.21,0,0,0,.21-.17.21.21,0,0,0,0-.16.22.22,0,0,0-.14-.09,42.34,42.34,0,0,0-16.72,0,.22.22,0,0,0-.13.09.21.21,0,0,0,0,.16.22.22,0,0,0,.25.16A41.92,41.92,0,0,1,34.41,27.11Z"/><path class="cls-17" d="M42.55,30.16a.23.23,0,0,1-.26.18,39.91,39.91,0,0,0-15.75,0,.23.23,0,0,1-.26-.18h0a.23.23,0,0,1,.17-.27,40.36,40.36,0,0,1,15.93,0,.23.23,0,0,1,.17.27Z"/><path d="M42.33,30.36h0a39.89,39.89,0,0,0-15.74,0h0a.25.25,0,0,1-.24-.2.26.26,0,0,1,0-.19.24.24,0,0,1,.15-.11,40.4,40.4,0,0,1,15.94,0,.23.23,0,0,1,.15.11.24.24,0,0,1,0,.19A.25.25,0,0,1,42.33,30.36Zm-7.92-.83a40,40,0,0,1,7.88.78h0a.2.2,0,0,0,.2-.17.2.2,0,0,0,0-.16.19.19,0,0,0-.13-.09,40.26,40.26,0,0,0-15.92,0,.19.19,0,0,0-.13.09.21.21,0,0,0,0,.16.21.21,0,0,0,.24.16A40,40,0,0,1,34.41,29.53Z"/><path class="cls-17" d="M42.29,29.92a39,39,0,0,0-15.8,0L26.08,28a41,41,0,0,1,16.61,0Z"/><path d="M42.31,29.95h0a38.93,38.93,0,0,0-15.8,0h0l-.41-2h0A41,41,0,0,1,42.7,28h0Zm-16.2-2,.39,1.9a38.94,38.94,0,0,1,15.77,0l.4-1.9a40.95,40.95,0,0,0-16.56,0Z"/><path class="cls-17" d="M35.33,14.92a1.09,1.09,0,0,0-.25.2H34.7v-.39a1.15,1.15,0,0,0,.22-.27.71.71,0,0,0-.44-.48c-.22,0-.5.32-.52.45s.12.22.2.3v.39h-.4a1.07,1.07,0,0,0-.25-.2.71.71,0,0,0-.48.44c0,.22.32.5.45.52s.27-.17.34-.24h.34v.93h.54v-.93H35c.06.07.23.26.34.24s.48-.3.45-.52A.71.71,0,0,0,35.33,14.92Z"/><path d="M34.73,16.59h-.59v-.93h-.31c-.11.12-.25.26-.35.24a.76.76,0,0,1-.38-.29.36.36,0,0,1-.08-.26.74.74,0,0,1,.49-.46h0s.06,0,.26.2h.36v-.36c-.15-.14-.21-.24-.2-.31s.31-.51.55-.46a.67.67,0,0,1,.38.31s.09.14.08.2a1,1,0,0,1-.22.27v.36h.34c.19-.19.24-.2.26-.2h0a.74.74,0,0,1,.49.46.35.35,0,0,1-.08.26.76.76,0,0,1-.38.29h0c-.1,0-.23-.13-.34-.25h-.29Zm-.54,0h.5v-.93H35c.05.06.22.25.32.24a.77.77,0,0,0,.35-.27.32.32,0,0,0,.08-.22.72.72,0,0,0-.45-.42s-.07,0-.25.2h-.41v-.42h0c.18-.19.21-.24.21-.25a.33.33,0,0,0-.07-.17.66.66,0,0,0-.35-.29c-.21,0-.48.31-.5.43s0,.12.19.28h0v.42h-.4v0l0,0c-.17-.17-.22-.19-.24-.19h0a.71.71,0,0,0-.45.42.31.31,0,0,0,.07.22.77.77,0,0,0,.35.27h0c.1,0,.26-.18.31-.24h.38Z"/><circle class="cls-17" cx="34.45" cy="17.47" r="1.21"/><path d="M34.45,18.7a1.24,1.24,0,1,1,1.24-1.23A1.24,1.24,0,0,1,34.45,18.7Zm0-2.42a1.19,1.19,0,1,0,1.19,1.19A1.19,1.19,0,0,0,34.45,16.28Z"/><circle class="cls-18" cx="34.42" cy="24.2" r="0.42"/><path d="M34.42,24.64a.44.44,0,1,1,.45-.44A.45.45,0,0,1,34.42,24.64Zm0-.84a.4.4,0,1,0,.4.4A.4.4,0,0,0,34.42,23.8Z"/><ellipse class="cls-18" cx="26.48" cy="28.93" rx="0.77" ry="0.42" transform="translate(-4.46 4.83) rotate(-9.62)"/><path d="M26.33,29.39c-.34,0-.59-.13-.62-.33a.38.38,0,0,1,.18-.35,1.16,1.16,0,0,1,.53-.22l.23,0c.34,0,.59.13.62.33a.38.38,0,0,1-.18.35,1.18,1.18,0,0,1-.53.22Zm.31-.87-.22,0a1.14,1.14,0,0,0-.51.21.34.34,0,0,0-.16.31c0,.17.27.29.58.29l.22,0a1.12,1.12,0,0,0,.5-.21.34.34,0,0,0,.16-.31C27.19,28.63,27,28.51,26.64,28.51Z"/><ellipse class="cls-18" cx="42.51" cy="28.93" rx="0.42" ry="0.77" transform="matrix(0.17, -0.99, 0.99, 0.17, 6.88, 66)"/><path d="M42.66,29.39h0l-.23,0a1.18,1.18,0,0,1-.53-.22.39.39,0,0,1-.18-.35c0-.19.28-.33.62-.33l.23,0a1.16,1.16,0,0,1,.53.22.38.38,0,0,1,.18.35C43.25,29.26,43,29.39,42.66,29.39Zm-.31-.87c-.31,0-.55.12-.58.29a.34.34,0,0,0,.16.31,1.12,1.12,0,0,0,.5.21l.23,0c.31,0,.55-.12.58-.29a.35.35,0,0,0-.16-.31,1.14,1.14,0,0,0-.5-.21Z"/><path class="cls-10" d="M38,28.24c-.06.23.31.47.81.52s1-.09,1-.32-.31-.47-.81-.52S38,28,38,28.24Z"/><path d="M39,28.8H38.8a1.15,1.15,0,0,1-.79-.34.25.25,0,0,1,0-.21c0-.21.39-.35.82-.35H39a1.15,1.15,0,0,1,.79.35.25.25,0,0,1,0,.21C39.79,28.66,39.46,28.8,39,28.8Zm-.24-.87c-.41,0-.73.13-.78.31a.21.21,0,0,0,0,.17,1.11,1.11,0,0,0,.75.33H39c.41,0,.73-.13.78-.31a.2.2,0,0,0,0-.17,1.1,1.1,0,0,0-.75-.33Z"/><path class="cls-10" d="M31.1,28.24c.06.23-.31.47-.81.52s-1-.09-1-.32.31-.47.81-.52S31,28,31.1,28.24Z"/><path d="M30.06,28.8c-.43,0-.77-.14-.82-.35a.26.26,0,0,1,0-.21,1.15,1.15,0,0,1,.79-.35h.22c.43,0,.77.14.82.35a.25.25,0,0,1,0,.21,1.14,1.14,0,0,1-.79.34Zm.24-.87h-.21a1.11,1.11,0,0,0-.76.33.2.2,0,0,0,0,.17c0,.18.37.31.78.31h.22a1.12,1.12,0,0,0,.76-.33.2.2,0,0,0,0-.17C31,28.06,30.7,27.93,30.3,27.93Z"/><circle class="cls-18" cx="40.25" cy="24.62" r="0.42"/><path d="M40.25,25.07a.44.44,0,1,1,.44-.44A.45.45,0,0,1,40.25,25.07Zm0-.84a.4.4,0,1,0,.4.4A.4.4,0,0,0,40.25,24.22Z"/><circle class="cls-18" cx="28.74" cy="24.8" r="0.42"/><path d="M28.75,25.24a.44.44,0,1,1,.44-.44A.45.45,0,0,1,28.75,25.24Zm0-.84a.4.4,0,1,0,.4.4A.4.4,0,0,0,28.75,24.4Z"/><circle cx="28.32" cy="28.59" r="0.25"/><circle cx="31.86" cy="28.16" r="0.25"/><circle cx="37.13" cy="28.25" r="0.25"/><circle cx="40.8" cy="28.59" r="0.25"/><path class="cls-18" d="M25,26.31c0,.23,0,.3-.22.3a.42.42,0,0,1-.42-.42c0-.23.13-.33.25-.33S25,26,25,26.31Z"/><path d="M24.81,26.63a.45.45,0,0,1-.45-.44c0-.24.14-.35.28-.35s.37.16.41.47c0,.13,0,.22,0,.27S24.92,26.63,24.81,26.63Zm-.17-.75c-.11,0-.23.1-.23.31a.4.4,0,0,0,.4.4c.1,0,.16,0,.18,0s0-.11,0-.23C25,26,24.84,25.88,24.64,25.88Z"/><path class="cls-18" d="M43.86,26.11c0,.23,0,.3.22.3A.42.42,0,0,0,44.5,26c0-.23-.13-.33-.26-.33S43.89,25.85,43.86,26.11Z"/><path d="M44.08,26.44c-.12,0-.18,0-.22-.06s0-.13,0-.27c0-.31.18-.47.41-.47s.28.11.28.35A.44.44,0,0,1,44.08,26.44Zm.17-.75c-.2,0-.33.15-.37.43,0,.12,0,.19,0,.23s.08,0,.19,0a.4.4,0,0,0,.4-.4C44.48,25.78,44.36,25.69,44.25,25.69Z"/><polygon class="cls-18" points="33.65 28.15 34.4 27.72 35.2 28.15 34.42 28.59 33.65 28.15"/><path d="M34.42,28.62l-.82-.46.8-.46.85.45Zm-.73-.46.73.41.73-.41-.75-.4Z"/><circle class="cls-19" cx="56.59" cy="46.55" r="46.07" transform="translate(8.66 101.98) rotate(-88.59)"/><ellipse class="cls-20" cx="56.89" cy="34.37" rx="31.43" ry="36.22" transform="translate(21.13 90.39) rotate(-88.59)"/></g></g></svg>