<svg xmlns="http://www.w3.org/2000/svg" xmlns:xlink="http://www.w3.org/1999/xlink" viewBox="0 0 92.15 92.15"><defs><style>.cls-1{isolation:isolate;}.cls-2{fill:#0056a2;}.cls-3{fill:#ffdb00;}.cls-4{opacity:0.6;mix-blend-mode:multiply;fill:url(#radial-gradient);}.cls-5{opacity:0.7;fill:url(#radial-gradient-2);}.cls-6{fill:#fff;}</style><radialGradient id="radial-gradient" cx="46.07" cy="46.07" r="46.07" gradientUnits="userSpaceOnUse"><stop offset="0" stop-color="#fff" stop-opacity="0"/><stop offset="0.33" stop-color="#fcfbfb" stop-opacity="0.02"/><stop offset="0.51" stop-color="#f2eeec" stop-opacity="0.09"/><stop offset="0.64" stop-color="#e1d8d4" stop-opacity="0.21"/><stop offset="0.76" stop-color="#c9b9b1" stop-opacity="0.38"/><stop offset="0.87" stop-color="#a99084" stop-opacity="0.6"/><stop offset="0.96" stop-color="#835e4d" stop-opacity="0.87"/><stop offset="1" stop-color="#704632"/></radialGradient><radialGradient id="radial-gradient-2" cx="-24.33" cy="27.45" r="27.21" gradientTransform="translate(88.2 -7.55) scale(1.33 1.16)" gradientUnits="userSpaceOnUse"><stop offset="0" stop-color="#fff"/><stop offset="1" stop-color="#fff" stop-opacity="0"/></radialGradient></defs><title>Artboard 8</title><g class="cls-1"><g id="objects"><path class="cls-2" d="M78.7,78.59A46.07,46.07,0,1,1,13.55,13.45Z"/><path class="cls-3" d="M78.6,78.7A46.07,46.07,0,1,0,13.45,13.55Z"/><circle class="cls-4" cx="46.07" cy="46.07" r="46.07"/><ellipse class="cls-5" cx="46.07" cy="36.55" rx="36.23" ry="31.43"/><polygon class="cls-6" points="62.5 76.53 64.09 71.59 65.91 76.45 71.1 76.44 67.04 79.67 68.66 84.6 64.33 81.74 60.14 84.81 61.52 79.8 57.31 76.76 62.5 76.53"/><polygon class="cls-6" points="52.32 66.36 53.91 61.41 55.73 66.28 60.92 66.26 56.86 69.49 58.48 74.42 54.15 71.56 49.96 74.63 51.35 69.62 47.13 66.59 52.32 66.36"/><polygon class="cls-6" points="42.14 56.18 43.73 51.23 45.55 56.1 50.74 56.08 46.68 59.31 48.3 64.25 43.97 61.38 39.78 64.45 41.17 59.45 36.95 56.41 42.14 56.18"/><polygon class="cls-6" points="31.97 46 33.55 41.06 35.37 45.92 40.57 45.9 36.51 49.14 38.13 54.07 33.8 51.21 29.61 54.27 30.99 49.27 26.78 46.23 31.97 46"/><polygon class="cls-6" points="21.79 35.82 23.38 30.88 25.2 35.74 30.39 35.73 26.33 38.96 27.95 43.89 23.62 41.03 19.43 44.09 20.81 39.09 16.6 36.05 21.79 35.82"/><polygon class="cls-6" points="11.61 25.64 13.2 20.7 15.02 25.56 20.21 25.55 16.15 28.78 17.77 33.71 13.44 30.85 9.25 33.92 10.63 28.91 6.42 25.87 11.61 25.64"/></g></g></svg>