<svg xmlns="http://www.w3.org/2000/svg" xmlns:xlink="http://www.w3.org/1999/xlink" viewBox="0 0 92.15 92.15"><defs><style>.cls-1{fill:none;}.cls-2{isolation:isolate;}.cls-3{clip-path:url(#clip-path);}.cls-4{fill:#ff0203;}.cls-5{fill-rule:evenodd;}.cls-6{opacity:0.6;mix-blend-mode:multiply;fill:url(#radial-gradient);}.cls-7{opacity:0.7;fill:url(#radial-gradient-2);}</style><clipPath id="clip-path"><circle class="cls-1" cx="46.07" cy="46.07" r="46.07"/></clipPath><radialGradient id="radial-gradient" cx="46.07" cy="46.07" r="46.07" gradientUnits="userSpaceOnUse"><stop offset="0" stop-color="#fff" stop-opacity="0"/><stop offset="0.35" stop-color="#fbfbfb" stop-opacity="0.02"/><stop offset="0.53" stop-color="#eeedec" stop-opacity="0.11"/><stop offset="0.67" stop-color="#d8d6d2" stop-opacity="0.25"/><stop offset="0.79" stop-color="#b8b5ae" stop-opacity="0.44"/><stop offset="0.9" stop-color="#908b80" stop-opacity="0.7"/><stop offset="1" stop-color="#605949"/></radialGradient><radialGradient id="radial-gradient-2" cx="95.92" cy="27.45" r="27.21" gradientTransform="translate(-71.07 -7.55) scale(1.33 1.16)" gradientUnits="userSpaceOnUse"><stop offset="0" stop-color="#fff"/><stop offset="1" stop-color="#fff" stop-opacity="0"/></radialGradient></defs><title>Artboard 2</title><g class="cls-2"><g id="objects"><g class="cls-3"><rect class="cls-4" x="-10.48" width="113.11" height="109.7"/><path class="cls-5" d="M66.85,46.92h0a1.7,1.7,0,0,1-.66.1h-.45a.07.07,0,0,1-.12,0h0c-.12-.06-.25,0-.37-.06h0c-.06,0-.15,0-.19-.05h0s-.14,0-.18-.06h0s-.09,0-.12,0h0s-.11,0-.14-.06h0c-.09-.05-.22,0-.29-.13h0s-.1,0-.13-.06h0a1.56,1.56,0,0,1-.53-.29h0a.07.07,0,0,1-.07,0h0s-.09,0-.11-.07h0a.89.89,0,0,1-.35-.24h0a.17.17,0,0,1-.07-.06h0a1,1,0,0,1-.41-.3h0a.15.15,0,0,1-.07-.06h0a2.2,2.2,0,0,1-.63-.53h0a.1.1,0,0,1-.07-.06h0a.06.06,0,0,1-.06-.06h0a.18.18,0,0,1-.06-.06h0a.27.27,0,0,1-.12-.11h0a1.85,1.85,0,0,1-.33-.31h0a.1.1,0,0,1-.07-.06h0a.11.11,0,0,1-.07-.06h0a.18.18,0,0,1-.12-.12h0a3.66,3.66,0,0,1-.57-.53h0c-.13,0-.18-.13-.25-.22h0a1.18,1.18,0,0,1-.28-.25h0c-.67-.39-1.28-.87-1.93-1.29h0a4.81,4.81,0,0,1,1.21,1.35c.09.16.29.23.35.42h0a.14.14,0,0,1,.06.07h0a.1.1,0,0,1,.06.07h0a.09.09,0,0,1,.07.07h0c.13.09.29.15.3.34h0a.21.21,0,0,1,.12.12h0a.13.13,0,0,1,.06.07h0a1,1,0,0,1,.36.4h0c.15.12.35.2.39.42h0a.16.16,0,0,1,.12.12h0s.06,0,.06.06h0a.09.09,0,0,1,.07.07h0a.1.1,0,0,1,.07.07h0a.14.14,0,0,1,.12.12h0a.09.09,0,0,1,.07.07h0a.13.13,0,0,1,.11.11h0s.06,0,.06.06h0a.1.1,0,0,1,.07.07h0a.1.1,0,0,1,.07.07h0a.11.11,0,0,1,.07.07h0a.67.67,0,0,1,.3.29h0l.06.06h0a.09.09,0,0,1,.06.06h0l.06.05h0c0,.06.13.07.16.14h0a.1.1,0,0,1,.07.06h0a.14.14,0,0,1,.07.06h0a4.69,4.69,0,0,1,.82.64h0c.06,0,.15,0,.17.12h0l.06,0a0,0,0,0,0,0,0s.07,0,.08.05h0s.1,0,.11.07h0s.1,0,.11.07h0a.92.92,0,0,1,.3.17h0s.09,0,.12.06h0c0,.05.14,0,.17.07h0s.09,0,.13,0a0,0,0,0,0,0,0c.1.06.21,0,.3.05a.22.22,0,0,0,.15,0c.54,0,1.09,0,1.64,0a.66.66,0,0,1,.31,0h.09a1,1,0,0,1,.43.11,0,0,0,0,0,0,0s.11,0,.14.06h0s.1,0,.12.07h0a1.56,1.56,0,0,1,.4.31.52.52,0,0,1,.13.57,0,0,0,0,0,0,0c.11.29,0,.57,0,.85,0,.13-.17.15-.23.25h0a.08.08,0,0,1-.05.06h0a.73.73,0,0,1-.41.35h0a.13.13,0,0,1-.07.05h0c0,.06-.09,0-.14.07h0a.45.45,0,0,1-.22.15l-.07,0a1.83,1.83,0,0,1-.18.07h-.08c-.08,0-.16.06-.25,0h-.09c-.31.05-.61-.07-.91,0a.23.23,0,0,0-.13,0,.77.77,0,0,1-.3,0h-.08a.8.8,0,0,0-.18-.06h-.08l-.15,0-.07,0c-.12-.07-.27-.12-.33-.26h0a.7.7,0,0,1-.41-.23h0s-.1,0-.12-.07h0a.12.12,0,0,1-.07-.06h0c-.14,0-.24-.08-.36-.14l-.06,0a.68.68,0,0,0-.18-.15l0-.06c0-.12-.16-.17-.23-.26h0l-.08,0h0c-.37-.32-.7-.68-1.06-1-.12-.23-.39-.34-.46-.62,0-.11-.18-.15-.27-.25-.87-1-1.63-2-2.56-3-.39-.39-.83-.7-1.21-1.09l0,0h0l0,0,.06.06a10.31,10.31,0,0,1,1,1.4c.69,1,1.37,2,2.08,2.94a1.07,1.07,0,0,1,.23.49h0a.14.14,0,0,1,.06.07h0a1.43,1.43,0,0,1,.59.76h0c.23.1.31.32.42.51h0l.05.06h0a.24.24,0,0,1,.06.06h0l.07,0,0,0a.57.57,0,0,0,.2.23,1,1,0,0,1,.4.52h0l.06,0h0l.06,0,0,0,.06.09,0,0a.43.43,0,0,1,.13.11.21.21,0,0,1,0,.07.12.12,0,0,0,0,.06h0l.06.06h0a.25.25,0,0,1,.12.12h0a.08.08,0,0,1,.06.06h0a.46.46,0,0,1,.18.17h0l.06,0,0,0a.31.31,0,0,0,.13.07l.06,0a.52.52,0,0,1,.06.14h0a1,1,0,0,1,.25.15.65.65,0,0,0,.26.11l.07,0,.1,0,.07,0,.1,0,.07,0a.94.94,0,0,1,.2.08.09.09,0,0,1,.06,0h0a.59.59,0,0,0,.23,0,.09.09,0,0,1,.07,0,0,0,0,0,0,0,0,1.3,1.3,0,0,0,.47,0,.29.29,0,0,1,.19,0,2.37,2.37,0,0,0,.61,0h.1c.17,0,.31.16.49.12a.09.09,0,0,1,.08,0h0c.09.06.21,0,.29.06h0c.1,0,.22,0,.32.05s.08.05.13.06l.07,0,.09,0,.05,0a.35.35,0,0,0,.12.08l.06,0c.07.07.06.17.09.25h0c.07,0,.08.11.13.16a.17.17,0,0,1,0,.07.51.51,0,0,0,0,.14,0,0,0,0,0,0,0c0,.06,0,.13.05.19a0,0,0,0,0,0,0l.06.07a.52.52,0,0,1,0,.17.24.24,0,0,1,0,.13c-.16.14-.14.42-.37.5h0c0,.12-.15.12-.22.18h0a.17.17,0,0,1-.07.05h0a.34.34,0,0,1-.23.12h0s-.09,0-.14.06h0s-.09,0-.12,0h0c0,.07-.13,0-.18.06h0c-.06.07-.17,0-.23.06h0c-.07.07-.17,0-.25.05h0c-.1.1-.25,0-.35.05h0a7.31,7.31,0,0,1-1.52,0h-.1c-.11-.08-.26.06-.36-.06h0c-.06,0-.14,0-.2,0h0c-.06,0-.14,0-.18-.05h0a1.53,1.53,0,0,1-.88-.53h0A.12.12,0,0,1,63,55h0a.25.25,0,0,1-.12-.11h0a1.45,1.45,0,0,1-.28-.25h0a.09.09,0,0,1-.07-.07h0a.09.09,0,0,1-.07-.07h0A1.44,1.44,0,0,1,62,54h0c-.11-.1-.24-.19-.28-.35h0a.59.59,0,0,1-.18-.24h0a5.7,5.7,0,0,1-.77-1.18c-.53-1-1.05-1.92-1.58-2.88a14.12,14.12,0,0,0-1.08-1.66,7,7,0,0,0-2.57-2.18c-.23-.11-.47-.19-.7-.29a.22.22,0,0,0-.16,0,.13.13,0,0,0,0,.12c.63,1.36,1.25,2.74,2,4a12.08,12.08,0,0,0,2.67,3.28,7.07,7.07,0,0,0,1.39.95.76.76,0,0,1,0,.75h0c-.06.09-.17,0-.24.07h0c-.08.09-.2,0-.29.06h0c-.1.06-.21,0-.31,0h-.16a1.71,1.71,0,0,1-.64,0H59c-.08,0-.18,0-.25,0h0c-.06,0-.14,0-.19-.05h0c0-.05-.13,0-.17-.06h0a.71.71,0,0,1-.24-.11h0s-.09,0-.11-.06h0s-.09,0-.12-.07h0a.13.13,0,0,1-.07-.06h0c-.06,0-.13-.06-.17-.13h0a.24.24,0,0,1-.18-.17h0a.26.26,0,0,1-.22-.24h0c-.09-.09-.21-.16-.23-.3h0a2.65,2.65,0,0,1-.44-.67c-.25-.52-.52-1-.73-1.57s-.51-1.12-.77-1.68h0a2.36,2.36,0,0,1-.47-.69h0a.11.11,0,0,1-.06-.07h0a8.42,8.42,0,0,0-.89-.75h0s-.09,0-.12-.06h0a.89.89,0,0,1-.24-.11h0c-.2-.06-.42,0-.66-.07a1.25,1.25,0,0,1,.23.48h0a.19.19,0,0,1,.06.07h0c.14,0,.12.15.18.23h0a.08.08,0,0,1,.06.06h0a.12.12,0,0,1,.06.07h0a1,1,0,0,1,.31.39h0s.09.07.11.13h0c.1,0,.08.11.13.16h0s.09.07.11.13h0a.56.56,0,0,1,.23.29h0a.11.11,0,0,1,.06.07h0a1.07,1.07,0,0,1,.35.46c0,.09,0,.18,0,.26s0,.1-.06.14h0a.29.29,0,0,1-.18.17h0c-.06.11-.17,0-.25.07h0a.07.07,0,0,1-.12,0h0c-.17-.06-.39,0-.53-.12h0s-.09,0-.13-.05h0s-.08,0-.12-.05l-.05,0a.25.25,0,0,1-.23-.11h0a1,1,0,0,1-.3-.18h0a.45.45,0,0,1-.18-.12h0c-.1-.07-.23-.1-.29-.23h0a1.14,1.14,0,0,1-.41-.41h0a.68.68,0,0,1-.18-.24h0c-.06,0,0-.08-.07-.1h0c-.11,0-.27-.14-.23.12h0c.07,0,0,.13.06.18h0c.06,0,0,.13.06.17h0s0,.09.05.12h0s0,.09.06.14a0,0,0,0,0,0,0s0,.09.05.12h0c.05,0,0,.09.06.12h0a.46.46,0,0,1,.18.35h0a.44.44,0,0,1,.11.19h0c.06,0,0,.08.07.12h0a.62.62,0,0,1,.25.4h0a.24.24,0,0,1,.05.07h0c.07,0,.08.12.12.17h0a.13.13,0,0,1,.06.07h0a.49.49,0,0,1,.18.24h0c.08,0,.08.11.13.16h0a.09.09,0,0,1,.06.06h0a.16.16,0,0,1,.06.07h0a.11.11,0,0,1,.06.07h0c.13,0,.15.2.25.28h0a.17.17,0,0,1,.11.12h0l.06.06h0a.32.32,0,0,1,.12.12h0a.93.93,0,0,1,.4.36h0a.12.12,0,0,1,.07.06h0a.19.19,0,0,1,.07.06h0l.06.06h0c.1,0,.21.05.22.18h0l.07.06h0c.05,0,.14.05.17.13h0a1.43,1.43,0,0,1,.47.35h0a.75.75,0,0,1,.18.12h0a.62.62,0,0,1,.53.34h0c.07,0,.18,0,.23.13h0s.05,0,.07.05h0c.07,0,.19,0,.22.13h0a.34.34,0,0,1,.19.11h0c.08,0,.18,0,.23.13h0a1.38,1.38,0,0,1,.53.28h0a1,1,0,0,1,.35.18h0s.09,0,.12.06h0s.09,0,.12.06h0a.76.76,0,0,1,.24.12h0s.09,0,.12.06h0a.18.18,0,0,1,0,.23,0,0,0,0,0,0,0c-.06.12,0,.26,0,.37a.57.57,0,0,0,0,.29c.06.1,0,.21,0,.31a0,0,0,0,0,0,0,1.69,1.69,0,0,1,.11.32,0,0,0,0,0,0,0s0,.09.06.11h0a0,0,0,0,1,0,.07l0,.05,0,.06h0a1.87,1.87,0,0,1,.65.69h0s.09,0,.11.07h0a.28.28,0,0,1,.24.16h0s.1,0,.11.07h0s.1,0,.12.07h0a.07.07,0,0,1,.07,0h0s.08,0,.11.06h0s.09,0,.12.06h0c0,.06.14,0,.17.08h0s.1,0,.12.06h0s.09,0,.13.06h0s.09,0,.12.05a0,0,0,0,0,0,0s.1,0,.14.06h0s.08,0,.12,0h0a.43.43,0,0,0,.47-.24,1.42,1.42,0,0,1,.31-.34h0a.2.2,0,0,1,.06-.06h0a.89.89,0,0,1,.36-.35h0a1,1,0,0,1,.35-.29h0a1.13,1.13,0,0,1,.82-.48h0c0-.07.13,0,.18-.07h0c.12-.12.28-.09.42-.11a0,0,0,0,0,0,0,.79.79,0,0,1,.47,0,0,0,0,0,0,0,0c.15,0,.32,0,.42.16a0,0,0,0,0,0,0,.19.19,0,0,1,.2.17h0l.06.06h0a.2.2,0,0,1,.06.07h0a.11.11,0,0,1,.06.09,0,0,0,0,0,0,0l0,.06h0c.13.08.23.18.16.35v0h0c-.12.12-.26,0-.4.06s-.21,0-.31,0h0c0,.07-.13,0-.18.06h0c-.06.11-.19.11-.28.18h0a.15.15,0,0,1-.06.06h0a.21.21,0,0,1-.06.07h0s0,.1-.07.1h0a.19.19,0,0,1-.1.19h0c0,.18-.11.4.18.47h0a1.59,1.59,0,0,1,.35-.12h0c.06-.06.14,0,.2-.05a0,0,0,0,0,0,0,1.47,1.47,0,0,1,.93-.06,0,0,0,0,0,0,0c.07.06.18,0,.25.07h0c.22.06.44.1.53.34h0l.06.06h0l.06.06h0a.17.17,0,0,1,.06.07h0c.14,0,.15.14.17.25a0,0,0,0,0,0,0s0,0,0,.08a0,0,0,0,0,0,0l0,.07h0c.05,0,0,.09.06.14a0,0,0,0,0,0,0c0,.11,0,.13-.1.14a.62.62,0,0,1-.48-.14h0c-.06,0-.14,0-.2-.05h0c-.07-.06-.17,0-.23-.05h0a.81.81,0,0,0-.42,0h0a.62.62,0,0,1-.24.11h0a.12.12,0,0,1-.07.06h0a.09.09,0,0,1-.07.07h0a.14.14,0,0,1-.11.13h0s0,.1-.07.12h0c0,.08,0,.18-.11.24h0a1.81,1.81,0,0,0,0,.41h0c.07.05,0,.13.06.19a0,0,0,0,0,0,0c.08.07.06.15.05.24a.06.06,0,0,0,0,.06.7.7,0,0,1,.05.35v.06a.85.85,0,0,1,0,.47l0,.17a.22.22,0,0,1-.06.29h0a1.07,1.07,0,0,1-.12.3h0c0,.13-.1.21-.18.29h0a.67.67,0,0,1-.32.43l-.06,0-.05,0-.09.06-.06,0-.12.07-.09.05-.05,0-.06,0h0l-.06,0-.06,0-.06,0-.06,0-.07,0-.11,0h-.08c-.15-.05-.1-.15-.07-.25A.59.59,0,0,1,63,64.3h0A1,1,0,0,1,63.2,64h0a1.19,1.19,0,0,0,.13-.57c0-.29-.1-.35-.56-.38h0c-.07.06-.17,0-.25.05h0c-.12.07-.25,0-.37.05H62a.55.55,0,0,1-.52-.28c-.06-.11-.14-.15-.25-.06h0s0,.09-.06.12h0s0,.1-.07.12h0a.09.09,0,0,1-.07.07h0c-.17.17-.38.11-.57.08h-.06a1.89,1.89,0,0,0-.85.06h0a.14.14,0,0,1-.07,0h0a.78.78,0,0,1-.23.19h0l-.06.06h0l0,.06a0,0,0,0,0,0,0,1.57,1.57,0,0,0-.05.51,0,0,0,0,0,0,0s0,.08.05.12h0s0,.09.06.12h0a.12.12,0,0,1,.06.09v0h0a.43.43,0,0,1,.11,0c.07.06.13.13.08.23s-.13,0-.21,0A.27.27,0,0,1,59,64.7h0c0-.05-.13,0-.18-.06l-.05,0-.16,0h-.08a1.44,1.44,0,0,0-.31-.12l-.07-.06A2.23,2.23,0,0,1,58.07,62l0-.07a.57.57,0,0,0,.14-.19l0-.06.05-.05,0,0a.46.46,0,0,0,.09-.11l.06,0,.12-.09a2.25,2.25,0,0,0,.36-.48.25.25,0,0,1,0-.07.42.42,0,0,0,0-.12.11.11,0,0,0,0,0l-.07,0-.06,0-.09,0h-.06l-.13,0-.07,0a1.62,1.62,0,0,0-.24-.1l-.07,0a2.82,2.82,0,0,0-.4-.14h-.07l-.14-.05-.06,0a.4.4,0,0,1-.12-.13h0c-.05,0-.14,0-.18-.06h0a.28.28,0,0,0-.14,0H57c-.09,0-.16-.05-.25-.06h-.07a.67.67,0,0,0-.33-.1c-.62-.2-1.22-.44-1.84-.63a2.35,2.35,0,0,1-.8-.56l-3.11-2.67c-.57-.49-1.12-1-1.73-1.48a3.75,3.75,0,0,0,.52,1.43,6.44,6.44,0,0,0,1.83,1.92,17,17,0,0,0,4.07,2,2.83,2.83,0,0,1,.82.35s.07.09,0,.16h0l-.06.06h0c0,.16-.17.18-.28.24h0l-.06.05h0a.12.12,0,0,1-.07.06h0c0,.07-.08,0-.11.07h0s-.08,0-.11.06h0s-.08,0-.11.06h0s-.08,0-.12.06h0s-.09,0-.13.05h0c0,.09-.13,0-.19.06h0c-.07.06-.17,0-.24.05h-.05a3.63,3.63,0,0,1-1,0h0c-.09-.06-.21,0-.3-.06h0a1.21,1.21,0,0,1-.43-.11h0c-.06-.07-.17,0-.23-.07h0c-.06,0-.14,0-.18-.06h0s-.09,0-.13,0h0a1.48,1.48,0,0,1-.48-.18h0c-.15,0-.32,0-.47-.07.14.11.13.29.24.42h0s.15,0,.16.13h0a.25.25,0,0,1,.07.06h0c.06,0,.15,0,.17.12h0a.12.12,0,0,1,.06,0,0,0,0,0,0,0,0s.07,0,.08.05h0s.1,0,.12.07h0a.29.29,0,0,1,.3.17h0a.88.88,0,0,1,.35.18h0s.1,0,.12.06h0a.51.51,0,0,1,.35.19h0s.05,0,.07.05h0c.07,0,.19,0,.22.13h0a.14.14,0,0,1,.07.06h0c.07,0,.15,0,.17.12h0c.06,0,.09.07.13.1h0s.09,0,.1.08h0c.17.05.23.2.29.35h0c.05,0,0,.08.07.12h0s0,.08.06.12h0s0,.09.06.14a0,0,0,0,0,0,0c.2.36.12.93-.44.93h-.38a1.81,1.81,0,0,1-.76-.12h0c-.07-.06-.17,0-.24-.06h0c-.07-.06-.17,0-.24-.06h0c-.05,0-.14,0-.18-.06h0c-.05,0-.13,0-.18-.06h0c0-.05-.13,0-.18-.06h0c-.05,0-.13,0-.17-.06h0c0-.05-.13,0-.18-.06h0s-.13,0-.18-.06h0c-.2-.07-.43-.06-.59-.23h0a7.85,7.85,0,0,0-.93-.23c0,.23.18.38.21.6h0c.06,0,0,.07.08.1h0a.33.33,0,0,1,.11.12h0a.37.37,0,0,1,.29.29h0a.16.16,0,0,1,.07.06h0a.19.19,0,0,1,.07.06h0l.06.06h0a.22.22,0,0,1,.12.11h0a.8.8,0,0,1,.34.31h0a.09.09,0,0,1,.07.07h0a.1.1,0,0,1,.07.07h0a.11.11,0,0,1,.07.07h0a.35.35,0,0,1,.23.24h0a.09.09,0,0,1,.07.07h0c.07,0,.08.11.13.17h0s.1.06.1.13h0c.06,0,0,.08.07.11h0a.12.12,0,0,1,.06.09v0h0a.06.06,0,0,1,0,.07l0,.05a.17.17,0,0,1,0,.08,0,0,0,0,0,0,0c.14.12.08.28.11.42a.39.39,0,0,0,0,.2c0,.06,0,.14-.06.19h0s0,.1-.07.12h0a.11.11,0,0,1-.06.07h0a.11.11,0,0,1-.07.06h0c0,.06-.07,0-.11.07h0s-.09,0-.12.06h0c-.09.09-.22,0-.31.06a.63.63,0,0,0-.26,0c-.12-.05-.26,0-.36-.06h0c-.05,0-.13,0-.18-.06h0c-.12-.06-.26-.07-.35-.18h0a.43.43,0,0,1-.18-.13h0a.12.12,0,0,1-.07-.06h0c-.1,0-.14-.09-.18-.17h0a.08.08,0,0,1-.06-.06h0a1.82,1.82,0,0,1-.52-.71h0c-.05,0,0-.08-.07-.12h0c-.26-.19-.29-.5-.41-.76h0c-.21-.23-.27-.55-.47-.78,0,0-.06-.14-.14-.12s-.08.13,0,.22h0a.3.3,0,0,1,0,.29,1.53,1.53,0,0,0,0,.44c-.07.22,0,.45-.05.66a.26.26,0,0,0,0,.16c-.06.25,0,.52,0,.77a.78.78,0,0,0,0,.29c.05.29.05.59.11.88a0,0,0,0,0,0,0,1.65,1.65,0,0,1,.11.35h0s0,.09.05.12h0s0,.09.06.14a0,0,0,0,0,0,0s0,0,0,.07h0c.1,0,.11.13.13.22h0a.77.77,0,0,1,.22.3h0a2.24,2.24,0,0,1,.3.33h0c.06.05.14.09.16.18h0a.11.11,0,0,1-.07.09h0a.18.18,0,0,1-.17.18h0a.57.57,0,0,1-.23.24h0l-.05.06h0c-.12.13-.19.31-.36.39h0a.12.12,0,0,1-.06.07h0a.16.16,0,0,1-.06.06h0l-.06.06h0l-.06.06h0c0,.1-.1.13-.17.18h0c-.1.08-.12.23-.25.27h0a.1.1,0,0,1-.06.07h0a.28.28,0,0,1-.17.18h0a.4.4,0,0,1-.17.18h0c0,.06-.07.08-.11.12h0a1.07,1.07,0,0,1-.47.51h0a.2.2,0,0,1-.06.06h0a.24.24,0,0,1-.11.12h0a1.57,1.57,0,0,1-.36.39h0a.15.15,0,0,1-.11.12h0a.17.17,0,0,1-.11.12h0l-.06.06h0c-.08.2-.28.31-.42.45h0c-.21,0-.23-.06-.33-.28h0c-.09-.12-.24-.2-.29-.36h0c-.14,0-.17-.18-.24-.29h0c-.09-.09-.22-.14-.23-.29h0a.72.72,0,0,1-.24-.3h0a.11.11,0,0,1-.06-.07h0a.76.76,0,0,1-.19-.23h0a.12.12,0,0,1-.06-.07h0a.76.76,0,0,1-.24-.29h0c-.09-.09-.22-.14-.24-.29h0c-.12-.06-.16-.19-.24-.29h0a.13.13,0,0,1-.06-.07h0c-.1-.09-.21-.16-.24-.3h0a1.1,1.1,0,0,1-.18-.23h0c-.18-.09-.24-.27-.34-.42h0a1,1,0,0,1-.24-.29h0c0-.08,0-.12.06-.16h0a.1.1,0,0,1,.07-.07h0c0-.17.2-.24.3-.35h0a.05.05,0,0,1,.05-.07h0a.2.2,0,0,1,.06-.07h0c.08-.11.11-.26.24-.34h0c0-.1,0-.25.18-.29h0c.08-.16.15-.32.24-.48h0s0-.1.06-.13h0c0-.41.24-.75.27-1.16a12.88,12.88,0,0,0,.09-1.73,3.58,3.58,0,0,0,0-.55.49.49,0,0,1-.22.1h0c-.06.08,0,.21-.18.23h0a.75.75,0,0,1-.12.17h0a.22.22,0,0,1-.06.07h0a.39.39,0,0,1-.17.23h0c0,.05,0,.14-.12.17h0a.59.59,0,0,1-.12.17h0a.16.16,0,0,1-.06.07h0a.78.78,0,0,1-.36.46h0a.11.11,0,0,1-.06.07h0a.15.15,0,0,1-.06.07h0c-.08.22-.28.34-.46.47h0a.14.14,0,0,1-.12.11h0a.11.11,0,0,1-.07.06h0a1.14,1.14,0,0,1-.46.3h0c0,.05-.09,0-.11.06h0s-.09,0-.12.05h0c-.05.06-.14,0-.2.06h0c-.35,0-.71.14-1-.06h0c-.08,0-.18,0-.23-.13h0a.1.1,0,0,1-.07-.06h0c-.24-.13-.22-.36-.2-.57a1.54,1.54,0,0,1,.31-.7h0c0-.07,0-.14.13-.17h0a.52.52,0,0,1,.4-.42h0a.15.15,0,0,1,.07-.06h0c.05-.13.19-.17.29-.24h0a.15.15,0,0,1,.07-.06h0a1.42,1.42,0,0,1,.52-.42h0l.06-.06h0a.16.16,0,0,1,.07-.06h0a.12.12,0,0,1,.07-.06h0a.1.1,0,0,1,.07-.06h0a.09.09,0,0,1,.07-.07h0A.09.09,0,0,1,41.4,64h0a.09.09,0,0,1,.07-.07h0a.1.1,0,0,1,.06-.07h0c.15-.19.2-.44.4-.59A.46.46,0,0,0,42,63c0-.11,0-.11-.12-.07h0c-.07.1-.19.09-.29.12h0s-.09,0-.14.05h0a.38.38,0,0,1-.25.1,0,0,0,0,0,0,0s-.09,0-.12.05h0a.93.93,0,0,1-.61.23h0a.12.12,0,0,1-.12,0,.06.06,0,0,0-.05,0s-.09,0-.13,0h0c-.07.12-.2.07-.3.1h0c0,.07-.13,0-.18.06h0c-.05.1-.15,0-.23.07h0a.33.33,0,0,1-.18.05h-.06a.79.79,0,0,1-.43.11h0c-.08.06-.18,0-.26.05h0a2.2,2.2,0,0,1-.87,0h0s-.1,0-.14-.06h0a.46.46,0,0,1-.17-.63h0s0-.14.06-.17h0s0-.1.06-.13h0a.87.87,0,0,1,.3-.47h0s0-.06.06-.06h0a.11.11,0,0,1,.07-.07h0a.11.11,0,0,1,.07-.07h0a.1.1,0,0,1,.07-.06h0a.48.48,0,0,1,.24-.18h0a.35.35,0,0,1,.18-.12h0c0-.07.08,0,.11-.07h0c0-.09.14-.1.22-.12h0s0,0,.07,0h0c0-.06.08,0,.12-.07h0c0-.07.08,0,.12-.06h0c.06-.09.15-.09.24-.12h0c0-.06.08,0,.12-.06h0s.08,0,.12-.06h0c.06-.08.15-.08.23-.13h0a.69.69,0,0,1,.19-.11h0c0-.06.08,0,.11-.07h0a.18.18,0,0,1,.07-.05h0c0-.06.08,0,.11-.07h0s.06-.1.13-.1h0a1,1,0,0,1,.32-.32c.06,0,.13-.12.09-.19s-.15-.06-.23-.05-.19.16-.32.19-.39.08-.59.13h0c0,.07-.13,0-.18.06h0c0,.06-.13,0-.18.06h0a2.62,2.62,0,0,1-.76.18h0a2.28,2.28,0,0,1-.58.05.44.44,0,0,0-.22,0c-.12-.06-.25,0-.37-.05h0c-.06,0-.14,0-.2-.06h0s-.14,0-.18-.07h0s-.1,0-.12-.06h0s-.1,0-.11-.06h0a.17.17,0,0,1-.07-.05h0c-.37-.1-.5-.43-.68-.71h0c-.06,0,0-.08-.07-.12h0a.09.09,0,0,1,0-.11c.12-.16.32-.14.48-.16a8.69,8.69,0,0,0,4.25-1.95,14,14,0,0,0,2.72-3c.08-.12.27-.28.14-.4s-.25.1-.36.18a13.26,13.26,0,0,0-1.18,1.08c-.87.82-1.74,1.63-2.6,2.46l-1,1a1.44,1.44,0,0,1-.77.43,10.17,10.17,0,0,1-1.8.29.91.91,0,0,0-.25,0h0c-.07.07-.17,0-.24.05h0c-.09.09-.22,0-.31.06h0c-.08.06-.18,0-.26.05h0c-.08.06-.18,0-.26.05h0c-.08.06-.18,0-.26.05h0c-.08.06-.18,0-.26.05h0c-.08.06-.18,0-.26.05h0c-.07.08-.17,0-.26.05h0c-.06.13.05.24.05.36h0a1.7,1.7,0,0,1,.4.71h0c.05,0,0,.08.07.12h0c.06,0,0,.08.06.11h0a.46.46,0,0,1,.12.23h0s0,.09.06.12h0a.72.72,0,0,1,.11.24h0c.06,0,0,.09.06.13a0,0,0,0,0,0,0s0,.08,0,.12h0c.06,0,0,.13.06.18h0c.06.06,0,.14.06.2a0,0,0,0,0,0,0c.11.11,0,.25.05.37a.16.16,0,0,0,0,.13c-.06.16,0,.35-.11.49a0,0,0,0,0,0,0c0,.08,0,.17-.11.19h0c0,.06,0,.15-.12.17h0a.18.18,0,0,1-.06.06h0a.08.08,0,0,1-.06.06h0a.24.24,0,0,1-.25.18c-.12,0-.11-.16-.15-.24h0s0-.08-.06-.12h0a6,6,0,0,1-.35-.59h0c-.16-.23-.44-.35-.59-.59h0l-.07,0a0,0,0,0,0,0,0s-.1,0-.14-.05h0a3,3,0,0,0-.54,0h0s-.13,0-.17.05h0c0,.06-.13,0-.18.06h0a.78.78,0,0,1-.73-.1c-.06,0-.15-.14-.26-.07h0s0,.09-.07.11h0s0,.1-.07.12h0a.27.27,0,0,1-.23.24h0a.21.21,0,0,1-.29,0h-.1a1.11,1.11,0,0,0-.49,0h0c-.07.1-.2.1-.29.18h0c-.11.12-.11.28-.18.41h0c0,.1.09.19.05.3h0c.06,0,0,.08.07.11h0a.14.14,0,0,1,.06.07h0a.15.15,0,0,1,.12.12h0a.65.65,0,0,1,.29.24h0a.11.11,0,0,1,.07.06h0a.29.29,0,0,1,.07.05h0c0,.16-.15.08-.23.06h-.06c-.07-.06-.17,0-.24-.06h0c-.09,0-.22,0-.29-.11h0s-.08,0-.11-.06h0c-.07,0-.18,0-.22-.13h0a.06.06,0,0,1-.07-.05h0a.22.22,0,0,1-.06-.06h0a.54.54,0,0,1-.23-.24h0a.16.16,0,0,1-.06-.07h0a.65.65,0,0,1-.24-.47h0a2.3,2.3,0,0,1,.3-2h0a.4.4,0,0,1,.09-.18.46.46,0,0,0,0-.66h0a.1.1,0,0,1-.07-.07h0a.12.12,0,0,1-.07-.06h0s-.1,0-.12-.07h0a.83.83,0,0,1-.3-.1h0c-.3,0-.61,0-.91,0h0c-.13.11-.29,0-.43.06h-.09c-.1.06-.21,0-.31.05h0c-.15-.15,0-.27.05-.4h0a1.21,1.21,0,0,1,.64-.82h0s.08,0,.12-.07h0s.09,0,.13-.06h0a.13.13,0,0,1,.12,0l.11,0a1.81,1.81,0,0,1,.75,0h0c.07.05.17,0,.24.05h0c.07.06.17,0,.24.06h0c.05,0,.13,0,.18.05a0,0,0,0,0,0,0,.45.45,0,0,1,.14,0,0,0,0,0,0,0,0c.14,0,.22,0,.18-.16a1.7,1.7,0,0,0-.09-.32h0A.45.45,0,0,1,28,58.8h0a.09.09,0,0,1-.07-.06h0c-.07,0-.14,0-.18-.12h0c-.08,0-.19,0-.24-.11h0c-.05,0-.13,0-.18-.06h0a2.18,2.18,0,0,1-.47-.11h0c-.1-.05-.22,0-.31-.05h0c-.12-.15.07-.19.11-.28h0A.82.82,0,0,1,27,57.6h0a.44.44,0,0,1,.18-.12h0l.07-.09.06,0a.93.93,0,0,1,.24-.12h.08c.11,0,.21,0,.32,0a.61.61,0,0,0,.16,0h.17l.13,0a.67.67,0,0,1,.22.15h0c.06,0,.12,0,.18,0a.06.06,0,0,1,.05,0h0s.09,0,.13.05h0a.15.15,0,0,0,.12,0h.06l.09,0,.06,0,.09,0,.06,0,0,.06,0,0a.25.25,0,0,0,.12.07l.07,0,0,.05v0a.09.09,0,0,0,0,.06h0s.12,0,.17.06l.07,0a.5.5,0,0,1,.12.15l0,.07c.19.2.46.32.53.62h0c.38.37.72.13,1.07-.06s.48-.26.71-.41l.05-.06.06-.06,0,0a1.18,1.18,0,0,0,.58-.56.35.35,0,0,1,.06-.1,3.41,3.41,0,0,0,.58-1.85.22.22,0,0,1,0-.08c0-.05.1,0,.15-.06h0c.11-.18.3-.17.47-.23h0a.92.92,0,0,1,.12-.13l.05,0,.05,0,.06,0,.06,0L35,55l.09,0,.06,0,.15-.08.06,0a1.34,1.34,0,0,1,.26-.14c.11,0,.22,0,.33-.1h0a2,2,0,0,1,.6-.49,2.75,2.75,0,0,1,.66-.41c.34-.35.72-.66,1.08-1l.05-.06.05-.06,0,0c.18-.21.39-.39.58-.6l0-.07.06-.06,0,0a11.43,11.43,0,0,0,1.52-2.53,1.57,1.57,0,0,0-.31.36A7.38,7.38,0,0,1,38.92,51a2.09,2.09,0,0,1-.75.35,2.19,2.19,0,0,1-.35.2.62.62,0,0,1-.74-.16.5.5,0,0,1,0-.69c.66-.95,1.34-1.88,2-2.82,0-.06.11-.11.11-.22a2.68,2.68,0,0,0-1.82,1,6.6,6.6,0,0,0-.81,1.47c-.31.69-.57,1.41-.86,2.11a9.37,9.37,0,0,1-.61,1.12l0,.06L35,53.5l0,0c-.11.09-.14.24-.26.32l-.1.1,0,.05-.08.06,0,0-.05,0-.06,0a.2.2,0,0,0-.11.07l-.05,0a.44.44,0,0,1-.12.08l-.07,0a.77.77,0,0,1-.28.1l-.07,0-.13.09-.08,0c-.07,0-.13,0-.2.06h-.09c-.26,0-.53.07-.77-.09h0a.39.39,0,0,0-.14,0H32l-.07,0-.17-.09-.06,0-.1-.16h0a1,1,0,0,1-.34-.21L31.21,54a1.71,1.71,0,0,1-.25-.61.21.21,0,0,1,0-.08.38.38,0,0,1,.13-.11,6.83,6.83,0,0,0,3.27-2.69,23.08,23.08,0,0,0,2.16-4.11,6.46,6.46,0,0,0,.4-.94,3.45,3.45,0,0,0-1,.42,7.76,7.76,0,0,0-2.45,2.31c-.78,1.09-1.39,2.29-2.06,3.44-.2.34-.39.67-.6,1a1.42,1.42,0,0,0-.19.23l0,.06,0,.05,0,0-.07.07,0,0a.4.4,0,0,0-.08.1l0,.06,0,.06,0,0a.41.41,0,0,0-.07.12l0,.06,0,.05,0,0c-.06.07-.1.14-.16.2l0,.06-.08.11,0,.06,0,.05,0,0a.3.3,0,0,0-.12.12l0,.06,0,.05,0,0-.05.05,0,0a2.13,2.13,0,0,0-.37.35l0,.06,0,.06,0,0-.06,0,0,0a1.35,1.35,0,0,0-.24.18l-.06,0c-.12,0-.2.16-.33.19l-.06,0-.08.06-.06,0h-.15l-.09,0h0a.49.49,0,0,1-.16.15l-.09,0c-.19.06-.38-.07-.57,0h0a.29.29,0,0,1-.23.09h-.89a.25.25,0,0,1-.21-.08h-.1a1,1,0,0,0-.33,0l-.08,0a.54.54,0,0,1-.24,0h-.07l-.17-.05-.06,0a.23.23,0,0,0-.12-.06l-.06,0h-.17a.5.5,0,0,1-.21-.19h0a.37.37,0,0,1-.18-.11h0a.6.6,0,0,1-.18-.13h0a.26.26,0,0,1-.18-.18h0a.9.9,0,0,1-.18-.93h0c0-.05,0-.14.07-.18h0c.1-.22.15-.48.41-.58h0c0-.08.11-.09.17-.12h0c0-.05.08,0,.13-.06h0c0-.09.13,0,.17-.07h0c.05-.06.14,0,.2-.06a0,0,0,0,0,0,0c.08-.06.18,0,.26-.05a0,0,0,0,0,0,0,2.62,2.62,0,0,1,.52-.06.34.34,0,0,0,.18,0c.27-.07.55,0,.82,0a.32.32,0,0,0,.17,0c.11-.05.24,0,.35,0l.11,0c.07-.06.17,0,.24-.05h0c.11-.13.27-.08.41-.12h0c.05-.09.16-.07.24-.11h0c.08-.06.14-.15.25-.16h0c.27-.34.63-.59.89-.95l0-.06.07-.09.06-.05.17-.15.06,0,.06,0,0,0a1.47,1.47,0,0,1,.18-.23l.05-.06a1.36,1.36,0,0,0,.38-.43c.07-.15.25-.19.34-.33h0a1.79,1.79,0,0,1,.47-.59h0a5.29,5.29,0,0,1,.84-1.17,4.9,4.9,0,0,0,.71-1s0-.06,0-.08a15.63,15.63,0,0,0,1.07-1.55c.4-.49.71-1.06,1.13-1.54h0c-.45.38-.92.71-1.34,1.11a3.19,3.19,0,0,0-.38.39,3.14,3.14,0,0,1-.73.64h0c0,.2-.11.37-.34.41h0a.19.19,0,0,1-.11.13h0a1.21,1.21,0,0,1-.41.52h0a.23.23,0,0,1-.06.07h0a1.23,1.23,0,0,1-.48.68c-.15.1-.25.3-.4.42h0a.13.13,0,0,1-.06.07h0a.24.24,0,0,1-.06.06h0a2.75,2.75,0,0,1-.6.85.46.46,0,0,1-.34.19h0a.15.15,0,0,1-.06.06h0c-.07.16-.13.34-.35.34h0a1,1,0,0,1-.17.24l0,.06,0,.05,0,0,0,0,0,0-.05,0-.06,0-.08,0,0,0-.08.06-.06,0-.06,0-.07,0-.1,0-.07,0a2,2,0,0,1-.66.15c-.1,0-.2,0-.29,0h0a.1.1,0,0,1-.08,0c-.17,0-.29.1-.44.13a1.14,1.14,0,0,1-.19,0H25.6a.61.61,0,0,1-.2,0,1,1,0,0,0-.46-.14h0a2.89,2.89,0,0,1-1.09-.24l-.07,0a5,5,0,0,1-.48-.42.24.24,0,0,1,0-.08,1,1,0,0,1,.11-.9h0s0-.1.07-.12h0a.34.34,0,0,1,.12-.18h0a.15.15,0,0,1,.1-.13h0a.92.92,0,0,1,.59-.46h0a.12.12,0,0,1,.12,0l.05,0c.15-.12.33-.07.49-.11a.24.24,0,0,0,.15,0c.42-.05.84,0,1.27,0a1.09,1.09,0,0,0,.37,0h0c.15-.09.31,0,.47-.06h0c.06-.1.17,0,.23-.06h0a1.52,1.52,0,0,1,.29-.12h0a.75.75,0,0,1,.18-.11h0a.43.43,0,0,1,.18-.12h0a.34.34,0,0,1,.18-.12h0c0-.06.08,0,.11-.07h0c.09-.25.36-.26.54-.4h0a.66.66,0,0,1,.23-.18h0c0-.06.06-.1.13-.11h0a.91.91,0,0,1,.29-.24h0c.09-.17.27-.23.4-.36h0S29.9,46,30,46h0a2.71,2.71,0,0,1,.59-.58h0a.16.16,0,0,1,.06-.06h0c0-.16.18-.23.28-.33.32-.31.6-.64.91-1a.43.43,0,0,1,.1-.06h0a.65.65,0,0,1,.29-.34.28.28,0,0,0,.12-.12,7.28,7.28,0,0,1,1.55-1.67h0A12.38,12.38,0,0,0,32.22,43a1,1,0,0,1-.34.15h0a.1.1,0,0,1-.07.06h0c0,.08-.11.08-.16.13h0l-.06.05h0c-.06.1-.09.23-.24.22h0a.09.09,0,0,1-.07.07h0c0,.08-.11.08-.15.14h0c-.05.14-.19.2-.3.28h0a.17.17,0,0,1-.06.06h0a.13.13,0,0,1-.07.06h0a.06.06,0,0,1-.06.06h0a.1.1,0,0,1-.07.07h0c0,.15-.19.15-.27.25h0l-.06.05h0a.12.12,0,0,1-.06.06h0l-.06.06h0a.19.19,0,0,1-.06.06h0a.16.16,0,0,1-.12.11h0c-.06.12-.19.16-.28.24h0a.46.46,0,0,1-.35.29h0l-.06.05h0a.07.07,0,0,1-.06.06h0c0,.1-.11.08-.16.13h0L29,45.7h0a.14.14,0,0,1-.07.06h0a.59.59,0,0,1-.34.24h0a.15.15,0,0,1-.07.06h0c0,.05-.08,0-.11.07h0a.26.26,0,0,1-.29.18h0c0,.08-.12.08-.18.11h0c0,.06-.08,0-.11.06h0a1.35,1.35,0,0,1-.47.23h0c0,.08-.12,0-.17.07h0s-.08,0-.12.05h0a.85.85,0,0,1-.69.22,3.22,3.22,0,0,1-1.4-.16h0c-.06,0-.13,0-.18-.06h0a.88.88,0,0,1-.43-.18h0c-.18-.11-.44-.1-.53-.35h0a.22.22,0,0,1-.12-.12h0a.83.83,0,0,1-.17-1h0c.06-.16.1-.34.29-.41h0s.06-.1.12-.11h0a.23.23,0,0,1,.24-.16h0c.06-.12.19-.09.29-.13h0c0-.07.13,0,.18-.06h0c.11-.08.23,0,.35-.06h.11c.47-.06.94,0,1.4,0a2.29,2.29,0,0,0,.54,0h.09c.1-.06.22,0,.32-.05a0,0,0,0,0,0,0,1.17,1.17,0,0,1,.48-.17h0c0-.07.13,0,.17-.07h0a1.24,1.24,0,0,1,.47-.23h0c.06-.08.15-.08.23-.12h0c0-.08.12-.09.19-.11h0a.53.53,0,0,1,.29-.18h0a.5.5,0,0,1,.18-.12h0s.08,0,.11-.07h0c0-.13.16-.12.24-.17h0c0-.07.12-.08.17-.12h0c0-.09.12-.07.17-.12h0c.06-.06.1-.14.19-.16h0a2.33,2.33,0,0,1,.64-.54h0c.09-.14.17-.3.36-.34h0a.2.2,0,0,1,.12-.12h0A9.63,9.63,0,0,1,32.66,40a1.91,1.91,0,0,1,.19-.22l.05-.06,0,0,.06,0,0,0,0,0h0l0,0,0,0,0,0,0,0-.05.06A5.21,5.21,0,0,1,31.18,41h0a.16.16,0,0,1-.07.06h0c0,.08-.11.08-.17.12h0a.06.06,0,0,1-.07,0h0c0,.06-.08,0-.11.07h0a.15.15,0,0,1-.07.06h0c0,.06-.08,0-.11.07h0a.21.21,0,0,1-.07.06h0a1.87,1.87,0,0,1-.75.48h0a.16.16,0,0,1-.07.05h0c0,.09-.15.09-.23.13h0s-.08,0-.11.06h0a.13.13,0,0,1-.09.05h0s0,0-.07,0h0c-.05.09-.15.1-.24.12h0c0,.06-.09,0-.14.07h0c-.05.09-.16.07-.24.11h0s-.09,0-.12.06h0c-.08.09-.2.08-.31.12h0s-.09,0-.12,0h0c0,.07-.13,0-.18.06h0c-.05.06-.13,0-.19.06h0s-.13,0-.18.05h0c-.16.15-.37.06-.54.11h-.1c-.12.06-.25,0-.37,0a.12.12,0,0,0-.12,0c-.18-.07-.37,0-.55-.06h0c-.07-.05-.17,0-.24-.06h0c-.12,0-.25,0-.35-.11h0c0-.05-.13,0-.17-.07h0s-.09,0-.12-.06h0a.63.63,0,0,1-.35-.18h0c-.06,0-.14,0-.18-.12h0a1,1,0,0,1-.52-.53h0a.93.93,0,0,1-.06-1h0s0-.1.06-.13h0c.08-.17.16-.34.35-.4h0c0-.09.15-.09.23-.13h0c.14-.13.32-.1.48-.12H25a.9.9,0,0,1,.46,0h.17c.13,0,.28,0,.41,0h.06s0,0,.06,0h0c.21,0,.45,0,.65.11h0c.11.07.25,0,.36.06a0,0,0,0,0,0,0c.14.06.29,0,.43.05h.09a1,1,0,0,0,.45,0,0,0,0,0,0,0,0c.22,0,.41-.19.65-.17h0c0-.08.13,0,.18-.06h0c0-.06.08,0,.12-.05h0a.75.75,0,0,1,.29-.13h0a.18.18,0,0,1,.18-.1h0c0-.05.08,0,.12-.07h0s.08,0,.11-.07h0a.22.22,0,0,1,.07-.05h0c.09-.16.27-.19.41-.29h0c0-.09.11-.09.17-.13h0c0-.05.06-.11.13-.11h0c0-.07.12-.09.17-.13h0A.25.25,0,0,1,31,39h0a.06.06,0,0,1,.06-.06h0a.11.11,0,0,1,.07-.06h0a16.8,16.8,0,0,1,1.34-1.44l.18-.13h0a1.84,1.84,0,0,0-.21.17,4.33,4.33,0,0,1-1.49.86h0s-.08,0-.12.07h0c0,.05-.08,0-.12.06h0c-.05.08-.16.07-.23.12h0s-.08,0-.12.06h0s-.08,0-.12.06h0s-.08,0-.12.06h0s-.08,0-.12.06h0c0,.08-.13,0-.17.07h0c-.08.09-.2.08-.3.11h0c0,.06-.13,0-.18.06h0c-.05.06-.14,0-.2.06h0c-.06.05-.13,0-.19.05h0a1.28,1.28,0,0,1-.7.12h-.06a3.46,3.46,0,0,1-.93,0,.23.23,0,0,0-.15,0c-.12-.06-.26,0-.37-.06h0c-.07-.06-.17,0-.24-.05h0c-.06,0-.14,0-.19-.06h0c0-.06-.14,0-.17-.06h0a.84.84,0,0,1-.41-.17h0c-.07,0-.17,0-.23-.11h0a.15.15,0,0,1-.08,0,0,0,0,0,0,0,0s-.11,0-.14-.07h0a.37.37,0,0,1-.19-.11h0a1.27,1.27,0,0,1-.58-.36h0c-.12-.05-.25-.09-.29-.23h0a.06.06,0,0,1-.06-.06h0a.18.18,0,0,1-.06-.06h0a.2.2,0,0,1-.11-.12h0a.91.91,0,0,1-.22-1.18.41.41,0,0,1,.22-.21h0a.13.13,0,0,1,.07-.06h0c0-.11.15-.09.23-.12h0c.06-.1.17,0,.23-.06h0a1.46,1.46,0,0,1,.87.06h0c.07.06.17,0,.24.06h0c.18.06.39,0,.53.17h0c0,.05.13,0,.18.06h0s.09,0,.12,0h0s.1,0,.13.05a0,0,0,0,0,0,0s.1,0,.14.05h0c0,.05.13,0,.18.06h0s.09,0,.12,0a0,0,0,0,0,0,0,2.31,2.31,0,0,1,.42.12h0c.11.05.24,0,.35.05a.5.5,0,0,0,.27,0,.4.4,0,0,0,.28,0,.59.59,0,0,0,.33,0c.13-.07.28,0,.41-.05h0c.1-.09.24,0,.35-.06h0c.07-.07.18,0,.26-.06a0,0,0,0,0,0,0c.06-.05.14,0,.2-.05a0,0,0,0,0,0,0c.09-.12.24-.05.35-.11h0a1.57,1.57,0,0,1,.3-.11h0c0-.08.12,0,.17-.07h0c.09-.12.23-.12.36-.17h0c0-.11.16-.08.23-.12h0a5.26,5.26,0,0,1,1-.77h0a2.64,2.64,0,0,1-1.39.4h0a.21.21,0,0,1-.18,0h-.06c-.06,0-.13,0-.2,0h0c-.07.08-.16,0-.24.05h0c-.08.06-.18,0-.26,0h0c-.13.08-.29,0-.42.06h-.1a6.48,6.48,0,0,1-1.4,0h0c-.14,0-.29,0-.42-.06h0c-.07-.06-.17,0-.24-.05h0c-.06,0-.14,0-.2-.06h0c-.07-.06-.18,0-.24-.07h0c-.05,0-.14,0-.18-.07h0c-.11,0-.23,0-.29-.11h0s-.1,0-.12-.06h0a1.83,1.83,0,0,1-.94-.58h0a.17.17,0,0,1-.07-.06h0a.68.68,0,0,1-.22-.19h0a1,1,0,0,1-.53-.52h0a.12.12,0,0,1-.06-.07h0a.59.59,0,0,1-.23-.29h0a1.19,1.19,0,0,1-.3-.52h0a.82.82,0,0,1,0-.92h0a.6.6,0,0,1,.18-.24h0c0-.07.12-.08.17-.13h0l.07-.05h0s.08,0,.12-.06h0s.09,0,.14-.06a0,0,0,0,0,0,0c.08,0,.15-.09.24-.13s.17.05.26,0,.21,0,.3,0a.19.19,0,0,1,.06.07h0a.31.31,0,0,0,.15,0h.08a.52.52,0,0,1,.16,0,16,16,0,0,1,2.22,1.26,8.59,8.59,0,0,0,1.84.92,2.16,2.16,0,0,0,2.57-.81,8.35,8.35,0,0,1-6.23-1.52,1.05,1.05,0,0,0-.3-.31l-.07,0,0-.06,0,0,0-.07,0,0a1.71,1.71,0,0,1-.41-.51h0a.17.17,0,0,1-.06-.07h0a1.59,1.59,0,0,1-.35-.32l-.05-.06-.09-.15,0-.08a5,5,0,0,1-.74-3.1c0-.14,0-.27,0-.41a1.55,1.55,0,0,1,.5-1.07.77.77,0,0,1,.38-.18h.09a.74.74,0,0,1,.39.2h0c.08,0,.18,0,.23.12h0a.23.23,0,0,1,.07.05h0s.09,0,.11.07h0a.91.91,0,0,1,.48.39l0,.06c.07.13.17.23.23.37h0a.55.55,0,0,1,.18.3h0c.27.11.26.35.3.58h0s0,.08.06.13h0c.09,0,0,.13.07.16h0s0,.09.05.12h0s0,.09.06.12h0a2.25,2.25,0,0,1,.18.19.18.18,0,0,1,0,.07s0,.09,0,.14h0s0,.09.06.12h0s0,.05.06.08l.05,0a.25.25,0,0,1,0,.09.25.25,0,0,1,0,.07.57.57,0,0,0,0,.1,0,0,0,0,0,0,0,.15.15,0,0,1,0,.08,0,0,0,0,0,0,0s.12.06.15.12l0,.07,0,.07,0,.07a.41.41,0,0,0,.09.2l.05,0,.05.1,0,.07c0,.09.12.12.18.18l.05,0,.07.12,0,.05.06.07,0,0,0,0,0,0,.07.07,0,0,0,.05v0l0,.09h0a.13.13,0,0,1,.07.06h0l.06.05h0a.71.71,0,0,1,.29.18h0s.1,0,.12.06h0s.1,0,.12.07h0s.1,0,.12.06h0s0,0,.07,0a0,0,0,0,0,0,0s.11,0,.13.06h0c.09,0,.18,0,.24.11h0a6.78,6.78,0,0,1,.82.23,0,0,0,0,0,0,0,1.55,1.55,0,0,0,.61,0,0,0,0,0,0,0,0c.06-.09.17,0,.23-.06h0a1.41,1.41,0,0,1,.36-.17h0s.08,0,.11-.07h0a.21.21,0,0,1,.13-.11h0c0-.18.21-.23.3-.35h0a.44.44,0,0,1,.12-.19h0c.08-.39.18-.47.52-.42a.31.31,0,0,0,.17,0c.36.08.72-.12,1.08,0a.25.25,0,0,0,.2,0,.61.61,0,0,1,.15-.06c.55,0,1.1,0,1.64.1a.38.38,0,0,1,.3.15h0a3.36,3.36,0,0,1,.9.11,2.87,2.87,0,0,1,.78.34,1.44,1.44,0,0,0,.27.13.44.44,0,0,1,.38.35h0l.06.06h0a1.37,1.37,0,0,1,.8.94h0c.08,0,0,.13.07.18h0a1.75,1.75,0,0,1,.19.81,10.61,10.61,0,0,1-.06,1.65.36.36,0,0,1-.14.28h0a3.33,3.33,0,0,0,0,.9s0,.06,0,.1c.08.26.21.52.48.55a.8.8,0,0,0,.79-.38A8.38,8.38,0,0,0,42,35.07a.52.52,0,0,0,0-.39.44.44,0,0,1,0-.26,2.28,2.28,0,0,0-.22-1.19,1.2,1.2,0,0,1-.13-.5.2.2,0,0,0-.05-.13,9.17,9.17,0,0,0-1.8-2.13,4.19,4.19,0,0,0-1.6-.66,1.32,1.32,0,0,1-.28-.07.8.8,0,0,0-.65-.09,1.32,1.32,0,0,1-.65-.05,4.22,4.22,0,0,1-.91-.11c-.11-.05-.25,0-.37,0a.79.79,0,0,1-.5-.14h-.1c-.13,0-.26.06-.4,0l-.08,0a.39.39,0,0,0-.32-.09l-.08,0c-.08,0-.16,0-.24,0h-.08a.43.43,0,0,0-.22,0h-.08l-.18,0-.07,0a1.41,1.41,0,0,0-.32-.1h-.07l-.13,0-.06,0-.12,0h-.06l-.1,0-.06,0L32,28.8l-.06,0a.35.35,0,0,0-.22-.06l-.08,0c-.12-.13-.29-.11-.43-.17l-.07,0-.1-.06-.06,0a.71.71,0,0,0-.22-.13l-.07,0a2.12,2.12,0,0,0-.41-.3,5.67,5.67,0,0,0-.62-.42l-.06,0-.11-.11-.06-.05c-.12-.1-.26-.16-.37-.26L29,27,29,26.91l0,0c-.31-.42-.72-.74-1.06-1.13a.54.54,0,0,1-.12-.56.18.18,0,0,1,.06-.06.51.51,0,0,1,.27,0,.5.5,0,0,1,.3.19h0c0,.06.14,0,.17.08h0a.06.06,0,0,1,.07,0h0c.07.05.19,0,.22.12h0c.07,0,.15,0,.18.11h0c.06,0,.14,0,.18.11h0s.09,0,.11.07h0a.76.76,0,0,1,.18.12h0a.48.48,0,0,1,.18.12h0a.09.09,0,0,1,.06.05h0s.09,0,.11.07h0a.07.07,0,0,1,.07.05h0c.16.11.37.16.47.35h0l.06.05h0s.09,0,.1.08h0c.11,0,.14.09.19.16h0s.09,0,.11.08h0a.09.09,0,0,1,.07.06h0a.12.12,0,0,1,.07.06h0c.1,0,.13.1.18.16h0s.09,0,.11.08h0a4.89,4.89,0,0,1,.6.34h0a1.31,1.31,0,0,1,.35.12h0c.05,0,.13,0,.18.05a0,0,0,0,0,0,0c.11.06.25,0,.36.05a.42.42,0,0,0,.23,0,.07.07,0,0,1,.12,0,.29.29,0,0,0,.17,0c.1-.06.22,0,.31,0a0,0,0,0,0,0,0c0-.07.13,0,.19,0a0,0,0,0,0,0,0c.06-.06.08-.12,0-.17h0c-.08,0-.18,0-.26-.05h0a6.2,6.2,0,0,0-1.21,0,.23.23,0,0,0-.15,0c-.11,0-.21.07-.16-.12a.59.59,0,0,1,.24-.34h0A.12.12,0,0,1,32.3,27h0a.93.93,0,0,1,.34-.36h0c.17-.17.3-.41.59-.4h0c.1-.09.24-.08.35-.13h0c.09-.09.21,0,.31-.05H34a.07.07,0,0,1,.12,0h.1a1.62,1.62,0,0,0,.61,0h0c.06-.09.17,0,.23-.07h0s.09,0,.13-.06h0c0-.1.14-.11.23-.12h0c.15-.11.27-.27.48-.29h0a1.61,1.61,0,0,1,.46-.3h0c0-.05.08,0,.12-.07h0c.06-.16.23-.13.35-.18h0s.1,0,.14-.06a0,0,0,0,0,0,0c0-.07.12,0,.18-.05h0a3.41,3.41,0,0,1,.93-.11.19.19,0,0,0,.15,0c.2.07.41,0,.61.06a0,0,0,0,0,.05,0,.64.64,0,0,1,.3,0,.05.05,0,0,0,.05,0,.3.3,0,0,1,.24,0h0c.07.06.17,0,.24.06a0,0,0,0,0,0,0c.06,0,.14,0,.2.05a0,0,0,0,0,0,0c.06,0,.14,0,.2.05a0,0,0,0,0,0,0c.08.05.19,0,.25.06h0c.07.05.17,0,.24.06h0c.07.06.17,0,.24.05a0,0,0,0,0,0,0c.09.06.21,0,.3,0h.11c.26,0,.52,0,.77,0a.05.05,0,0,0,.06,0c.08-.06.18,0,.26-.05s0,0,0,0a.21.21,0,0,1,.18,0l.06,0s.08,0,.12,0h0s.08,0,.13-.06h0c.09-.12.23-.13.35-.18h0c.1-.06.14,0,.11.08s-.08.1-.13.14h0c0,.06,0,.14-.12.18h0a.14.14,0,0,1-.06.07h0a.61.61,0,0,1-.3.46h0c0,.07,0,.14-.12.18h0a.13.13,0,0,1-.06.07h0a.61.61,0,0,1-.3.46h0c0,.06,0,.14-.12.18h0s0,.09,0,.13h0c.09,0,.22,0,.3.11a.06.06,0,0,0,.05,0,.12.12,0,0,1,.12,0h0c0,.05.14,0,.17.06h0s.09,0,.12.05a0,0,0,0,0,0,0s.1,0,.14.05h0c.06,0,.13,0,.18.06h0s.09,0,.12.05a0,0,0,0,0,0,0s.1,0,.14.05h0c0,.05.13,0,.18.06h0a.3.3,0,0,1,.3.11h0c0,.06.14,0,.17.06h0a.44.44,0,0,1,.29.11h0a.07.07,0,0,1,0,.11h0a2.75,2.75,0,0,1-.67.43c-.22.11-.23.22-.16.4h0a.15.15,0,0,1,.07.06h0a.29.29,0,0,1,.17.12h0a.46.46,0,0,1,.18.12h0a.15.15,0,0,1,.07.06h0a.13.13,0,0,1,.06,0,0,0,0,0,0,0,0c.12,0,.18.11.25.18h0a.33.33,0,0,1,.18.13h0a.11.11,0,0,1,.07.06h0l.07.05h0s.1,0,.11.07h0a.81.81,0,0,1,.24.17h0s.12,0,0,.11h0a1.46,1.46,0,0,1-.49.12h0c0,.07-.13,0-.18.06h0c-.16.13-.23.26-.08.45a.53.53,0,0,1,.08.38h0c.06,0,0,.08.06.11h0s0,.08.06.11h0a.21.21,0,0,1,.05.07h0c.06,0,0,.08.07.11h0a.45.45,0,0,1,.22.36h0a.4.4,0,0,1,.12.18h0c.05,0,0,.08.07.11h0a.46.46,0,0,1,.16.25h0a.73.73,0,0,1,.24.36h0c.07,0,0,.07.07.11h0c.15.17.26.06.37-.06h0a1.52,1.52,0,0,1,.24-.41h0a.44.44,0,0,1,.11-.19h0c0-.15.12-.23.18-.34a10.29,10.29,0,0,1,.81-1.35h0a.13.13,0,0,0,0-.13h0a.11.11,0,0,1-.07-.07h0s0,0-.07,0l-.05,0c-.06,0-.13,0-.18,0h0c-.1,0-.21,0-.29-.06h0c-.08,0-.18,0-.26-.05h0c-.06-.09,0-.13.07-.16h0c0-.05.08,0,.12-.07h0a.14.14,0,0,1,.07-.06h0a.31.31,0,0,1,.18-.12h0a.54.54,0,0,1,.35-.24h0c0-.07.07,0,.1-.07h0a.12.12,0,0,1,.07-.06h0a.28.28,0,0,1,.18-.12h0c0-.06.08,0,.11-.07h0a.35.35,0,0,1,.25-.17h0c0-.05.08,0,.11-.07h0c0-.08.11-.08.18-.12h0a.11.11,0,0,0,0-.14h0a1.15,1.15,0,0,1-.46-.29h0a.13.13,0,0,1-.07-.05h0s-.09,0-.12-.07h0a.46.46,0,0,1-.18-.12h0c-.16-.15,0-.21.09-.25s.17,0,.25,0h0c0-.06.08,0,.12-.05h0c0-.08.13,0,.17-.07h0a1.87,1.87,0,0,1,.53-.23h0a.39.39,0,0,1,.29-.12h0s.09,0,.14-.06a0,0,0,0,0,0,0,.45.45,0,0,1,.25-.11,0,0,0,0,0,0,0s.08,0,.12-.05h0a.21.21,0,0,0,.06-.24h0a.13.13,0,0,1-.06-.07h0c-.09-.12-.24-.2-.29-.36h0a1,1,0,0,1-.19-.23h0a4.92,4.92,0,0,1-.69-.82h0a.78.78,0,0,1-.19-.23h0a.06.06,0,0,1,0-.11h0a2.34,2.34,0,0,1,.43.11h0c.07.06.17,0,.24.06h0c.05,0,.13,0,.18,0H49c.09.07.21,0,.3.06h0c.07.05.17,0,.24.05a0,0,0,0,0,0,0c.1.06.22,0,.31.06h0a4.52,4.52,0,0,1,.76.11h.1a6.89,6.89,0,0,0,1.27,0h.09c.31-.07.63-.1.95-.17h0a10.87,10.87,0,0,1,1.35-.34h0c.12-.08.26,0,.38-.06h.09a1.07,1.07,0,0,1,.58,0,.49.49,0,0,0,.22,0,2.72,2.72,0,0,1,.83.12h0c.06,0,.13,0,.18.05a0,0,0,0,0,0,0s.1,0,.14,0a0,0,0,0,0,0,0s.1,0,.13,0a0,0,0,0,0,0,0s.1,0,.14.06h0s.09,0,.12.06h0s.1,0,.11.06h0a.3.3,0,0,1,.24.17h0a.18.18,0,0,1,.12.11h0c.07.05.16.08.15.19h0a.66.66,0,0,1,.19.22h0c.16.1.38.09.51.25h0c.1,0,.23,0,.3.11h0s.08,0,.12,0l.06,0a.12.12,0,0,1,.12,0h0c0,.06.13,0,.16.07h0s.1,0,.13.06h0s.1,0,.12.07h0a.06.06,0,0,1,.07,0h0c.1,0,.2.06.23.17h0l.06.05h0c.08.05.14.13.22.18s.15.14.11.25a.24.24,0,0,1-.23.16c-.24,0-.48,0-.72,0a8.64,8.64,0,0,0-1.21.23h0a7.93,7.93,0,0,0,2.46-.27h0c0-.05.08,0,.11-.06h0s.08,0,.11-.06h0l.07-.05h0a.12.12,0,0,1,.07-.06h0c.09-.09.15-.22.29-.24h0a.11.11,0,0,1,.07-.06h0c.27-.25.46-.59.81-.76h0a.14.14,0,0,1,.07-.07h0a.12.12,0,0,1,.07-.06h0c.05-.13.19-.16.28-.24h0l.06-.05h0a.2.2,0,0,1,.07-.06h0a.06.06,0,0,1,.07-.05h0A.4.4,0,0,1,63,25.6h0a.29.29,0,0,1,.23-.11h.09a.17.17,0,0,1,.13.12,0,0,0,0,0,0,0,.18.18,0,0,1,0,.23,0,0,0,0,0,0,0c0,.06,0,.14-.06.19h0s0,.09-.05.12a0,0,0,0,0,0,0s0,.1-.06.13h0s0,.09-.06.12h0s0,.1-.06.12h0s0,.1-.07.12h0s0,0-.05.07h0a.5.5,0,0,1-.19.28h0a.13.13,0,0,1-.06.07h0a.6.6,0,0,1-.22.24h0a.75.75,0,0,1-.24.22h0a.43.43,0,0,1-.3.23h0s-.08,0-.11.07h0s0,0-.07.05h0c0,.15-.19.12-.3.17h0c0,.08-.13,0-.17.08h0c-.09.17-.27.12-.41.17h0a.41.41,0,0,1-.31.11h0a1,1,0,0,1-.36.11h0c-.06.08-.17,0-.24.06h0a.68.68,0,0,1-.52.11h-.06c-.09.07-.21,0-.31.05h0c-.1.06-.21,0-.31.05h0c-.11.1-.24,0-.37.05h-.1c-.13.09-.28,0-.41.05h0l-.07.06a3.46,3.46,0,0,1-.44.1h-.09c-.14,0-.29-.11-.43,0a.27.27,0,0,1-.13,0,.4.4,0,0,0-.38.05l-.08,0c-.15,0-.3,0-.44,0l-.09,0c-.13,0-.22.07-.32.12l-.12,0-.28,0h-.08a.62.62,0,0,0-.26,0l-.07,0a1.37,1.37,0,0,0-.21.05h-.07c-.08,0-.14,0-.22.05H54c-.06,0-.11-.06-.18,0h0c-.05.05-.13,0-.18.05h0a2.53,2.53,0,0,1-.79.33h-.08a.19.19,0,0,0-.12,0h0a.36.36,0,0,1-.28.16l-.05.05a.25.25,0,0,1-.08.07h-.07a.09.09,0,0,0-.1,0h0c0,.06-.12.08-.18.11h0c-.1.1-.17.23-.29.3l-.05.05-.05,0,0,0-.08.07-.05,0-.06,0,0,0a.74.74,0,0,1-.24.2h0c0,.07,0,.14-.11.18h0s0,.09-.06.12h0s0,.09-.06.12h0s0,.09-.06.12h0c0,.07,0,.16-.06.24v.07s0,.09,0,.14a.33.33,0,0,1,0,.07s0,.09-.06.14-.06.39-.25.5h0c-.07.11,0,.27-.11.36a0,0,0,0,0,0,0,3.34,3.34,0,0,1-.09.94c0,.18-.18.29-.19.47s0,.07,0,.1a2.54,2.54,0,0,0,.23,1.56.66.66,0,0,0,.84.35,1.86,1.86,0,0,1,.45-.06h0a3.78,3.78,0,0,0,.15-1.92,9.06,9.06,0,0,1,0-2.13,2.26,2.26,0,0,1,.51-.93c.1-.13.24-.23.35-.35l.06-.07,0-.07,0,0,.06-.05.07,0a1,1,0,0,0,.18-.11l.06,0,.05,0,.06,0,.06,0,.06,0,.06,0,.06,0,.06,0,.06,0,.1,0,.07,0a7.26,7.26,0,0,1,1-.28h.08a.3.3,0,0,0,.28,0l.12,0c.12-.08.25,0,.37,0l0,0,.08,0h.09a2.47,2.47,0,0,0,.76-.09,1.2,1.2,0,0,1,.5,0,.28.28,0,0,0,.2,0,.38.38,0,0,1,.14,0,6.21,6.21,0,0,1,1.08,0,.3.3,0,0,0,.17,0c.13,0,.25-.07.35.06h0s0,.09.05.12h0a2.05,2.05,0,0,1,.29.58h0c.06,0,0,.09.07.11h0l.05.06h0a.13.13,0,0,1,.06.07h0a1.3,1.3,0,0,1,.19.22h0c.15.11.32.18.46.29h0c.07.06.17,0,.23.06h0a1.33,1.33,0,0,0,.48,0h0a4.14,4.14,0,0,1,.41-.12h0a1.26,1.26,0,0,1,.53-.28h0a5.62,5.62,0,0,1,.75-.6h0a.09.09,0,0,1,.06-.06h0l.06-.06h0a.24.24,0,0,1,.12-.12h0a3.83,3.83,0,0,1,.54-.58h0c0-.08.06-.1.11-.12h0a.78.78,0,0,1,.19-.23h0a.11.11,0,0,1,.06-.07h0a.08.08,0,0,1,.06-.06h0c.09-.17.12-.4.36-.46h0a1.71,1.71,0,0,1,.42-.59h0a1.14,1.14,0,0,1,.29-.42h0a.58.58,0,0,1,.19-.29h0a5.22,5.22,0,0,1,.47-.77h0a1.6,1.6,0,0,1,.24-.41h0a.32.32,0,0,1,.18-.29h0a.06.06,0,0,1,0-.07h0c.08-.09.08-.26.23-.29h0l.06-.06h0a.17.17,0,0,1,.06-.06h0a.16.16,0,0,1,.07-.06h0a.11.11,0,0,1,.07-.06h0a.29.29,0,0,1,.29-.17.06.06,0,0,0,.05,0c.05,0,.13,0,.18-.05h0a.24.24,0,0,1,.23,0h0c.06,0,.14,0,.19.05h0c0,.06.14,0,.17.07h0a.2.2,0,0,1,.07.05h0s.09,0,.11.07h0a.14.14,0,0,1,.07.06h0c.14.05.18.18.23.3h0c.06,0,0,.08.06.13a0,0,0,0,0,0,0,.47.47,0,0,1,0,.14,0,0,0,0,0,0,0c.07.12,0,.25.05.37a.43.43,0,0,0,0,.25c-.07.16,0,.33-.06.49a0,0,0,0,0,0,0c0,.08,0,.18-.05.26h0c-.06.07,0,.17-.06.24h0s0,.13-.06.18a.06.06,0,0,0,0,.05.17.17,0,0,1,0,.12,0,0,0,0,0,0,0c0,.05,0,.14-.06.19h0s0,.09-.05.12h0c-.05,0,0,.13-.06.17h0s0,.09-.05.12h0s0,.08-.05.12l0,.05a.1.1,0,0,1-.05.12h0s0,.09-.06.12h0s0,.09-.06.12h0a.35.35,0,0,1-.12.23h0s0,.09-.06.12h0s0,.09-.06.12h0a.7.7,0,0,1-.3.47h0a.15.15,0,0,1-.06.07h0l-.05.06h0s0,.15-.13.16h0a.18.18,0,0,1-.06.07h0a3.66,3.66,0,0,1-.8.9,8,8,0,0,1-4.58,1.69c-.62.08-1.25.09-1.88.16-.06,0-.12,0-.16,0s0,.08.08.1a12.15,12.15,0,0,0,2.51.43,3.8,3.8,0,0,0,2.73-1c.3-.27.64-.5,1-.74a1.37,1.37,0,0,1,.79-.32h0s.08,0,.13-.05h0a.24.24,0,0,1,.19-.14h.08a.49.49,0,0,0,.32,0H67a.65.65,0,0,1,.64.17h0c.06,0,.15,0,.2.09a.37.37,0,0,1,.21.26h0s0,.08.06.12h0a.4.4,0,0,1,.14.18.5.5,0,0,1,0,.23.61.61,0,0,1-.13.29h0a.65.65,0,0,1-.11.24h0c0,.32-.24.45-.42.63h0a.17.17,0,0,1-.11.13h0c0,.13-.13.18-.23.24h0a.66.66,0,0,1-.23.23h0c-.06.2-.26.24-.4.35h0l-.06.05h0a.18.18,0,0,1-.07.06h0a.66.66,0,0,1-.34.24h0a.55.55,0,0,1-.36.22h0s-.08,0-.12.06h0c-.07.1-.19.08-.29.12h0a1.31,1.31,0,0,1-.54.18h0c-.16.16-.37,0-.55.11h0c-.16.08-.33,0-.49.06h-.94c-.16-.06-.33,0-.49-.05h-.09c-.2-.06-.43.06-.61-.11h0c-.09-.07-.21,0-.3-.06h0a2.28,2.28,0,0,1-.47-.11h0c-.07-.06-.17,0-.23-.06h0c-.07-.06-.17,0-.24-.07h0c-.05,0-.14,0-.18-.05h0c-.05,0-.13,0-.18-.06h0a1,1,0,0,1-.75-.19h0a2.15,2.15,0,0,1,.84.56h0s.09,0,.12.06h0a.65.65,0,0,1,.24.11h0s.09,0,.12.05a.06.06,0,0,0,.05,0,.09.09,0,0,1,.12,0h0s.09,0,.12.05h0c0,.05.13,0,.18.06h0a.67.67,0,0,1,.53.18h0c.14,0,.3,0,.41.12h0c.07.06.17,0,.24.06h0c.07.06.17,0,.24.05a0,0,0,0,0,0,0c.1.05.22,0,.31.06s0,0,0,0,.26,0,.38.06h0c.17.05.36,0,.53.06h.09a8.67,8.67,0,0,0,1.38,0,0,0,0,0,0,0,0c.09-.07.21,0,.3-.06h0c.07-.06.16,0,.23-.06a.06.06,0,0,0,.06,0c0-.06.12,0,.18-.05h0c0-.06.13,0,.18-.06h0c0-.05.09,0,.14-.05a0,0,0,0,0,0,0s.09,0,.12-.05h0c0-.07.13,0,.17-.07h0s.09,0,.12-.05h0c.07-.09.2-.07.29-.12h0c0-.05.09,0,.12-.06h0c0-.07.13,0,.18-.07h0a.34.34,0,0,1,.3-.11l.05,0c0-.07.13,0,.19-.05h0a1.57,1.57,0,0,1,.46,0h.09a.61.61,0,0,1,.15.09h0a.12.12,0,0,0,.09,0h.07a.28.28,0,0,1,.16.08l0,.06c.07.09,0,.2,0,.3a0,0,0,0,0,0,0,2.84,2.84,0,0,0,.08.29A.35.35,0,0,1,69,37c0,.15-.08.28-.08.43s0,.05,0,.08a.58.58,0,0,1,0,.11l0,.07-.05.06,0,0-.16.16-.05,0-.07,0-.11,0h0c-.08.11-.2.13-.31.18a0,0,0,0,0,0,0s0,0-.07,0h0a.67.67,0,0,1-.3.12h0a1.6,1.6,0,0,1-.7.18h-.05c-.1.07-.22,0-.32.05h-.09c-.16.07-.33,0-.48.05a.67.67,0,0,0-.27,0,4.08,4.08,0,0,1-1,0,1.11,1.11,0,0,0-.38,0c-.18-.06-.37,0-.55-.05h-.1c-.14,0-.29,0-.43-.05h0c-.13-.06-.29,0-.42-.06h0c-.09-.06-.21.05-.3-.05h0a1.84,1.84,0,0,1-.54-.11h0a1.53,1.53,0,0,1-.48-.12h0c-.07-.06-.17,0-.24-.06h0c-.07-.06-.18,0-.24-.07h0c-.05,0-.14,0-.18-.06h0s-.09,0-.12,0h0c-.05,0-.14,0-.19-.06h0a2.8,2.8,0,0,1-.93-.3h0a1.62,1.62,0,0,1,.55.67h0s.06,0,.06.06h0a.09.09,0,0,1,.07.07h0a.09.09,0,0,1,.07.07h0a.09.09,0,0,1,.07.07h0a.09.09,0,0,1,.07.07h0a.09.09,0,0,1,.07.07h0a.14.14,0,0,1,.12.11h0a.13.13,0,0,1,.07.06h0a.38.38,0,0,1,.18.17h0a.52.52,0,0,1,.29.24h0a.08.08,0,0,1,.06.06h0c.05,0,.13.07.17.13h0a.67.67,0,0,1,.24.17h0a.09.09,0,0,1,.07,0h0c.11,0,.23.06.28.18h0s.1,0,.12.07h0c.14.08.31.09.42.22h0c0,.06.14,0,.17.07h0a1.58,1.58,0,0,1,.47.17h0c.05,0,.14,0,.18.05a0,0,0,0,0,0,0c.06,0,.14,0,.2,0h.05a3.75,3.75,0,0,0,1,0,0,0,0,0,0,0,0c.09-.07.21,0,.3-.05h0c.09-.08.21,0,.3-.06h0c.1-.1.24,0,.36-.07h.05c.07-.08.17,0,.25,0a0,0,0,0,0,0,0c.11-.11.25,0,.37-.05h.15a1.53,1.53,0,0,1,.64,0,0,0,0,0,0,0,0c.08,0,.18,0,.25.06h0c0,.05.14,0,.17.06h0s.1,0,.12.06h0a.68.68,0,0,1,.53.52h0c.06.07.14.13.11.24l0,.11c0,.12.08.23,0,.35h0c0,.1,0,.23-.13.29h0c-.07.17-.13.35-.35.4h0c0,.08-.09.1-.16.13h0a.14.14,0,0,1-.07.06h0c-.07.19-.26.17-.4.24h0s-.08,0-.12.06h0c-.05.1-.16.08-.24.11h0c0,.07-.12,0-.17.07h0c0,.06-.13,0-.17.06h0c0,.06-.12,0-.18.06h0c-.07.07-.17,0-.25.06h0c-.12.07-.26,0-.38.05a.12.12,0,0,0-.12,0c-.14-.06-.3,0-.43-.05h0c-.1-.06-.22,0-.31-.06h0c-.06,0-.14,0-.2-.05h0c-.06,0-.14,0-.2-.05h0c0-.05-.13,0-.18-.06h0a.37.37,0,0,1-.14-.05h0c-.05,0-.13,0-.17-.06h0c0-.06-.14,0-.17-.07h0s-.09,0-.12-.05h0s-.09,0-.12-.06h0s-.09,0-.12-.05h0s-.11,0-.14-.06h0s-.1,0-.12-.06h0a.26.26,0,0,1-.23-.12h0a.94.94,0,0,1-.3-.17h0c-.07,0-.15,0-.18-.11h0c-.09,0-.18,0-.22-.13-.38-.07-.58-.39-.88-.58h0a.47.47,0,0,1-.18-.12h0a.38.38,0,0,1-.18-.13h0a11.39,11.39,0,0,1-2.15-1.43h0a13.72,13.72,0,0,1,1.29,1.2,1.56,1.56,0,0,1,.2.35h0a.08.08,0,0,1,.06.06h0l.06.06h0a.26.26,0,0,1,.12.12h0c.13,0,.16.15.24.23h0l.06.05h0a5.68,5.68,0,0,1,.77.62,1,1,0,0,1,.16.2h0c0,.05.15,0,.16.13h0c.06,0,.14,0,.16.13h0a.11.11,0,0,1,.07.06h0l.07.06h0c.06,0,.15,0,.17.12h0a.78.78,0,0,1,.18.12h0l.07.05h0s.09,0,.11.07h0s.1,0,.12.07h0c.08,0,.15,0,.18.11h0a.25.25,0,0,1,.07,0h0s.08,0,.11.06h0a1,1,0,0,1,.35.18h0s.1,0,.12.06h0s.09,0,.12.06h0s.1,0,.12.06h0a.85.85,0,0,1,.41.17,0,0,0,0,0,0,0c.06,0,.14,0,.19,0a0,0,0,0,0,0,0c.13.07.29,0,.42.05a.67.67,0,0,0,.33,0,11.61,11.61,0,0,0,1.32,0,.41.41,0,0,1,.22,0h.16c.17.09.4-.11.54.11h0s.1,0,.14.05h0c0,.06.14,0,.16.07h0a.18.18,0,0,1,.07.05h0s.09,0,.11.07h0a.07.07,0,0,1,.06.06h0a.22.22,0,0,1,.12.12h0a.24.24,0,0,1,.06.07h0a.33.33,0,0,1,.11.18h0a.83.83,0,0,1,.13.81.06.06,0,0,0,0,.05c0,.06,0,.13-.06.17h0c0,.13,0,.25-.18.28h0a.08.08,0,0,1-.07.07h0c0,.14-.14.13-.22.19h0a.06.06,0,0,1-.07.05h0c0,.05-.08,0-.12.07h0s-.08,0-.12.06h0c0,.05-.09,0-.12.06h0s-.08,0-.13.06h0c-.06.09-.17,0-.23.07h0C67,46.94,66.9,46.89,66.85,46.92Z"/></g><circle class="cls-6" cx="46.07" cy="46.07" r="46.07"/><ellipse class="cls-7" cx="46.89" cy="36.55" rx="36.22" ry="31.43"/></g></g></svg>