<svg xmlns="http://www.w3.org/2000/svg" xmlns:xlink="http://www.w3.org/1999/xlink" viewBox="0 0 92.93 92.93"><defs><style>.cls-1{isolation:isolate;}.cls-2{fill:#f0f1f1;}.cls-3{fill:#cd3a2b;}.cls-4{opacity:0.6;mix-blend-mode:multiply;fill:url(#radial-gradient);}.cls-5{opacity:0.7;fill:url(#radial-gradient-2);}</style><radialGradient id="radial-gradient" cx="46.47" cy="46.47" r="46.47" gradientUnits="userSpaceOnUse"><stop offset="0" stop-color="#fff" stop-opacity="0"/><stop offset="0.35" stop-color="#fbfbfb" stop-opacity="0.02"/><stop offset="0.53" stop-color="#eeedec" stop-opacity="0.11"/><stop offset="0.67" stop-color="#d8d6d2" stop-opacity="0.25"/><stop offset="0.79" stop-color="#b8b5ae" stop-opacity="0.44"/><stop offset="0.9" stop-color="#908b80" stop-opacity="0.7"/><stop offset="1" stop-color="#605949"/></radialGradient><radialGradient id="radial-gradient-2" cx="-172.02" cy="-10.34" r="27.44" gradientTransform="translate(286.11 36.3) scale(1.33 1.16)" gradientUnits="userSpaceOnUse"><stop offset="0" stop-color="#fff"/><stop offset="1" stop-color="#fff" stop-opacity="0"/></radialGradient></defs><title>Artboard 60</title><g class="cls-1"><g id="Layer_4" data-name="Layer 4"><path class="cls-2" d="M1.82,35.42a46,46,0,1,1,33.59,55.7A46,46,0,0,1,1.82,35.42"/><path class="cls-3" d="M55,1.27A45.74,45.74,0,0,0,38.6,1.14V37.89H1.28a45.74,45.74,0,0,0-.15,16.38H38.6V91.78A45.74,45.74,0,0,0,55,91.67V54.27h36.8a45.75,45.75,0,0,0-.13-16.38H55Z"/><circle class="cls-4" cx="46.47" cy="46.47" r="46.47"/><ellipse class="cls-5" cx="47.28" cy="36.86" rx="36.53" ry="31.69"/></g></g></svg>