<svg xmlns="http://www.w3.org/2000/svg" xmlns:xlink="http://www.w3.org/1999/xlink" viewBox="0 0 92.93 92.93"><defs><style>.cls-1{isolation:isolate;}.cls-2{fill:#578e43;}.cls-3{fill:#f4d131;}.cls-4{opacity:0.6;mix-blend-mode:multiply;fill:url(#radial-gradient);}.cls-5{opacity:0.7;fill:url(#radial-gradient-2);}</style><radialGradient id="radial-gradient" cx="46.47" cy="46.47" r="46.47" gradientUnits="userSpaceOnUse"><stop offset="0" stop-color="#fff" stop-opacity="0"/><stop offset="0.35" stop-color="#fbfbfb" stop-opacity="0.02"/><stop offset="0.53" stop-color="#eeedec" stop-opacity="0.11"/><stop offset="0.67" stop-color="#d8d6d2" stop-opacity="0.25"/><stop offset="0.79" stop-color="#b8b5ae" stop-opacity="0.44"/><stop offset="0.9" stop-color="#908b80" stop-opacity="0.7"/><stop offset="1" stop-color="#605949"/></radialGradient><radialGradient id="radial-gradient-2" cx="-311.32" cy="-60.8" r="27.44" gradientTransform="translate(471.57 94.59) scale(1.33 1.16)" gradientUnits="userSpaceOnUse"><stop offset="0" stop-color="#fff"/><stop offset="1" stop-color="#fff" stop-opacity="0"/></radialGradient></defs><title>Artboard 75</title><g class="cls-1"><g id="Layer_4" data-name="Layer 4"><path class="cls-2" d="M1.38,35.31A46.45,46.45,0,1,1,35.3,91.55,46.44,46.44,0,0,1,1.38,35.31"/><polygon class="cls-3" points="41.9 34.14 39.11 42.71 46.41 37.42 46.49 37.48 53.71 42.71 50.92 34.14 58.22 28.84 49.2 28.84 47.9 24.82 46.49 20.52 46.41 20.27 44.03 27.61 43.63 28.84 42.21 28.84 34.62 28.84 38.16 31.42 41.9 34.14"/><path class="cls-3" d="M79.17,36.16A33.11,33.11,0,0,1,46.5,64.52h-.08A33.05,33.05,0,0,1,13.66,36.16a33.75,33.75,0,0,0-.31,4.51c0,.51,0,1,0,1.54a33.07,33.07,0,0,0,33,31.53h.08a33.07,33.07,0,0,0,33-33.07A33.7,33.7,0,0,0,79.17,36.16Z"/><circle class="cls-4" cx="46.47" cy="46.47" r="46.47"/><ellipse class="cls-5" cx="47.28" cy="36.86" rx="36.53" ry="31.69"/></g></g></svg>