<svg xmlns="http://www.w3.org/2000/svg" xmlns:xlink="http://www.w3.org/1999/xlink" viewBox="0 0 92.93 92.93"><defs><style>.cls-1{isolation:isolate;}.cls-2{fill:#1c76b9;}.cls-3{fill:#f4d131;}.cls-4{opacity:0.6;mix-blend-mode:multiply;fill:url(#radial-gradient);}.cls-5{opacity:0.7;fill:url(#radial-gradient-2);}</style><radialGradient id="radial-gradient" cx="46.47" cy="46.47" r="46.47" gradientUnits="userSpaceOnUse"><stop offset="0" stop-color="#fff" stop-opacity="0"/><stop offset="0.35" stop-color="#fbfbfb" stop-opacity="0.02"/><stop offset="0.53" stop-color="#eeedec" stop-opacity="0.11"/><stop offset="0.67" stop-color="#d8d6d2" stop-opacity="0.25"/><stop offset="0.79" stop-color="#b8b5ae" stop-opacity="0.44"/><stop offset="0.9" stop-color="#908b80" stop-opacity="0.7"/><stop offset="1" stop-color="#605949"/></radialGradient><radialGradient id="radial-gradient-2" cx="-311.93" cy="-27.2" r="27.44" gradientTransform="translate(472.37 55.78) scale(1.33 1.16)" gradientUnits="userSpaceOnUse"><stop offset="0" stop-color="#fff"/><stop offset="1" stop-color="#fff" stop-opacity="0"/></radialGradient></defs><title>Artboard 65</title><g class="cls-1"><g id="Layer_4" data-name="Layer 4"><path class="cls-2" d="M1.47,35.33A46.35,46.35,0,1,1,35.33,91.46,46.35,46.35,0,0,1,1.47,35.33"/><path class="cls-3" d="M16.89,63,15.7,59.35,14.52,63H10.68l3.11,2.26L12.61,68.9l3.1-2.26,3.11,2.26-1.19-3.65L20.72,63Zm-5.82-13.5,3.11,2.25L13,48.1l3.1-2.27H12.25l-1.2-3.64L9.88,45.85,6,45.87l3.11,2.24L8,51.76ZM65.25,76.18l-1.18-3.65-1.2,3.64-3.83,0,3.1,2.26-1.21,3.65L64,79.82l3.1,2.27L66,78.44l3.11-2.25ZM30,76.26,28.8,72.62l-1.18,3.65H23.78l3.11,2.25-1.18,3.65,3.1-2.26,3.1,2.25-1.19-3.64,3.1-2.26ZM47.91,81l-1.19-3.64L45.53,81H41.7l3.1,2.26-1.17,3.64,3.1-2.26,3.11,2.24-1.2-3.64L51.74,81Zm30.4-18-1.19-3.64L75.94,63H72.1l3.11,2.25L74,68.93l3.1-2.26,3.11,2.25L79,65.28,82.15,63Zm8.48-17.23-3.84,0-1.17-3.65-1.21,3.64-3.84,0L79.84,48l-1.2,3.64,3.11-2.24,3.1,2.27L83.67,48Zm-13.05-12,3.1-2.26,3.11,2.26L78.75,30.1l3.1-2.26H78l-1.19-3.66-1.18,3.66H71.81l3.11,2.26ZM64.27,11.45,63.1,15.1H59.26l3.11,2.25L61.19,21l3.1-2.25L67.39,21,66.2,17.35l3.1-2.26H65.47ZM12.33,34l3.1-2.26L18.54,34l-1.19-3.65,3.1-2.26H16.62l-1.19-3.64-1.18,3.65H10.41l3.1,2.25ZM25.42,20.95l3.1-2.26,3.1,2.25-1.18-3.65L33.53,15H29.7l-1.19-3.64L27.33,15H23.49l3.11,2.25Zm17.89-4.78,3.11-2.26,3.1,2.26-1.18-3.65,3.1-2.25H47.6L46.41,6.62l-1.18,3.65H41.39l3.1,2.25Z"/><circle class="cls-4" cx="46.47" cy="46.47" r="46.47"/><ellipse class="cls-5" cx="47.28" cy="36.86" rx="36.53" ry="31.69"/></g></g></svg>