<svg xmlns="http://www.w3.org/2000/svg" xmlns:xlink="http://www.w3.org/1999/xlink" viewBox="0 0 92.93 92.93"><defs><style>.cls-1{isolation:isolate;}.cls-2{fill:#f4d131;}.cls-3{fill:#2f3e70;}.cls-4{opacity:0.6;mix-blend-mode:multiply;fill:url(#radial-gradient);}.cls-5{opacity:0.7;fill:url(#radial-gradient-2);}</style><radialGradient id="radial-gradient" cx="46.47" cy="46.47" r="46.47" gradientUnits="userSpaceOnUse"><stop offset="0" stop-color="#fff" stop-opacity="0"/><stop offset="0.35" stop-color="#fbfbfb" stop-opacity="0.02"/><stop offset="0.53" stop-color="#eeedec" stop-opacity="0.11"/><stop offset="0.67" stop-color="#d8d6d2" stop-opacity="0.25"/><stop offset="0.79" stop-color="#b8b5ae" stop-opacity="0.44"/><stop offset="0.9" stop-color="#908b80" stop-opacity="0.7"/><stop offset="1" stop-color="#605949"/></radialGradient><radialGradient id="radial-gradient-2" cx="-251.35" cy="-10.35" r="27.44" gradientTransform="translate(391.72 36.31) scale(1.33 1.16)" gradientUnits="userSpaceOnUse"><stop offset="0" stop-color="#fff"/><stop offset="1" stop-color="#fff" stop-opacity="0"/></radialGradient></defs><title>Barbados</title><g class="cls-1"><g id="Layer_4" data-name="Layer 4"><path class="cls-2" d="M1.42,35.33A46.35,46.35,0,1,1,35.27,91.46,46.35,46.35,0,0,1,1.42,35.33"/><path class="cls-3" d="M40.05,92.37l-.81-.12.81.12M70.6,6.85V86.07a46.36,46.36,0,0,0,0-79.22M1.52,35.33A46.36,46.36,0,0,0,22.73,86.26V6.68A46.2,46.2,0,0,0,1.52,35.33"/><path class="cls-3" d="M44,71.23V57.71l-8.92,1.2S31.14,38,25.58,30.3l.23-.49a21,21,0,0,1,10.69,5.52l-1.89-.45c-1.54-.3,4.21,18.92,4.21,18.92L44,53V34.71a15,15,0,0,0-4.18.64C43.3,31.88,46.53,23,46.53,23s3.22,8.9,6.7,12.38A14.35,14.35,0,0,0,49,34.73V53.06l5.17.76s5.74-19.3,4.21-18.93l-1.89.46a21,21,0,0,1,10.69-5.52l.23.49C62,38.1,58,58.92,58,58.92L49,57.73v13.5Z"/><circle class="cls-4" cx="46.47" cy="46.47" r="46.47"/><ellipse class="cls-5" cx="47.28" cy="36.86" rx="36.53" ry="31.69"/></g></g></svg>