<svg xmlns="http://www.w3.org/2000/svg" xmlns:xlink="http://www.w3.org/1999/xlink" viewBox="0 0 92.93 92.93"><defs><style>.cls-1{isolation:isolate;}.cls-2{fill:#7bb652;}.cls-3{fill:#f4d131;}.cls-4{fill:#33348d;}.cls-5{fill:#fff;}.cls-6{fill:#589a57;}.cls-7{fill:#4d8348;}.cls-8{opacity:0.6;mix-blend-mode:multiply;fill:url(#radial-gradient);}.cls-9{opacity:0.7;fill:url(#radial-gradient-2);}</style><radialGradient id="radial-gradient" cx="46.47" cy="46.47" r="46.47" gradientUnits="userSpaceOnUse"><stop offset="0" stop-color="#fff" stop-opacity="0"/><stop offset="0.35" stop-color="#fbfbfb" stop-opacity="0.02"/><stop offset="0.53" stop-color="#eeedec" stop-opacity="0.11"/><stop offset="0.67" stop-color="#d8d6d2" stop-opacity="0.25"/><stop offset="0.79" stop-color="#b8b5ae" stop-opacity="0.44"/><stop offset="0.9" stop-color="#908b80" stop-opacity="0.7"/><stop offset="1" stop-color="#605949"/></radialGradient><radialGradient id="radial-gradient-2" cx="-232.78" cy="-60.54" r="27.44" gradientTransform="translate(367 94.28) scale(1.33 1.16)" gradientUnits="userSpaceOnUse"><stop offset="0" stop-color="#fff"/><stop offset="1" stop-color="#fff" stop-opacity="0"/></radialGradient></defs><title>Brazil</title><g class="cls-1"><g id="Layer_4" data-name="Layer 4"><path class="cls-2" d="M1.38,35.31A46.45,46.45,0,1,1,35.3,91.55,46.44,46.44,0,0,1,1.38,35.31"/><polygon class="cls-3" points="3.23 46.65 46.12 74.05 89.02 46.65 46.12 19.26 3.23 46.65"/><path class="cls-4" d="M46.12,28.28A18.37,18.37,0,1,1,27.74,46.65,18.37,18.37,0,0,1,46.12,28.28"/><path class="cls-5" d="M64.4,48.5a44.45,44.45,0,0,0-35.16-9.12,18.05,18.05,0,0,0-1,2.84,41.95,41.95,0,0,1,35.57,9.22,18,18,0,0,0,.54-2.94"/><path class="cls-6" d="M30.14,40.54l.2.43.38.1.33-.2.07-.48-.2-.44-.38-.1-.33.2Zm-.37.06,0-.47.13-.27.21-.19.38-.13.66.15.34.64-.14.71-.59.33-.66-.15Z"/><path class="cls-6" d="M32.57,40.09l.26,0,.32-.05.09-.09,0-.14-.06-.14-.15-.06-.27,0-.28,0Zm-.27,1.07-.16-1.79.75-.07h.43l.22.15.11.28-.09.34-.34.2.21.13.22.27.25.33-.43,0-.3-.37L33,40.44l-.12-.07h-.26l.07.75Z"/><path class="cls-6" d="M34.85,39.47l0,1.19h.27l.22,0,.14-.08.09-.18,0-.33,0-.32-.11-.17-.17-.08h-.46Zm-.37-.29.66,0,.34,0,.27.16.18.28.07.43,0,.38-.18.32-.25.15-.32,0-.68,0Z"/><polygon class="cls-6" points="36.73 40.92 36.75 39.13 38.09 39.15 38.08 39.45 37.12 39.44 37.11 39.84 38.01 39.85 38.01 40.16 37.1 40.14 37.09 40.63 38.1 40.64 38.09 40.95 36.73 40.92"/><polygon class="cls-6" points="38.82 40.97 38.94 39.18 39.48 39.22 39.72 40.47 40.13 39.27 40.67 39.3 40.55 41.09 40.21 41.07 40.31 39.66 39.85 41.05 39.51 41.02 39.25 39.58 39.15 40.99 38.82 40.97"/><polygon class="cls-6" points="42.41 41.31 42.67 39.53 43.99 39.73 43.95 40.03 42.99 39.89 42.92 40.28 43.82 40.41 43.77 40.72 42.88 40.58 42.81 41.06 43.8 41.21 43.76 41.51 42.41 41.31"/><path class="cls-6" d="M46.21,40.48l-.11.5.19,0,.29,0,.13-.06.07-.13,0-.17-.13-.11-.25-.07Zm-.69,1.37.41-1.75.57.13.41.12.21.23,0,.36-.12.26-.19.14-.21,0-.37-.06L46,41.27l-.15.66Z"/><path class="cls-6" d="M48.2,41.45l.26.07.32.07.12,0,.07-.12v-.15l-.11-.11-.26-.08L48.33,41Zm-.63.89.49-1.73.73.21.39.16.16.22v.29l-.21.29-.39.06.15.2.11.34.12.4-.42-.12-.15-.45-.11-.31-.08-.1-.17-.07-.07,0-.2.72Z"/><path class="cls-6" d="M50.26,42.22l0,.48.29.27.38,0,.29-.39,0-.48-.29-.26-.39,0Zm-.36-.11.23-.41.24-.18.27-.08.39.06.52.44v.73l-.44.57-.68,0-.52-.43Z"/><polygon class="cls-6" points="52.93 43.47 53.05 43.19 53.77 43.49 53.5 44.15 53.12 44.2 52.69 44.12 52.27 43.82 52.11 43.39 52.2 42.9 52.5 42.49 52.94 42.31 53.37 42.39 53.8 42.72 53.87 43.17 53.52 43.09 53.47 42.85 53.26 42.67 52.85 42.67 52.54 43.03 52.5 43.53 52.78 43.82 53.01 43.86 53.23 43.84 53.32 43.63 52.93 43.47"/><path class="cls-6" d="M54.86,43.9l.25.12.3.12.13,0,.09-.11,0-.15-.09-.12-.23-.12-.26-.12Zm-.77.78.77-1.62.69.33.36.22.12.24-.06.29-.25.25h-.39l.11.22.06.35,0,.41-.39-.19-.07-.47L55,44.41,55,44.29l-.16-.1-.06,0-.33.68Z"/><polygon class="cls-6" points="56.07 45.65 56.93 44.08 58.1 44.71 57.96 44.98 57.1 44.51 56.91 44.87 57.71 45.3 57.56 45.56 56.77 45.13 56.54 45.56 57.42 46.04 57.28 46.31 56.07 45.65"/><polygon class="cls-6" points="58.12 46.11 58.44 46.26 58.41 46.56 58.59 46.76 58.86 46.84 59.02 46.73 59.05 46.62 58.98 46.49 58.77 46.27 58.51 45.91 58.56 45.52 58.76 45.33 59.04 45.29 59.37 45.42 59.73 45.81 59.68 46.25 59.37 46.07 59.38 45.85 59.22 45.68 58.97 45.6 58.87 45.67 58.86 45.79 59.08 46.06 59.34 46.38 59.42 46.64 59.33 46.92 59.11 47.13 58.8 47.17 58.43 47.02 58.06 46.62 58.12 46.11"/><polygon class="cls-6" points="59.91 47.22 60.23 47.39 60.19 47.68 60.36 47.9 60.62 47.98 60.79 47.89 60.82 47.78 60.76 47.64 60.56 47.41 60.32 47.04 60.38 46.65 60.59 46.47 60.88 46.45 61.21 46.6 61.54 47.01 61.48 47.43 61.17 47.25 61.19 47.02 61.04 46.85 60.8 46.76 60.68 46.82 60.67 46.94 60.88 47.23 61.13 47.55 61.19 47.81 61.09 48.09 60.86 48.28 60.55 48.31 60.19 48.15 59.84 47.73 59.91 47.22"/><path class="cls-6" d="M62.16,48.4l-.16.46.19.34.38.09L63,49l.17-.45-.2-.34-.38-.1Zm-.3-.22.35-.31.28-.1h.28l.36.18.36.58-.23.69-.6.4L62,49.44l-.36-.58Z"/><polygon class="cls-5" points="51.95 39.68 52.12 40.2 52.67 40.2 52.23 40.52 52.4 41.04 51.95 40.72 51.51 41.04 51.68 40.52 51.24 40.2 51.79 40.2 51.95 39.68"/><polygon class="cls-5" points="46.19 54.52 46.36 55.04 46.91 55.04 46.47 55.36 46.63 55.88 46.19 55.56 45.75 55.88 45.92 55.36 45.48 55.04 46.03 55.04 46.19 54.52"/><polygon class="cls-5" points="59.23 52.69 59.41 53.23 59.96 53.23 59.51 53.55 59.68 54.08 59.23 53.75 58.79 54.08 58.95 53.55 58.51 53.23 59.06 53.23 59.23 52.69"/><polygon class="cls-5" points="61.8 53.13 61.91 53.47 62.27 53.47 61.98 53.68 62.09 54.02 61.8 53.81 61.52 54.02 61.63 53.68 61.34 53.47 61.7 53.47 61.8 53.13"/><polygon class="cls-5" points="59.98 54.45 60.13 54.91 60.61 54.91 60.22 55.19 60.37 55.65 59.98 55.36 59.59 55.65 59.74 55.19 59.35 54.91 59.83 54.91 59.98 54.45"/><polygon class="cls-5" points="58.83 55.96 58.98 56.41 59.45 56.41 59.07 56.69 59.22 57.15 58.83 56.86 58.45 57.15 58.6 56.69 58.21 56.41 58.69 56.41 58.83 55.96"/><polygon class="cls-5" points="57.36 57.06 57.47 57.41 57.83 57.41 57.54 57.63 57.66 57.97 57.36 57.76 57.06 57.97 57.17 57.63 56.88 57.41 57.25 57.41 57.36 57.06"/><polygon class="cls-5" points="55.42 56.69 55.54 57.03 55.9 57.03 55.61 57.24 55.72 57.59 55.42 57.38 55.14 57.59 55.25 57.24 54.96 57.03 55.32 57.03 55.42 56.69"/><polygon class="cls-5" points="53.34 57.32 53.47 57.7 53.85 57.7 53.54 57.92 53.66 58.29 53.34 58.06 53.03 58.29 53.15 57.92 52.84 57.7 53.22 57.7 53.34 57.32"/><polygon class="cls-5" points="55.46 60.36 55.57 60.71 55.94 60.71 55.64 60.92 55.76 61.27 55.46 61.05 55.16 61.27 55.28 60.92 54.98 60.71 55.35 60.71 55.46 60.36"/><polygon class="cls-5" points="51.71 58.76 51.86 59.23 52.36 59.23 51.96 59.52 52.11 59.99 51.71 59.7 51.31 59.99 51.46 59.52 51.06 59.23 51.56 59.23 51.71 58.76"/><polygon class="cls-5" points="50.27 56.84 50.39 57.2 50.77 57.2 50.46 57.42 50.58 57.79 50.27 57.56 49.97 57.79 50.08 57.42 49.78 57.2 50.15 57.2 50.27 56.84"/><polygon class="cls-5" points="55.52 58.34 55.67 58.8 56.15 58.8 55.76 59.09 55.91 59.54 55.52 59.26 55.13 59.54 55.28 59.09 54.89 58.8 55.37 58.8 55.52 58.34"/><polygon class="cls-5" points="46.17 61.3 46.23 61.46 46.4 61.46 46.26 61.57 46.31 61.73 46.17 61.63 46.03 61.73 46.08 61.57 45.95 61.46 46.12 61.46 46.17 61.3"/><polygon class="cls-5" points="51.05 45.27 51.17 45.65 51.56 45.65 51.24 45.88 51.37 46.25 51.05 46.02 50.73 46.25 50.85 45.88 50.53 45.65 50.92 45.65 51.05 45.27"/><polygon class="cls-5" points="46.18 49.32 46.31 49.72 46.73 49.72 46.39 49.96 46.52 50.36 46.18 50.11 45.85 50.36 45.98 49.96 45.64 49.72 46.06 49.72 46.18 49.32"/><polygon class="cls-5" points="48.34 50.99 48.48 51.41 48.93 51.41 48.57 51.67 48.71 52.1 48.34 51.84 47.98 52.1 48.12 51.67 47.76 51.41 48.2 51.41 48.34 50.99"/><polygon class="cls-5" points="44.32 51.05 44.42 51.38 44.78 51.38 44.49 51.59 44.6 51.93 44.32 51.72 44.03 51.93 44.14 51.59 43.85 51.38 44.2 51.38 44.32 51.05"/><polygon class="cls-5" points="45.21 52.56 45.28 52.79 45.52 52.79 45.32 52.92 45.4 53.15 45.21 53.01 45.02 53.15 45.09 52.92 44.91 52.79 45.13 52.79 45.21 52.56"/><polygon class="cls-5" points="30.94 42.88 31.11 43.4 31.65 43.4 31.21 43.72 31.38 44.24 30.94 43.92 30.5 44.24 30.67 43.72 30.23 43.4 30.77 43.4 30.94 42.88"/><polygon class="cls-5" points="38.98 47.05 39.11 47.48 39.56 47.48 39.2 47.74 39.34 48.17 38.98 47.91 38.61 48.17 38.76 47.74 38.39 47.48 38.84 47.48 38.98 47.05"/><polygon class="cls-5" points="32.6 50.68 32.77 51.2 33.32 51.2 32.88 51.53 33.04 52.05 32.6 51.72 32.16 52.05 32.33 51.53 31.89 51.2 32.43 51.2 32.6 50.68"/><polygon class="cls-5" points="34.41 49.91 34.49 50.17 34.76 50.17 34.54 50.33 34.63 50.59 34.41 50.43 34.19 50.59 34.27 50.33 34.05 50.17 34.32 50.17 34.41 49.91"/><polygon class="cls-5" points="36.5 52.64 36.64 53.08 37.11 53.08 36.73 53.35 36.87 53.8 36.5 53.52 36.12 53.8 36.27 53.35 35.89 53.08 36.35 53.08 36.5 52.64"/><polygon class="cls-5" points="38.69 56.05 38.85 56.57 39.4 56.57 38.96 56.89 39.13 57.41 38.69 57.09 38.25 57.41 38.41 56.89 37.97 56.57 38.52 56.57 38.69 56.05"/><polygon class="cls-5" points="35.9 54.49 36.04 54.93 36.5 54.93 36.13 55.21 36.27 55.65 35.9 55.38 35.52 55.65 35.66 55.21 35.29 54.93 35.75 54.93 35.9 54.49"/><polygon class="cls-5" points="30.3 52.57 30.41 52.91 30.77 52.91 30.48 53.13 30.59 53.47 30.3 53.26 30.01 53.47 30.11 53.13 29.82 52.91 30.18 52.91 30.3 52.57"/><path class="cls-7" d="M48.06,40.61l-.49,1.73.35.1.2-.72.07,0,.17.07.08.1.11.31.15.45.42.12-.12-.4-.11-.34-.15-.2.39-.06.21-.29v-.29L49.18,41l-.39-.16Zm.72,1-.32-.06-.26-.07.13-.44.26.08.26.08.11.11v.15l-.07.12Z"/><path class="cls-7" d="M50.64,41.44l-.27.08-.24.18-.23.41v.72l.52.43.68,0,.45-.57v-.73L51,41.5ZM50.53,43l-.29-.27,0-.48.28-.4.39,0,.29.26,0,.48-.29.39Z"/><polygon class="cls-7" points="52.94 42.31 52.5 42.49 52.2 42.9 52.11 43.39 52.27 43.82 52.69 44.12 53.12 44.2 53.5 44.15 53.77 43.49 53.05 43.19 52.93 43.47 53.32 43.63 53.23 43.84 53.01 43.86 52.78 43.82 52.5 43.53 52.54 43.03 52.85 42.67 53.26 42.67 53.47 42.85 53.52 43.09 53.87 43.17 53.8 42.72 53.37 42.39 52.94 42.31"/><path class="cls-7" d="M54.86,43.07l-.77,1.62.33.16.33-.68.06,0,.16.1.07.11.06.32.07.47.39.19,0-.41-.06-.35-.11-.22h.39l.25-.25.06-.29-.12-.24-.36-.22Zm.54,1.08-.3-.12-.25-.12.19-.41.26.12.23.12.09.12,0,.15-.09.11Z"/><polygon class="cls-7" points="56.93 44.08 56.07 45.65 57.28 46.31 57.42 46.04 56.54 45.56 56.77 45.13 57.56 45.56 57.71 45.3 56.91 44.87 57.1 44.51 57.96 44.98 58.1 44.71 56.93 44.08"/><polygon class="cls-7" points="59.04 45.29 58.76 45.33 58.56 45.51 58.51 45.91 58.77 46.27 58.98 46.49 59.05 46.62 59.02 46.74 58.86 46.84 58.59 46.76 58.41 46.56 58.44 46.26 58.12 46.11 58.06 46.62 58.43 47.02 58.8 47.17 59.11 47.13 59.33 46.92 59.42 46.64 59.34 46.38 59.08 46.06 58.86 45.79 58.87 45.67 58.97 45.6 59.22 45.68 59.38 45.85 59.37 46.07 59.68 46.25 59.73 45.81 59.37 45.42 59.04 45.29"/><polygon class="cls-7" points="60.88 46.45 60.59 46.47 60.38 46.65 60.32 47.04 60.56 47.41 60.76 47.64 60.82 47.78 60.79 47.89 60.62 47.98 60.36 47.9 60.19 47.68 60.23 47.39 59.91 47.22 59.84 47.73 60.19 48.15 60.55 48.31 60.86 48.28 61.09 48.09 61.19 47.81 61.13 47.55 60.88 47.23 60.67 46.94 60.68 46.82 60.8 46.76 61.04 46.85 61.19 47.02 61.17 47.25 61.48 47.43 61.54 47.01 61.21 46.6 60.88 46.45"/><path class="cls-7" d="M62.48,47.77l-.28.1-.35.31-.21.68.36.58.66.18.6-.4.23-.69L63.11,48l-.36-.18Zm.08,1.52-.38-.09L62,48.86l.16-.46.39-.29.38.1.2.34L63,49Z"/><circle class="cls-8" cx="46.47" cy="46.47" r="46.47"/><ellipse class="cls-9" cx="47.28" cy="36.86" rx="36.53" ry="31.69"/></g></g></svg>