<svg xmlns="http://www.w3.org/2000/svg" xmlns:xlink="http://www.w3.org/1999/xlink" viewBox="0 0 92.93 92.93"><defs><style>.cls-1{isolation:isolate;}.cls-2{fill:#cd3a2b;}.cls-3{fill:#f0f1f1;}.cls-4{opacity:0.6;mix-blend-mode:multiply;fill:url(#radial-gradient);}.cls-5{opacity:0.7;fill:url(#radial-gradient-2);}</style><radialGradient id="radial-gradient" cx="46.47" cy="46.47" r="46.47" gradientUnits="userSpaceOnUse"><stop offset="0" stop-color="#fff" stop-opacity="0"/><stop offset="0.35" stop-color="#fbfbfb" stop-opacity="0.02"/><stop offset="0.53" stop-color="#eeedec" stop-opacity="0.11"/><stop offset="0.67" stop-color="#d8d6d2" stop-opacity="0.25"/><stop offset="0.79" stop-color="#b8b5ae" stop-opacity="0.44"/><stop offset="0.9" stop-color="#908b80" stop-opacity="0.7"/><stop offset="1" stop-color="#605949"/></radialGradient><radialGradient id="radial-gradient-2" cx="-154.29" cy="5.96" r="27.44" gradientTransform="translate(262.51 17.48) scale(1.33 1.16)" gradientUnits="userSpaceOnUse"><stop offset="0" stop-color="#fff"/><stop offset="1" stop-color="#fff" stop-opacity="0"/></radialGradient></defs><title>Canada (English)</title><g class="cls-1"><g id="Layer_4" data-name="Layer 4"><path class="cls-2" d="M35.33,91.46A46.35,46.35,0,1,1,91.46,57.6,46.35,46.35,0,0,1,35.33,91.46"/><path class="cls-2" d="M30.89,90.13V2.8a46.36,46.36,0,0,0,0,87.32"/><path class="cls-3" d="M56,1.1,55.7,1l-.52-.1-.3-.06-.54-.1-.27,0L53.41.63l-.13,0L52.47.5l-.21,0L51.67.4l-.28,0L50.86.32l-.29,0L50,.24l-.27,0-.61,0H49l-.8,0H48l-.66,0H45.5l-.59,0h-.2L43.12.22l-.21,0-.58,0-.25,0-.54.05-.25,0-.58.07-.2,0L38.94.72l-.14,0-.63.11L38,.89,37.39,1l-.22,0-.58.12-.19,0-.7.16h-.05l-.73.18h0q-2,.53-4,1.23V90.13q2.16.77,4.43,1.33a46.18,46.18,0,0,0,18.41.79h.08l.65-.11.14,0,.61-.11.18,0,.57-.12.22,0,.54-.12.25-.06.51-.12.38-.1.57-.15L59,91.1l.25-.07.53-.15L60,90.8l.53-.16.24-.08.53-.17.24-.08.53-.19.12,0h0l.33-.12V3l-.33-.11h0l-.82-.28-.08,0L60.22,2.2l-.15,0-1-.3-.22-.06L57.6,1.47l-.8-.19-.26-.06L56,1.1"/><path class="cls-2" d="M46.93,63.9h.6l-.19-8,.56-.48,7.24.87-.64-2.18a1,1,0,0,1,.33-1L62.08,47l-1.5-.74c-.66-.25-.47-.63-.24-1.57l1.1-4.21-4.21.93a.64.64,0,0,1-.75-.47l-.55-2-3.33,3.9c-.47.63-1.43.63-1.14-.82l1.43-7.9-1.91,1c-.54.31-1.07.36-1.37-.2l-2.68-5.14-2.68,5.14c-.3.56-.84.51-1.37.2l-1.91-1L42.39,42c.3,1.45-.66,1.45-1.14.82l-3.34-3.9-.54,2a.65.65,0,0,1-.75.47l-4.22-.93,1.11,4.21c.24.93.42,1.32-.24,1.57L31.78,47,39,53.11a1,1,0,0,1,.33,1l-.64,2.18L46,55.45l.56.48-.19,8Z"/><circle class="cls-4" cx="46.47" cy="46.47" r="46.47"/><ellipse class="cls-5" cx="47.28" cy="36.86" rx="36.53" ry="31.69"/></g></g></svg>