<svg xmlns="http://www.w3.org/2000/svg" xmlns:xlink="http://www.w3.org/1999/xlink" viewBox="0 0 92.45 92.13" width="80px" height="80px"><defs><style>.cls-1{fill:none;}.cls-2{isolation:isolate;}.cls-3{clip-path:url(#clip-path);}.cls-4{fill:#f00822;}.cls-5{fill:#ffd200;}.cls-6{fill:#006b3a;}.cls-6,.cls-7{opacity:0.6;}.cls-6,.cls-7,.cls-9{mix-blend-mode:multiply;}.cls-7{fill:url(#radial-gradient);}.cls-8{opacity:0.7;fill:url(#radial-gradient-2);}.cls-9{fill:#fff;}</style><clipPath id="clip-path"><circle class="cls-1" cx="46.23" cy="46.07" r="46.07" transform="translate(-0.29 0.3) rotate(-0.37)"/></clipPath><radialGradient id="radial-gradient" cx="46.62" cy="39.14" r="46.07" gradientTransform="matrix(0, 1, -1, 0, 85.43, -0.56)" gradientUnits="userSpaceOnUse"><stop offset="0" stop-color="#fff" stop-opacity="0"/><stop offset="0.35" stop-color="#fbfbfb" stop-opacity="0.02"/><stop offset="0.53" stop-color="#eeedec" stop-opacity="0.11"/><stop offset="0.67" stop-color="#d8d6d2" stop-opacity="0.25"/><stop offset="0.79" stop-color="#b8b5ae" stop-opacity="0.44"/><stop offset="0.9" stop-color="#908b80" stop-opacity="0.7"/><stop offset="1" stop-color="#605949"/></radialGradient><radialGradient id="radial-gradient-2" cx="-87.65" cy="3.48" r="27.21" gradientTransform="matrix(0, 1.33, -1.15, 0, 63.43, 160.31)" gradientUnits="userSpaceOnUse"><stop offset="0" stop-color="#fff"/><stop offset="1" stop-color="#fff" stop-opacity="0"/></radialGradient></defs><title>ghana</title><g class="cls-2"><g id="objects"><g class="cls-3"><rect class="cls-4" x="-10.53" y="-0.01" width="113.11" height="30.72" transform="translate(-0.1 0.3) rotate(-0.37)"/><rect class="cls-5" x="-10.33" y="30.71" width="113.11" height="30.72" transform="translate(-0.29 0.3) rotate(-0.37)"/><rect class="cls-6" x="-10.13" y="61.42" width="113.11" height="30.72" transform="translate(-0.49 0.3) rotate(-0.37)"/></g><circle class="cls-7" cx="46.29" cy="46.07" r="46.07" transform="translate(-0.91 91.2) rotate(-88.59)"/><ellipse class="cls-8" cx="47.03" cy="33.88" rx="31.43" ry="36.22" transform="translate(12 80.06) rotate(-88.59)"/><circle class="cls-9" cx="46.34" cy="46.18" r="46.07"/></g><g id="Layer_4" data-name="Layer 4"><polygon points="47.06 30 50.9 41.83 63.33 41.83 53.28 49.14 57.12 60.96 47.06 53.66 36.99 60.96 40.83 49.14 30.78 41.83 43.21 41.83 47.06 30"/></g></g></svg>