<svg xmlns="http://www.w3.org/2000/svg" xmlns:xlink="http://www.w3.org/1999/xlink" viewBox="0 0 92.93 92.93"><defs><style>.cls-1{isolation:isolate;}.cls-2{fill:#f0f1f1;}.cls-3{fill:#cd3a2b;}.cls-4{fill:#2f3e70;}.cls-5{fill:#404041;}.cls-6{opacity:0.6;mix-blend-mode:multiply;fill:url(#radial-gradient);}.cls-7{opacity:0.7;fill:url(#radial-gradient-2);}</style><radialGradient id="radial-gradient" cx="46.47" cy="46.47" r="46.47" gradientUnits="userSpaceOnUse"><stop offset="0" stop-color="#fff" stop-opacity="0"/><stop offset="0.35" stop-color="#fbfbfb" stop-opacity="0.02"/><stop offset="0.53" stop-color="#eeedec" stop-opacity="0.11"/><stop offset="0.67" stop-color="#d8d6d2" stop-opacity="0.25"/><stop offset="0.79" stop-color="#b8b5ae" stop-opacity="0.44"/><stop offset="0.9" stop-color="#908b80" stop-opacity="0.7"/><stop offset="1" stop-color="#605949"/></radialGradient><radialGradient id="radial-gradient-2" cx="-212.07" cy="22.01" r="27.44" gradientTransform="translate(339.43 -1.06) scale(1.33 1.16)" gradientUnits="userSpaceOnUse"><stop offset="0" stop-color="#fff"/><stop offset="1" stop-color="#fff" stop-opacity="0"/></radialGradient></defs><title>대한민국</title><g class="cls-1"><g id="Layer_4" data-name="Layer 4"><path class="cls-2" d="M1.47,35.33A46.35,46.35,0,1,1,35.33,91.46,46.35,46.35,0,0,1,1.47,35.33"/><path class="cls-3" d="M65,43.84A17.6,17.6,0,1,1,45.89,27.91,17.61,17.61,0,0,1,65,43.84"/><path class="cls-4" d="M32.43,36.34a8.79,8.79,0,1,0,15,9.12,8.79,8.79,0,0,1,15,9.11A17.58,17.58,0,1,1,32.43,36.34"/><path class="cls-5" d="M18.9,65.1l4.57,6.78,2.29-1.54-4.58-6.78ZM18.17,64l2.29-1.54L15.88,55.7l-2.29,1.54Zm-8.09-4.41L20,74.26l2.28-1.54L12.36,58.08Zm7-4.75L27,69.51,29.27,68,19.4,53.33ZM77.86,36l-4.57-6.79L71,30.77l4.57,6.78Zm-5.3-7.86L68,21.36,65.71,22.9l4.57,6.78ZM82.63,32.8l2.28-1.54-4.58-6.78L78,26Zm-3-9.4L75,16.62l-2.28,1.54,4.58,6.78Zm1.78,10.24L71.52,19l-2.29,1.54,9.88,14.64ZM72.74,72.72,75,74.26l4.58-6.78-2.29-1.54ZM78,64.86l2.28,1.54,4.58-6.78-2.29-1.54Zm-4.24-1.3-4.57,6.78,2.28,1.55,4.58-6.78Zm7.58-6.32L79.11,55.7l-4.58,6.78L76.81,64Zm-11.1,3.94L65.7,68,68,69.51l4.57-6.78Zm3,.47,4.57-6.78-2.28-1.55L71,60.11ZM17.11,36l2.28,1.54L29.27,22.9,27,21.37Zm-1.24-.84,9.88-14.65L23.47,19,13.59,33.64Zm6.36-17L20,16.62,10.07,31.26l2.28,1.54Z"/><circle class="cls-6" cx="46.47" cy="46.47" r="46.47"/><ellipse class="cls-7" cx="47.28" cy="36.86" rx="36.53" ry="31.69"/></g></g></svg>