<svg xmlns="http://www.w3.org/2000/svg" xmlns:xlink="http://www.w3.org/1999/xlink" viewBox="0 0 92.93 92.93" width="80px" height="80px"><defs><style>.cls-1{isolation:isolate;}.cls-2{fill:#7bb652;}.cls-3{fill:#fff;}.cls-4{opacity:0.6;mix-blend-mode:multiply;fill:url(#radial-gradient);}.cls-5{opacity:0.7;fill:url(#radial-gradient-2);}</style><radialGradient id="radial-gradient" cx="46.47" cy="46.47" r="46.47" gradientUnits="userSpaceOnUse"><stop offset="0" stop-color="#fff" stop-opacity="0"/><stop offset="0.35" stop-color="#fbfbfb" stop-opacity="0.02"/><stop offset="0.53" stop-color="#eeedec" stop-opacity="0.11"/><stop offset="0.67" stop-color="#d8d6d2" stop-opacity="0.25"/><stop offset="0.79" stop-color="#b8b5ae" stop-opacity="0.44"/><stop offset="0.9" stop-color="#908b80" stop-opacity="0.7"/><stop offset="1" stop-color="#605949"/></radialGradient><radialGradient id="radial-gradient-2" cx="-318.99" cy="4.12" r="27.44" gradientTransform="translate(481.78 19.61) scale(1.33 1.16)" gradientUnits="userSpaceOnUse"><stop offset="0" stop-color="#fff"/><stop offset="1" stop-color="#fff" stop-opacity="0"/></radialGradient></defs><title>Saudi Arabia</title><g class="cls-1"><g id="Layer_4" data-name="Layer 4"><path class="cls-2" d="M1.47,35.33A46.35,46.35,0,1,1,35.33,91.46,46.35,46.35,0,0,1,1.47,35.33"/><path class="cls-3" d="M13.31,29.86l0,.06-.2.63a5.52,5.52,0,0,0,.79-1.84l-.27-1.18-.75.23-.37.73.91-.13Zm-.85,7.92.72-.63a5.69,5.69,0,0,0,.66-2.25L14,34l0,0,.57-1.88.14,0,.06.84-.17,1.45a4.48,4.48,0,0,0,.73,2.94,2.31,2.31,0,0,0,1.91.8c.11,1.26.3,2.52.42,3.78l0,0,.12,1.3.14,1.68h.13l.48-1.35c.06-1.22-.13-2.43-.16-3.65,0-.83-.13-1.66-.18-2.5l.77-.89.41-.67h.15L20,37l1.74.52,1.4-1a3.29,3.29,0,0,0,.33-2.17,24.56,24.56,0,0,0-.63-2.75l.48-.19V30.9l-.45-.71-.8-.78-.6.61-.33.59.39,1.14a14.12,14.12,0,0,1,.87,3.3l-.35.65-1.3-.24-.59-1a7.84,7.84,0,0,1-.38-2.7,2.49,2.49,0,0,0-.85-2.36l-.26.16a3.37,3.37,0,0,0-.12,2.06c.19.86.36,1.73.51,2.6l-1,1.64L18,35.28,18,34.6c-.12-1.2-.26-2.4-.34-3.61l.47-.52a4.46,4.46,0,0,0-.68-2l-.6-.7-.65,1,.25.92a9.31,9.31,0,0,0,.32,2c.07.69.08,1.41.17,2.11s.11,1.52.18,2.29l-.68-.2-.76-1.16-.13-.48-.07-1.29.39-1.6.06-1.09-.61-.46-.86.68a7,7,0,0,0-.91,1.94v0a29.33,29.33,0,0,1-.61,3.24l-.47.41-.63-.76a9.54,9.54,0,0,1-.51-2.64l-.06-1.89h-.18a5.68,5.68,0,0,0-.35,2l0,0a9.8,9.8,0,0,0,.9,4.32Zm18.82-4.14-.73.89-.36,1.36.64.79.9-.21.78-1.35-.72.56-.76.18-.23-.67.68-1.55Zm1-4.8-.15,1-.13,0-.08-.49Zm.06,2.45.57-.21-.08-.62.41-1.23L33,28.08l-1.07-.16-.8.92a1.8,1.8,0,0,0,.41,2,12.45,12.45,0,0,1-3,2.81l-1,.71v.18l1.24-.37a8.44,8.44,0,0,0,3.48-2.83M20.66,29l.37.39.42,0,.38-.57-.18-.66-.49.7-.34-1h-.12l-.56.93-.37-.09-.11-.79-.09-.23-.11,0-.23,1,.64.78Zm-5.5,11.77,1.22-.43v-.89H16a10,10,0,0,0-2.34,1.06,8.4,8.4,0,0,0-2.54,2.39l1-.68a20.84,20.84,0,0,1,3-1.46m-3,8.92a4.31,4.31,0,0,1,.23-2.51l.1-1.76H12.3L11.79,47a5.38,5.38,0,0,0-.39,2.2l.15,1.63.9.73,1.06-.94,0-1.27-.75.8ZM82.49,37A43.18,43.18,0,0,1,82,31.09l.61.27-.11-.77c-.37-.81-.75-1.62-1.1-2.45L81,27.58l-.39.28-.56.92.12,1.11c.08.86.26,1.74.32,2.6l.12,1.13L80.78,35c.3,2.67.6,5.35.78,8a9.68,9.68,0,0,1-.37,3.94,6.57,6.57,0,0,1-2,2.75c-.68.6-1.45,1.06-2.17,1.6l-.59.64,1.61-.2a5.76,5.76,0,0,0,3.15-1.87,7.16,7.16,0,0,0,1.43-3.25l0,0a17.44,17.44,0,0,0,.26-3.32c0-2.07-.2-4.15-.41-6.22M74.2,39.21c0-.66-.11-1.33-.11-2,.79,1.13,1.61,2.25,2.39,3.38l.19.66c.12.79.22,1.58.3,2.38s0,1.89,0,2.83l.21.46.39-1.21.09-1.46c-.07-.75,0-1.52-.13-2.27.86,1.14,1.69,2.3,2.47,3.51l.75,1.25h.13l-.09-1.8a13,13,0,0,0-2-3.45c-.49-.74-1-1.44-1.48-2.2-.1-.87-.16-1.74-.23-2.61-.12-1.25-.33-3.82-.33-3.82l0-1.13.27.15.2-.08,0-.65c-.22-.78-.41-1.58-.63-2.36l-.51-1.2-.41.19-.65,1.13.07.88c0,1.59.23,3.18.42,4.76.14,1,.32,1.94.45,2.91-.7-1-1.44-2-2.14-3,0-1-.15-2.08-.19-3.13l.47.18,0-.48c-.32-1-.68-2-1.06-3l-.36-.31-.77,1.33.22,1.2c0,.65.15,1.3.18,2l-1.12-1.6h.39l.13-.18-.19-.39a22.06,22.06,0,0,1-1.83-1.8L69,28l0,.34,0,1.54.68,1.43c1,1.24,2,2.54,3,3.8l.13,1.3c0,.64.11,1.27.13,1.93l0,0a63,63,0,0,1,.25,6.92l-.44,1.28-.84.49-1-.44L69.45,45h-.76l-.87,1.21a33.41,33.41,0,0,0-1.65,3.1l-.6.85h-.72l-.54-.9.62.25.86-.65a7,7,0,0,0,.83-2.62,14,14,0,0,0-.4-4c-.06-.85-.21-1.69-.27-2.55l0,0c-.14-1.31-.31-2.61-.47-3.92-.08-1-.24-2-.28-3l1-.43L66,31.23A9.83,9.83,0,0,1,65,29l-.49-1.37-.71-.47-.78.39-.82,1.61a5.51,5.51,0,0,0,.23,2.34,14.72,14.72,0,0,1,.35,2.15c.25,1.83.48,3.67.72,5.5.14,1.17.3,2.35.46,3.52a22.51,22.51,0,0,1,.39,5l-.23,1-.2-1.51-.08-1.8-.13,0-.42,1.51a6.77,6.77,0,0,0-.13,3.21,3.62,3.62,0,0,0,1.37,1.58l1,.48.65-.42a13.81,13.81,0,0,0,1.59-2.78l1-1.65.42-.24.76,1a3.19,3.19,0,0,0,2.23,1,2.2,2.2,0,0,0,1.79-1,5.48,5.48,0,0,0,.68-3l0,0c-.06-1.92-.18-3.83-.3-5.75m-.57,11.66.38-1.1-.09-.19-1.25-.1-.21.61.58.54-.82,1.14.58.3,1.53-.73v-.44ZM21.33,41.6l-.11-1.12.18-.09.62.27.61.7Zm3.08,8.25A5.15,5.15,0,0,0,26,47.35a11.53,11.53,0,0,0,.26-3.93l-.06-1.68.06-.37h.16l1.16.83,1.5-.38.59-.56.22,0,.5.54,1.33.22.72-.63.22-1.78-.22-1.13-.72.47.06.38.08.92-.51.7-.75-.49-.39-1.7-.16,0-.75,1.69-1,.71-.7-.47-.16-1.5-.36-.3-1,.83c-.07-1.12-.14-2.24-.23-3.35-.06-1.35-.21-2.68-.28-4l.45.24.32-.27-.07-.92c-.3-.7-.53-1.44-.79-2.15L24.95,28l-.63.44-.55.77.2.85v.54l.14,1.83.06.56,0,0,.2,1.79,0,0c.19,1.82.44,3.63.5,5.45l-1,.55-1.32-1.67-1.13-.45-1,.77L19.91,41l0,1.63.27.42,1.4.23,1.61-.51-.09,1.09-.39.54L21,46a5.48,5.48,0,0,1-2.19,1l-1.54-.48a4.2,4.2,0,0,1-.85-3.16l.06-1.07L16,43a8.08,8.08,0,0,0-.29,2,4.49,4.49,0,0,0,.31,2.08,2.86,2.86,0,0,0,2,1.61,5.22,5.22,0,0,0,3.15-.87,5.87,5.87,0,0,0,2.9-3.16l0,0a8,8,0,0,0,.08-2.25L25,42c0,.84,0,1.68,0,2.51l-.16,1.78,0,0a3.45,3.45,0,0,1-1.31,1.82,9.35,9.35,0,0,1-3.35,1.76,6.67,6.67,0,0,1-2.15.32,2.75,2.75,0,0,1-2.11-.87,4.51,4.51,0,0,1-.9-2.56V45.43l0-2a8.8,8.8,0,0,0-.18,7l.77,1a3.79,3.79,0,0,0,2.24.65,11.17,11.17,0,0,0,3.94-.79,7.88,7.88,0,0,0,2.57-1.4M36,36.63l.93-.75c.38-.88.68-1.8,1-2.71l.49-1,.15,0,0,.59a7.8,7.8,0,0,0,.07,2.71l1,1.56,1.89.07a4.61,4.61,0,0,0,2.29-2.06,3.84,3.84,0,0,0,2.06,1.58l1.65-.8a4.5,4.5,0,0,0,.6-2.8,15.24,15.24,0,0,0-.38-2l-.31-1,.65.4.42,0-.06-.66-1-1.73-.76-.39-.37.65-.51.85.51,1.3a15.56,15.56,0,0,1,.61,2.35l-.06,1.85-.77.5-.9-.68a6.74,6.74,0,0,1-.89-2.64,18.21,18.21,0,0,0-.24-2.69,5.46,5.46,0,0,0-.65-2h-.18l-.58,1.14.13,1a15.27,15.27,0,0,1,.44,3.39l-.44,1.68-1.35,1H40.14l-.61-1.26a19.9,19.9,0,0,1,.13-3.55l.09-1.13-.37-.49-.59.25a12.51,12.51,0,0,0-1.25,2,20.47,20.47,0,0,0-1.28,3l-.69.55-.92-1.24-.13-.55a8.79,8.79,0,0,1-.1-2.27l.2-1.36h-.13A7.34,7.34,0,0,0,33.82,32a5.15,5.15,0,0,0,1.08,3.81Zm35.43,37.7a11.83,11.83,0,0,1-1.4,0h-.85l-.59-.44-.44.25,0,.22c-.75.07-1.49,0-2.23.06l-.43-.56v-.65l6.06-.18Zm.27-3c-2.09,0-4.18.07-6.27.1v-.65l.38-.85L65.31,69H65l-.56.9.44.94v.54c-7.7.1-15.4.1-23.1.06-.8,0-1.61,0-2.41,0l-2,0c-3.9,0-7.8-.06-11.71-.11-1,0-2,0-2.94,0s-2,0-2.94,0A4.16,4.16,0,0,0,22,72.87a15.62,15.62,0,0,0,4.42.72c1.61.09,3.22,0,4.82.09,5.11,0,10.23,0,15.33,0,4.67,0,9.34-.14,14-.25,1.46,0,2.93-.08,4.39-.08v.63l-.45.66.7,1.18h.14l.49-.7c.76,0,1.52-.06,2.28,0l.57.45.54-.51,2.44,0,.61.51,1.11-.29.49-1.8-.53-1.61ZM70.68,39c-.85.82-1.89,1.43-2.77,2.23l-.21.6.85-.43a16.27,16.27,0,0,1,2.19-1.44l.8-.51,0-1Zm-13.47-8.9,0,1.78.46-.56a3.47,3.47,0,0,0-.3-2.87l-.68-.56-.41,1,.33.39Zm.43,3.09-.28.9-.25.12-.3-.7-.13,0,.18,1.35.86-.41.6.37.49-.16.09-.23-.09-1.44-.15,0-.11.24-.46.92-.34-.85Zm2.47.82c.21,1.76.39,3.54.52,5.3s.18,3.52.3,5.28A14.36,14.36,0,0,1,61,46.62a4.23,4.23,0,0,1-1.21,2.59,10.64,10.64,0,0,1-2.9,2.39l-1.8.72v.16l1.27.07a5.39,5.39,0,0,0,2.24-.47,8.86,8.86,0,0,0,2.06-2,5.82,5.82,0,0,0,1.29-3.3A21.69,21.69,0,0,0,62,43.25c0-1.89-.18-3.78-.39-5.66a41.15,41.15,0,0,1-.4-6l.61.17,0-.59-.47-1.66-.12-.49,0,0-.36-1-.35.13L59.6,29l-.14,1,.19.52c.16,1.15.31,2.3.46,3.44M67.59,36l.28-.27.92,1.52.34.56.29-.44c0-.76,0-1.53,0-2.3l.25-.48.73.16v-.47l-.32-.66-.23-.11-.8.89L69.09,36l-.08.71-.48-.93-.78-1.29-.41.1-.14.48v.7l.08.27ZM41.35,30.47l0,1.57h.14l.22-.81a6.33,6.33,0,0,0-.17-2.44L41.11,28l-.47.34.11.58ZM71.63,43.35A2.33,2.33,0,0,0,71,41.23l-.51-.15-.42.75.94.92V44ZM49.05,30l.84.72c1.2,1.59,2.42,3.18,3.48,4.85.11.68.19,1.37.27,2.05l0,0,.15,1.08c.29,2.35.63,4.7.79,7.06a9.68,9.68,0,0,1-.2,3.06l-.08,1.06.46-.5a11.28,11.28,0,0,0,.73-4.71l0,0c0-1.5-.33-3-.41-4.47,0-.76-.13-1.51-.15-2.28a71.34,71.34,0,0,1,4.28,7.33l.8,1.7.2,0a7.45,7.45,0,0,0-.67-2.9,36.46,36.46,0,0,0-2.29-4.39q-1.15-1.94-2.38-3.82l-.18-1.11c-.06-.79-.06-1.57-.08-2.36l.51.19.11-.2-.2-1c-.3-.92-.7-1.79-1.08-2.69l-.42-.45-.51.43-.3,1,.3.85c0,1,.22,1.94.29,2.92l-.07-.16c-.57-.77-1.09-1.57-1.63-2.36l.9,0-.45-.87c-.73-.78-1.56-1.46-2.35-2.17l-.63-.18-.11.18L49,29.09Zm-5.52,9.71h.18l.54.32.7-.65-.33-1.58-.12,1.11-.15.48h-.2l-.41-.68-.35-.5-.12.92-.15.43h-.27l-.42-1.15-.11-.17.14,1.82.63.27ZM29.33,46.63l.2-.07L30,45.35,30,44l-1.11-.24-.06.94.71.11,0,1Zm18.44-7.32,1.28.58.41.3-1.65.45-.16-1.16ZM53.18,44l-1.35,0c-1.84.1-3.68.13-5.51.13h-.6c-.55,0-1.11,0-1.66,0a27.53,27.53,0,0,1,3.75-1.58l.77.1v-.34a5.33,5.33,0,0,0,1.94-1.07l.7-1.57-1-1.46a3.88,3.88,0,0,0-2.15-.82L47,37.95l-.85,1.7L46.54,41c-1.08.32-2.15.73-3.2,1.12l-1.49.68-.76,1.27-.18,1,.7.2c.73,0,1.44,0,2.16.09a3.94,3.94,0,0,1,2,.55l.25.24a3.63,3.63,0,0,0-2.18,1.88l0,1.58a4.08,4.08,0,0,1-2.56-1.73,10.73,10.73,0,0,1-.9-3.6c-.11-.8-.3-1.58-.45-2.37v.11a23.17,23.17,0,0,0-1.58-4.27L37.88,37l-.6,1-.16,1.3q.65,1.78,1.21,3.61l0,0,.44,1.49,0,0,.33,1.23a12.7,12.7,0,0,1-2.54,3.4,5.53,5.53,0,0,1-2.7,1.54l-1.47-.25-.34-1.14A11.31,11.31,0,0,0,35,47a5.49,5.49,0,0,0,1.54-2.37,5.56,5.56,0,0,0,0-2.24l-.16-.61-.44-1.25.48-.1-.48-1.12L35,38.26l-.51,0-.46.85L33.8,40l.58.5c.3.7.68,1.35,1,2l.23,1.28-.87,1.36A26.94,26.94,0,0,1,32.41,47V44.83h-.15a11.93,11.93,0,0,0-1,2.25L31,48l-.16.18a45.2,45.2,0,0,1-4.26,2.58l-1.86,1,0,.21.47,0a40.3,40.3,0,0,0,5.76-2.06,3.25,3.25,0,0,0,.77,1.94,2.64,2.64,0,0,0,2.26.61,6.34,6.34,0,0,0,3.29-1.88,19.3,19.3,0,0,0,2.4-2.9,6.69,6.69,0,0,0,1.8,2.68,8.52,8.52,0,0,0,4.79,1.88l1-.3.28-1.3-1.13-.46-1.36-1v-1l1.44-.79a31.64,31.64,0,0,1,4.73-1.37l1.35-.35.54-1.09ZM78.8,32.53l.12,1.13h.15l.29-1.59a5.4,5.4,0,0,0-.79-2.89l-.58.61.09.63a5.22,5.22,0,0,1,.72,2.11M50.51,51.91a3.52,3.52,0,0,0,2-1l.56-.62-.44,0a8.76,8.76,0,0,1-2,.78l-.15-.27.23-1.58-1.2.49-.59.53,1-.21-.14,1.48Z"/><circle class="cls-4" cx="46.47" cy="46.47" r="46.47"/><ellipse class="cls-5" cx="47.28" cy="36.86" rx="36.53" ry="31.69"/></g></g></svg>