<svg xmlns="http://www.w3.org/2000/svg" xmlns:xlink="http://www.w3.org/1999/xlink" viewBox="0 0 92.93 92.93" width="80px" height="80px"><defs><style>.cls-1{isolation:isolate;}.cls-2{fill:#cd3a2b;}.cls-3{fill:#fff;}.cls-4{opacity:0.6;mix-blend-mode:multiply;fill:url(#radial-gradient);}.cls-5{opacity:0.7;fill:url(#radial-gradient-2);}</style><radialGradient id="radial-gradient" cx="46.47" cy="46.47" r="46.47" gradientUnits="userSpaceOnUse"><stop offset="0" stop-color="#fff" stop-opacity="0"/><stop offset="0.35" stop-color="#fbfbfb" stop-opacity="0.02"/><stop offset="0.53" stop-color="#eeedec" stop-opacity="0.11"/><stop offset="0.67" stop-color="#d8d6d2" stop-opacity="0.25"/><stop offset="0.79" stop-color="#b8b5ae" stop-opacity="0.44"/><stop offset="0.9" stop-color="#908b80" stop-opacity="0.7"/><stop offset="1" stop-color="#605949"/></radialGradient><radialGradient id="radial-gradient-2" cx="-87.27" cy="-64.35" r="27.44" gradientTransform="translate(173.29 98.68) scale(1.33 1.16)" gradientUnits="userSpaceOnUse"><stop offset="0" stop-color="#fff"/><stop offset="1" stop-color="#fff" stop-opacity="0"/></radialGradient></defs><title>Tunisia 2</title><g class="cls-1"><g id="Layer_4" data-name="Layer 4"><path class="cls-2" d="M1.47,35.33A46.35,46.35,0,1,1,35.33,91.46,46.35,46.35,0,0,1,1.47,35.33"/><path class="cls-3" d="M42.69,11.55A34.19,34.19,0,1,1,8.51,45.74,34.19,34.19,0,0,1,42.69,11.55"/><path class="cls-2" d="M52.36,67.13A21.39,21.39,0,1,1,66.89,30.08a26.74,26.74,0,1,0,0,31.32,21.27,21.27,0,0,1-14.53,5.74"/><polygon class="cls-2" points="48.84 30.36 55.68 39.91 66.89 36.34 59.92 45.81 66.77 55.36 55.61 51.66 48.65 61.13 48.72 49.38 37.56 45.67 48.77 42.11 48.84 30.36"/><circle class="cls-4" cx="46.47" cy="46.47" r="46.47"/><ellipse class="cls-5" cx="47.28" cy="36.86" rx="36.53" ry="31.69"/></g></g></svg>