<svg xmlns="http://www.w3.org/2000/svg" xmlns:xlink="http://www.w3.org/1999/xlink" viewBox="0 0 113.11 100.11"><defs><style>.cls-1{fill:none;}.cls-2{isolation:isolate;}.cls-3{clip-path:url(#clip-path);}.cls-4{fill:#ff0203;}.cls-5{fill:#fff;}.cls-6{opacity:0.6;mix-blend-mode:multiply;fill:url(#radial-gradient);}.cls-7{opacity:0.7;fill:url(#radial-gradient-2);}</style><clipPath id="clip-path"><circle class="cls-1" cx="56.56" cy="46.07" r="46.07"/></clipPath><radialGradient id="radial-gradient" cx="56.56" cy="46.07" r="46.07" gradientUnits="userSpaceOnUse"><stop offset="0" stop-color="#fff" stop-opacity="0"/><stop offset="0.35" stop-color="#fbfbfb" stop-opacity="0.02"/><stop offset="0.53" stop-color="#eeedec" stop-opacity="0.11"/><stop offset="0.67" stop-color="#d8d6d2" stop-opacity="0.25"/><stop offset="0.79" stop-color="#b8b5ae" stop-opacity="0.44"/><stop offset="0.9" stop-color="#908b80" stop-opacity="0.7"/><stop offset="1" stop-color="#605949"/></radialGradient><radialGradient id="radial-gradient-2" cx="-13.3" cy="-53.1" r="27.21" gradientTransform="translate(84.81 85.48) scale(1.33 1.16)" gradientUnits="userSpaceOnUse"><stop offset="0" stop-color="#fff"/><stop offset="1" stop-color="#fff" stop-opacity="0"/></radialGradient></defs><title>Turkiye</title><g class="cls-2"><g id="objects"><g class="cls-3"><rect class="cls-4" width="113.11" height="100.11"/><path class="cls-5" d="M58.76,66.06A17.71,17.71,0,1,1,65.58,32a20.8,20.8,0,1,0,0,32.7A17.66,17.66,0,0,1,58.76,66.06Z"/><polygon class="cls-5" points="74.42 46.26 80.34 43.94 77.13 49.44 81.17 54.35 74.95 53 71.52 58.36 70.89 52.03 64.73 50.42 70.56 47.86 70.19 41.51 74.42 46.26"/></g><circle class="cls-6" cx="56.56" cy="46.07" r="46.07"/><ellipse class="cls-7" cx="57.37" cy="36.55" rx="36.23" ry="31.43"/></g></g></svg>