<svg xmlns="http://www.w3.org/2000/svg" xmlns:xlink="http://www.w3.org/1999/xlink" viewBox="0 0 93.17 92.93" width="100px" height="100px"><defs><style>.cls-1{fill:none;}.cls-2{isolation:isolate;}.cls-3{clip-path:url(#clip-path);}.cls-4{fill:url(#radial-gradient);}.cls-5{fill:#2f3e70;}.cls-6{fill:#edebe6;}.cls-7{fill:#cd3a2b;}.cls-8{fill:#374165;}.cls-9{opacity:0.6;mix-blend-mode:multiply;fill:url(#radial-gradient-2);}.cls-10{opacity:0.7;fill:url(#radial-gradient-3);}</style><clipPath id="clip-path"><path class="cls-1" d="M46.57.1A46.4,46.4,0,1,0,57.75,1.47,46.37,46.37,0,0,0,46.57.1h0"/></clipPath><radialGradient id="radial-gradient" cx="-3346.27" cy="2054.47" r="0.23" gradientTransform="matrix(197.47, 0, 0, -197.47, 660826.8, 405737.9)" gradientUnits="userSpaceOnUse"><stop offset="0" stop-color="#fff"/><stop offset="0.78" stop-color="#fff"/><stop offset="0.82" stop-color="#f9f8f8"/><stop offset="0.87" stop-color="#e8e6e3"/><stop offset="0.94" stop-color="#cdc7c2"/><stop offset="1" stop-color="#b1a9a0"/></radialGradient><radialGradient id="radial-gradient-2" cx="46.61" cy="46.47" r="46.47" gradientUnits="userSpaceOnUse"><stop offset="0" stop-color="#fff" stop-opacity="0"/><stop offset="0.35" stop-color="#fbfbfb" stop-opacity="0.02"/><stop offset="0.53" stop-color="#eeedec" stop-opacity="0.11"/><stop offset="0.67" stop-color="#d8d6d2" stop-opacity="0.25"/><stop offset="0.79" stop-color="#b8b5ae" stop-opacity="0.44"/><stop offset="0.9" stop-color="#908b80" stop-opacity="0.7"/><stop offset="1" stop-color="#605949"/></radialGradient><radialGradient id="radial-gradient-3" cx="-330.28" cy="-10.48" r="27.44" gradientTransform="translate(496.95 36.47) scale(1.33 1.16)" gradientUnits="userSpaceOnUse"><stop offset="0" stop-color="#fff"/><stop offset="1" stop-color="#fff" stop-opacity="0"/></radialGradient></defs><title>uk</title><g class="cls-2"><g id="Layer_4" data-name="Layer 4"><g class="cls-3"><rect class="cls-4" x="-4.54" y="0.1" width="102.29" height="97.51"/></g><path class="cls-5" d="M1.62,35.33A46.35,46.35,0,1,1,35.48,91.46,46.35,46.35,0,0,1,1.62,35.33"/><path class="cls-6" d="M79.5,13.78,60.86,26.21V2.36q-1.53-.49-3.11-.89a46.14,46.14,0,0,0-25.5.92V26.21L13.68,13.84A46,46,0,0,0,3.63,29.11l4.92,3.28H2.45c-.31,1-.59,1.94-.83,2.94A46.12,46.12,0,0,0,2.59,61H8.67L3.8,64.24A46.59,46.59,0,0,0,14,79.42L32.25,67.26V90.54q1.58.52,3.23.92a46.13,46.13,0,0,0,25.38-.88V67.26L79.17,79.47A46,46,0,0,0,89.4,64.31l-5-3.31h6.19q.55-1.67,1-3.4a46.15,46.15,0,0,0-.83-25.21H84.56l5-3.34A46.58,46.58,0,0,0,79.5,13.78"/><path class="cls-7" d="M25.12,32.39,7.91,20.94a46,46,0,0,0-3.09,5.47l9,6ZM85.25,20.85a46.56,46.56,0,0,0-3.82-5L60.86,29.54v2.85h7ZM8,72.16a46.52,46.52,0,0,0,3.83,5L32.25,63.58V61H24.82ZM92.26,38.35H54.9V.86a46.1,46.1,0,0,0-16.69,0V38.35H1A46.08,46.08,0,0,0,1,55H38.21V92a46.09,46.09,0,0,0,16.69,0V55H92.17a46.11,46.11,0,0,0,.09-16.69M68.3,61,85.17,72.22a46,46,0,0,0,3.12-5.45L79.62,61Z"/><path class="cls-8" d="M60.86,7.18h0v3a5.35,5.35,0,0,0,.28-1.62,3.39,3.39,0,0,0-.28-1.39"/><circle class="cls-9" cx="46.61" cy="46.47" r="46.47"/><ellipse class="cls-10" cx="47.43" cy="36.86" rx="36.53" ry="31.69"/></g></g></svg>