<svg xmlns="http://www.w3.org/2000/svg" xmlns:xlink="http://www.w3.org/1999/xlink" viewBox="0 0 92.93 92.93" width="80px" height="80px"><defs><style>.cls-1{isolation:isolate;}.cls-2{fill:#0051b8;}.cls-3{fill:#ffdb2d;}.cls-4{fill:#fc0023;}.cls-5{opacity:0.6;mix-blend-mode:multiply;fill:url(#radial-gradient);}.cls-6{opacity:0.7;fill:url(#radial-gradient-2);}.cls-7{fill:#fff;}</style><radialGradient id="radial-gradient" cx="46.47" cy="46.47" r="46.47" gradientUnits="userSpaceOnUse"><stop offset="0" stop-color="#fff" stop-opacity="0"/><stop offset="0.35" stop-color="#fbfbfb" stop-opacity="0.02"/><stop offset="0.53" stop-color="#eeedec" stop-opacity="0.11"/><stop offset="0.67" stop-color="#d8d6d2" stop-opacity="0.25"/><stop offset="0.79" stop-color="#b8b5ae" stop-opacity="0.44"/><stop offset="0.9" stop-color="#908b80" stop-opacity="0.7"/><stop offset="1" stop-color="#605949"/></radialGradient><radialGradient id="radial-gradient-2" cx="-87.18" cy="-32.99" r="27.44" gradientTransform="translate(172.35 62.46) scale(1.33 1.16)" gradientUnits="userSpaceOnUse"><stop offset="0" stop-color="#fff"/><stop offset="1" stop-color="#fff" stop-opacity="0"/></radialGradient></defs><title>Artboard 46 copy</title><g class="cls-1"><g id="Layer_4" data-name="Layer 4"><path class="cls-2" d="M57.6,1.42A46.35,46.35,0,1,1,1.47,35.28,46.35,46.35,0,0,1,57.6,1.42"/><path class="cls-3" d="M57.6,1.52A46.36,46.36,0,0,0,6.67,22.73H86.25A46.2,46.2,0,0,0,57.6,1.52"/><path class="cls-4" d="M86.08,70.6H6.86a46.36,46.36,0,0,0,79.22,0"/><circle class="cls-5" cx="46.47" cy="46.47" r="46.47"/><ellipse class="cls-6" cx="46.47" cy="36.86" rx="36.53" ry="31.69"/><polygon class="cls-7" points="17.4 50.96 18.84 53.72 21.9 53.2 19.73 55.42 21.17 58.18 18.38 56.8 16.2 59.01 16.66 55.94 13.88 54.56 16.94 54.04 17.4 50.96"/><polygon class="cls-7" points="24.5 42.74 25 45.81 28.07 46.28 25.31 47.71 25.81 50.77 23.61 48.59 20.84 50.01 22.24 47.23 20.03 45.05 23.1 45.52 24.5 42.74"/><polygon class="cls-7" points="33.83 37.17 33.34 40.24 36.11 41.65 33.04 42.14 32.55 45.21 31.14 42.44 28.07 42.92 30.27 40.72 28.86 37.95 31.63 39.37 33.83 37.17"/><polygon class="cls-7" points="44.44 34.81 43.01 37.57 45.19 39.78 42.12 39.28 40.7 42.04 40.23 38.97 37.16 38.46 39.94 37.06 39.47 33.99 41.65 36.2 44.44 34.81"/><polygon class="cls-7" points="55.24 35.9 53.02 38.07 54.4 40.86 51.65 39.42 49.42 41.59 49.94 38.52 47.19 37.08 50.27 36.63 50.79 33.56 52.17 36.35 55.24 35.9"/><polygon class="cls-7" points="65.17 40.33 62.37 41.7 62.8 44.77 60.64 42.54 57.85 43.9 59.31 41.16 57.15 38.92 60.21 39.46 61.67 36.71 62.1 39.79 65.17 40.33"/><polygon class="cls-7" points="73.19 47.66 70.11 48.07 69.55 51.13 68.2 48.33 65.13 48.75 67.37 46.6 66.02 43.8 68.76 45.27 71.01 43.12 70.45 46.18 73.19 47.66"/><polygon class="cls-7" points="78.51 57.13 75.45 56.56 73.97 59.28 73.56 56.2 70.51 55.63 73.31 54.3 72.92 51.21 75.05 53.47 77.86 52.14 76.37 54.87 78.51 57.13"/></g></g></svg>