<svg xmlns="http://www.w3.org/2000/svg" xmlns:xlink="http://www.w3.org/1999/xlink" width="38" height="38" viewBox="0 0 15 14">
    <defs>
        <path id="prefix__a" d="M6.51.51C6.29.29 5.993.168 5.684.168H1.5C.858.167.333.692.333 1.333v9.334c0 .641.52 1.166 1.161 1.166H8.5c.642 0 1.167-.525 1.167-1.166V4.15c0-.31-.123-.607-.345-.823L6.511.511zm.24 8.99h-3.5c-.32 0-.583-.262-.583-.583 0-.321.262-.584.583-.584h3.5c.32 0 .583.263.583.584 0 .32-.262.583-.583.583zm0-2.333h-3.5c-.32 0-.583-.263-.583-.584 0-.32.262-.583.583-.583h3.5c.32 0 .583.263.583.583 0 .321-.262.584-.583.584zm-1.167-3.5V1.042L8.792 4.25H6.167c-.321 0-.584-.263-.584-.583z"/>
    </defs>
    <g fill="none" fill-rule="evenodd" transform="translate(3 1)">
        <mask id="prefix__b" fill="#fff">
            <use xlink:href="#prefix__a"/>
        </mask>
        <g fill="#000" mask="url(#prefix__b)">
            <path d="M0 0H14V14H0z" transform="translate(-2 -1)"/>
        </g>
    </g>
</svg>
