<svg xmlns="http://www.w3.org/2000/svg" xmlns:xlink="http://www.w3.org/1999/xlink" width="38" height="38" viewBox="0 0 15 14">
    <defs>
        <path id="prefix__a" d="M5 .321C2.743.321.917 2.147.917 4.405c0 2.432 2.578 5.786 3.64 7.064.233.28.659.28.892 0 1.056-1.278 3.634-4.632 3.634-7.064C9.083 2.147 7.258.32 5 .32zm0 5.542c-.805 0-1.458-.653-1.458-1.458 0-.805.653-1.459 1.458-1.459.805 0 1.458.654 1.458 1.459S5.805 5.863 5 5.863z"/>
    </defs>
    <g fill="none" fill-rule="evenodd" transform="translate(3 1)">
        <mask id="prefix__b" fill="#fff">
            <use xlink:href="#prefix__a"/>
        </mask>
        <g fill="#000" mask="url(#prefix__b)">
            <path d="M0 0H14V14H0z" transform="translate(-2 -1)"/>
        </g>
    </g>
</svg>
