<?xml version="1.0" standalone="no"?>
<!DOCTYPE svg PUBLIC "-//W3C//DTD SVG 20010904//EN"
 "http://www.w3.org/TR/2001/REC-SVG-20010904/DTD/svg10.dtd">
<svg version="1.0" xmlns="http://www.w3.org/2000/svg"
 width="120px" height="120px" viewBox="0 0 64.000000 64.000000"
 preserveAspectRatio="xMidYMid meet">

<g transform="translate(0.000000,64.000000) scale(0.100000,-0.100000)"
fill="#2e5b81" stroke="none">
<path d="M80 500 c-36 -59 -41 -75 -36 -105 4 -19 17 -41 29 -50 27 -19 76
-19 103 -1 17 12 22 12 39 0 24 -18 75 -17 99 1 16 12 22 12 42 -2 17 -10 34
-13 56 -8 41 8 72 8 120 0 31 -6 41 -3 62 19 37 37 34 74 -15 151 l-41 65
-208 0 -208 0 -42 -70z"/>
<path d="M92 198 l3 -103 235 0 235 0 3 103 3 102 -31 0 c-29 0 -30 -2 -30
-45 l0 -45 -180 0 -180 0 0 45 c0 43 -1 45 -30 45 l-31 0 3 -102z"/>
</g>
</svg>
