<svg xmlns="http://www.w3.org/2000/svg" width="109.998" height="109.998" viewBox="0 0 60 60">
  <metadata><?xpacket begin="﻿" id="W5M0MpCehiHzreSzNTczkc9d"?>
<x:xmpmeta xmlns:x="adobe:ns:meta/" x:xmptk="Adobe XMP Core 5.6-c142 79.160924, 2017/07/13-01:06:39        ">
   <rdf:RDF xmlns:rdf="http://www.w3.org/1999/02/22-rdf-syntax-ns#">
      <rdf:Description rdf:about=""/>
   </rdf:RDF>
</x:xmpmeta>
                                                                                                    
                                                                                                    
                                                                                                    
                                                                                                    
                                                                                                    
                                                                                                    
                                                                                                    
                                                                                                    
                                                                                                    
                                                                                                    
                                                                                                    
                                                                                                    
                                                                                                    
                                                                                                    
                                                                                                    
                                                                                                    
                                                                                                    
                                                                                                    
                                                                                                    
                                                                                                    
                           
<?xpacket end="w"?></metadata>
<defs>
    <style>
      .cls-1 {
        fill: #dee7ea;
        fill-rule: evenodd;
      }
    </style>
  </defs>
  <g id="Artboard_1" data-name="Artboard 1">
    <path id="Forma_1" data-name="Forma 1" class="cls-1" d="M290.946,254.038a3.472,3.472,0,0,0-2.53-1.04H252.584a3.476,3.476,0,0,0-2.531,1.04,3.4,3.4,0,0,0-1.052,2.5v26.92a3.4,3.4,0,0,0,1.052,2.5,3.472,3.472,0,0,0,2.531,1.04h35.832a3.468,3.468,0,0,0,2.53-1.04,3.392,3.392,0,0,0,1.053-2.5V256.54A3.392,3.392,0,0,0,290.946,254.038Zm-1.814,29.422a0.681,0.681,0,0,1-.212.5,0.694,0.694,0,0,1-.5.21H252.584a0.7,0.7,0,0,1-.5-0.21,0.682,0.682,0,0,1-.212-0.5V270h37.264v13.46Zm0-21.962H251.868v-4.959a0.678,0.678,0,0,1,.212-0.5,0.7,0.7,0,0,1,.5-0.21h35.832a0.694,0.694,0,0,1,.5.21,0.682,0.682,0,0,1,.212.5V261.5h0Zm-34.4,17h5.733v2.834h-5.733V278.5Zm8.6,0h8.6v2.834h-8.6V278.5Z" transform="translate(-240 -240)"/>
  </g>
</svg>
