<svg  xmlns="http://www.w3.org/2000/svg" width="24" height="22" viewBox="0 0 24 22">
    <g fill="none" fill-rule="evenodd">
        <g>
            <path stroke="#FFF" stroke-linecap="round" stroke-width="1.5" d="M12 2L22 2" opacity=".5" transform="rotate(90 13.5 12.5) rotate(-30 34.392 8)"/>
            <path fill="#FFF" d="M2 4c1.105 0 2-.895 2-2s-.895-2-2-2-2 .895-2 2 .895 2 2 2zM22 4c1.105 0 2-.895 2-2s-.895-2-2-2-2 .895-2 2 .895 2 2 2z" transform="rotate(90 13.5 12.5) rotate(-30 34.392 8)"/>
        </g>
        <g>
            <path stroke="#FFF" stroke-linecap="round" stroke-width="1.5" d="M7 0.34L2 9 22 9" opacity=".5" transform="rotate(90 13.5 12.5) rotate(30 2.67 11.5)"/>
            <path fill="#FFF" d="M2 11c1.105 0 2-.895 2-2s-.895-2-2-2-2 .895-2 2 .895 2 2 2zM22 11c1.105 0 2-.895 2-2s-.895-2-2-2-2 .895-2 2 .895 2 2 2z" transform="rotate(90 13.5 12.5) rotate(30 2.67 11.5)"/>
        </g>
        <g>
            <path stroke="#FFF" stroke-linecap="round" stroke-width="1.5" d="M2 9L22 9M17 17.66L22 9 17 .34" opacity=".5" transform="rotate(90 13.5 12.5) rotate(90 9.5 11.5)"/>
            <path fill="#FFF" d="M2 11c1.105 0 2-.895 2-2s-.895-2-2-2-2 .895-2 2 .895 2 2 2zM22 11c1.105 0 2-.895 2-2s-.895-2-2-2-2 .895-2 2 .895 2 2 2z" transform="rotate(90 13.5 12.5) rotate(90 9.5 11.5)"/>
        </g>
        <path fill="#FFF" d="M14.828 16.828c1.562-1.562 1.562-4.094 0-5.656-1.562-1.563-4.094-1.563-5.656 0-1.563 1.562-1.563 4.094 0 5.656 1.562 1.563 4.094 1.563 5.656 0z" transform="rotate(90 13.5 12.5)"/>
    </g>
</svg>
