<svg  xmlns="http://www.w3.org/2000/svg" width="22" height="20" viewBox="0 0 22 20">
    <g fill="none" fill-rule="evenodd">
        <g stroke="#FFF" stroke-linecap="round" stroke-width="1.5">
            <path d="M.5 9L.5 15M9.5 9L9.5 0M.5 9L18.5 9M12.5 9L12.5 15M6.5 9L6.5 15M18.5 9L18.5 15" transform="translate(1.5 3)"/>
        </g>
        <path fill="#FBFBFB" d="M20 20c1.105 0 2-.895 2-2s-.895-2-2-2-2 .895-2 2 .895 2 2 2zM14 20c1.105 0 2-.895 2-2s-.895-2-2-2-2 .895-2 2 .895 2 2 2zM8.543 19.924c1.062-.3 1.681-1.404 1.381-2.466-.3-1.063-1.404-1.682-2.467-1.382-1.062.3-1.681 1.404-1.381 2.467.3 1.062 1.404 1.681 2.467 1.381zM1.68 19.974c1.09.177 2.117-.564 2.294-1.654.177-1.09-.564-2.117-1.654-2.294C1.23 15.85.203 16.59.026 17.68c-.177 1.09.564 2.117 1.654 2.294z"/>
        <path fill="#FFF" d="M13.828 6.828c1.562-1.562 1.562-4.094 0-5.656-1.562-1.563-4.094-1.563-5.656 0-1.563 1.562-1.563 4.094 0 5.656 1.562 1.563 4.094 1.563 5.656 0z"/>
    </g>
</svg>
