<svg  xmlns="http://www.w3.org/2000/svg" width="20" height="21" viewBox="0 0 20 21">
    <g fill="none" fill-rule="evenodd">
        <path stroke="#FFF" stroke-linecap="round" stroke-width="1.5" d="M4.631 4.981L16.625 16.974M4.631 4.981L18.777 9.971M4.631 4.981L2.799 16.84M4.631 4.981L16.59 3.986M4.631 4.981L9.2 19.268"/>
        <path fill="#FBFBFB" d="M16 6c1.105 0 2-.895 2-2s-.895-2-2-2-2 .895-2 2 .895 2 2 2zM18 12c1.105 0 2-.895 2-2s-.895-2-2-2-2 .895-2 2 .895 2 2 2zM16.204 18.42c1.104 0 2-.896 2-2 0-1.105-.896-2-2-2-1.105 0-2 .895-2 2 0 1.104.895 2 2 2zM9.543 20.924c1.062-.3 1.681-1.404 1.381-2.466-.3-1.063-1.404-1.682-2.467-1.382-1.062.3-1.681 1.404-1.381 2.467.3 1.062 1.404 1.681 2.467 1.381zM2.68 17.974c1.09.177 2.117-.564 2.294-1.654.177-1.09-.564-2.117-1.654-2.294-1.09-.177-2.117.564-2.294 1.654-.177 1.09.564 2.117 1.654 2.294z"/>
        <path fill="#FFF" d="M7.46 7.188c1.562-1.562 1.562-4.095 0-5.657-1.563-1.562-4.095-1.562-5.657 0C.24 3.093.24 5.626 1.803 7.188c1.562 1.562 4.095 1.562 5.657 0z"/>
    </g>
</svg>
