<svg  xmlns="http://www.w3.org/2000/svg" width="26" height="26" viewBox="0 0 26 26">
    <g fill="none" fill-rule="evenodd">
        <path stroke="#FFF" stroke-linecap="round" stroke-width="1.5" d="M12.998 7.404L24.404 13.002" transform="rotate(90 18.701 10.203)"/>
        <path stroke="#FFF" stroke-linecap="round" stroke-width="1.5" d="M13.015 -3.483L13.517 12.985" transform="rotate(90 13.266 4.75)"/>
        <path stroke="#FFF" stroke-linecap="round" stroke-width="1.5" d="M13.013 12.512L29.513 12.988" transform="rotate(90 21.263 12.75)"/>
        <path stroke="#FFF" stroke-linecap="round" stroke-width="1.5" d="M13.017 1.268L18.268 12.983" transform="rotate(90 15.643 7.125)"/>
        <path fill="#FFF" d="M18.672 7.328c1.562 1.562 4.094 1.562 5.656 0 1.563-1.562 1.563-4.094 0-5.656-1.562-1.563-4.094-1.563-5.656 0-1.563 1.562-1.563 4.094 0 5.656z"/>
        <path stroke="#FFF" stroke-linecap="round" stroke-width="1.5" d="M1.268 12.983L13.017 18.268" transform="rotate(-90 7.143 15.625)"/>
        <path stroke="#FFF" stroke-linecap="round" stroke-width="1.5" d="M12.512 12.988L13.012 29.512" transform="rotate(-90 12.762 21.25)"/>
        <path stroke="#FFF" stroke-linecap="round" stroke-width="1.5" d="M-3.483 12.984L13.015 13.518" transform="rotate(-90 4.766 13.25)"/>
        <path stroke="#FFF" stroke-linecap="round" stroke-width="1.5" d="M7.404 13.002L12.998 24.404" transform="rotate(-90 10.201 18.703)"/>
        <path fill="#FFF" d="M7.328 18.672c-1.562-1.562-4.094-1.562-5.656 0-1.563 1.562-1.563 4.094 0 5.656 1.562 1.563 4.094 1.563 5.656 0 1.563-1.562 1.563-4.094 0-5.656z"/>
        <path fill="#FBFBFB" d="M5 7c1.105 0 2-.895 2-2s-.895-2-2-2-2 .895-2 2 .895 2 2 2zM8.571 11.4c.781.78 2.047.78 2.829 0 .78-.782.78-2.048 0-2.829-.782-.781-2.048-.781-2.829 0-.781.781-.781 2.047 0 2.828zM14.665 17.387c.963.54 2.182.196 2.722-.768.54-.963.196-2.182-.768-2.721-.963-.54-2.182-.196-2.721.767-.54.963-.196 2.182.767 2.722zM20.68 22.974c1.09.177 2.117-.564 2.294-1.654.177-1.09-.564-2.117-1.654-2.294-1.09-.177-2.117.564-2.294 1.654-.177 1.09.564 2.117 1.654 2.294z"/>
    </g>
</svg>
